<svg width="26" height="23" viewBox="0 0 26 23" fill="none" xmlns="http://www.w3.org/2000/svg">
<path d="M7.91766 18.1715L12.7462 23L17.5743 18.1715L16.5941 17.1913L13.4396 20.3463V10.9435H12.0529V20.3463L8.89831 17.1913L7.91766 18.1715Z" fill="white"/>
<path d="M20.1451 4.67593C19.9155 4.67593 19.6837 4.69103 19.4527 4.72086C18.2796 3.00378 16.1442 2.08041 14.0587 2.46444C13.0762 0.936166 11.3788 0 9.5495 0C6.78351 0 4.50877 2.08002 4.21776 4.79973C1.75237 5.32852 0 7.47721 0 10.0412C0 12.9992 2.40671 15.4059 5.36472 15.4059H10.7221V14.0311H5.36517C3.16513 14.0311 1.37522 12.2412 1.37522 10.0411C1.37522 7.9918 2.91037 6.28617 4.94546 6.07358L5.56045 5.93428V5.36376C5.56045 3.16417 7.34991 1.37426 9.54995 1.37426C11.0576 1.37426 12.42 2.21239 13.1055 3.5615L13.3635 4.06877L13.9097 3.91024C15.7166 3.38646 17.6289 4.215 18.5119 5.80969L18.7603 6.25832L19.2616 6.14833C19.5549 6.08373 19.8514 6.05075 20.1447 6.05075C22.3352 6.05075 24.1173 7.84066 24.1173 10.0407C24.1173 12.2403 22.3274 14.0307 20.1273 14.0307H14.7323V15.4055H20.1263C23.0843 15.4055 25.491 12.9988 25.491 10.0408C25.491 7.08269 23.093 4.67593 20.1451 4.67593Z" fill="white"/>
</svg>
