<svg width="128" height="128" viewBox="0 0 128 128" fill="none" xmlns="http://www.w3.org/2000/svg">
<g clip-path="url(#clip0_325_606)">
<path d="M63.5141 48.1035C54.5704 48.1035 47.3563 55.4178 47.3563 64.4857C47.3563 73.5537 54.5704 80.868 63.5141 80.868C72.4579 80.868 79.6719 73.5537 79.6719 64.4857C79.6719 55.4178 72.4579 48.1035 63.5141 48.1035ZM63.5141 75.1363C57.7344 75.1363 53.0094 70.3599 53.0094 64.4857C53.0094 58.6115 57.7204 53.8351 63.5141 53.8351C69.3079 53.8351 74.0188 58.6115 74.0188 64.4857C74.0188 70.3599 69.2938 75.1363 63.5141 75.1363ZM84.1016 47.4334C84.1016 49.5578 82.4141 51.2545 80.3329 51.2545C78.2376 51.2545 76.5641 49.5435 76.5641 47.4334C76.5641 45.3232 78.2516 43.6123 80.3329 43.6123C82.4141 43.6123 84.1016 45.3232 84.1016 47.4334ZM94.8032 51.3115C94.5641 46.193 93.411 41.659 89.7126 37.9234C86.0282 34.1879 81.5563 33.0187 76.5079 32.7621C71.3047 32.4627 55.7094 32.4627 50.5063 32.7621C45.4719 33.0045 41 34.1736 37.3016 37.9092C33.6032 41.6447 32.4641 46.1787 32.211 51.2973C31.9157 56.5726 31.9157 72.3846 32.211 77.6599C32.45 82.7785 33.6032 87.3125 37.3016 91.048C41 94.7836 45.4579 95.9527 50.5063 96.2094C55.7094 96.5088 71.3047 96.5088 76.5079 96.2094C81.5563 95.967 86.0282 94.7978 89.7126 91.048C93.3969 87.3125 94.5501 82.7785 94.8032 77.6599C95.0985 72.3846 95.0985 56.5869 94.8032 51.3115ZM88.0813 83.3203C86.9844 86.1148 84.861 88.2678 82.0907 89.3941C77.9422 91.0623 68.0985 90.6773 63.5141 90.6773C58.9297 90.6773 49.0719 91.048 44.9375 89.3941C42.1813 88.282 40.0579 86.1291 38.9469 83.3203C37.3016 79.1142 37.6813 69.1338 37.6813 64.4857C37.6813 59.8377 37.3157 49.843 38.9469 45.6512C40.0438 42.8566 42.1672 40.7037 44.9375 39.5773C49.086 37.9092 58.9297 38.2941 63.5141 38.2941C68.0985 38.2941 77.9563 37.9234 82.0907 39.5773C84.8469 40.6894 86.9704 42.8424 88.0813 45.6512C89.7266 49.8572 89.3469 59.8377 89.3469 64.4857C89.3469 69.1338 89.7266 79.1285 88.0813 83.3203Z" fill="white"/>
</g>
<circle cx="64" cy="64" r="61.5" stroke="#458BD0" stroke-width="5"/>
<defs>
<clipPath id="clip0_325_606">
<rect width="63" height="73" fill="white" transform="translate(32 28)"/>
</clipPath>
</defs>
</svg>
