<svg width="128" height="128" viewBox="0 0 128 128" fill="none" xmlns="http://www.w3.org/2000/svg">
<path d="M93.9813 49.0563C93.2616 46.3772 91.1411 44.2672 88.4487 43.5511C83.5686 42.25 64 42.25 64 42.25C64 42.25 44.4314 42.25 39.5512 43.5511C36.8589 44.2673 34.7384 46.3772 34.0187 49.0563C32.7111 53.9123 32.7111 64.044 32.7111 64.044C32.7111 64.044 32.7111 74.1756 34.0187 79.0316C34.7384 81.7107 36.8589 83.7328 39.5512 84.4489C44.4314 85.75 64 85.75 64 85.75C64 85.75 83.5685 85.75 88.4487 84.4489C91.1411 83.7328 93.2616 81.7107 93.9813 79.0316C95.2889 74.1756 95.2889 64.044 95.2889 64.044C95.2889 64.044 95.2889 53.9123 93.9813 49.0563ZM57.5999 73.2427V54.8452L73.9554 64.0442L57.5999 73.2427Z" fill="white"/>
<circle cx="64" cy="64" r="61.5" stroke="#458BD0" stroke-width="5"/>
</svg>
