<svg width="342" height="149" viewBox="0 0 342 149" fill="none" xmlns="http://www.w3.org/2000/svg">
<path d="M336.29 129.114C335.645 129.114 335.082 128.99 334.6 128.742C334.119 128.494 333.744 128.122 333.474 127.626C333.214 127.13 333.084 126.51 333.084 125.766V121.228H334.11V125.647C334.11 126.48 334.307 127.11 334.701 127.537C335.106 127.953 335.669 128.161 336.391 128.161C336.92 128.161 337.377 128.052 337.762 127.834C338.157 127.606 338.455 127.279 338.657 126.852C338.869 126.426 338.975 125.915 338.975 125.32V121.229H340V129.039H339.018V126.897L339.177 127.284C338.936 127.859 338.561 128.31 338.051 128.638C337.55 128.955 336.963 129.114 336.29 129.114ZM335.611 120.008L337.589 118.164H338.961L336.622 120.008H335.611Z" fill="white"/>
<path d="M326.385 129.114C325.664 129.114 325.014 128.945 324.436 128.608C323.869 128.271 323.421 127.804 323.094 127.209C322.767 126.604 322.603 125.91 322.603 125.126C322.603 124.333 322.767 123.639 323.094 123.044C323.421 122.449 323.869 121.987 324.436 121.66C325.014 121.323 325.664 121.154 326.385 121.154C327.05 121.154 327.642 121.308 328.161 121.615C328.691 121.923 329.109 122.374 329.417 122.969C329.735 123.554 329.894 124.273 329.894 125.126C329.894 125.97 329.74 126.689 329.432 127.284C329.124 127.879 328.705 128.335 328.176 128.652C327.656 128.96 327.059 129.114 326.385 129.114ZM326.458 128.176C326.997 128.176 327.478 128.052 327.901 127.804C328.335 127.547 328.671 127.19 328.912 126.733C329.162 126.267 329.287 125.731 329.287 125.126C329.287 124.512 329.162 123.976 328.912 123.52C328.671 123.063 328.335 122.711 327.901 122.463C327.478 122.206 326.997 122.077 326.458 122.077C325.928 122.077 325.452 122.206 325.028 122.463C324.605 122.711 324.268 123.063 324.018 123.52C323.768 123.976 323.642 124.512 323.642 125.126C323.642 125.731 323.768 126.267 324.018 126.733C324.268 127.19 324.605 127.547 325.028 127.804C325.452 128.052 325.928 128.176 326.458 128.176ZM329.316 129.039V126.689L329.417 125.112L329.273 123.535V118H330.298V129.039H329.316Z" fill="white"/>
<path d="M317.478 121.154C318.094 121.154 318.633 121.278 319.095 121.526C319.566 121.764 319.932 122.131 320.192 122.627C320.461 123.123 320.596 123.748 320.596 124.502V129.04H319.571V124.606C319.571 123.783 319.369 123.163 318.965 122.746C318.57 122.32 318.012 122.107 317.29 122.107C316.751 122.107 316.279 122.221 315.875 122.449C315.48 122.667 315.172 122.989 314.951 123.416C314.739 123.832 314.633 124.338 314.633 124.933V129.04H313.608V121.229H314.59V123.371L314.431 122.97C314.672 122.404 315.057 121.963 315.586 121.645C316.116 121.318 316.746 121.154 317.478 121.154Z" fill="white"/>
<path d="M309.84 129.039V127.313L309.797 127.031V124.144C309.797 123.48 309.614 122.969 309.248 122.612C308.892 122.255 308.358 122.076 307.646 122.076C307.155 122.076 306.688 122.161 306.245 122.329C305.803 122.498 305.427 122.721 305.119 122.999L304.657 122.21C305.042 121.873 305.504 121.615 306.043 121.437C306.582 121.248 307.15 121.154 307.747 121.154C308.729 121.154 309.484 121.407 310.014 121.913C310.553 122.409 310.822 123.168 310.822 124.189V129.039L309.84 129.039ZM307.227 129.114C306.659 129.114 306.164 129.019 305.74 128.831C305.326 128.633 305.009 128.365 304.787 128.028C304.566 127.681 304.455 127.284 304.455 126.837C304.455 126.431 304.547 126.064 304.729 125.737C304.922 125.399 305.23 125.131 305.653 124.933C306.087 124.725 306.664 124.621 307.386 124.621H309.999V125.409H307.415C306.683 125.409 306.173 125.543 305.884 125.811C305.605 126.079 305.466 126.411 305.466 126.808C305.466 127.254 305.634 127.611 305.971 127.879C306.308 128.147 306.78 128.281 307.386 128.281C307.963 128.281 308.459 128.147 308.873 127.879C309.297 127.601 309.605 127.204 309.797 126.689L310.028 127.418C309.835 127.933 309.499 128.345 309.017 128.653C308.546 128.96 307.949 129.114 307.227 129.114Z" fill="white"/>
<path d="M300.081 129.114C299.455 129.114 298.863 129.025 298.305 128.846C297.747 128.658 297.309 128.425 296.991 128.147L297.453 127.314C297.761 127.552 298.156 127.76 298.637 127.938C299.118 128.107 299.623 128.191 300.153 128.191C300.875 128.191 301.394 128.077 301.712 127.849C302.03 127.611 302.189 127.299 302.189 126.912C302.189 126.624 302.097 126.401 301.914 126.242C301.741 126.074 301.51 125.95 301.221 125.87C300.932 125.781 300.61 125.707 300.254 125.647C299.898 125.588 299.542 125.518 299.186 125.439C298.839 125.359 298.521 125.245 298.233 125.097C297.944 124.938 297.708 124.725 297.525 124.457C297.352 124.189 297.265 123.832 297.265 123.386C297.265 122.959 297.381 122.577 297.612 122.24C297.843 121.903 298.18 121.64 298.623 121.452C299.075 121.253 299.624 121.154 300.268 121.154C300.759 121.154 301.25 121.223 301.741 121.362C302.232 121.491 302.636 121.665 302.954 121.883L302.506 122.731C302.169 122.493 301.808 122.324 301.423 122.225C301.038 122.116 300.653 122.061 300.268 122.061C299.585 122.061 299.08 122.185 298.752 122.433C298.435 122.671 298.276 122.979 298.276 123.356C298.276 123.653 298.363 123.886 298.536 124.055C298.719 124.224 298.955 124.358 299.243 124.457C299.542 124.546 299.864 124.62 300.211 124.68C300.567 124.739 300.918 124.814 301.265 124.903C301.621 124.982 301.943 125.096 302.232 125.245C302.53 125.384 302.766 125.588 302.939 125.855C303.122 126.113 303.214 126.455 303.214 126.882C303.214 127.338 303.088 127.735 302.838 128.072C302.598 128.399 302.241 128.657 301.77 128.846C301.308 129.024 300.745 129.114 300.081 129.114Z" fill="white"/>
<path d="M290.364 132C290.008 132 289.667 131.941 289.339 131.822C289.022 131.703 288.747 131.524 288.516 131.286L288.993 130.497C289.185 130.686 289.392 130.83 289.614 130.929C289.845 131.038 290.1 131.093 290.379 131.093C290.716 131.093 291.004 130.993 291.245 130.795C291.495 130.607 291.731 130.269 291.952 129.783L292.443 128.638L292.559 128.474L295.677 121.229H296.688L292.891 129.977C292.679 130.482 292.443 130.884 292.183 131.182C291.933 131.479 291.659 131.688 291.361 131.807C291.062 131.936 290.73 132 290.364 132ZM292.386 129.263L288.892 121.229H289.96L293.05 128.4L292.386 129.263Z" fill="white"/>
<path d="M286.683 129.039V127.313L286.639 127.031V124.144C286.639 123.48 286.457 122.969 286.091 122.612C285.735 122.255 285.201 122.076 284.488 122.076C283.997 122.076 283.531 122.161 283.088 122.329C282.645 122.498 282.27 122.721 281.962 122.999L281.5 122.21C281.885 121.873 282.347 121.615 282.886 121.437C283.425 121.248 283.993 121.154 284.589 121.154C285.571 121.154 286.327 121.407 286.856 121.913C287.395 122.409 287.664 123.168 287.664 124.189V129.039L286.683 129.039ZM284.07 129.114C283.502 129.114 283.006 129.019 282.583 128.831C282.169 128.633 281.851 128.365 281.63 128.028C281.408 127.681 281.298 127.284 281.298 126.837C281.298 126.431 281.389 126.064 281.572 125.737C281.764 125.399 282.072 125.131 282.496 124.933C282.929 124.725 283.507 124.621 284.228 124.621H286.842V125.409H284.257C283.526 125.409 283.016 125.543 282.727 125.811C282.448 126.079 282.308 126.411 282.308 126.808C282.308 127.254 282.477 127.611 282.814 127.879C283.15 128.147 283.622 128.281 284.228 128.281C284.806 128.281 285.302 128.147 285.715 127.879C286.139 127.601 286.447 127.204 286.639 126.689L286.87 127.418C286.678 127.933 286.341 128.345 285.86 128.653C285.388 128.96 284.791 129.114 284.07 129.114Z" fill="white"/>
<path d="M272 129.039V118.625H275.783C276.639 118.625 277.376 118.769 277.992 119.056C278.608 119.334 279.079 119.741 279.406 120.276C279.743 120.802 279.912 121.442 279.912 122.196C279.912 122.93 279.743 123.564 279.406 124.1C279.079 124.626 278.608 125.032 277.992 125.32C277.376 125.608 276.639 125.751 275.783 125.751H272.592L273.068 125.231V129.039H272ZM273.068 125.32L272.592 124.784H275.754C276.764 124.784 277.53 124.561 278.049 124.115C278.579 123.659 278.843 123.019 278.843 122.196C278.843 121.362 278.579 120.718 278.049 120.261C277.53 119.805 276.764 119.577 275.754 119.577H272.592L273.068 119.056V125.32Z" fill="white"/>
<path d="M327.466 115.223C325.523 115.223 323.731 114.909 322.09 114.28C320.448 113.652 319.014 112.768 317.789 111.628C316.586 110.465 315.65 109.116 314.979 107.58C314.308 106.045 313.973 104.358 313.973 102.52C313.973 100.682 314.308 98.9951 314.979 97.4596C315.65 95.9241 316.586 94.5864 317.789 93.4463C319.014 92.2831 320.448 91.3873 322.09 90.7592C323.731 90.131 325.523 89.8169 327.466 89.8169C329.431 89.8169 331.223 90.131 332.842 90.7592C334.484 91.3873 335.906 92.2831 337.108 93.4463C338.311 94.5864 339.247 95.9241 339.918 97.4596C340.612 98.9951 340.958 100.682 340.958 102.52C340.958 104.358 340.612 106.056 339.918 107.615C339.247 109.15 338.311 110.488 337.108 111.628C335.906 112.768 334.484 113.652 332.842 114.28C331.223 114.909 329.431 115.223 327.466 115.223ZM327.466 109.499C328.391 109.499 329.246 109.336 330.033 109.011C330.842 108.685 331.536 108.22 332.114 107.615C332.715 106.987 333.177 106.242 333.501 105.381C333.848 104.521 334.021 103.567 334.021 102.52C334.021 101.45 333.848 100.496 333.501 99.6581C333.177 98.7973 332.715 98.0645 332.114 97.4596C331.536 96.8314 330.842 96.3545 330.033 96.0288C329.246 95.7031 328.391 95.5402 327.466 95.5402C326.541 95.5402 325.674 95.7031 324.864 96.0288C324.078 96.3545 323.384 96.8314 322.783 97.4596C322.205 98.0645 321.743 98.7973 321.396 99.6581C321.072 100.496 320.91 101.45 320.91 102.52C320.91 103.567 321.072 104.521 321.396 105.381C321.743 106.242 322.205 106.987 322.783 107.615C323.384 108.22 324.078 108.685 324.864 109.011C325.674 109.336 326.541 109.499 327.466 109.499Z" fill="white"/>
<path d="M327.468 89.7754C325.521 89.7754 323.726 90.0943 322.079 90.7244C320.433 91.3543 318.994 92.2447 317.765 93.4117C316.558 94.5555 315.617 95.9024 314.944 97.4427C314.271 98.9838 313.936 100.674 313.936 102.517C313.936 104.36 314.271 106.059 314.944 107.6C315.617 109.14 316.558 110.492 317.765 111.659C318.994 112.803 320.433 113.688 322.079 114.318C323.726 114.948 325.521 115.267 327.468 115.267C329.438 115.267 331.233 114.948 332.856 114.318C334.503 113.688 335.927 112.803 337.134 111.659C338.34 110.516 339.281 109.169 339.954 107.628C340.65 106.064 341 104.36 341 102.517C341 100.673 340.65 98.9839 339.954 97.4427C339.281 95.9024 338.34 94.5555 337.134 93.4117C335.927 92.2445 334.503 91.3543 332.856 90.7244C331.233 90.0942 329.438 89.7754 327.468 89.7754ZM327.468 89.8601C329.429 89.8601 331.215 90.1738 332.828 90.7997C334.465 91.4261 335.879 92.3183 337.078 93.4777C338.276 94.614 339.211 95.9498 339.879 97.4804C340.57 99.0103 340.916 100.684 340.916 102.517C340.916 104.35 340.571 106.047 339.879 107.6C339.211 109.131 338.276 110.457 337.078 111.594C335.879 112.73 334.466 113.617 332.828 114.243C331.215 114.869 329.429 115.183 327.468 115.183C325.53 115.183 323.744 114.87 322.107 114.243C320.47 113.617 319.042 112.73 317.821 111.594C316.625 110.435 315.686 109.091 315.019 107.563C314.351 106.033 314.01 104.35 314.01 102.517C314.01 100.684 314.351 99.0104 315.019 97.4804C315.687 95.9498 316.622 94.614 317.821 93.4777C319.042 92.3181 320.47 91.4261 322.107 90.7997C323.744 90.1735 325.53 89.8601 327.468 89.8601ZM327.468 95.4978C326.538 95.4978 325.667 95.6585 324.853 95.9864C324.061 96.3141 323.357 96.8014 322.752 97.4335C322.17 98.0424 321.709 98.7765 321.36 99.6416C321.034 100.485 320.865 101.442 320.865 102.517C320.865 103.568 321.034 104.526 321.36 105.392V105.402C321.709 106.267 322.17 107.015 322.752 107.647C323.356 108.256 324.062 108.72 324.853 109.047C325.667 109.375 326.538 109.536 327.468 109.536C328.397 109.536 329.254 109.375 330.045 109.047C330.86 108.72 331.564 108.257 332.147 107.647C332.75 107.017 333.213 106.264 333.538 105.402V105.392C333.885 104.528 334.061 103.565 334.061 102.517C334.061 101.442 333.887 100.485 333.538 99.6416C333.213 98.7759 332.752 98.0427 332.147 97.4335C331.564 96.8008 330.86 96.3143 330.045 95.9864C329.254 95.6583 328.397 95.4978 327.468 95.4978ZM327.468 95.5824C328.388 95.5824 329.236 95.7474 330.017 96.071C330.821 96.3948 331.507 96.8661 332.081 97.4898C332.678 98.0904 333.142 98.8139 333.463 99.6698C333.808 100.502 333.977 101.451 333.977 102.517C333.977 103.559 333.808 104.508 333.463 105.364C333.141 106.22 332.679 106.967 332.081 107.591C331.507 108.191 330.822 108.648 330.017 108.972C329.236 109.296 328.388 109.461 327.468 109.461C326.548 109.461 325.685 109.296 324.881 108.972C324.104 108.65 323.412 108.187 322.817 107.591L322.807 107.581C322.237 106.959 321.778 106.216 321.435 105.364C321.113 104.508 320.949 103.559 320.949 102.517C320.949 101.451 321.113 100.502 321.435 99.6696C321.78 98.8131 322.243 98.0905 322.817 97.4897C323.414 96.8654 324.1 96.3944 324.881 96.0709C325.685 95.7471 326.548 95.5824 327.468 95.5824Z" fill="white"/>
<path d="M299.236 115.223C297.317 115.223 295.537 114.92 293.895 114.315C292.276 113.687 290.866 112.803 289.663 111.663C288.484 110.523 287.559 109.185 286.888 107.65C286.218 106.091 285.883 104.381 285.883 102.52C285.883 100.658 286.218 98.9601 286.888 97.4246C287.559 95.8658 288.484 94.5166 289.663 93.3766C290.866 92.2366 292.276 91.364 293.895 90.7592C295.537 90.131 297.317 89.8169 299.236 89.8169C301.479 89.8169 303.48 90.2125 305.237 91.0035C307.017 91.7945 308.497 92.9344 309.677 94.4234L305.306 98.4018C304.52 97.4712 303.653 96.7615 302.705 96.273C301.78 95.7844 300.739 95.5402 299.583 95.5402C298.589 95.5402 297.676 95.7031 296.843 96.0288C296.011 96.3545 295.294 96.8314 294.693 97.4596C294.115 98.0645 293.652 98.7973 293.305 99.6581C292.981 100.519 292.82 101.473 292.82 102.52C292.82 103.567 292.981 104.521 293.305 105.381C293.652 106.242 294.115 106.987 294.693 107.615C295.294 108.22 296.011 108.685 296.843 109.011C297.676 109.336 298.589 109.499 299.583 109.499C300.739 109.499 301.78 109.255 302.705 108.766C303.653 108.278 304.52 107.568 305.306 106.638L309.677 110.616C308.497 112.082 307.017 113.222 305.237 114.036C303.48 114.827 301.479 115.223 299.236 115.223Z" fill="white"/>
<path d="M299.236 89.7754C297.312 89.7754 295.531 90.0943 293.885 90.7244C292.261 91.3311 290.842 92.2021 289.635 93.346C288.452 94.4897 287.525 95.8416 286.852 97.4051C286.179 98.9462 285.844 100.65 285.844 102.517C285.844 104.383 286.179 106.102 286.852 107.666C287.525 109.206 288.452 110.553 289.635 111.697C290.842 112.841 292.252 113.726 293.875 114.356H293.885C295.532 114.963 297.313 115.267 299.236 115.267C301.484 115.267 303.487 114.868 305.25 114.074C307.036 113.257 308.522 112.115 309.705 110.644L309.733 110.606L305.307 106.575L305.278 106.613C304.495 107.541 303.625 108.242 302.682 108.728C301.764 109.213 300.732 109.46 299.582 109.46C298.592 109.46 297.682 109.296 296.855 108.972C296.027 108.648 295.323 108.182 294.725 107.581C294.153 106.958 293.687 106.218 293.343 105.364C293.021 104.508 292.858 103.559 292.858 102.517C292.858 101.474 293.021 100.525 293.343 99.6696C293.688 98.8131 294.151 98.0905 294.725 97.4897C295.323 96.8658 296.027 96.3945 296.855 96.0709C297.682 95.7471 298.592 95.5823 299.582 95.5823C300.732 95.5823 301.764 95.8204 302.682 96.3058C303.625 96.7916 304.495 97.5022 305.278 98.4293L305.307 98.4582L309.733 94.4273L309.705 94.3983C308.522 92.9042 307.037 91.7622 305.25 90.9687C303.487 90.175 301.484 89.7754 299.236 89.7754ZM299.236 89.8601C301.474 89.8601 303.471 90.2556 305.222 91.044C306.982 91.8259 308.441 92.9517 309.612 94.4173L305.306 98.3449C304.524 97.4268 303.662 96.7257 302.719 96.2401C301.788 95.7483 300.743 95.4978 299.581 95.4978C298.583 95.4978 297.664 95.6585 296.826 95.9864C295.989 96.3141 295.265 96.801 294.66 97.4335C294.078 98.0424 293.617 98.7765 293.268 99.6416C292.943 100.508 292.783 101.466 292.783 102.517C292.783 103.568 292.943 104.526 293.268 105.392V105.402C293.617 106.267 294.078 107.015 294.66 107.647C295.265 108.256 295.989 108.72 296.826 109.047C297.664 109.375 298.583 109.536 299.581 109.536C300.743 109.536 301.788 109.295 302.719 108.803C303.66 108.319 304.516 107.604 305.297 106.689L309.612 110.617C308.441 112.06 306.983 113.194 305.222 113.999C303.471 114.787 301.474 115.183 299.236 115.183C297.321 115.183 295.55 114.884 293.913 114.281C292.299 113.655 290.89 112.768 289.691 111.631C288.516 110.495 287.596 109.169 286.927 107.638C286.259 106.085 285.928 104.373 285.928 102.517C285.928 100.661 286.259 98.9729 286.927 97.443C287.596 95.889 288.516 94.5388 289.691 93.4026C290.89 92.2664 292.299 91.403 293.913 90.7999C295.55 90.1736 297.321 89.8601 299.236 89.8601Z" fill="white"/>
<path d="M272.359 114.734V90.3052H279.227V114.734H272.359Z" fill="white"/>
<path d="M248.188 114.734V90.3057H255.056V109.255H266.641V114.734H248.188Z" fill="white"/>
<path d="M248.152 90.2642V114.779H248.189H266.68V109.216H255.1V90.2642H248.152ZM248.226 90.3489H255.016V109.301H266.596V114.695H248.226L248.226 90.3489Z" fill="white"/>
<path d="M218.502 114.734V90.3057H230.919C234.11 90.3057 236.492 90.899 238.065 92.0855C239.637 93.2488 240.423 94.7843 240.423 96.692C240.423 97.9484 240.088 99.0534 239.417 100.007C238.77 100.938 237.845 101.682 236.642 102.241C235.463 102.776 234.053 103.043 232.411 103.043L233.105 101.368C234.816 101.368 236.307 101.636 237.579 102.171C238.851 102.683 239.834 103.439 240.527 104.439C241.244 105.417 241.602 106.615 241.602 108.034C241.602 110.151 240.747 111.803 239.036 112.989C237.348 114.153 234.873 114.734 231.613 114.734H218.502ZM225.3 109.744H231.058C232.237 109.744 233.128 109.546 233.729 109.151C234.353 108.732 234.665 108.104 234.665 107.266C234.665 106.428 234.353 105.812 233.729 105.416C233.128 104.998 232.237 104.788 231.058 104.788H224.815V100.007H230.018C231.174 100.007 232.041 99.8095 232.619 99.414C233.197 99.0185 233.486 98.4253 233.486 97.6343C233.486 96.8433 233.197 96.2616 232.619 95.8894C232.041 95.4939 231.174 95.2961 230.018 95.2961H225.3V109.744Z" fill="white"/>
<path d="M218.463 90.2642V114.779H218.5H231.612C234.877 114.779 237.357 114.192 239.055 113.022C240.776 111.829 241.642 110.161 241.642 108.032C241.642 106.606 241.281 105.4 240.559 104.415C239.86 103.407 238.876 102.646 237.598 102.132C237.423 102.058 237.166 102.082 236.982 102.019C237.992 101.485 238.872 100.855 239.448 100.027C240.123 99.0662 240.466 97.955 240.466 96.6913C240.466 94.7722 239.665 93.2192 238.084 92.0496C236.501 90.8579 234.113 90.2643 230.921 90.2643L218.463 90.2642ZM218.547 90.3489H230.921C234.107 90.3489 236.476 90.9368 238.037 92.1154C239.601 93.2722 240.382 94.795 240.382 96.6913C240.382 97.9403 240.048 99.0331 239.382 99.98C238.799 100.819 237.92 101.465 236.879 102C235.747 101.621 234.547 101.324 233.106 101.324H233.078L232.35 103.081H232.415C234.061 103.081 235.469 102.82 236.655 102.282C236.76 102.233 236.797 102.136 236.898 102.085C237.096 102.152 237.372 102.128 237.561 102.207C238.827 102.716 239.805 103.469 240.493 104.462C241.205 105.431 241.558 106.621 241.558 108.033C241.558 110.139 240.71 111.776 239.009 112.956C237.331 114.113 234.868 114.695 231.612 114.695H218.547L218.547 90.3489ZM225.262 95.2537V99.9706H224.776V104.828H225.262V109.78H225.299H231.061C232.245 109.78 233.139 109.591 233.751 109.188C234.386 108.763 234.703 108.11 234.703 107.262C234.703 106.414 234.386 105.785 233.751 105.383C233.139 104.957 232.245 104.744 231.061 104.744H225.346V100.046H230.015C231.176 100.046 232.051 99.8471 232.639 99.4444C233.228 99.0418 233.527 98.4321 233.527 97.631C233.527 96.8298 233.229 96.2345 232.639 95.8551C232.051 95.4524 231.176 95.2537 230.015 95.2537H225.262ZM225.346 95.3383H230.015C231.167 95.3383 232.025 95.5326 232.593 95.9208C233.16 96.286 233.443 96.8501 233.443 97.631C233.443 98.4119 233.16 98.9903 232.593 99.3786C232.025 99.7669 231.167 99.9706 230.015 99.9706H225.346V95.3383ZM224.86 100.046H225.262V104.744H224.86V100.046ZM233.134 101.408C234.535 101.411 235.693 101.704 236.795 102.066C236.723 102.1 236.701 102.172 236.627 102.207C235.472 102.731 234.086 102.988 232.481 102.996L233.134 101.408ZM225.346 104.828H231.061C232.236 104.828 233.113 105.037 233.704 105.449C234.317 105.837 234.629 106.435 234.629 107.262C234.629 108.089 234.318 108.701 233.704 109.113C233.113 109.502 232.236 109.705 231.061 109.705H225.346V104.828Z" fill="white"/>
<path d="M203.73 114.739V90.3101H210.598V114.739H203.73Z" fill="white"/>
<path d="M174.044 114.734V90.3057H186.462C189.653 90.3057 192.034 90.899 193.607 92.0855C195.179 93.2488 195.965 94.7843 195.965 96.692C195.965 97.9484 195.63 99.0534 194.96 100.007C194.312 100.938 193.387 101.682 192.185 102.241C191.005 102.776 189.595 103.043 187.953 103.043L188.647 101.368C190.358 101.368 191.849 101.636 193.121 102.171C194.393 102.683 195.376 103.439 196.069 104.439C196.786 105.417 197.145 106.615 197.145 108.034C197.145 110.151 196.289 111.803 194.578 112.989C192.89 114.153 190.416 114.734 187.155 114.734H174.044ZM180.843 109.744H186.6C187.78 109.744 188.67 109.546 189.271 109.151C189.895 108.732 190.208 108.104 190.208 107.266C190.208 106.428 189.895 105.812 189.271 105.416C188.67 104.998 187.78 104.788 186.6 104.788H180.357V100.007H185.56C186.716 100.007 187.583 99.8095 188.161 99.414C188.739 99.0185 189.028 98.4253 189.028 97.6343C189.028 96.8433 188.739 96.2616 188.161 95.8894C187.583 95.4939 186.716 95.2961 185.56 95.2961H180.843V109.744Z" fill="white"/>
<path d="M174 90.2642V114.779H174.047H187.159C190.424 114.779 192.904 114.192 194.602 113.022C196.323 111.829 197.189 110.161 197.189 108.032C197.189 106.606 196.828 105.4 196.106 104.415C195.407 103.407 194.414 102.646 193.136 102.132C192.963 102.059 192.71 102.082 192.529 102.019C193.538 101.485 194.418 100.855 194.994 100.027C195.67 99.0662 196.003 97.955 196.003 96.6913C196.003 94.7722 195.212 93.2192 193.631 92.0496C192.048 90.855 189.654 90.2643 186.458 90.2643L174 90.2642ZM174.084 90.3489H186.458C189.644 90.3489 192.022 90.9368 193.584 92.1154C195.148 93.2722 195.928 94.795 195.928 96.6913C195.928 97.9403 195.594 99.0331 194.929 99.98C194.345 100.819 193.457 101.465 192.417 102C191.284 101.621 190.084 101.324 188.644 101.324H188.615L187.887 103.081H187.952C189.598 103.081 191.016 102.82 192.202 102.282C192.307 102.233 192.343 102.136 192.444 102.085C192.642 102.152 192.919 102.128 193.107 102.207C194.373 102.716 195.351 103.469 196.04 104.462C196.751 105.431 197.104 106.621 197.104 108.033C197.104 110.139 196.257 111.776 194.555 112.956C192.877 114.113 190.414 114.695 187.158 114.695H174.084L174.084 90.3489ZM180.799 95.2537V99.9706H180.313V104.828H180.799V109.78H180.846H186.598C187.782 109.78 188.686 109.591 189.297 109.188C189.932 108.763 190.25 108.11 190.25 107.262C190.25 106.414 189.933 105.785 189.297 105.383C188.686 104.957 187.783 104.744 186.598 104.744H180.883V100.046H185.562C186.723 100.046 187.598 99.8471 188.186 99.4444C188.775 99.0418 189.073 98.4321 189.073 97.631C189.073 96.8298 188.775 96.2345 188.186 95.8551C187.598 95.4524 186.723 95.2537 185.562 95.2537H180.799ZM180.883 95.3383H185.562C186.713 95.3383 187.572 95.5326 188.139 95.9208C188.706 96.286 188.989 96.8501 188.989 97.631C188.989 98.4119 188.707 98.9903 188.139 99.3786C187.572 99.7669 186.713 99.9706 185.562 99.9706H180.883V95.3383ZM180.397 100.046H180.799V104.744H180.397V100.046ZM188.672 101.408C190.069 101.411 191.232 101.705 192.332 102.066C192.261 102.1 192.238 102.173 192.164 102.207C191.01 102.731 189.623 102.988 188.018 102.996L188.672 101.408ZM180.883 104.828H186.598C187.773 104.828 188.66 105.037 189.251 105.449C189.864 105.837 190.166 106.435 190.166 107.262C190.166 108.089 189.864 108.701 189.251 109.113C188.66 109.502 187.773 109.705 186.598 109.705H180.883V104.828Z" fill="white"/>
<path d="M327.36 84.6495C325.403 84.6495 323.597 84.333 321.942 83.6999C320.287 83.0668 318.842 82.1758 317.607 81.0268C316.395 79.8544 315.451 78.4945 314.776 76.9469C314.1 75.3993 313.762 73.6993 313.762 71.8469C313.762 69.9945 314.1 68.2946 314.776 66.747C315.451 65.1995 316.395 63.8511 317.607 62.7022C318.842 61.5298 320.287 60.6271 321.942 59.9941C323.597 59.3609 325.403 59.0444 327.36 59.0444C329.341 59.0444 331.148 59.3609 332.779 59.9941C334.434 60.6271 335.867 61.5298 337.079 62.7022C338.291 63.8511 339.234 65.1995 339.91 66.747C340.609 68.2946 340.959 69.9945 340.959 71.8469C340.959 73.6993 340.609 75.4111 339.91 76.9821C339.234 78.5297 338.291 79.8779 337.079 81.0268C335.867 82.1758 334.434 83.0668 332.779 83.6999C331.148 84.333 329.341 84.6495 327.36 84.6495ZM327.36 78.8814C328.293 78.8814 329.155 78.7173 329.947 78.389C330.763 78.0607 331.462 77.5918 332.045 76.9821C332.651 76.349 333.117 75.5987 333.443 74.7311C333.793 73.8635 333.967 72.9021 333.967 71.8469C333.967 70.7683 333.793 69.807 333.443 68.9628C333.117 68.0952 332.651 67.3567 332.045 66.747C331.462 66.1139 330.763 65.6332 329.947 65.3049C329.155 64.9766 328.293 64.8126 327.36 64.8126C326.428 64.8126 325.554 64.9766 324.739 65.3049C323.946 65.6332 323.247 66.1139 322.641 66.747C322.058 67.3567 321.592 68.0952 321.243 68.9628C320.917 69.807 320.753 70.7683 320.753 71.8469C320.753 72.9021 320.917 73.8635 321.243 74.7311C321.592 75.5987 322.058 76.349 322.641 76.9821C323.247 77.5918 323.946 78.0607 324.739 78.389C325.554 78.7173 326.428 78.8814 327.36 78.8814Z" fill="white"/>
<path d="M327.36 59C325.398 59 323.588 59.3215 321.929 59.9566C320.269 60.5915 318.819 61.4985 317.58 62.6748C316.364 63.8275 315.415 65.1759 314.737 66.7284C314.059 68.2815 313.72 69.9853 313.72 71.8427C313.72 73.7002 314.059 75.4134 314.737 76.9665C315.415 78.519 316.364 79.882 317.58 81.058C318.819 82.2107 320.269 83.1035 321.929 83.7383C323.588 84.3734 325.398 84.6949 327.36 84.6949C329.345 84.6949 331.155 84.3734 332.792 83.7383C334.451 83.1035 335.887 82.2109 337.103 81.058C338.319 79.9053 339.268 78.5474 339.946 76.995C340.647 75.4184 341 73.7004 341 71.8427C341 69.9851 340.648 68.2816 339.946 66.7284C339.268 65.1759 338.319 63.8275 337.103 62.6748C335.887 61.4984 334.451 60.5915 332.792 59.9566C331.155 59.3214 329.345 59 327.36 59ZM327.36 59.0854C329.337 59.0854 331.137 59.4015 332.763 60.0325C334.413 60.6637 335.839 61.5633 337.046 62.7317C338.254 63.877 339.197 65.2237 339.87 66.7664C340.567 68.3083 340.915 69.9958 340.915 71.8429C340.915 73.6901 340.567 75.4013 339.87 76.9667C339.197 78.5094 338.254 79.8562 337.046 81.0014C335.839 82.1465 334.413 83.0314 332.763 83.6627C331.137 84.2938 329.337 84.6098 327.36 84.6098C325.407 84.6098 323.606 84.2937 321.957 83.6627C320.307 83.0314 318.867 82.1466 317.636 81.0014C316.428 79.8327 315.486 78.4715 314.812 76.9288C314.139 75.3868 313.805 73.6902 313.805 71.8429C313.805 69.9956 314.139 68.3084 314.812 66.7664C315.486 65.2237 316.428 63.877 317.636 62.7317C318.867 61.5631 320.307 60.6638 321.957 60.0325C323.606 59.4013 325.407 59.0854 327.36 59.0854ZM327.36 64.768C326.423 64.768 325.545 64.9397 324.724 65.27C323.927 65.6002 323.226 66.082 322.616 66.719C322.029 67.3328 321.555 68.0729 321.204 68.9447C320.875 69.7945 320.714 70.7601 320.714 71.8429C320.714 72.9024 320.876 73.8777 321.204 74.7505C321.555 75.6222 322.02 76.377 322.606 77.0141H322.616C323.226 77.6275 323.927 78.095 324.725 78.4252C325.545 78.7555 326.423 78.9272 327.36 78.9272C328.294 78.9272 329.163 78.7531 329.958 78.4252C330.779 78.095 331.49 77.628 332.076 77.0141C332.686 76.3768 333.151 75.6229 333.479 74.7505C333.831 73.8775 334.006 72.9027 334.006 71.8429C334.006 70.7598 333.831 69.7946 333.479 68.9447C333.151 68.0722 332.687 67.333 332.076 66.719C331.492 66.0834 330.786 65.6003 329.968 65.27H329.958C329.163 64.9417 328.294 64.768 327.36 64.768ZM327.36 64.8534C328.288 64.8534 329.143 65.0197 329.93 65.3459C330.74 65.6722 331.432 66.1474 332.01 66.776H332.02C332.622 67.3813 333.079 68.1201 333.404 68.9828C333.751 69.8211 333.931 70.769 333.931 71.843C333.931 72.8936 333.751 73.8506 333.404 74.7127C333.079 75.5755 332.622 76.3284 332.02 76.9574C331.441 77.5627 330.741 78.0234 329.93 78.3496C329.143 78.6755 328.288 78.8421 327.36 78.8421C326.433 78.8421 325.564 78.6758 324.753 78.3496C323.965 78.0233 323.275 77.5632 322.673 76.9574C322.093 76.3282 321.627 75.5761 321.279 74.7127C320.955 73.8504 320.799 72.8939 320.799 71.843C320.799 70.7687 320.955 69.8213 321.279 68.9828C321.627 68.1195 322.094 67.3815 322.673 66.776C323.275 66.1468 323.966 65.672 324.753 65.3459C325.564 65.0195 326.433 64.8534 327.36 64.8534Z" fill="white"/>
<path d="M286.115 84.1575V59.5371H297.301C299.538 59.5371 301.461 59.9006 303.069 60.6275C304.7 61.3544 305.959 62.4094 306.845 63.7929C307.73 65.1529 308.173 66.7708 308.173 68.6466C308.173 70.499 307.73 72.1052 306.845 73.4651C305.959 74.8017 304.7 75.8335 303.069 76.5604C301.461 77.2639 299.538 77.6155 297.301 77.6155H289.96L293.036 74.6962V84.1575H286.115ZM301.251 84.1575L295.169 75.1886H302.545L308.662 84.1575H301.251ZM293.036 75.4348L289.96 72.2342H296.882C298.326 72.2342 299.399 71.9177 300.098 71.2846C300.82 70.6515 301.181 69.7721 301.181 68.6466C301.181 67.4977 300.82 66.6067 300.098 65.9736C299.399 65.3405 298.326 65.0239 296.882 65.0239H289.96L293.036 61.8233V75.4348Z" fill="white"/>
<path d="M286.073 59.4927V84.2026H286.111H293.077V77.6581H296.795L301.228 84.2026H301.247H308.74L303.384 76.3511C304.837 75.6345 306.057 74.7277 306.877 73.4909C307.767 72.1236 308.213 70.5102 308.213 68.6512C308.213 66.7688 307.767 65.1409 306.877 63.7736C305.986 62.3832 304.721 61.321 303.083 60.5913C301.468 59.8615 299.545 59.4927 297.303 59.4927H286.073ZM286.158 59.5781H297.303C299.536 59.5781 301.453 59.9432 303.055 60.6672C304.68 61.3913 305.93 62.4352 306.811 63.8116C307.691 65.1643 308.129 66.7821 308.129 68.6513C308.129 70.4971 307.692 72.0909 306.811 73.4437C305.996 74.6724 304.787 75.5733 303.337 76.285L302.565 75.1484H295.091L296.738 77.573H293.077V75.5368V75.4324V74.599V72.2786H296.88C298.331 72.2786 299.418 71.9551 300.127 71.3125C300.859 70.6714 301.219 69.7856 301.219 68.6512C301.219 67.4935 300.859 66.5837 300.127 65.9424C299.418 65.2998 298.331 64.9859 296.88 64.9859H293.077V61.7184L289.867 65.0616H292.992V72.1933H289.867L292.606 75.0441L289.857 77.6581H292.992V84.1174H286.158V59.5781ZM292.992 61.9269V64.986H290.055L292.992 61.9269ZM293.077 65.0618H296.88C298.319 65.0618 299.382 65.3852 300.071 66.0089C300.784 66.6338 301.144 67.5111 301.144 68.6513C301.144 69.7679 300.784 70.6308 300.071 71.2558C299.382 71.8794 298.319 72.1935 296.88 72.1935H293.077V65.0618ZM290.064 72.2787H292.992V74.6749L292.672 74.9876L290.064 72.2787ZM292.992 74.798V75.3284L292.728 75.0441L292.992 74.798ZM292.662 75.1103L292.992 75.4512V77.5727H290.064L292.662 75.1103ZM295.251 75.2335H302.528L303.281 76.3416C303.187 76.3853 303.151 76.4784 303.055 76.5216C301.453 77.2222 299.536 77.5729 297.303 77.5729H296.833L295.251 75.2335ZM303.328 76.3985L308.58 84.1174H301.276L296.889 77.6581H297.303C299.545 77.6581 301.469 77.3036 303.083 76.5974C303.188 76.5489 303.225 76.4479 303.328 76.3985Z" fill="white"/>
<path d="M266.088 84.1575V65.0592H258.572V59.5371H280.491V65.0592H273.01V84.1575H266.088Z" fill="white"/>
<path d="M258.53 59.4927V65.0995H266.051V84.2026H266.088H273.054V65.0995H280.529V59.4927H258.53ZM258.614 59.5781H280.453V65.0144H272.97V84.1175H266.126V65.0144H258.614V59.5781Z" fill="white"/>
<path d="M229.667 84.1575V59.5371H235.365L248.859 75.9273H246.167V59.5371H252.949V84.1575H247.251L233.757 67.7673H236.449V84.1575H229.667Z" fill="white"/>
<path d="M229.621 59.4927V84.2026H229.668H236.493V71.1515L247.234 84.2026H252.995V59.4927H246.123V72.5438L235.382 59.4927H229.621ZM229.706 59.5781H235.345L246.123 72.6669V75.9724H248.947L246.208 72.6481V59.5781H252.91V84.1175H247.271L236.493 71.0285V67.7232H233.669L236.408 71.0475V84.1175H229.706V59.5781ZM233.848 67.8084H236.408V70.9244L233.848 67.8084ZM246.208 72.7712L248.768 75.8872H246.208V72.7712Z" fill="white"/>
<path d="M209.501 69.0687H220.862V74.2742H209.501V69.0687ZM209.99 78.7762H222.785V84.1575H203.139V59.5371H222.33V64.9184H209.99V78.7762Z" fill="white"/>
<path d="M203.094 59.4927V84.2026H222.825V78.7378H210.032V74.3148H220.904V69.03H210.032V64.9575H222.373V59.4927H203.094ZM203.179 59.5781H222.288V64.8818H209.947V69.03H209.458V69.0689V74.3159H209.947V78.8145H209.995H222.74V84.1182H203.179L203.179 59.5781ZM209.543 69.1059H209.947V74.2297H209.543V69.1059ZM210.032 69.1059H220.82V74.2297H210.032V69.1059Z" fill="white"/>
<path d="M186.503 84.6495C184.569 84.6495 182.774 84.3448 181.12 83.7351C179.488 83.102 178.067 82.211 176.855 81.0621C175.666 79.9131 174.734 78.5648 174.058 77.0172C173.382 75.4462 173.044 73.7228 173.044 71.8469C173.044 69.9711 173.382 68.2594 174.058 66.7118C174.734 65.1408 175.666 63.7808 176.855 62.6319C178.067 61.4829 179.488 60.6037 181.12 59.9941C182.774 59.3609 184.569 59.0444 186.503 59.0444C188.764 59.0444 190.78 59.4431 192.551 60.2403C194.345 61.0375 195.837 62.1864 197.025 63.687L192.621 67.6967C191.828 66.7587 190.954 66.0436 189.999 65.5512C189.067 65.0588 188.018 64.8126 186.853 64.8126C185.851 64.8126 184.93 64.9766 184.091 65.3049C183.252 65.6332 182.53 66.1139 181.924 66.747C181.341 67.3567 180.875 68.0952 180.525 68.9628C180.199 69.8304 180.036 70.7918 180.036 71.8469C180.036 72.9021 180.199 73.8635 180.525 74.7311C180.875 75.5987 181.341 76.349 181.924 76.9821C182.53 77.5918 183.252 78.0607 184.091 78.389C184.93 78.7173 185.851 78.8814 186.853 78.8814C188.018 78.8814 189.067 78.6352 189.999 78.1428C190.954 77.6504 191.828 76.9352 192.621 75.9973L197.025 80.0069C195.837 81.4841 194.345 82.6331 192.551 83.4538C190.78 84.251 188.764 84.6495 186.503 84.6495Z" fill="white"/>
<path d="M186.499 59C184.56 59 182.765 59.3215 181.105 59.9566C179.469 60.568 178.038 61.4462 176.822 62.599C175.629 63.7518 174.695 65.1242 174.017 66.6999C173.338 68.2531 173 69.9619 173 71.8427C173 73.7236 173.338 75.4563 174.017 77.0328C174.695 78.5852 175.629 79.9432 176.822 81.0959C178.038 82.2486 179.469 83.1413 181.105 83.7762C182.764 84.3877 184.56 84.6949 186.499 84.6949C188.764 84.6949 190.793 84.2919 192.57 83.4921C194.37 82.6689 195.868 81.5174 197.061 80.0352L197.079 80.0062L192.617 75.9335L192.589 75.9722C191.8 76.9066 190.932 77.6136 189.981 78.1032C189.056 78.5923 188.016 78.842 186.856 78.842C185.859 78.842 184.941 78.6756 184.108 78.3495C183.273 78.0231 182.554 77.5627 181.952 76.9572C181.373 76.328 180.916 75.5759 180.568 74.7126C180.244 73.8502 180.079 72.8937 180.079 71.8429C180.079 70.7921 180.244 69.845 180.568 68.9826C180.916 68.1193 181.373 67.3814 181.952 66.7759C182.554 66.1471 183.274 65.6719 184.108 65.3457C184.941 65.0194 185.859 64.8532 186.856 64.8532C188.016 64.8532 189.056 65.103 189.981 65.592C190.932 66.0817 191.8 66.7886 192.589 67.723L192.617 67.7617L197.079 63.6892L197.061 63.6602C195.868 62.1544 194.371 61.003 192.57 60.2033C190.793 59.4033 188.764 59 186.499 59ZM186.499 59.0854C188.755 59.0854 190.767 59.4844 192.533 60.2787C194.307 61.0668 195.777 62.2112 196.957 63.6883L192.617 67.6377C191.831 66.7154 190.967 66.0045 190.019 65.5162C189.081 65.0205 188.027 64.768 186.856 64.768C185.85 64.768 184.924 64.9397 184.08 65.27C183.235 65.6002 182.506 66.0816 181.896 66.719C181.309 67.3328 180.835 68.0729 180.484 68.9447C180.155 69.8175 179.994 70.7834 179.994 71.8429C179.994 72.9024 180.155 73.8777 180.484 74.7505C180.835 75.6222 181.309 76.377 181.896 77.0141C182.506 77.6278 183.236 78.0951 184.08 78.4252C184.924 78.7555 185.85 78.9272 186.856 78.9272C188.027 78.9272 189.081 78.6746 190.019 78.179C190.967 77.6907 191.831 76.9798 192.617 76.0575L196.957 80.0069C195.777 81.4613 194.307 82.6051 192.533 83.4165C190.767 84.211 188.755 84.6098 186.499 84.6098C184.569 84.6098 182.783 84.3082 181.133 83.7006C179.506 83.0693 178.096 82.175 176.888 81.0298C175.703 79.8846 174.766 78.5474 174.092 77.0046C173.418 75.4391 173.085 73.7137 173.085 71.8429C173.085 69.9721 173.419 68.2704 174.092 66.7285C174.766 65.1622 175.703 63.8106 176.888 62.6654C178.096 61.5204 179.507 60.6403 181.133 60.0325C182.783 59.4013 184.569 59.0854 186.499 59.0854Z" fill="white"/>
<path fill-rule="evenodd" clip-rule="evenodd" d="M311.518 52.9919L322.699 27.5093H329.791L341 52.9919H333.478L331.513 48.0592H320.865L318.9 52.9919H311.584H311.518ZM329.361 42.6746L326.189 34.7107L323.017 42.6746H329.361Z" fill="white"/>
<path d="M299.259 52.9493V27.5527H306.398V52.9493H299.259Z" fill="white"/>
<path d="M281.666 53.4574C279.598 53.4574 277.603 53.2035 275.68 52.6955C273.781 52.1634 272.23 51.4862 271.028 50.6638L273.372 45.3669C274.502 46.0925 275.8 46.6972 277.266 47.1809C278.757 47.6405 280.235 47.8702 281.702 47.8702C282.687 47.8702 283.481 47.7856 284.082 47.6163C284.683 47.4229 285.116 47.1809 285.38 46.8906C285.668 46.576 285.813 46.2132 285.813 45.8021C285.813 45.2216 285.548 44.7621 285.019 44.4235C284.49 44.0848 283.805 43.8067 282.964 43.589C282.123 43.3715 281.185 43.1538 280.151 42.936C279.142 42.7184 278.12 42.4403 277.086 42.1015C276.077 41.7629 275.151 41.3275 274.31 40.7954C273.468 40.2391 272.783 39.5256 272.254 38.6548C271.725 37.7599 271.461 36.6351 271.461 35.2806C271.461 33.7569 271.87 32.3782 272.687 31.1447C273.528 29.9112 274.778 28.9195 276.437 28.1697C278.096 27.4199 280.163 27.0449 282.639 27.0449C284.298 27.0449 285.921 27.2385 287.507 27.6255C289.118 27.9883 290.549 28.5325 291.799 29.2581L289.599 34.5914C288.397 33.9384 287.207 33.4545 286.029 33.1401C284.851 32.8015 283.709 32.6322 282.603 32.6322C281.618 32.6322 280.824 32.741 280.223 32.9586C279.622 33.152 279.19 33.418 278.925 33.7567C278.661 34.0953 278.529 34.4824 278.529 34.9178C278.529 35.4741 278.781 35.9215 279.286 36.2601C279.815 36.5744 280.5 36.8405 281.341 37.0583C282.207 37.2518 283.144 37.4573 284.154 37.6751C285.188 37.8926 286.209 38.1708 287.219 38.5095C288.253 38.8241 289.19 39.2595 290.032 39.8157C290.873 40.3478 291.546 41.0613 292.051 41.9562C292.58 42.827 292.844 43.9275 292.844 45.2577C292.844 46.7332 292.424 48.0998 291.582 49.3575C290.765 50.5911 289.527 51.5827 287.868 52.3325C286.233 53.0823 284.166 53.4574 281.666 53.4574Z" fill="white"/>
<path d="M282.636 27.0011C280.155 27.0011 278.089 27.3775 276.423 28.1308C274.759 28.8831 273.499 29.8832 272.652 31.1243C271.831 32.3646 271.417 33.7536 271.417 35.2851C271.417 36.6452 271.688 37.7709 272.222 38.674C272.754 39.5499 273.443 40.27 274.29 40.8297C275.134 41.3637 276.056 41.7986 277.069 42.1382C278.104 42.4775 279.136 42.7582 280.147 42.976C281.18 43.1939 282.113 43.4175 282.954 43.635C283.792 43.8519 284.47 44.128 284.993 44.4634C285.513 44.7959 285.77 45.2327 285.77 45.8001C285.77 46.2011 285.631 46.5561 285.349 46.8638C285.092 47.1458 284.664 47.3872 284.067 47.5793C283.472 47.747 282.683 47.824 281.7 47.824C280.241 47.824 278.767 47.5932 277.284 47.1368H277.274C275.814 46.6545 274.516 46.0514 273.391 45.3294L273.354 45.3006L270.978 50.6758L271.006 50.695C272.213 51.5208 273.763 52.2047 275.665 52.7378C277.592 53.2466 279.592 53.5003 281.663 53.5003H281.71V53.4906C284.189 53.4857 286.255 53.118 287.885 52.3703C289.549 51.6181 290.795 50.6182 291.618 49.3768C292.464 48.1126 292.89 46.7373 292.89 45.2537C292.89 43.9177 292.62 42.8097 292.086 41.9307C291.578 41.03 290.903 40.3108 290.055 39.7749C289.21 39.2164 288.267 38.7821 287.23 38.4665C286.219 38.1271 285.196 37.8465 284.161 37.6286C283.151 37.4108 282.219 37.2103 281.354 37.0168C280.519 36.8004 279.838 36.5357 279.314 36.226C278.818 35.8935 278.575 35.4608 278.575 34.9175C278.575 34.491 278.7 34.1101 278.959 33.7785C279.216 33.4493 279.645 33.1889 280.241 32.9971C280.835 32.7822 281.625 32.6771 282.608 32.6771C283.709 32.6771 284.839 32.8477 286.013 33.1854H286.023C287.197 33.4987 288.379 33.9741 289.578 34.6257L289.625 34.6547L291.852 29.2419L291.824 29.2226C290.57 28.4945 289.134 27.9482 287.52 27.5846C285.93 27.1966 284.298 27.0011 282.636 27.0011ZM282.636 27.086C284.291 27.086 285.918 27.2835 287.501 27.6695C289.094 28.0286 290.501 28.5746 291.739 29.2888L289.578 34.5322C288.387 33.8884 287.21 33.4133 286.041 33.1013C284.86 32.7615 283.718 32.593 282.608 32.593C281.619 32.593 280.82 32.7023 280.212 32.9226C279.606 33.1178 279.165 33.3843 278.893 33.7321C278.623 34.0777 278.481 34.4742 278.481 34.9183C278.481 35.4876 278.744 35.948 279.258 36.2926H279.268V36.3024C279.801 36.6195 280.491 36.8839 281.335 37.1025C282.201 37.2958 283.132 37.4968 284.142 37.7144C285.174 37.9318 286.194 38.214 287.202 38.5522H287.211C288.241 38.8655 289.171 39.2975 290.009 39.8513C290.844 40.3797 291.509 41.0894 292.011 41.9786C292.535 42.8411 292.806 43.9301 292.806 45.2547C292.806 46.7219 292.38 48.0795 291.543 49.3308C290.731 50.5565 289.501 51.5488 287.847 52.2961C286.22 53.0425 284.159 53.4163 281.663 53.4163C281.65 53.4163 281.638 53.4163 281.626 53.4163C279.575 53.4132 277.601 53.1574 275.694 52.6538C273.813 52.1269 272.283 51.4585 271.09 50.6487L273.392 45.4241C274.516 46.1406 275.804 46.743 277.256 47.2221C278.75 47.6829 280.23 47.9092 281.7 47.9092C282.689 47.9092 283.489 47.8259 284.096 47.6553C284.701 47.4606 285.143 47.2196 285.415 46.921C285.71 46.5996 285.855 46.2218 285.855 45.8007C285.855 45.2071 285.579 44.7332 285.041 44.3886C284.507 44.0469 283.817 43.7695 282.973 43.551C282.131 43.3331 281.191 43.11 280.157 42.892C279.149 42.6747 278.13 42.4018 277.097 42.0635C276.091 41.7256 275.175 41.2947 274.337 40.7645C273.501 40.2116 272.814 39.5026 272.288 38.6371C271.764 37.7503 271.502 36.6346 271.502 35.2857C271.502 33.7696 271.906 32.3988 272.718 31.1721C273.555 29.946 274.798 28.954 276.452 28.2067C278.103 27.4601 280.164 27.086 282.636 27.086Z" fill="white"/>
<path d="M251.993 37.3853H263.713V42.7549H251.993V37.3853ZM252.498 47.3989H265.696V52.9498H245.43V27.5532H265.227V33.1042H252.498V47.3989Z" fill="white"/>
<path d="M245.388 27.5093V52.9919H265.738V47.3532H252.536V42.797H263.755V37.3465H252.536V33.148H265.27V27.5093H245.388ZM245.472 27.5941H265.186V33.0635H252.452V37.3466H251.947V37.3852V42.798H252.452V47.4389H252.499H265.654V52.9082H245.473L245.472 27.5941ZM252.031 37.4314H252.452V42.7124H252.031V37.4314ZM252.536 37.4314H263.67V42.7124H252.536V37.4314Z" fill="white"/>
<path d="M220.302 52.9498V27.5532H227.441V47.2537H239.485V52.9498H220.302Z" fill="white"/>
<path d="M220.258 27.5093V52.9919H220.304H239.532V47.212H227.481V27.5093H220.258ZM220.342 27.5941H227.396V47.2968H239.447V52.9073H220.342V27.5941Z" fill="white"/>
<path d="M202.024 53.4573C200.028 53.4573 198.177 53.1429 196.47 52.514C194.764 51.861 193.285 50.9419 192.035 49.7567C190.809 48.5715 189.847 47.1808 189.15 45.5844C188.453 43.9639 188.104 42.186 188.104 40.251C188.104 38.3161 188.453 36.5505 189.15 34.9541C189.847 33.3335 190.821 31.9306 192.071 30.7455C193.321 29.5603 194.8 28.6534 196.506 28.0245C198.237 27.3715 200.124 27.0449 202.168 27.0449C204.548 27.0449 206.675 27.444 208.55 28.2422C210.426 29.0404 211.976 30.1892 213.202 31.6888L208.659 35.8249C207.793 34.8815 206.856 34.18 205.846 33.7205C204.86 33.2367 203.754 32.9949 202.528 32.9949C201.447 32.9949 200.461 33.1643 199.572 33.5029C198.682 33.8416 197.925 34.3373 197.3 34.9903C196.675 35.6192 196.182 36.3811 195.821 37.276C195.485 38.1468 195.316 39.1384 195.316 40.251C195.316 41.3153 195.485 42.2949 195.821 43.1898C196.182 44.0848 196.675 44.8587 197.3 45.5118C197.925 46.1406 198.67 46.6366 199.535 46.9994C200.425 47.338 201.399 47.5073 202.456 47.5073C203.514 47.5073 204.548 47.338 205.557 46.9994C206.567 46.6366 207.589 46.0318 208.623 45.1852L212.625 50.2283C211.183 51.2683 209.512 52.0666 207.613 52.6229C205.714 53.1792 203.851 53.4573 202.024 53.4573ZM206.315 49.285V39.707H212.625V50.2283L206.315 49.285Z" fill="white"/>
<path d="M202.172 27.0009C200.124 27.0009 198.229 27.3247 196.493 27.9799C194.781 28.6106 193.293 29.5206 192.039 30.7098C190.785 31.899 189.81 33.3109 189.11 34.9366C188.411 36.5387 188.063 38.3151 188.063 40.2552C188.063 42.1954 188.411 43.9759 189.11 45.6022C189.81 47.2034 190.772 48.6022 192.002 49.7912C193.256 50.9804 194.744 51.8945 196.455 52.5494V52.559C198.167 53.1897 200.022 53.5003 202.022 53.5003C203.853 53.5003 205.724 53.2198 207.627 52.6625C209.52 52.108 211.181 51.3065 212.623 50.2715L212.67 50.2812V50.2426L212.688 50.2329L212.67 50.2041V39.6609H206.27V46.5232C206.029 46.637 205.78 46.8703 205.54 46.9565C204.535 47.2939 203.506 47.4649 202.453 47.4649C201.399 47.4649 200.436 47.2933 199.552 46.9565C198.694 46.5965 197.955 46.1008 197.335 45.4786C196.714 44.8296 196.215 44.0626 195.857 43.1723H195.866C195.532 42.2826 195.361 41.3138 195.361 40.2541C195.361 39.1459 195.522 38.1538 195.857 37.2888C196.215 36.3986 196.705 35.6447 197.326 35.0201H197.335C197.956 34.3717 198.706 33.8787 199.59 33.5422C200.474 33.2057 201.451 33.0338 202.528 33.0338C203.748 33.0338 204.851 33.2782 205.831 33.7587C206.835 34.2156 207.766 34.9087 208.628 35.8485L208.657 35.887L213.26 31.6886L213.232 31.6597C212.001 30.1548 210.453 29.0056 208.572 28.2049C206.691 27.4042 204.556 27.0009 202.172 27.0009ZM202.172 27.0858C204.547 27.0858 206.665 27.4858 208.534 28.2813C210.392 29.0723 211.919 30.2171 213.137 31.6984L208.656 35.7651C207.797 34.8371 206.87 34.1407 205.868 33.6847C204.876 33.1979 203.759 32.9504 202.527 32.9504C201.441 32.9504 200.447 33.1181 199.552 33.4588C198.657 33.7995 197.899 34.3072 197.269 34.9649C196.642 35.5971 196.143 36.3648 195.781 37.2619C195.443 38.1383 195.276 39.1385 195.276 40.2554C195.276 41.3242 195.443 42.3017 195.781 43.2018C196.144 44.1014 196.64 44.8887 197.269 45.5458C197.898 46.1788 198.644 46.6778 199.515 47.0426H199.524C200.419 47.3834 201.39 47.5508 202.453 47.5508C203.515 47.5508 204.554 47.3827 205.568 47.0426C205.799 46.9597 206.038 46.7365 206.27 46.6285V49.3208L206.307 49.3304L212.483 50.2529C211.068 51.2535 209.448 52.0364 207.599 52.5781C205.703 53.1334 203.845 53.4159 202.022 53.4159C200.031 53.4159 198.185 53.1016 196.483 52.4745C194.781 51.8233 193.313 50.9069 192.067 49.7258C190.845 48.5444 189.88 47.1564 189.185 45.565C188.491 43.9501 188.147 42.1855 188.147 40.2557C188.147 38.3259 188.491 36.5652 189.185 34.9746C189.88 33.3592 190.859 31.9574 192.105 30.7762C193.35 29.595 194.819 28.6921 196.521 28.0651C198.247 27.414 200.133 27.0858 202.172 27.0858ZM206.354 39.7471H212.585V50.102L208.628 45.1222L208.599 45.151C207.843 45.7707 207.096 46.1193 206.354 46.4784L206.354 39.7471ZM208.609 45.2352L212.529 50.1679L206.354 49.2548V46.5719C207.102 46.2138 207.85 45.8528 208.609 45.2352Z" fill="white"/>
<path d="M174.05 52.9459V27.5493H181.19V52.9459H174.05Z" fill="white"/>
<path fill-rule="evenodd" clip-rule="evenodd" d="M74.4141 148.911C115.512 148.911 148.828 115.595 148.828 74.4971C148.828 33.3994 115.512 0.0830078 74.4141 0.0830078C33.3163 0.0830078 0 33.3994 0 74.4971C0 115.595 33.3163 148.911 74.4141 148.911ZM37.8301 56.3118V59.1295V107.086H71.697V112.701H77.3279V107.086H111.199V56.3118H82.9434V61.9527H105.558V101.445H77.3279V45.1303H88.5897V39.4994H77.3279V28.2375H71.697V39.4994H60.4351V45.1303H71.697V101.445H43.4698V61.9527H66.0924V56.3118H37.8301ZM66.0661 67.654H49.1733V73.2849H66.0661V67.654ZM82.9588 67.654H99.8515V73.2849H82.9588V67.654ZM66.0661 78.9158H49.1733V84.5467H66.0661V78.9158ZM82.9588 78.9158H99.8515V84.5467H82.9588V78.9158ZM66.0661 90.1776H49.1733V95.8085H66.0661V90.1776ZM82.9588 90.1776H99.8515V95.8085H82.9588V90.1776Z" fill="white"/>
</svg>
