<svg width="343" height="149" viewBox="0 0 343 149" fill="none" xmlns="http://www.w3.org/2000/svg">
<path d="M336.29 132.114C335.645 132.114 335.082 131.99 334.6 131.742C334.119 131.494 333.744 131.122 333.474 130.626C333.214 130.13 333.084 129.51 333.084 128.766V124.228H334.11V128.647C334.11 129.48 334.307 130.11 334.701 130.537C335.106 130.953 335.669 131.161 336.391 131.161C336.92 131.161 337.377 131.052 337.762 130.834C338.157 130.606 338.455 130.279 338.657 129.852C338.869 129.426 338.975 128.915 338.975 128.32V124.229H340V132.039H339.018V129.897L339.177 130.284C338.936 130.859 338.561 131.31 338.051 131.638C337.55 131.955 336.963 132.114 336.29 132.114ZM335.611 123.008L337.589 121.164H338.961L336.622 123.008H335.611Z" fill="#458BD0"/>
<path d="M326.385 132.114C325.664 132.114 325.014 131.945 324.436 131.608C323.869 131.271 323.421 130.804 323.094 130.209C322.767 129.604 322.603 128.91 322.603 128.126C322.603 127.333 322.767 126.639 323.094 126.044C323.421 125.449 323.869 124.987 324.436 124.66C325.014 124.323 325.664 124.154 326.385 124.154C327.05 124.154 327.642 124.308 328.161 124.615C328.691 124.923 329.109 125.374 329.417 125.969C329.735 126.554 329.894 127.273 329.894 128.126C329.894 128.97 329.74 129.689 329.432 130.284C329.124 130.879 328.705 131.335 328.176 131.652C327.656 131.96 327.059 132.114 326.385 132.114ZM326.458 131.176C326.997 131.176 327.478 131.052 327.901 130.804C328.335 130.547 328.671 130.19 328.912 129.733C329.162 129.267 329.287 128.731 329.287 128.126C329.287 127.512 329.162 126.976 328.912 126.52C328.671 126.063 328.335 125.711 327.901 125.463C327.478 125.206 326.997 125.077 326.458 125.077C325.928 125.077 325.452 125.206 325.028 125.463C324.605 125.711 324.268 126.063 324.018 126.52C323.768 126.976 323.642 127.512 323.642 128.126C323.642 128.731 323.768 129.267 324.018 129.733C324.268 130.19 324.605 130.547 325.028 130.804C325.452 131.052 325.928 131.176 326.458 131.176ZM329.316 132.039V129.689L329.417 128.112L329.273 126.535V121H330.298V132.039H329.316Z" fill="#458BD0"/>
<path d="M317.478 124.154C318.094 124.154 318.633 124.278 319.095 124.526C319.566 124.764 319.932 125.131 320.192 125.627C320.461 126.123 320.596 126.748 320.596 127.502V132.04H319.571V127.606C319.571 126.783 319.369 126.163 318.965 125.746C318.57 125.32 318.012 125.107 317.29 125.107C316.751 125.107 316.279 125.221 315.875 125.449C315.48 125.667 315.172 125.989 314.951 126.416C314.739 126.832 314.633 127.338 314.633 127.933V132.04H313.608V124.229H314.59V126.371L314.431 125.97C314.672 125.404 315.057 124.963 315.586 124.645C316.116 124.318 316.746 124.154 317.478 124.154Z" fill="#458BD0"/>
<path d="M309.84 132.039V130.313L309.797 130.031V127.144C309.797 126.48 309.614 125.969 309.248 125.612C308.892 125.255 308.358 125.076 307.646 125.076C307.155 125.076 306.688 125.161 306.245 125.329C305.803 125.498 305.427 125.721 305.119 125.999L304.657 125.21C305.042 124.873 305.504 124.615 306.043 124.437C306.582 124.248 307.15 124.154 307.747 124.154C308.729 124.154 309.484 124.407 310.014 124.913C310.553 125.409 310.822 126.168 310.822 127.189V132.039L309.84 132.039ZM307.227 132.114C306.659 132.114 306.164 132.019 305.74 131.831C305.326 131.633 305.009 131.365 304.787 131.028C304.566 130.681 304.455 130.284 304.455 129.837C304.455 129.431 304.547 129.064 304.729 128.737C304.922 128.399 305.23 128.131 305.653 127.933C306.087 127.725 306.664 127.621 307.386 127.621H309.999V128.409H307.415C306.683 128.409 306.173 128.543 305.884 128.811C305.605 129.079 305.466 129.411 305.466 129.808C305.466 130.254 305.634 130.611 305.971 130.879C306.308 131.147 306.78 131.281 307.386 131.281C307.963 131.281 308.459 131.147 308.873 130.879C309.297 130.601 309.605 130.204 309.797 129.689L310.028 130.418C309.835 130.933 309.499 131.345 309.017 131.653C308.546 131.96 307.949 132.114 307.227 132.114Z" fill="#458BD0"/>
<path d="M300.081 132.114C299.455 132.114 298.863 132.025 298.305 131.846C297.747 131.658 297.309 131.425 296.991 131.147L297.453 130.314C297.761 130.552 298.156 130.76 298.637 130.938C299.118 131.107 299.623 131.191 300.153 131.191C300.875 131.191 301.394 131.077 301.712 130.849C302.03 130.611 302.189 130.299 302.189 129.912C302.189 129.624 302.097 129.401 301.914 129.242C301.741 129.074 301.51 128.95 301.221 128.87C300.932 128.781 300.61 128.707 300.254 128.647C299.898 128.588 299.542 128.518 299.186 128.439C298.839 128.359 298.521 128.245 298.233 128.097C297.944 127.938 297.708 127.725 297.525 127.457C297.352 127.189 297.265 126.832 297.265 126.386C297.265 125.959 297.381 125.577 297.612 125.24C297.843 124.903 298.18 124.64 298.623 124.452C299.075 124.253 299.624 124.154 300.268 124.154C300.759 124.154 301.25 124.223 301.741 124.362C302.232 124.491 302.636 124.665 302.954 124.883L302.506 125.731C302.169 125.493 301.808 125.324 301.423 125.225C301.038 125.116 300.653 125.061 300.268 125.061C299.585 125.061 299.08 125.185 298.752 125.433C298.435 125.671 298.276 125.979 298.276 126.356C298.276 126.653 298.363 126.886 298.536 127.055C298.719 127.224 298.955 127.358 299.243 127.457C299.542 127.546 299.864 127.62 300.211 127.68C300.567 127.739 300.918 127.814 301.265 127.903C301.621 127.982 301.943 128.096 302.232 128.245C302.53 128.384 302.766 128.588 302.939 128.855C303.122 129.113 303.214 129.455 303.214 129.882C303.214 130.338 303.088 130.735 302.838 131.072C302.598 131.399 302.241 131.657 301.77 131.846C301.308 132.024 300.745 132.114 300.081 132.114Z" fill="#458BD0"/>
<path d="M290.364 135C290.008 135 289.667 134.941 289.339 134.822C289.022 134.703 288.747 134.524 288.516 134.286L288.993 133.497C289.185 133.686 289.392 133.83 289.614 133.929C289.845 134.038 290.1 134.093 290.379 134.093C290.716 134.093 291.004 133.993 291.245 133.795C291.495 133.607 291.731 133.269 291.952 132.783L292.443 131.638L292.559 131.474L295.677 124.229H296.688L292.891 132.977C292.679 133.482 292.443 133.884 292.183 134.182C291.933 134.479 291.659 134.688 291.361 134.807C291.062 134.936 290.73 135 290.364 135ZM292.386 132.263L288.892 124.229H289.96L293.05 131.4L292.386 132.263Z" fill="#458BD0"/>
<path d="M286.683 132.039V130.313L286.639 130.031V127.144C286.639 126.48 286.457 125.969 286.091 125.612C285.735 125.255 285.201 125.076 284.488 125.076C283.997 125.076 283.531 125.161 283.088 125.329C282.645 125.498 282.27 125.721 281.962 125.999L281.5 125.21C281.885 124.873 282.347 124.615 282.886 124.437C283.425 124.248 283.993 124.154 284.589 124.154C285.571 124.154 286.327 124.407 286.856 124.913C287.395 125.409 287.664 126.168 287.664 127.189V132.039L286.683 132.039ZM284.07 132.114C283.502 132.114 283.006 132.019 282.583 131.831C282.169 131.633 281.851 131.365 281.63 131.028C281.408 130.681 281.298 130.284 281.298 129.837C281.298 129.431 281.389 129.064 281.572 128.737C281.764 128.399 282.072 128.131 282.496 127.933C282.929 127.725 283.507 127.621 284.228 127.621H286.842V128.409H284.257C283.526 128.409 283.016 128.543 282.727 128.811C282.448 129.079 282.308 129.411 282.308 129.808C282.308 130.254 282.477 130.611 282.814 130.879C283.15 131.147 283.622 131.281 284.228 131.281C284.806 131.281 285.302 131.147 285.715 130.879C286.139 130.601 286.447 130.204 286.639 129.689L286.87 130.418C286.678 130.933 286.341 131.345 285.86 131.653C285.388 131.96 284.791 132.114 284.07 132.114Z" fill="#458BD0"/>
<path d="M272 132.039V121.625H275.783C276.639 121.625 277.376 121.769 277.992 122.056C278.608 122.334 279.079 122.741 279.406 123.276C279.743 123.802 279.912 124.442 279.912 125.196C279.912 125.93 279.743 126.564 279.406 127.1C279.079 127.626 278.608 128.032 277.992 128.32C277.376 128.608 276.639 128.751 275.783 128.751H272.592L273.068 128.231V132.039H272ZM273.068 128.32L272.592 127.784H275.754C276.764 127.784 277.53 127.561 278.049 127.115C278.579 126.659 278.843 126.019 278.843 125.196C278.843 124.362 278.579 123.718 278.049 123.261C277.53 122.805 276.764 122.577 275.754 122.577H272.592L273.068 122.056V128.32Z" fill="#458BD0"/>
<path d="M327.466 118.223C325.523 118.223 323.731 117.909 322.09 117.28C320.448 116.652 319.014 115.768 317.789 114.628C316.586 113.465 315.65 112.116 314.979 110.58C314.308 109.045 313.973 107.358 313.973 105.52C313.973 103.682 314.308 101.995 314.979 100.46C315.65 98.9241 316.586 97.5864 317.789 96.4463C319.014 95.2831 320.448 94.3873 322.09 93.7592C323.731 93.131 325.523 92.8169 327.466 92.8169C329.431 92.8169 331.223 93.131 332.842 93.7592C334.484 94.3873 335.906 95.2831 337.108 96.4463C338.311 97.5864 339.247 98.9241 339.918 100.46C340.612 101.995 340.958 103.682 340.958 105.52C340.958 107.358 340.612 109.056 339.918 110.615C339.247 112.15 338.311 113.488 337.108 114.628C335.906 115.768 334.484 116.652 332.842 117.28C331.223 117.909 329.431 118.223 327.466 118.223ZM327.466 112.499C328.391 112.499 329.246 112.336 330.033 112.011C330.842 111.685 331.536 111.22 332.114 110.615C332.715 109.987 333.177 109.242 333.501 108.381C333.848 107.521 334.021 106.567 334.021 105.52C334.021 104.45 333.848 103.496 333.501 102.658C333.177 101.797 332.715 101.064 332.114 100.46C331.536 99.8314 330.842 99.3545 330.033 99.0288C329.246 98.7031 328.391 98.5402 327.466 98.5402C326.541 98.5402 325.674 98.7031 324.864 99.0288C324.078 99.3545 323.384 99.8314 322.783 100.46C322.205 101.064 321.743 101.797 321.396 102.658C321.072 103.496 320.91 104.45 320.91 105.52C320.91 106.567 321.072 107.521 321.396 108.381C321.743 109.242 322.205 109.987 322.783 110.615C323.384 111.22 324.078 111.685 324.864 112.011C325.674 112.336 326.541 112.499 327.466 112.499Z" fill="#2C3135"/>
<path d="M327.468 92.7754C325.521 92.7754 323.726 93.0943 322.079 93.7244C320.433 94.3543 318.994 95.2447 317.765 96.4117C316.558 97.5555 315.617 98.9024 314.944 100.443C314.271 101.984 313.936 103.674 313.936 105.517C313.936 107.36 314.271 109.059 314.944 110.6C315.617 112.14 316.558 113.492 317.765 114.659C318.994 115.803 320.433 116.688 322.079 117.318C323.726 117.948 325.521 118.267 327.468 118.267C329.438 118.267 331.233 117.948 332.856 117.318C334.503 116.688 335.927 115.803 337.134 114.659C338.34 113.516 339.281 112.169 339.954 110.628C340.65 109.064 341 107.36 341 105.517C341 103.673 340.65 101.984 339.954 100.443C339.281 98.9024 338.34 97.5555 337.134 96.4117C335.927 95.2445 334.503 94.3543 332.856 93.7244C331.233 93.0942 329.438 92.7754 327.468 92.7754ZM327.468 92.8601C329.429 92.8601 331.215 93.1738 332.828 93.7997C334.465 94.4261 335.879 95.3183 337.078 96.4777C338.276 97.614 339.211 98.9498 339.879 100.48C340.57 102.01 340.916 103.684 340.916 105.517C340.916 107.35 340.571 109.047 339.879 110.6C339.211 112.131 338.276 113.457 337.078 114.594C335.879 115.73 334.466 116.617 332.828 117.243C331.215 117.869 329.429 118.183 327.468 118.183C325.53 118.183 323.744 117.87 322.107 117.243C320.47 116.617 319.042 115.73 317.821 114.594C316.625 113.435 315.686 112.091 315.019 110.563C314.351 109.033 314.01 107.35 314.01 105.517C314.01 103.684 314.351 102.01 315.019 100.48C315.687 98.9498 316.622 97.614 317.821 96.4777C319.042 95.3181 320.47 94.4261 322.107 93.7997C323.744 93.1735 325.53 92.8601 327.468 92.8601ZM327.468 98.4978C326.538 98.4978 325.667 98.6585 324.853 98.9864C324.061 99.3141 323.357 99.8014 322.752 100.433C322.17 101.042 321.709 101.777 321.36 102.642C321.034 103.485 320.865 104.442 320.865 105.517C320.865 106.568 321.034 107.526 321.36 108.392V108.402C321.709 109.267 322.17 110.015 322.752 110.647C323.356 111.256 324.062 111.72 324.853 112.047C325.667 112.375 326.538 112.536 327.468 112.536C328.397 112.536 329.254 112.375 330.045 112.047C330.86 111.72 331.564 111.257 332.147 110.647C332.75 110.017 333.213 109.264 333.538 108.402V108.392C333.885 107.528 334.061 106.565 334.061 105.517C334.061 104.442 333.887 103.485 333.538 102.642C333.213 101.776 332.752 101.043 332.147 100.433C331.564 99.8008 330.86 99.3143 330.045 98.9864C329.254 98.6583 328.397 98.4978 327.468 98.4978ZM327.468 98.5824C328.388 98.5824 329.236 98.7474 330.017 99.071C330.821 99.3948 331.507 99.8661 332.081 100.49C332.678 101.09 333.142 101.814 333.463 102.67C333.808 103.502 333.977 104.451 333.977 105.517C333.977 106.559 333.808 107.508 333.463 108.364C333.141 109.22 332.679 109.967 332.081 110.591C331.507 111.191 330.822 111.648 330.017 111.972C329.236 112.296 328.388 112.461 327.468 112.461C326.548 112.461 325.685 112.296 324.881 111.972C324.104 111.65 323.412 111.187 322.817 110.591L322.807 110.581C322.237 109.959 321.778 109.216 321.435 108.364C321.113 107.508 320.949 106.559 320.949 105.517C320.949 104.451 321.113 103.502 321.435 102.67C321.78 101.813 322.243 101.091 322.817 100.49C323.414 99.8654 324.1 99.3944 324.881 99.0709C325.685 98.7471 326.548 98.5824 327.468 98.5824Z" fill="#2C3135"/>
<path d="M299.236 118.223C297.317 118.223 295.537 117.92 293.895 117.315C292.276 116.687 290.866 115.803 289.663 114.663C288.484 113.523 287.559 112.185 286.888 110.65C286.218 109.091 285.882 107.381 285.882 105.52C285.882 103.658 286.218 101.96 286.888 100.425C287.559 98.8658 288.484 97.5166 289.663 96.3766C290.866 95.2366 292.276 94.364 293.895 93.7592C295.537 93.131 297.317 92.8169 299.236 92.8169C301.479 92.8169 303.48 93.2125 305.237 94.0035C307.017 94.7945 308.497 95.9344 309.677 97.4234L305.306 101.402C304.52 100.471 303.653 99.7615 302.705 99.273C301.78 98.7844 300.739 98.5402 299.583 98.5402C298.589 98.5402 297.675 98.7031 296.843 99.0288C296.011 99.3545 295.294 99.8314 294.693 100.46C294.114 101.064 293.652 101.797 293.305 102.658C292.981 103.519 292.82 104.473 292.82 105.52C292.82 106.567 292.981 107.521 293.305 108.381C293.652 109.242 294.114 109.987 294.693 110.615C295.294 111.22 296.011 111.685 296.843 112.011C297.675 112.336 298.589 112.499 299.583 112.499C300.739 112.499 301.78 112.255 302.705 111.766C303.653 111.278 304.52 110.568 305.306 109.638L309.677 113.616C308.497 115.082 307.017 116.222 305.237 117.036C303.48 117.827 301.479 118.223 299.236 118.223Z" fill="#2C3135"/>
<path d="M299.236 92.7754C297.312 92.7754 295.531 93.0943 293.885 93.7244C292.261 94.3311 290.842 95.2021 289.635 96.346C288.452 97.4897 287.525 98.8416 286.852 100.405C286.179 101.946 285.844 103.65 285.844 105.517C285.844 107.383 286.179 109.102 286.852 110.666C287.525 112.206 288.452 113.553 289.635 114.697C290.842 115.841 292.252 116.726 293.875 117.356H293.885C295.531 117.963 297.313 118.267 299.236 118.267C301.484 118.267 303.487 117.868 305.25 117.074C307.036 116.257 308.522 115.115 309.705 113.644L309.733 113.606L305.307 109.575L305.278 109.613C304.495 110.541 303.625 111.242 302.682 111.728C301.763 112.213 300.732 112.46 299.582 112.46C298.592 112.46 297.682 112.296 296.855 111.972C296.027 111.648 295.322 111.182 294.725 110.581C294.153 109.958 293.687 109.218 293.343 108.364C293.021 107.508 292.858 106.559 292.858 105.517C292.858 104.474 293.021 103.525 293.343 102.67C293.688 101.813 294.151 101.091 294.725 100.49C295.322 99.8658 296.027 99.3945 296.855 99.0709C297.682 98.7471 298.592 98.5823 299.582 98.5823C300.732 98.5823 301.763 98.8204 302.682 99.3058C303.625 99.7916 304.495 100.502 305.278 101.429L305.307 101.458L309.733 97.4273L309.705 97.3983C308.522 95.9042 307.037 94.7622 305.25 93.9687C303.487 93.175 301.484 92.7754 299.236 92.7754ZM299.236 92.8601C301.474 92.8601 303.471 93.2556 305.222 94.044C306.982 94.8259 308.441 95.9517 309.611 97.4173L305.306 101.345C304.524 100.427 303.662 99.7257 302.719 99.2401C301.788 98.7483 300.743 98.4978 299.581 98.4978C298.583 98.4978 297.664 98.6585 296.826 98.9864C295.989 99.3141 295.265 99.801 294.66 100.433C294.078 101.042 293.617 101.777 293.268 102.642C292.943 103.508 292.783 104.466 292.783 105.517C292.783 106.568 292.943 107.526 293.268 108.392V108.402C293.617 109.267 294.078 110.015 294.66 110.647C295.265 111.256 295.989 111.72 296.826 112.047C297.664 112.375 298.583 112.536 299.581 112.536C300.743 112.536 301.788 112.295 302.719 111.803C303.659 111.319 304.516 110.604 305.297 109.689L309.611 113.617C308.441 115.06 306.982 116.194 305.222 116.999C303.471 117.787 301.474 118.183 299.236 118.183C297.321 118.183 295.55 117.884 293.913 117.281C292.299 116.655 290.89 115.768 289.691 114.631C288.516 113.495 287.596 112.169 286.927 110.638C286.259 109.085 285.928 107.373 285.928 105.517C285.928 103.661 286.259 101.973 286.927 100.443C287.596 98.889 288.516 97.5388 289.691 96.4026C290.89 95.2664 292.299 94.403 293.913 93.7999C295.549 93.1736 297.321 92.8601 299.236 92.8601Z" fill="#2C3135"/>
<path d="M272.359 117.734V93.3052H279.227V117.734H272.359Z" fill="#2C3135"/>
<path d="M248.188 117.734V93.3057H255.056V112.255H266.641V117.734H248.188Z" fill="#2C3135"/>
<path d="M248.152 93.2642V117.779H248.189H266.68V112.216H255.1V93.2642H248.152ZM248.226 93.3489H255.016V112.301H266.596V117.695H248.226L248.226 93.3489Z" fill="#2C3135"/>
<path d="M218.502 117.734V93.3057H230.919C234.11 93.3057 236.492 93.899 238.065 95.0855C239.637 96.2488 240.423 97.7843 240.423 99.692C240.423 100.948 240.088 102.053 239.417 103.007C238.77 103.938 237.845 104.682 236.642 105.241C235.463 105.776 234.053 106.043 232.411 106.043L233.105 104.368C234.816 104.368 236.307 104.636 237.579 105.171C238.851 105.683 239.834 106.439 240.527 107.439C241.244 108.417 241.602 109.615 241.602 111.034C241.602 113.151 240.747 114.803 239.036 115.989C237.348 117.153 234.873 117.734 231.613 117.734H218.502ZM225.3 112.744H231.058C232.237 112.744 233.128 112.546 233.729 112.151C234.353 111.732 234.665 111.104 234.665 110.266C234.665 109.428 234.353 108.812 233.729 108.416C233.128 107.998 232.237 107.788 231.058 107.788H224.815V103.007H230.018C231.174 103.007 232.041 102.809 232.619 102.414C233.197 102.018 233.486 101.425 233.486 100.634C233.486 99.8433 233.197 99.2616 232.619 98.8894C232.041 98.4939 231.174 98.2961 230.018 98.2961H225.3V112.744Z" fill="#2C3135"/>
<path d="M218.463 93.2642V117.779H218.5H231.612C234.877 117.779 237.357 117.192 239.055 116.022C240.776 114.829 241.642 113.161 241.642 111.032C241.642 109.606 241.281 108.4 240.559 107.415C239.86 106.407 238.876 105.646 237.598 105.132C237.423 105.058 237.166 105.082 236.982 105.019C237.992 104.485 238.872 103.855 239.448 103.027C240.123 102.066 240.466 100.955 240.466 99.6913C240.466 97.7722 239.665 96.2192 238.084 95.0496C236.501 93.8579 234.113 93.2643 230.921 93.2643L218.463 93.2642ZM218.547 93.3489H230.921C234.107 93.3489 236.476 93.9368 238.037 95.1154C239.601 96.2722 240.382 97.795 240.382 99.6913C240.382 100.94 240.048 102.033 239.382 102.98C238.799 103.819 237.92 104.465 236.879 105C235.747 104.621 234.547 104.324 233.106 104.324H233.078L232.35 106.081H232.415C234.061 106.081 235.469 105.82 236.655 105.282C236.76 105.233 236.797 105.136 236.898 105.085C237.096 105.152 237.372 105.128 237.561 105.207C238.827 105.716 239.805 106.469 240.493 107.462C241.205 108.431 241.558 109.621 241.558 111.033C241.558 113.139 240.71 114.776 239.009 115.956C237.331 117.113 234.868 117.695 231.612 117.695H218.547L218.547 93.3489ZM225.262 98.2537V102.971H224.776V107.828H225.262V112.78H225.299H231.061C232.245 112.78 233.139 112.591 233.751 112.188C234.386 111.763 234.703 111.11 234.703 110.262C234.703 109.414 234.386 108.785 233.751 108.383C233.139 107.957 232.245 107.744 231.061 107.744H225.346V103.046H230.015C231.176 103.046 232.051 102.847 232.639 102.444C233.228 102.042 233.527 101.432 233.527 100.631C233.527 99.8298 233.229 99.2345 232.639 98.8551C232.051 98.4524 231.176 98.2537 230.015 98.2537H225.262ZM225.346 98.3383H230.015C231.167 98.3383 232.025 98.5326 232.593 98.9208C233.16 99.286 233.443 99.8501 233.443 100.631C233.443 101.412 233.16 101.99 232.593 102.379C232.025 102.767 231.167 102.971 230.015 102.971H225.346V98.3383ZM224.86 103.046H225.262V107.744H224.86V103.046ZM233.134 104.408C234.535 104.411 235.693 104.704 236.795 105.066C236.723 105.1 236.701 105.172 236.627 105.207C235.472 105.731 234.086 105.988 232.481 105.996L233.134 104.408ZM225.346 107.828H231.061C232.236 107.828 233.113 108.037 233.704 108.449C234.317 108.837 234.629 109.435 234.629 110.262C234.629 111.089 234.318 111.701 233.704 112.113C233.113 112.502 232.236 112.705 231.061 112.705H225.346V107.828Z" fill="#2C3135"/>
<path d="M203.73 117.739V93.3101H210.598V117.739H203.73Z" fill="#2C3135"/>
<path d="M174.044 117.734V93.3057H186.462C189.653 93.3057 192.034 93.899 193.607 95.0855C195.179 96.2488 195.965 97.7843 195.965 99.692C195.965 100.948 195.63 102.053 194.96 103.007C194.312 103.938 193.387 104.682 192.185 105.241C191.005 105.776 189.595 106.043 187.953 106.043L188.647 104.368C190.358 104.368 191.849 104.636 193.121 105.171C194.393 105.683 195.376 106.439 196.069 107.439C196.786 108.417 197.145 109.615 197.145 111.034C197.145 113.151 196.289 114.803 194.578 115.989C192.89 117.153 190.416 117.734 187.155 117.734H174.044ZM180.843 112.744H186.6C187.78 112.744 188.67 112.546 189.271 112.151C189.895 111.732 190.208 111.104 190.208 110.266C190.208 109.428 189.895 108.812 189.271 108.416C188.67 107.998 187.78 107.788 186.6 107.788H180.357V103.007H185.56C186.716 103.007 187.583 102.809 188.161 102.414C188.739 102.018 189.028 101.425 189.028 100.634C189.028 99.8433 188.739 99.2616 188.161 98.8894C187.583 98.4939 186.716 98.2961 185.56 98.2961H180.843V112.744Z" fill="#2C3135"/>
<path d="M174 93.2642V117.779H174.047H187.159C190.424 117.779 192.904 117.192 194.602 116.022C196.323 114.829 197.189 113.161 197.189 111.032C197.189 109.606 196.828 108.4 196.106 107.415C195.407 106.407 194.414 105.646 193.136 105.132C192.963 105.059 192.71 105.082 192.529 105.019C193.538 104.485 194.418 103.855 194.994 103.027C195.67 102.066 196.003 100.955 196.003 99.6913C196.003 97.7722 195.212 96.2192 193.631 95.0496C192.048 93.855 189.654 93.2643 186.458 93.2643L174 93.2642ZM174.084 93.3489H186.458C189.644 93.3489 192.022 93.9368 193.584 95.1154C195.148 96.2722 195.928 97.795 195.928 99.6913C195.928 100.94 195.594 102.033 194.929 102.98C194.345 103.819 193.457 104.465 192.417 105C191.284 104.621 190.084 104.324 188.644 104.324H188.615L187.887 106.081H187.952C189.598 106.081 191.016 105.82 192.202 105.282C192.307 105.233 192.343 105.136 192.444 105.085C192.642 105.152 192.919 105.128 193.107 105.207C194.373 105.716 195.351 106.469 196.04 107.462C196.751 108.431 197.104 109.621 197.104 111.033C197.104 113.139 196.257 114.776 194.555 115.956C192.877 117.113 190.414 117.695 187.158 117.695H174.084L174.084 93.3489ZM180.799 98.2537V102.971H180.313V107.828H180.799V112.78H180.846H186.598C187.782 112.78 188.686 112.591 189.297 112.188C189.932 111.763 190.25 111.11 190.25 110.262C190.25 109.414 189.933 108.785 189.297 108.383C188.686 107.957 187.783 107.744 186.598 107.744H180.883V103.046H185.562C186.723 103.046 187.598 102.847 188.186 102.444C188.775 102.042 189.073 101.432 189.073 100.631C189.073 99.8298 188.775 99.2345 188.186 98.8551C187.598 98.4524 186.723 98.2537 185.562 98.2537H180.799ZM180.883 98.3383H185.562C186.713 98.3383 187.572 98.5326 188.139 98.9208C188.706 99.286 188.989 99.8501 188.989 100.631C188.989 101.412 188.707 101.99 188.139 102.379C187.572 102.767 186.713 102.971 185.562 102.971H180.883V98.3383ZM180.397 103.046H180.799V107.744H180.397V103.046ZM188.672 104.408C190.069 104.411 191.232 104.705 192.332 105.066C192.261 105.1 192.238 105.173 192.164 105.207C191.01 105.731 189.623 105.988 188.018 105.996L188.672 104.408ZM180.883 107.828H186.598C187.773 107.828 188.66 108.037 189.251 108.449C189.864 108.837 190.166 109.435 190.166 110.262C190.166 111.089 189.864 111.701 189.251 112.113C188.66 112.502 187.773 112.705 186.598 112.705H180.883V107.828Z" fill="#2C3135"/>
<path d="M327.36 87.6495C325.403 87.6495 323.597 87.333 321.942 86.6999C320.287 86.0668 318.842 85.1758 317.607 84.0268C316.395 82.8544 315.451 81.4945 314.776 79.9469C314.1 78.3993 313.762 76.6993 313.762 74.8469C313.762 72.9945 314.1 71.2946 314.776 69.747C315.451 68.1995 316.395 66.8511 317.607 65.7022C318.842 64.5298 320.287 63.6271 321.942 62.9941C323.597 62.3609 325.403 62.0444 327.36 62.0444C329.341 62.0444 331.148 62.3609 332.779 62.9941C334.434 63.6271 335.867 64.5298 337.079 65.7022C338.291 66.8511 339.234 68.1995 339.91 69.747C340.609 71.2946 340.959 72.9945 340.959 74.8469C340.959 76.6993 340.609 78.4111 339.91 79.9821C339.234 81.5297 338.291 82.8779 337.079 84.0268C335.867 85.1758 334.434 86.0668 332.779 86.6999C331.148 87.333 329.341 87.6495 327.36 87.6495ZM327.36 81.8814C328.293 81.8814 329.155 81.7173 329.947 81.389C330.763 81.0607 331.462 80.5918 332.045 79.9821C332.651 79.349 333.117 78.5987 333.443 77.7311C333.793 76.8635 333.967 75.9021 333.967 74.8469C333.967 73.7683 333.793 72.807 333.443 71.9628C333.117 71.0952 332.651 70.3567 332.045 69.747C331.462 69.1139 330.763 68.6332 329.947 68.3049C329.155 67.9766 328.293 67.8126 327.36 67.8126C326.428 67.8126 325.554 67.9766 324.739 68.3049C323.946 68.6332 323.247 69.1139 322.641 69.747C322.058 70.3567 321.592 71.0952 321.243 71.9628C320.917 72.807 320.753 73.7683 320.753 74.8469C320.753 75.9021 320.917 76.8635 321.243 77.7311C321.592 78.5987 322.058 79.349 322.641 79.9821C323.247 80.5918 323.946 81.0607 324.739 81.389C325.554 81.7173 326.428 81.8814 327.36 81.8814Z" fill="#2C3135"/>
<path d="M327.36 62C325.398 62 323.588 62.3215 321.929 62.9566C320.269 63.5915 318.819 64.4985 317.58 65.6748C316.364 66.8275 315.415 68.1759 314.737 69.7284C314.059 71.2815 313.72 72.9853 313.72 74.8427C313.72 76.7002 314.059 78.4134 314.737 79.9665C315.415 81.519 316.364 82.882 317.58 84.058C318.819 85.2107 320.269 86.1035 321.929 86.7383C323.588 87.3734 325.398 87.6949 327.36 87.6949C329.345 87.6949 331.155 87.3734 332.792 86.7383C334.451 86.1035 335.887 85.2109 337.103 84.058C338.319 82.9053 339.268 81.5474 339.946 79.995C340.647 78.4184 341 76.7004 341 74.8427C341 72.9851 340.648 71.2816 339.946 69.7284C339.268 68.1759 338.319 66.8275 337.103 65.6748C335.887 64.4984 334.451 63.5915 332.792 62.9566C331.155 62.3214 329.345 62 327.36 62ZM327.36 62.0854C329.337 62.0854 331.137 62.4015 332.763 63.0325C334.413 63.6637 335.839 64.5633 337.046 65.7317C338.254 66.877 339.197 68.2237 339.87 69.7664C340.567 71.3083 340.915 72.9958 340.915 74.8429C340.915 76.6901 340.567 78.4013 339.87 79.9667C339.197 81.5094 338.254 82.8562 337.046 84.0014C335.839 85.1465 334.413 86.0314 332.763 86.6627C331.137 87.2938 329.337 87.6098 327.36 87.6098C325.407 87.6098 323.606 87.2937 321.957 86.6627C320.307 86.0314 318.867 85.1466 317.636 84.0014C316.428 82.8327 315.486 81.4715 314.812 79.9288C314.139 78.3868 313.805 76.6902 313.805 74.8429C313.805 72.9956 314.139 71.3084 314.812 69.7664C315.486 68.2237 316.428 66.877 317.636 65.7317C318.867 64.5631 320.307 63.6638 321.957 63.0325C323.606 62.4013 325.407 62.0854 327.36 62.0854ZM327.36 67.768C326.423 67.768 325.545 67.9397 324.724 68.27C323.927 68.6002 323.226 69.082 322.616 69.719C322.029 70.3328 321.555 71.0729 321.204 71.9447C320.875 72.7945 320.714 73.7601 320.714 74.8429C320.714 75.9024 320.876 76.8777 321.204 77.7505C321.555 78.6222 322.02 79.377 322.606 80.0141H322.616C323.226 80.6275 323.927 81.095 324.725 81.4252C325.545 81.7555 326.423 81.9272 327.36 81.9272C328.294 81.9272 329.163 81.7531 329.958 81.4252C330.779 81.095 331.49 80.628 332.076 80.0141C332.686 79.3768 333.151 78.6229 333.479 77.7505C333.831 76.8775 334.006 75.9027 334.006 74.8429C334.006 73.7598 333.831 72.7946 333.479 71.9447C333.151 71.0722 332.687 70.333 332.076 69.719C331.492 69.0834 330.786 68.6003 329.968 68.27H329.958C329.163 67.9417 328.294 67.768 327.36 67.768ZM327.36 67.8534C328.288 67.8534 329.143 68.0197 329.93 68.3459C330.74 68.6722 331.432 69.1474 332.01 69.776H332.02C332.622 70.3813 333.079 71.1201 333.404 71.9828C333.751 72.8211 333.931 73.769 333.931 74.843C333.931 75.8936 333.751 76.8506 333.404 77.7127C333.079 78.5755 332.622 79.3284 332.02 79.9574C331.441 80.5627 330.741 81.0234 329.93 81.3496C329.143 81.6755 328.288 81.8421 327.36 81.8421C326.433 81.8421 325.564 81.6758 324.753 81.3496C323.965 81.0233 323.275 80.5632 322.673 79.9574C322.093 79.3282 321.627 78.5761 321.279 77.7127C320.955 76.8504 320.799 75.8939 320.799 74.843C320.799 73.7687 320.955 72.8213 321.279 71.9828C321.627 71.1195 322.094 70.3815 322.673 69.776C323.275 69.1468 323.966 68.672 324.753 68.3459C325.564 68.0195 326.433 67.8534 327.36 67.8534Z" fill="#2C3135"/>
<path d="M286.115 87.1575V62.5371H297.301C299.538 62.5371 301.461 62.9006 303.069 63.6275C304.701 64.3544 305.959 65.4094 306.845 66.7929C307.73 68.1529 308.173 69.7708 308.173 71.6466C308.173 73.499 307.73 75.1052 306.845 76.4651C305.959 77.8017 304.701 78.8335 303.069 79.5604C301.461 80.2639 299.538 80.6155 297.301 80.6155H289.96L293.036 77.6962V87.1575H286.115ZM301.251 87.1575L295.169 78.1886H302.545L308.662 87.1575H301.251ZM293.036 78.4348L289.96 75.2342H296.882C298.327 75.2342 299.399 74.9177 300.098 74.2846C300.82 73.6515 301.181 72.7721 301.181 71.6466C301.181 70.4977 300.82 69.6067 300.098 68.9736C299.399 68.3405 298.327 68.0239 296.882 68.0239H289.96L293.036 64.8233V78.4348Z" fill="#2C3135"/>
<path d="M286.073 62.4927V87.2026H286.111H293.077V80.6581H296.795L301.229 87.2026H301.247H308.74L303.384 79.3511C304.837 78.6345 306.057 77.7277 306.877 76.4909C307.767 75.1236 308.213 73.5102 308.213 71.6512C308.213 69.7688 307.767 68.1409 306.877 66.7736C305.987 65.3832 304.721 64.321 303.083 63.5913C301.468 62.8615 299.545 62.4927 297.303 62.4927H286.073ZM286.158 62.5781H297.303C299.536 62.5781 301.453 62.9432 303.055 63.6672C304.68 64.3913 305.93 65.4352 306.811 66.8116C307.692 68.1643 308.129 69.7821 308.129 71.6513C308.129 73.4971 307.692 75.0909 306.811 76.4437C305.997 77.6724 304.787 78.5733 303.337 79.285L302.565 78.1484H295.091L296.738 80.573H293.077V78.5368V78.4324V77.599V75.2786H296.88C298.331 75.2786 299.418 74.9551 300.127 74.3125C300.859 73.6714 301.219 72.7856 301.219 71.6512C301.219 70.4935 300.859 69.5837 300.127 68.9424C299.418 68.2998 298.331 67.9859 296.88 67.9859H293.077V64.7184L289.867 68.0616H292.992V75.1933H289.867L292.606 78.0441L289.857 80.6581H292.992V87.1174H286.158V62.5781ZM292.992 64.9269V67.986H290.055L292.992 64.9269ZM293.077 68.0618H296.88C298.319 68.0618 299.382 68.3852 300.071 69.0089C300.784 69.6338 301.144 70.5111 301.144 71.6513C301.144 72.7679 300.784 73.6308 300.071 74.2558C299.382 74.8794 298.319 75.1935 296.88 75.1935H293.077V68.0618ZM290.064 75.2787H292.992V77.6749L292.672 77.9876L290.064 75.2787ZM292.992 77.798V78.3284L292.728 78.0441L292.992 77.798ZM292.662 78.1103L292.992 78.4512V80.5727H290.064L292.662 78.1103ZM295.251 78.2335H302.528L303.281 79.3416C303.187 79.3853 303.151 79.4784 303.055 79.5216C301.453 80.2222 299.536 80.5729 297.303 80.5729H296.833L295.251 78.2335ZM303.328 79.3985L308.58 87.1174H301.276L296.889 80.6581H297.303C299.545 80.6581 301.469 80.3036 303.083 79.5974C303.188 79.5489 303.226 79.4479 303.328 79.3985Z" fill="#2C3135"/>
<path d="M266.088 87.1575V68.0592H258.572V62.5371H280.491V68.0592H273.01V87.1575H266.088Z" fill="#2C3135"/>
<path d="M258.53 62.4927V68.0995H266.051V87.2026H266.089H273.054V68.0995H280.529V62.4927H258.53ZM258.614 62.5781H280.453V68.0144H272.97V87.1175H266.126V68.0144H258.614V62.5781Z" fill="#2C3135"/>
<path d="M229.667 87.1575V62.5371H235.365L248.859 78.9273H246.167V62.5371H252.949V87.1575H247.251L233.757 70.7673H236.449V87.1575H229.667Z" fill="#2C3135"/>
<path d="M229.621 62.4927V87.2026H229.668H236.493V74.1515L247.234 87.2026H252.995V62.4927H246.123V75.5438L235.382 62.4927H229.621ZM229.706 62.5781H235.345L246.123 75.6669V78.9724H248.947L246.208 75.6481V62.5781H252.91V87.1175H247.271L236.493 74.0285V70.7232H233.669L236.408 74.0475V87.1175H229.706V62.5781ZM233.848 70.8084H236.408V73.9244L233.848 70.8084ZM246.208 75.7712L248.768 78.8872H246.208V75.7712Z" fill="#2C3135"/>
<path d="M209.501 72.0687H220.862V77.2742H209.501V72.0687ZM209.99 81.7762H222.785V87.1575H203.139V62.5371H222.33V67.9184H209.99V81.7762Z" fill="#2C3135"/>
<path d="M203.094 62.4927V87.2026H222.825V81.7378H210.032V77.3148H220.904V72.03H210.032V67.9575H222.373V62.4927H203.094ZM203.179 62.5781H222.288V67.8818H209.947V72.03H209.458V72.0689V77.3159H209.947V81.8145H209.995H222.74V87.1182H203.179L203.179 62.5781ZM209.543 72.1059H209.947V77.2297H209.543V72.1059ZM210.032 72.1059H220.82V77.2297H210.032V72.1059Z" fill="#2C3135"/>
<path d="M186.503 87.6495C184.569 87.6495 182.774 87.3448 181.12 86.7351C179.488 86.102 178.067 85.211 176.855 84.0621C175.666 82.9131 174.734 81.5648 174.058 80.0172C173.382 78.4462 173.044 76.7228 173.044 74.8469C173.044 72.9711 173.382 71.2594 174.058 69.7118C174.734 68.1408 175.666 66.7808 176.855 65.6319C178.067 64.4829 179.488 63.6037 181.12 62.9941C182.774 62.3609 184.569 62.0444 186.503 62.0444C188.764 62.0444 190.78 62.4431 192.551 63.2403C194.345 64.0375 195.837 65.1864 197.025 66.687L192.621 70.6967C191.828 69.7587 190.954 69.0436 189.999 68.5512C189.067 68.0588 188.018 67.8126 186.853 67.8126C185.851 67.8126 184.93 67.9766 184.091 68.3049C183.252 68.6332 182.53 69.1139 181.924 69.747C181.341 70.3567 180.875 71.0952 180.525 71.9628C180.199 72.8304 180.036 73.7918 180.036 74.8469C180.036 75.9021 180.199 76.8635 180.525 77.7311C180.875 78.5987 181.341 79.349 181.924 79.9821C182.53 80.5918 183.252 81.0607 184.091 81.389C184.93 81.7173 185.851 81.8814 186.853 81.8814C188.018 81.8814 189.067 81.6352 189.999 81.1428C190.954 80.6504 191.828 79.9352 192.621 78.9973L197.025 83.0069C195.837 84.4841 194.345 85.6331 192.551 86.4538C190.78 87.251 188.764 87.6495 186.503 87.6495Z" fill="#2C3135"/>
<path d="M186.499 62C184.56 62 182.765 62.3215 181.105 62.9566C179.469 63.568 178.038 64.4462 176.822 65.599C175.629 66.7518 174.695 68.1242 174.017 69.6999C173.338 71.2531 173 72.9619 173 74.8427C173 76.7236 173.338 78.4563 174.017 80.0328C174.695 81.5852 175.629 82.9432 176.822 84.0959C178.038 85.2486 179.469 86.1413 181.105 86.7762C182.764 87.3877 184.56 87.6949 186.499 87.6949C188.764 87.6949 190.793 87.2919 192.57 86.4921C194.37 85.6689 195.868 84.5174 197.061 83.0352L197.079 83.0062L192.617 78.9335L192.589 78.9722C191.8 79.9066 190.932 80.6136 189.981 81.1032C189.056 81.5923 188.016 81.842 186.856 81.842C185.859 81.842 184.941 81.6756 184.108 81.3495C183.273 81.0231 182.554 80.5627 181.952 79.9572C181.373 79.328 180.916 78.5759 180.568 77.7126C180.244 76.8502 180.079 75.8937 180.079 74.8429C180.079 73.7921 180.244 72.845 180.568 71.9826C180.916 71.1193 181.373 70.3814 181.952 69.7759C182.554 69.1471 183.274 68.6719 184.108 68.3457C184.941 68.0194 185.859 67.8532 186.856 67.8532C188.016 67.8532 189.056 68.103 189.981 68.592C190.932 69.0817 191.8 69.7886 192.589 70.723L192.617 70.7617L197.079 66.6892L197.061 66.6602C195.868 65.1544 194.371 64.003 192.57 63.2033C190.793 62.4033 188.764 62 186.499 62ZM186.499 62.0854C188.755 62.0854 190.767 62.4844 192.533 63.2787C194.307 64.0668 195.777 65.2112 196.957 66.6883L192.617 70.6377C191.831 69.7154 190.967 69.0045 190.019 68.5162C189.081 68.0205 188.027 67.768 186.856 67.768C185.85 67.768 184.924 67.9397 184.08 68.27C183.235 68.6002 182.506 69.0816 181.896 69.719C181.309 70.3328 180.835 71.0729 180.484 71.9447C180.155 72.8175 179.994 73.7834 179.994 74.8429C179.994 75.9024 180.155 76.8777 180.484 77.7505C180.835 78.6222 181.309 79.377 181.896 80.0141C182.506 80.6278 183.236 81.0951 184.08 81.4252C184.924 81.7555 185.85 81.9272 186.856 81.9272C188.027 81.9272 189.081 81.6746 190.019 81.179C190.967 80.6907 191.831 79.9798 192.617 79.0575L196.957 83.0069C195.777 84.4613 194.307 85.6051 192.533 86.4165C190.767 87.211 188.755 87.6098 186.499 87.6098C184.569 87.6098 182.783 87.3082 181.133 86.7006C179.506 86.0693 178.096 85.175 176.888 84.0298C175.703 82.8846 174.766 81.5474 174.092 80.0046C173.418 78.4391 173.085 76.7137 173.085 74.8429C173.085 72.9721 173.419 71.2704 174.092 69.7285C174.766 68.1622 175.703 66.8106 176.888 65.6654C178.096 64.5204 179.507 63.6403 181.133 63.0325C182.783 62.4013 184.569 62.0854 186.499 62.0854Z" fill="#2C3135"/>
<path fill-rule="evenodd" clip-rule="evenodd" d="M311.518 55.9919L322.699 30.5093H329.791L341 55.9919H333.477L331.513 51.0592H320.865L318.9 55.9919H311.584H311.518ZM329.361 45.6746L326.189 37.7107L323.017 45.6746H329.361Z" fill="#2C3135"/>
<path d="M299.259 55.9493V30.5527H306.398V55.9493H299.259Z" fill="#2C3135"/>
<path d="M281.666 56.4574C279.598 56.4574 277.603 56.2035 275.68 55.6955C273.781 55.1634 272.23 54.4862 271.028 53.6638L273.372 48.3669C274.502 49.0925 275.8 49.6972 277.267 50.1809C278.757 50.6405 280.235 50.8702 281.702 50.8702C282.688 50.8702 283.481 50.7856 284.082 50.6163C284.683 50.4229 285.116 50.1809 285.38 49.8906C285.668 49.576 285.813 49.2132 285.813 48.8021C285.813 48.2216 285.548 47.7621 285.019 47.4235C284.491 47.0848 283.805 46.8067 282.964 46.589C282.123 46.3715 281.185 46.1538 280.151 45.936C279.142 45.7184 278.12 45.4403 277.086 45.1015C276.077 44.7629 275.151 44.3275 274.31 43.7954C273.468 43.2391 272.783 42.5256 272.254 41.6548C271.725 40.7599 271.461 39.6351 271.461 38.2806C271.461 36.7569 271.87 35.3782 272.687 34.1447C273.528 32.9112 274.778 31.9195 276.437 31.1697C278.096 30.4199 280.163 30.0449 282.639 30.0449C284.298 30.0449 285.921 30.2385 287.508 30.6255C289.118 30.9883 290.549 31.5325 291.799 32.2581L289.599 37.5914C288.397 36.9384 287.207 36.4545 286.029 36.1401C284.851 35.8015 283.709 35.6322 282.603 35.6322C281.618 35.6322 280.824 35.741 280.223 35.9586C279.622 36.152 279.19 36.418 278.925 36.7567C278.661 37.0953 278.529 37.4824 278.529 37.9178C278.529 38.4741 278.781 38.9215 279.286 39.2601C279.815 39.5744 280.5 39.8405 281.341 40.0583C282.207 40.2518 283.144 40.4573 284.154 40.6751C285.188 40.8926 286.209 41.1708 287.219 41.5095C288.253 41.8241 289.19 42.2595 290.032 42.8157C290.873 43.3478 291.546 44.0613 292.051 44.9562C292.58 45.827 292.844 46.9275 292.844 48.2577C292.844 49.7332 292.424 51.0998 291.582 52.3575C290.765 53.5911 289.527 54.5827 287.868 55.3325C286.233 56.0823 284.166 56.4574 281.666 56.4574Z" fill="#2C3135"/>
<path d="M282.636 30.0011C280.155 30.0011 278.089 30.3775 276.423 31.1308C274.759 31.8831 273.499 32.8832 272.652 34.1243C271.831 35.3646 271.417 36.7536 271.417 38.2851C271.417 39.6452 271.688 40.7709 272.222 41.674C272.754 42.5499 273.443 43.27 274.29 43.8297C275.134 44.3637 276.056 44.7986 277.069 45.1382C278.104 45.4775 279.136 45.7582 280.147 45.976C281.18 46.1939 282.113 46.4175 282.954 46.635C283.792 46.8519 284.47 47.128 284.993 47.4634C285.513 47.7959 285.77 48.2327 285.77 48.8001C285.77 49.2011 285.631 49.5561 285.349 49.8638C285.092 50.1458 284.664 50.3872 284.067 50.5793C283.472 50.747 282.683 50.824 281.7 50.824C280.241 50.824 278.767 50.5932 277.284 50.1368H277.274C275.814 49.6545 274.516 49.0514 273.391 48.3294L273.354 48.3006L270.978 53.6758L271.006 53.695C272.213 54.5208 273.763 55.2047 275.665 55.7378C277.592 56.2466 279.592 56.5003 281.663 56.5003H281.71V56.4906C284.189 56.4857 286.255 56.118 287.885 55.3703C289.549 54.6181 290.795 53.6182 291.618 52.3768C292.464 51.1126 292.89 49.7373 292.89 48.2537C292.89 46.9177 292.62 45.8097 292.086 44.9307C291.578 44.03 290.903 43.3108 290.055 42.7749C289.21 42.2164 288.267 41.7821 287.23 41.4665C286.219 41.1271 285.196 40.8465 284.161 40.6286C283.151 40.4108 282.219 40.2103 281.354 40.0168C280.519 39.8004 279.838 39.5357 279.314 39.226C278.818 38.8935 278.575 38.4608 278.575 37.9175C278.575 37.491 278.7 37.1101 278.959 36.7785C279.216 36.4493 279.645 36.1889 280.241 35.9971C280.835 35.7822 281.625 35.6771 282.608 35.6771C283.709 35.6771 284.839 35.8477 286.013 36.1854H286.023C287.197 36.4987 288.379 36.9741 289.578 37.6257L289.625 37.6547L291.852 32.2419L291.824 32.2226C290.57 31.4945 289.134 30.9482 287.52 30.5846C285.93 30.1966 284.298 30.0011 282.636 30.0011ZM282.636 30.086C284.291 30.086 285.918 30.2835 287.501 30.6695C289.094 31.0286 290.501 31.5746 291.739 32.2888L289.578 37.5322C288.387 36.8884 287.21 36.4133 286.041 36.1013C284.86 35.7615 283.718 35.593 282.608 35.593C281.619 35.593 280.82 35.7023 280.212 35.9226C279.606 36.1178 279.165 36.3843 278.893 36.7321C278.623 37.0777 278.481 37.4742 278.481 37.9183C278.481 38.4876 278.744 38.948 279.258 39.2926H279.268V39.3024C279.801 39.6195 280.491 39.8839 281.335 40.1025C282.201 40.2958 283.132 40.4968 284.142 40.7144C285.174 40.9318 286.194 41.214 287.202 41.5522H287.211C288.241 41.8655 289.171 42.2975 290.009 42.8513C290.844 43.3797 291.509 44.0894 292.011 44.9786C292.535 45.8411 292.806 46.9301 292.806 48.2547C292.806 49.7219 292.38 51.0795 291.543 52.3308C290.731 53.5565 289.501 54.5488 287.847 55.2961C286.22 56.0425 284.159 56.4163 281.663 56.4163C281.65 56.4163 281.638 56.4163 281.626 56.4163C279.575 56.4132 277.601 56.1574 275.694 55.6538C273.813 55.1269 272.283 54.4585 271.09 53.6487L273.392 48.4241C274.516 49.1406 275.804 49.743 277.256 50.2221C278.75 50.6829 280.23 50.9092 281.7 50.9092C282.689 50.9092 283.489 50.8259 284.096 50.6553C284.701 50.4606 285.143 50.2196 285.415 49.921C285.71 49.5996 285.855 49.2218 285.855 48.8007C285.855 48.2071 285.579 47.7332 285.041 47.3886C284.507 47.0469 283.817 46.7695 282.973 46.551C282.131 46.3331 281.191 46.11 280.157 45.892C279.149 45.6747 278.13 45.4018 277.097 45.0635C276.091 44.7256 275.175 44.2947 274.337 43.7645C273.501 43.2116 272.814 42.5026 272.288 41.6371C271.764 40.7503 271.502 39.6346 271.502 38.2857C271.502 36.7696 271.906 35.3988 272.718 34.1721C273.555 32.946 274.798 31.954 276.452 31.2067C278.103 30.4601 280.164 30.086 282.636 30.086Z" fill="#2C3135"/>
<path d="M251.993 40.3853H263.713V45.7549H251.993V40.3853ZM252.498 50.3989H265.696V55.9498H245.43V30.5532H265.227V36.1042H252.498V50.3989Z" fill="#2C3135"/>
<path d="M245.388 30.5093V55.9919H265.738V50.3532H252.536V45.797H263.755V40.3465H252.536V36.148H265.27V30.5093H245.388ZM245.472 30.5941H265.186V36.0635H252.452V40.3466H251.947V40.3852V45.798H252.452V50.4389H252.499H265.654V55.9082H245.473L245.472 30.5941ZM252.031 40.4314H252.452V45.7124H252.031V40.4314ZM252.536 40.4314H263.67V45.7124H252.536V40.4314Z" fill="#2C3135"/>
<path d="M220.302 55.9498V30.5532H227.441V50.2537H239.485V55.9498H220.302Z" fill="#2C3135"/>
<path d="M220.257 30.5093V55.9919H220.304H239.532V50.212H227.481V30.5093H220.257ZM220.342 30.5941H227.396V50.2968H239.447V55.9073H220.342V30.5941Z" fill="#2C3135"/>
<path d="M202.024 56.4573C200.028 56.4573 198.177 56.1429 196.471 55.514C194.764 54.861 193.285 53.9419 192.035 52.7567C190.809 51.5715 189.848 50.1808 189.15 48.5844C188.453 46.9639 188.105 45.186 188.105 43.251C188.105 41.3161 188.453 39.5505 189.15 37.9541C189.848 36.3335 190.821 34.9306 192.071 33.7455C193.321 32.5603 194.8 31.6534 196.507 31.0245C198.237 30.3715 200.125 30.0449 202.168 30.0449C204.548 30.0449 206.675 30.444 208.551 31.2422C210.426 32.0404 211.976 33.1892 213.202 34.6888L208.659 38.8249C207.793 37.8815 206.856 37.18 205.846 36.7205C204.86 36.2367 203.755 35.9949 202.529 35.9949C201.447 35.9949 200.461 36.1643 199.572 36.5029C198.682 36.8416 197.925 37.3373 197.3 37.9903C196.675 38.6192 196.182 39.3811 195.821 40.276C195.485 41.1468 195.317 42.1384 195.317 43.251C195.317 44.3153 195.485 45.2949 195.821 46.1898C196.182 47.0848 196.675 47.8587 197.3 48.5118C197.925 49.1406 198.67 49.6366 199.536 49.9994C200.425 50.338 201.399 50.5073 202.456 50.5073C203.514 50.5073 204.548 50.338 205.558 49.9994C206.567 49.6366 207.589 49.0318 208.623 48.1852L212.625 53.2283C211.183 54.2683 209.512 55.0666 207.613 55.6229C205.714 56.1792 203.851 56.4573 202.024 56.4573ZM206.315 52.285V42.707H212.625V53.2283L206.315 52.285Z" fill="#2C3135"/>
<path d="M202.172 30.0009C200.124 30.0009 198.229 30.3247 196.493 30.9799C194.781 31.6106 193.293 32.5206 192.039 33.7098C190.785 34.899 189.81 36.3109 189.111 37.9366C188.411 39.5387 188.063 41.3151 188.063 43.2552C188.063 45.1954 188.411 46.9759 189.111 48.6022C189.81 50.2034 190.772 51.6022 192.002 52.7912C193.256 53.9804 194.744 54.8945 196.455 55.5494V55.559C198.167 56.1897 200.022 56.5003 202.022 56.5003C203.854 56.5003 205.724 56.2198 207.627 55.6625C209.52 55.108 211.181 54.3065 212.623 53.2715L212.67 53.2812V53.2426L212.688 53.2329L212.67 53.2041V42.6609H206.27V49.5232C206.029 49.637 205.78 49.8703 205.54 49.9565C204.535 50.2939 203.506 50.4649 202.453 50.4649C201.399 50.4649 200.437 50.2933 199.552 49.9565C198.694 49.5965 197.955 49.1008 197.335 48.4786C196.714 47.8296 196.215 47.0626 195.857 46.1723H195.866C195.532 45.2826 195.361 44.3138 195.361 43.2541C195.361 42.1459 195.522 41.1538 195.857 40.2888C196.215 39.3986 196.705 38.6447 197.326 38.0201H197.335C197.956 37.3717 198.706 36.8787 199.59 36.5422C200.474 36.2057 201.451 36.0338 202.528 36.0338C203.748 36.0338 204.851 36.2782 205.831 36.7587C206.835 37.2156 207.766 37.9087 208.628 38.8485L208.657 38.887L213.26 34.6886L213.232 34.6597C212.001 33.1548 210.453 32.0056 208.572 31.2049C206.691 30.4042 204.557 30.0009 202.172 30.0009ZM202.172 30.0858C204.547 30.0858 206.665 30.4858 208.534 31.2813C210.393 32.0723 211.919 33.2171 213.137 34.6984L208.656 38.7651C207.797 37.8371 206.87 37.1407 205.868 36.6847C204.876 36.1979 203.759 35.9504 202.527 35.9504C201.441 35.9504 200.447 36.1181 199.552 36.4588C198.657 36.7995 197.899 37.3072 197.269 37.9649C196.642 38.5971 196.143 39.3648 195.782 40.2619C195.443 41.1383 195.276 42.1385 195.276 43.2554C195.276 44.3242 195.443 45.3017 195.782 46.2018C196.144 47.1014 196.64 47.8887 197.269 48.5458C197.898 49.1788 198.645 49.6778 199.515 50.0426H199.524C200.419 50.3834 201.391 50.5508 202.453 50.5508C203.515 50.5508 204.555 50.3827 205.568 50.0426C205.8 49.9597 206.038 49.7365 206.27 49.6285V52.3208L206.308 52.3304L212.483 53.2529C211.069 54.2535 209.448 55.0364 207.599 55.5781C205.703 56.1334 203.845 56.4159 202.022 56.4159C200.031 56.4159 198.185 56.1016 196.483 55.4745C194.781 54.8233 193.313 53.9069 192.067 52.7258C190.845 51.5444 189.881 50.1564 189.186 48.565C188.491 46.9501 188.147 45.1855 188.147 43.2557C188.147 41.3259 188.491 39.5652 189.186 37.9746C189.881 36.3592 190.859 34.9574 192.105 33.7762C193.35 32.595 194.819 31.6921 196.521 31.0651C198.247 30.414 200.133 30.0858 202.172 30.0858ZM206.354 42.7471H212.585V53.102L208.628 48.1222L208.599 48.151C207.843 48.7707 207.096 49.1193 206.354 49.4784L206.354 42.7471ZM208.609 48.2352L212.529 53.1679L206.354 52.2548V49.5719C207.102 49.2138 207.85 48.8528 208.609 48.2352Z" fill="#2C3135"/>
<path d="M174.05 55.9459V30.5493H181.19V55.9459H174.05Z" fill="#2C3135"/>
<path fill-rule="evenodd" clip-rule="evenodd" d="M74.4141 148.911C115.512 148.911 148.828 115.595 148.828 74.4971C148.828 33.3994 115.512 0.0830078 74.4141 0.0830078C33.3163 0.0830078 0 33.3994 0 74.4971C0 115.595 33.3163 148.911 74.4141 148.911ZM38 56.3118V59.1295V107.086H71.8669V112.701H77.4978V107.086H111.369V56.3118H83.1133V61.9527H105.728V101.445H77.4978V45.1303H88.7596V39.4994H77.4978V28.2375H71.8669V39.4994H60.605V45.1303H71.8669V101.445H43.6397V61.9527H66.2624V56.3118H38ZM66.236 67.654H49.3432V73.2849H66.236V67.654ZM83.1287 67.654H100.021V73.2849H83.1287V67.654ZM66.236 78.9158H49.3432V84.5467H66.236V78.9158ZM83.1287 78.9158H100.021V84.5467H83.1287V78.9158ZM66.236 90.1776H49.3432V95.8085H66.236V90.1776ZM83.1287 90.1776H100.021V95.8085H83.1287V90.1776Z" fill="#458BD0"/>
</svg>
