<svg width="342" height="152" viewBox="0 0 342 152" fill="none" xmlns="http://www.w3.org/2000/svg">
<path d="M336.29 135.114C335.645 135.114 335.082 134.99 334.6 134.742C334.119 134.494 333.744 134.122 333.474 133.626C333.214 133.13 333.084 132.51 333.084 131.766V127.228H334.11V131.647C334.11 132.48 334.307 133.11 334.701 133.537C335.106 133.953 335.669 134.161 336.391 134.161C336.92 134.161 337.377 134.052 337.762 133.834C338.157 133.606 338.455 133.279 338.657 132.852C338.869 132.426 338.975 131.915 338.975 131.32V127.229H340V135.039H339.018V132.897L339.177 133.284C338.936 133.859 338.561 134.31 338.051 134.638C337.55 134.955 336.963 135.114 336.29 135.114ZM335.611 126.008L337.589 124.164H338.961L336.622 126.008H335.611Z" fill="#2C3135"/>
<path d="M326.385 135.114C325.664 135.114 325.014 134.945 324.436 134.608C323.869 134.271 323.421 133.804 323.094 133.209C322.767 132.604 322.603 131.91 322.603 131.126C322.603 130.333 322.767 129.639 323.094 129.044C323.421 128.449 323.869 127.987 324.436 127.66C325.014 127.323 325.664 127.154 326.385 127.154C327.05 127.154 327.642 127.308 328.161 127.615C328.691 127.923 329.109 128.374 329.417 128.969C329.735 129.554 329.894 130.273 329.894 131.126C329.894 131.97 329.74 132.689 329.432 133.284C329.124 133.879 328.705 134.335 328.176 134.652C327.656 134.96 327.059 135.114 326.385 135.114ZM326.458 134.176C326.997 134.176 327.478 134.052 327.901 133.804C328.335 133.547 328.671 133.19 328.912 132.733C329.162 132.267 329.287 131.731 329.287 131.126C329.287 130.512 329.162 129.976 328.912 129.52C328.671 129.063 328.335 128.711 327.901 128.463C327.478 128.206 326.997 128.077 326.458 128.077C325.928 128.077 325.452 128.206 325.028 128.463C324.605 128.711 324.268 129.063 324.018 129.52C323.768 129.976 323.642 130.512 323.642 131.126C323.642 131.731 323.768 132.267 324.018 132.733C324.268 133.19 324.605 133.547 325.028 133.804C325.452 134.052 325.928 134.176 326.458 134.176ZM329.316 135.039V132.689L329.417 131.112L329.273 129.535V124H330.298V135.039H329.316Z" fill="#2C3135"/>
<path d="M317.478 127.154C318.094 127.154 318.633 127.278 319.095 127.526C319.566 127.764 319.932 128.131 320.192 128.627C320.461 129.123 320.596 129.748 320.596 130.502V135.04H319.571V130.606C319.571 129.783 319.369 129.163 318.965 128.746C318.57 128.32 318.012 128.107 317.29 128.107C316.751 128.107 316.279 128.221 315.875 128.449C315.48 128.667 315.172 128.989 314.951 129.416C314.739 129.832 314.633 130.338 314.633 130.933V135.04H313.608V127.229H314.59V129.371L314.431 128.97C314.672 128.404 315.057 127.963 315.586 127.645C316.116 127.318 316.746 127.154 317.478 127.154Z" fill="#2C3135"/>
<path d="M309.84 135.039V133.313L309.797 133.031V130.144C309.797 129.48 309.614 128.969 309.248 128.612C308.892 128.255 308.358 128.076 307.646 128.076C307.155 128.076 306.688 128.161 306.245 128.329C305.803 128.498 305.427 128.721 305.119 128.999L304.657 128.21C305.042 127.873 305.504 127.615 306.043 127.437C306.582 127.248 307.15 127.154 307.747 127.154C308.729 127.154 309.484 127.407 310.014 127.913C310.553 128.409 310.822 129.168 310.822 130.189V135.039L309.84 135.039ZM307.227 135.114C306.659 135.114 306.164 135.019 305.74 134.831C305.326 134.633 305.009 134.365 304.787 134.028C304.566 133.681 304.455 133.284 304.455 132.837C304.455 132.431 304.547 132.064 304.729 131.737C304.922 131.399 305.23 131.131 305.653 130.933C306.087 130.725 306.664 130.621 307.386 130.621H309.999V131.409H307.415C306.683 131.409 306.173 131.543 305.884 131.811C305.605 132.079 305.466 132.411 305.466 132.808C305.466 133.254 305.634 133.611 305.971 133.879C306.308 134.147 306.78 134.281 307.386 134.281C307.963 134.281 308.459 134.147 308.873 133.879C309.297 133.601 309.605 133.204 309.797 132.689L310.028 133.418C309.835 133.933 309.499 134.345 309.017 134.653C308.546 134.96 307.949 135.114 307.227 135.114Z" fill="#2C3135"/>
<path d="M300.081 135.114C299.455 135.114 298.863 135.025 298.305 134.846C297.747 134.658 297.309 134.425 296.991 134.147L297.453 133.314C297.761 133.552 298.156 133.76 298.637 133.938C299.118 134.107 299.623 134.191 300.153 134.191C300.875 134.191 301.394 134.077 301.712 133.849C302.03 133.611 302.189 133.299 302.189 132.912C302.189 132.624 302.097 132.401 301.914 132.242C301.741 132.074 301.51 131.95 301.221 131.87C300.932 131.781 300.61 131.707 300.254 131.647C299.898 131.588 299.542 131.518 299.186 131.439C298.839 131.359 298.521 131.245 298.233 131.097C297.944 130.938 297.708 130.725 297.525 130.457C297.352 130.189 297.265 129.832 297.265 129.386C297.265 128.959 297.381 128.577 297.612 128.24C297.843 127.903 298.18 127.64 298.623 127.452C299.075 127.253 299.624 127.154 300.268 127.154C300.759 127.154 301.25 127.223 301.741 127.362C302.232 127.491 302.636 127.665 302.954 127.883L302.506 128.731C302.169 128.493 301.808 128.324 301.423 128.225C301.038 128.116 300.653 128.061 300.268 128.061C299.585 128.061 299.08 128.185 298.752 128.433C298.435 128.671 298.276 128.979 298.276 129.356C298.276 129.653 298.363 129.886 298.536 130.055C298.719 130.224 298.955 130.358 299.243 130.457C299.542 130.546 299.864 130.62 300.211 130.68C300.567 130.739 300.918 130.814 301.265 130.903C301.621 130.982 301.943 131.096 302.232 131.245C302.53 131.384 302.766 131.588 302.939 131.855C303.122 132.113 303.214 132.455 303.214 132.882C303.214 133.338 303.088 133.735 302.838 134.072C302.598 134.399 302.241 134.657 301.77 134.846C301.308 135.024 300.745 135.114 300.081 135.114Z" fill="#2C3135"/>
<path d="M290.364 138C290.008 138 289.667 137.941 289.339 137.822C289.022 137.703 288.747 137.524 288.516 137.286L288.993 136.497C289.185 136.686 289.392 136.83 289.614 136.929C289.845 137.038 290.1 137.093 290.379 137.093C290.716 137.093 291.004 136.993 291.245 136.795C291.495 136.607 291.731 136.269 291.952 135.783L292.443 134.638L292.559 134.474L295.677 127.229H296.688L292.891 135.977C292.679 136.482 292.443 136.884 292.183 137.182C291.933 137.479 291.659 137.688 291.361 137.807C291.062 137.936 290.73 138 290.364 138ZM292.386 135.263L288.892 127.229H289.96L293.05 134.4L292.386 135.263Z" fill="#2C3135"/>
<path d="M286.683 135.039V133.313L286.639 133.031V130.144C286.639 129.48 286.457 128.969 286.091 128.612C285.735 128.255 285.201 128.076 284.488 128.076C283.997 128.076 283.531 128.161 283.088 128.329C282.645 128.498 282.27 128.721 281.962 128.999L281.5 128.21C281.885 127.873 282.347 127.615 282.886 127.437C283.425 127.248 283.993 127.154 284.589 127.154C285.571 127.154 286.327 127.407 286.856 127.913C287.395 128.409 287.664 129.168 287.664 130.189V135.039L286.683 135.039ZM284.07 135.114C283.502 135.114 283.006 135.019 282.583 134.831C282.169 134.633 281.851 134.365 281.63 134.028C281.408 133.681 281.298 133.284 281.298 132.837C281.298 132.431 281.389 132.064 281.572 131.737C281.764 131.399 282.072 131.131 282.496 130.933C282.929 130.725 283.507 130.621 284.228 130.621H286.842V131.409H284.257C283.526 131.409 283.016 131.543 282.727 131.811C282.448 132.079 282.308 132.411 282.308 132.808C282.308 133.254 282.477 133.611 282.814 133.879C283.15 134.147 283.622 134.281 284.228 134.281C284.806 134.281 285.302 134.147 285.715 133.879C286.139 133.601 286.447 133.204 286.639 132.689L286.87 133.418C286.678 133.933 286.341 134.345 285.86 134.653C285.388 134.96 284.791 135.114 284.07 135.114Z" fill="#2C3135"/>
<path d="M272 135.039V124.625H275.783C276.639 124.625 277.376 124.769 277.992 125.056C278.608 125.334 279.079 125.741 279.406 126.276C279.743 126.802 279.912 127.442 279.912 128.196C279.912 128.93 279.743 129.564 279.406 130.1C279.079 130.626 278.608 131.032 277.992 131.32C277.376 131.608 276.639 131.751 275.783 131.751H272.592L273.068 131.231V135.039H272ZM273.068 131.32L272.592 130.784H275.754C276.764 130.784 277.53 130.561 278.049 130.115C278.579 129.659 278.843 129.019 278.843 128.196C278.843 127.362 278.579 126.718 278.049 126.261C277.53 125.805 276.764 125.577 275.754 125.577H272.592L273.068 125.056V131.32Z" fill="#2C3135"/>
<path d="M327.466 121.223C325.523 121.223 323.731 120.909 322.09 120.28C320.448 119.652 319.014 118.768 317.789 117.628C316.586 116.465 315.65 115.116 314.979 113.58C314.308 112.045 313.973 110.358 313.973 108.52C313.973 106.682 314.308 104.995 314.979 103.46C315.65 101.924 316.586 100.586 317.789 99.4463C319.014 98.2831 320.448 97.3873 322.09 96.7592C323.731 96.131 325.523 95.8169 327.466 95.8169C329.431 95.8169 331.223 96.131 332.842 96.7592C334.484 97.3873 335.906 98.2831 337.108 99.4463C338.311 100.586 339.247 101.924 339.918 103.46C340.612 104.995 340.958 106.682 340.958 108.52C340.958 110.358 340.612 112.056 339.918 113.615C339.247 115.15 338.311 116.488 337.108 117.628C335.906 118.768 334.484 119.652 332.842 120.28C331.223 120.909 329.431 121.223 327.466 121.223ZM327.466 115.499C328.391 115.499 329.246 115.336 330.033 115.011C330.842 114.685 331.536 114.22 332.114 113.615C332.715 112.987 333.177 112.242 333.501 111.381C333.848 110.521 334.021 109.567 334.021 108.52C334.021 107.45 333.848 106.496 333.501 105.658C333.177 104.797 332.715 104.064 332.114 103.46C331.536 102.831 330.842 102.355 330.033 102.029C329.246 101.703 328.391 101.54 327.466 101.54C326.541 101.54 325.674 101.703 324.864 102.029C324.078 102.355 323.384 102.831 322.783 103.46C322.205 104.064 321.743 104.797 321.396 105.658C321.072 106.496 320.91 107.45 320.91 108.52C320.91 109.567 321.072 110.521 321.396 111.381C321.743 112.242 322.205 112.987 322.783 113.615C323.384 114.22 324.078 114.685 324.864 115.011C325.674 115.336 326.541 115.499 327.466 115.499Z" fill="#2C3135"/>
<path d="M327.468 95.7754C325.521 95.7754 323.726 96.0943 322.079 96.7244C320.433 97.3543 318.994 98.2447 317.765 99.4117C316.558 100.555 315.617 101.902 314.944 103.443C314.271 104.984 313.936 106.674 313.936 108.517C313.936 110.36 314.271 112.059 314.944 113.6C315.617 115.14 316.558 116.492 317.765 117.659C318.994 118.803 320.433 119.688 322.079 120.318C323.726 120.948 325.521 121.267 327.468 121.267C329.438 121.267 331.233 120.948 332.856 120.318C334.503 119.688 335.927 118.803 337.134 117.659C338.34 116.516 339.281 115.169 339.954 113.628C340.65 112.064 341 110.36 341 108.517C341 106.673 340.65 104.984 339.954 103.443C339.281 101.902 338.34 100.555 337.134 99.4117C335.927 98.2445 334.503 97.3543 332.856 96.7244C331.233 96.0942 329.438 95.7754 327.468 95.7754ZM327.468 95.8601C329.429 95.8601 331.215 96.1738 332.828 96.7997C334.465 97.4261 335.879 98.3183 337.078 99.4777C338.276 100.614 339.211 101.95 339.879 103.48C340.57 105.01 340.916 106.684 340.916 108.517C340.916 110.35 340.571 112.047 339.879 113.6C339.211 115.131 338.276 116.457 337.078 117.594C335.879 118.73 334.466 119.617 332.828 120.243C331.215 120.869 329.429 121.183 327.468 121.183C325.53 121.183 323.744 120.87 322.107 120.243C320.47 119.617 319.042 118.73 317.821 117.594C316.625 116.435 315.686 115.091 315.019 113.563C314.351 112.033 314.01 110.35 314.01 108.517C314.01 106.684 314.351 105.01 315.019 103.48C315.687 101.95 316.622 100.614 317.821 99.4777C319.042 98.3181 320.47 97.4261 322.107 96.7997C323.744 96.1735 325.53 95.8601 327.468 95.8601ZM327.468 101.498C326.538 101.498 325.667 101.658 324.853 101.986C324.061 102.314 323.357 102.801 322.752 103.433C322.17 104.042 321.709 104.777 321.36 105.642C321.034 106.485 320.865 107.442 320.865 108.517C320.865 109.568 321.034 110.526 321.36 111.392V111.402C321.709 112.267 322.17 113.015 322.752 113.647C323.356 114.256 324.062 114.72 324.853 115.047C325.667 115.375 326.538 115.536 327.468 115.536C328.397 115.536 329.254 115.375 330.045 115.047C330.86 114.72 331.564 114.257 332.147 113.647C332.75 113.017 333.213 112.264 333.538 111.402V111.392C333.885 110.528 334.061 109.565 334.061 108.517C334.061 107.442 333.887 106.485 333.538 105.642C333.213 104.776 332.752 104.043 332.147 103.433C331.564 102.801 330.86 102.314 330.045 101.986C329.254 101.658 328.397 101.498 327.468 101.498ZM327.468 101.582C328.388 101.582 329.236 101.747 330.017 102.071C330.821 102.395 331.507 102.866 332.081 103.49C332.678 104.09 333.142 104.814 333.463 105.67C333.808 106.502 333.977 107.451 333.977 108.517C333.977 109.559 333.808 110.508 333.463 111.364C333.141 112.22 332.679 112.967 332.081 113.591C331.507 114.191 330.822 114.648 330.017 114.972C329.236 115.296 328.388 115.461 327.468 115.461C326.548 115.461 325.685 115.296 324.881 114.972C324.104 114.65 323.412 114.187 322.817 113.591L322.807 113.581C322.237 112.959 321.778 112.216 321.435 111.364C321.113 110.508 320.949 109.559 320.949 108.517C320.949 107.451 321.113 106.502 321.435 105.67C321.78 104.813 322.243 104.091 322.817 103.49C323.414 102.865 324.1 102.394 324.881 102.071C325.685 101.747 326.548 101.582 327.468 101.582Z" fill="#2C3135"/>
<path d="M299.236 121.223C297.317 121.223 295.537 120.92 293.895 120.315C292.276 119.687 290.866 118.803 289.663 117.663C288.484 116.523 287.559 115.185 286.888 113.65C286.218 112.091 285.882 110.381 285.882 108.52C285.882 106.658 286.218 104.96 286.888 103.425C287.559 101.866 288.484 100.517 289.663 99.3766C290.866 98.2366 292.276 97.364 293.895 96.7592C295.537 96.131 297.317 95.8169 299.236 95.8169C301.479 95.8169 303.48 96.2125 305.237 97.0035C307.017 97.7945 308.497 98.9344 309.677 100.423L305.306 104.402C304.52 103.471 303.653 102.762 302.705 102.273C301.78 101.784 300.739 101.54 299.583 101.54C298.589 101.54 297.675 101.703 296.843 102.029C296.011 102.355 295.294 102.831 294.693 103.46C294.114 104.064 293.652 104.797 293.305 105.658C292.981 106.519 292.82 107.473 292.82 108.52C292.82 109.567 292.981 110.521 293.305 111.381C293.652 112.242 294.114 112.987 294.693 113.615C295.294 114.22 296.011 114.685 296.843 115.011C297.675 115.336 298.589 115.499 299.583 115.499C300.739 115.499 301.78 115.255 302.705 114.766C303.653 114.278 304.52 113.568 305.306 112.638L309.677 116.616C308.497 118.082 307.017 119.222 305.237 120.036C303.48 120.827 301.479 121.223 299.236 121.223Z" fill="#2C3135"/>
<path d="M299.236 95.7754C297.312 95.7754 295.531 96.0943 293.885 96.7244C292.261 97.3311 290.842 98.2021 289.635 99.346C288.452 100.49 287.525 101.842 286.852 103.405C286.179 104.946 285.844 106.65 285.844 108.517C285.844 110.383 286.179 112.102 286.852 113.666C287.525 115.206 288.452 116.553 289.635 117.697C290.842 118.841 292.252 119.726 293.875 120.356H293.885C295.531 120.963 297.313 121.267 299.236 121.267C301.484 121.267 303.487 120.868 305.25 120.074C307.036 119.257 308.522 118.115 309.705 116.644L309.733 116.606L305.307 112.575L305.278 112.613C304.495 113.541 303.625 114.242 302.682 114.728C301.763 115.213 300.732 115.46 299.582 115.46C298.592 115.46 297.682 115.296 296.855 114.972C296.027 114.648 295.322 114.182 294.725 113.581C294.153 112.958 293.687 112.218 293.343 111.364C293.021 110.508 292.858 109.559 292.858 108.517C292.858 107.474 293.021 106.525 293.343 105.67C293.688 104.813 294.151 104.091 294.725 103.49C295.322 102.866 296.027 102.395 296.855 102.071C297.682 101.747 298.592 101.582 299.582 101.582C300.732 101.582 301.763 101.82 302.682 102.306C303.625 102.792 304.495 103.502 305.278 104.429L305.307 104.458L309.733 100.427L309.705 100.398C308.522 98.9042 307.037 97.7622 305.25 96.9687C303.487 96.175 301.484 95.7754 299.236 95.7754ZM299.236 95.8601C301.474 95.8601 303.471 96.2556 305.222 97.044C306.982 97.8259 308.441 98.9517 309.611 100.417L305.306 104.345C304.524 103.427 303.662 102.726 302.719 102.24C301.788 101.748 300.743 101.498 299.581 101.498C298.583 101.498 297.664 101.658 296.826 101.986C295.989 102.314 295.265 102.801 294.66 103.433C294.078 104.042 293.617 104.777 293.268 105.642C292.943 106.508 292.783 107.466 292.783 108.517C292.783 109.568 292.943 110.526 293.268 111.392V111.402C293.617 112.267 294.078 113.015 294.66 113.647C295.265 114.256 295.989 114.72 296.826 115.047C297.664 115.375 298.583 115.536 299.581 115.536C300.743 115.536 301.788 115.295 302.719 114.803C303.659 114.319 304.516 113.604 305.297 112.689L309.611 116.617C308.441 118.06 306.982 119.194 305.222 119.999C303.471 120.787 301.474 121.183 299.236 121.183C297.321 121.183 295.55 120.884 293.913 120.281C292.299 119.655 290.89 118.768 289.691 117.631C288.516 116.495 287.596 115.169 286.927 113.638C286.259 112.085 285.928 110.373 285.928 108.517C285.928 106.661 286.259 104.973 286.927 103.443C287.596 101.889 288.516 100.539 289.691 99.4026C290.89 98.2664 292.299 97.403 293.913 96.7999C295.549 96.1736 297.321 95.8601 299.236 95.8601Z" fill="#2C3135"/>
<path d="M272.359 120.734V96.3052H279.227V120.734H272.359Z" fill="#2C3135"/>
<path d="M248.188 120.734V96.3057H255.056V115.255H266.641V120.734H248.188Z" fill="#2C3135"/>
<path d="M248.152 96.2642V120.779H248.189H266.68V115.216H255.1V96.2642H248.152ZM248.226 96.3489H255.016V115.301H266.596V120.695H248.226L248.226 96.3489Z" fill="#2C3135"/>
<path d="M218.502 120.734V96.3057H230.919C234.11 96.3057 236.492 96.899 238.065 98.0855C239.637 99.2488 240.423 100.784 240.423 102.692C240.423 103.948 240.088 105.053 239.417 106.007C238.77 106.938 237.845 107.682 236.642 108.241C235.463 108.776 234.053 109.043 232.411 109.043L233.105 107.368C234.816 107.368 236.307 107.636 237.579 108.171C238.851 108.683 239.834 109.439 240.527 110.439C241.244 111.417 241.602 112.615 241.602 114.034C241.602 116.151 240.747 117.803 239.036 118.989C237.348 120.153 234.873 120.734 231.613 120.734H218.502ZM225.3 115.744H231.058C232.237 115.744 233.128 115.546 233.729 115.151C234.353 114.732 234.665 114.104 234.665 113.266C234.665 112.428 234.353 111.812 233.729 111.416C233.128 110.998 232.237 110.788 231.058 110.788H224.815V106.007H230.018C231.174 106.007 232.041 105.809 232.619 105.414C233.197 105.018 233.486 104.425 233.486 103.634C233.486 102.843 233.197 102.262 232.619 101.889C232.041 101.494 231.174 101.296 230.018 101.296H225.3V115.744Z" fill="#2C3135"/>
<path d="M218.463 96.2642V120.779H218.5H231.612C234.877 120.779 237.357 120.192 239.055 119.022C240.776 117.829 241.642 116.161 241.642 114.032C241.642 112.606 241.281 111.4 240.559 110.415C239.86 109.407 238.876 108.646 237.598 108.132C237.423 108.058 237.166 108.082 236.982 108.019C237.992 107.485 238.872 106.855 239.448 106.027C240.123 105.066 240.466 103.955 240.466 102.691C240.466 100.772 239.665 99.2192 238.084 98.0496C236.501 96.8579 234.113 96.2643 230.921 96.2643L218.463 96.2642ZM218.547 96.3489H230.921C234.107 96.3489 236.476 96.9368 238.037 98.1154C239.601 99.2722 240.382 100.795 240.382 102.691C240.382 103.94 240.048 105.033 239.382 105.98C238.799 106.819 237.92 107.465 236.879 108C235.747 107.621 234.547 107.324 233.106 107.324H233.078L232.35 109.081H232.415C234.061 109.081 235.469 108.82 236.655 108.282C236.76 108.233 236.797 108.136 236.898 108.085C237.096 108.152 237.372 108.128 237.561 108.207C238.827 108.716 239.805 109.469 240.493 110.462C241.205 111.431 241.558 112.621 241.558 114.033C241.558 116.139 240.71 117.776 239.009 118.956C237.331 120.113 234.868 120.695 231.612 120.695H218.547L218.547 96.3489ZM225.262 101.254V105.971H224.776V110.828H225.262V115.78H225.299H231.061C232.245 115.78 233.139 115.591 233.751 115.188C234.386 114.763 234.703 114.11 234.703 113.262C234.703 112.414 234.386 111.785 233.751 111.383C233.139 110.957 232.245 110.744 231.061 110.744H225.346V106.046H230.015C231.176 106.046 232.051 105.847 232.639 105.444C233.228 105.042 233.527 104.432 233.527 103.631C233.527 102.83 233.229 102.234 232.639 101.855C232.051 101.452 231.176 101.254 230.015 101.254H225.262ZM225.346 101.338H230.015C231.167 101.338 232.025 101.533 232.593 101.921C233.16 102.286 233.443 102.85 233.443 103.631C233.443 104.412 233.16 104.99 232.593 105.379C232.025 105.767 231.167 105.971 230.015 105.971H225.346V101.338ZM224.86 106.046H225.262V110.744H224.86V106.046ZM233.134 107.408C234.535 107.411 235.693 107.704 236.795 108.066C236.723 108.1 236.701 108.172 236.627 108.207C235.472 108.731 234.086 108.988 232.481 108.996L233.134 107.408ZM225.346 110.828H231.061C232.236 110.828 233.113 111.037 233.704 111.449C234.317 111.837 234.629 112.435 234.629 113.262C234.629 114.089 234.318 114.701 233.704 115.113C233.113 115.502 232.236 115.705 231.061 115.705H225.346V110.828Z" fill="#2C3135"/>
<path d="M203.73 120.739V96.3101H210.598V120.739H203.73Z" fill="#2C3135"/>
<path d="M174.044 120.734V96.3057H186.462C189.653 96.3057 192.034 96.899 193.607 98.0855C195.179 99.2488 195.965 100.784 195.965 102.692C195.965 103.948 195.63 105.053 194.96 106.007C194.312 106.938 193.387 107.682 192.185 108.241C191.005 108.776 189.595 109.043 187.953 109.043L188.647 107.368C190.358 107.368 191.849 107.636 193.121 108.171C194.393 108.683 195.376 109.439 196.069 110.439C196.786 111.417 197.145 112.615 197.145 114.034C197.145 116.151 196.289 117.803 194.578 118.989C192.89 120.153 190.416 120.734 187.155 120.734H174.044ZM180.843 115.744H186.6C187.78 115.744 188.67 115.546 189.271 115.151C189.895 114.732 190.208 114.104 190.208 113.266C190.208 112.428 189.895 111.812 189.271 111.416C188.67 110.998 187.78 110.788 186.6 110.788H180.357V106.007H185.56C186.716 106.007 187.583 105.809 188.161 105.414C188.739 105.018 189.028 104.425 189.028 103.634C189.028 102.843 188.739 102.262 188.161 101.889C187.583 101.494 186.716 101.296 185.56 101.296H180.843V115.744Z" fill="#2C3135"/>
<path d="M174 96.2642V120.779H174.047H187.159C190.424 120.779 192.904 120.192 194.602 119.022C196.323 117.829 197.189 116.161 197.189 114.032C197.189 112.606 196.828 111.4 196.106 110.415C195.407 109.407 194.414 108.646 193.136 108.132C192.963 108.059 192.71 108.082 192.529 108.019C193.538 107.485 194.418 106.855 194.994 106.027C195.67 105.066 196.003 103.955 196.003 102.691C196.003 100.772 195.212 99.2192 193.631 98.0496C192.048 96.855 189.654 96.2643 186.458 96.2643L174 96.2642ZM174.084 96.3489H186.458C189.644 96.3489 192.022 96.9368 193.584 98.1154C195.148 99.2722 195.928 100.795 195.928 102.691C195.928 103.94 195.594 105.033 194.929 105.98C194.345 106.819 193.457 107.465 192.417 108C191.284 107.621 190.084 107.324 188.644 107.324H188.615L187.887 109.081H187.952C189.598 109.081 191.016 108.82 192.202 108.282C192.307 108.233 192.343 108.136 192.444 108.085C192.642 108.152 192.919 108.128 193.107 108.207C194.373 108.716 195.351 109.469 196.04 110.462C196.751 111.431 197.104 112.621 197.104 114.033C197.104 116.139 196.257 117.776 194.555 118.956C192.877 120.113 190.414 120.695 187.158 120.695H174.084L174.084 96.3489ZM180.799 101.254V105.971H180.313V110.828H180.799V115.78H180.846H186.598C187.782 115.78 188.686 115.591 189.297 115.188C189.932 114.763 190.25 114.11 190.25 113.262C190.25 112.414 189.933 111.785 189.297 111.383C188.686 110.957 187.783 110.744 186.598 110.744H180.883V106.046H185.562C186.723 106.046 187.598 105.847 188.186 105.444C188.775 105.042 189.073 104.432 189.073 103.631C189.073 102.83 188.775 102.234 188.186 101.855C187.598 101.452 186.723 101.254 185.562 101.254H180.799ZM180.883 101.338H185.562C186.713 101.338 187.572 101.533 188.139 101.921C188.706 102.286 188.989 102.85 188.989 103.631C188.989 104.412 188.707 104.99 188.139 105.379C187.572 105.767 186.713 105.971 185.562 105.971H180.883V101.338ZM180.397 106.046H180.799V110.744H180.397V106.046ZM188.672 107.408C190.069 107.411 191.232 107.705 192.332 108.066C192.261 108.1 192.238 108.173 192.164 108.207C191.01 108.731 189.623 108.988 188.018 108.996L188.672 107.408ZM180.883 110.828H186.598C187.773 110.828 188.66 111.037 189.251 111.449C189.864 111.837 190.166 112.435 190.166 113.262C190.166 114.089 189.864 114.701 189.251 115.113C188.66 115.502 187.773 115.705 186.598 115.705H180.883V110.828Z" fill="#2C3135"/>
<path d="M327.36 90.6495C325.403 90.6495 323.597 90.333 321.942 89.6999C320.287 89.0668 318.842 88.1758 317.607 87.0268C316.395 85.8544 315.451 84.4945 314.776 82.9469C314.1 81.3993 313.762 79.6993 313.762 77.8469C313.762 75.9945 314.1 74.2946 314.776 72.747C315.451 71.1995 316.395 69.8511 317.607 68.7022C318.842 67.5298 320.287 66.6271 321.942 65.9941C323.597 65.3609 325.403 65.0444 327.36 65.0444C329.341 65.0444 331.148 65.3609 332.779 65.9941C334.434 66.6271 335.867 67.5298 337.079 68.7022C338.291 69.8511 339.234 71.1995 339.91 72.747C340.609 74.2946 340.959 75.9945 340.959 77.8469C340.959 79.6993 340.609 81.4111 339.91 82.9821C339.234 84.5297 338.291 85.8779 337.079 87.0268C335.867 88.1758 334.434 89.0668 332.779 89.6999C331.148 90.333 329.341 90.6495 327.36 90.6495ZM327.36 84.8814C328.293 84.8814 329.155 84.7173 329.947 84.389C330.763 84.0607 331.462 83.5918 332.045 82.9821C332.651 82.349 333.117 81.5987 333.443 80.7311C333.793 79.8635 333.967 78.9021 333.967 77.8469C333.967 76.7683 333.793 75.807 333.443 74.9628C333.117 74.0952 332.651 73.3567 332.045 72.747C331.462 72.1139 330.763 71.6332 329.947 71.3049C329.155 70.9766 328.293 70.8126 327.36 70.8126C326.428 70.8126 325.554 70.9766 324.739 71.3049C323.946 71.6332 323.247 72.1139 322.641 72.747C322.058 73.3567 321.592 74.0952 321.243 74.9628C320.917 75.807 320.753 76.7683 320.753 77.8469C320.753 78.9021 320.917 79.8635 321.243 80.7311C321.592 81.5987 322.058 82.349 322.641 82.9821C323.247 83.5918 323.946 84.0607 324.739 84.389C325.554 84.7173 326.428 84.8814 327.36 84.8814Z" fill="#2C3135"/>
<path d="M327.36 65C325.398 65 323.588 65.3215 321.929 65.9566C320.269 66.5915 318.819 67.4985 317.58 68.6748C316.364 69.8275 315.415 71.1759 314.737 72.7284C314.059 74.2815 313.72 75.9853 313.72 77.8427C313.72 79.7002 314.059 81.4134 314.737 82.9665C315.415 84.519 316.364 85.882 317.58 87.058C318.819 88.2107 320.269 89.1035 321.929 89.7383C323.588 90.3734 325.398 90.6949 327.36 90.6949C329.345 90.6949 331.155 90.3734 332.792 89.7383C334.451 89.1035 335.887 88.2109 337.103 87.058C338.319 85.9053 339.268 84.5474 339.946 82.995C340.647 81.4184 341 79.7004 341 77.8427C341 75.9851 340.648 74.2816 339.946 72.7284C339.268 71.1759 338.319 69.8275 337.103 68.6748C335.887 67.4984 334.451 66.5915 332.792 65.9566C331.155 65.3214 329.345 65 327.36 65ZM327.36 65.0854C329.337 65.0854 331.137 65.4015 332.763 66.0325C334.413 66.6637 335.839 67.5633 337.046 68.7317C338.254 69.877 339.197 71.2237 339.87 72.7664C340.567 74.3083 340.915 75.9958 340.915 77.8429C340.915 79.6901 340.567 81.4013 339.87 82.9667C339.197 84.5094 338.254 85.8562 337.046 87.0014C335.839 88.1465 334.413 89.0314 332.763 89.6627C331.137 90.2938 329.337 90.6098 327.36 90.6098C325.407 90.6098 323.606 90.2937 321.957 89.6627C320.307 89.0314 318.867 88.1466 317.636 87.0014C316.428 85.8327 315.486 84.4715 314.812 82.9288C314.139 81.3868 313.805 79.6902 313.805 77.8429C313.805 75.9956 314.139 74.3084 314.812 72.7664C315.486 71.2237 316.428 69.877 317.636 68.7317C318.867 67.5631 320.307 66.6638 321.957 66.0325C323.606 65.4013 325.407 65.0854 327.36 65.0854ZM327.36 70.768C326.423 70.768 325.545 70.9397 324.724 71.27C323.927 71.6002 323.226 72.082 322.616 72.719C322.029 73.3328 321.555 74.0729 321.204 74.9447C320.875 75.7945 320.714 76.7601 320.714 77.8429C320.714 78.9024 320.876 79.8777 321.204 80.7505C321.555 81.6222 322.02 82.377 322.606 83.0141H322.616C323.226 83.6275 323.927 84.095 324.725 84.4252C325.545 84.7555 326.423 84.9272 327.36 84.9272C328.294 84.9272 329.163 84.7531 329.958 84.4252C330.779 84.095 331.49 83.628 332.076 83.0141C332.686 82.3768 333.151 81.6229 333.479 80.7505C333.831 79.8775 334.006 78.9027 334.006 77.8429C334.006 76.7598 333.831 75.7946 333.479 74.9447C333.151 74.0722 332.687 73.333 332.076 72.719C331.492 72.0834 330.786 71.6003 329.968 71.27H329.958C329.163 70.9417 328.294 70.768 327.36 70.768ZM327.36 70.8534C328.288 70.8534 329.143 71.0197 329.93 71.3459C330.74 71.6722 331.432 72.1474 332.01 72.776H332.02C332.622 73.3813 333.079 74.1201 333.404 74.9828C333.751 75.8211 333.931 76.769 333.931 77.843C333.931 78.8936 333.751 79.8506 333.404 80.7127C333.079 81.5755 332.622 82.3284 332.02 82.9574C331.441 83.5627 330.741 84.0234 329.93 84.3496C329.143 84.6755 328.288 84.8421 327.36 84.8421C326.433 84.8421 325.564 84.6758 324.753 84.3496C323.965 84.0233 323.275 83.5632 322.673 82.9574C322.093 82.3282 321.627 81.5761 321.279 80.7127C320.955 79.8504 320.799 78.8939 320.799 77.843C320.799 76.7687 320.955 75.8213 321.279 74.9828C321.627 74.1195 322.094 73.3815 322.673 72.776C323.275 72.1468 323.966 71.672 324.753 71.3459C325.564 71.0195 326.433 70.8534 327.36 70.8534Z" fill="#2C3135"/>
<path d="M286.115 90.1575V65.5371H297.301C299.538 65.5371 301.461 65.9006 303.069 66.6275C304.701 67.3544 305.959 68.4094 306.845 69.7929C307.73 71.1529 308.173 72.7708 308.173 74.6466C308.173 76.499 307.73 78.1052 306.845 79.4651C305.959 80.8017 304.701 81.8335 303.069 82.5604C301.461 83.2639 299.538 83.6155 297.301 83.6155H289.96L293.036 80.6962V90.1575H286.115ZM301.251 90.1575L295.169 81.1886H302.545L308.662 90.1575H301.251ZM293.036 81.4348L289.96 78.2342H296.882C298.327 78.2342 299.399 77.9177 300.098 77.2846C300.82 76.6515 301.181 75.7721 301.181 74.6466C301.181 73.4977 300.82 72.6067 300.098 71.9736C299.399 71.3405 298.327 71.0239 296.882 71.0239H289.96L293.036 67.8233V81.4348Z" fill="#2C3135"/>
<path d="M286.073 65.4927V90.2026H286.111H293.077V83.6581H296.795L301.229 90.2026H301.247H308.74L303.384 82.3511C304.837 81.6345 306.057 80.7277 306.877 79.4909C307.767 78.1236 308.213 76.5102 308.213 74.6512C308.213 72.7688 307.767 71.1409 306.877 69.7736C305.987 68.3832 304.721 67.321 303.083 66.5913C301.468 65.8615 299.545 65.4927 297.303 65.4927H286.073ZM286.158 65.5781H297.303C299.536 65.5781 301.453 65.9432 303.055 66.6672C304.68 67.3913 305.93 68.4352 306.811 69.8116C307.692 71.1643 308.129 72.7821 308.129 74.6513C308.129 76.4971 307.692 78.0909 306.811 79.4437C305.997 80.6724 304.787 81.5733 303.337 82.285L302.565 81.1484H295.091L296.738 83.573H293.077V81.5368V81.4324V80.599V78.2786H296.88C298.331 78.2786 299.418 77.9551 300.127 77.3125C300.859 76.6714 301.219 75.7856 301.219 74.6512C301.219 73.4935 300.859 72.5837 300.127 71.9424C299.418 71.2998 298.331 70.9859 296.88 70.9859H293.077V67.7184L289.867 71.0616H292.992V78.1933H289.867L292.606 81.0441L289.857 83.6581H292.992V90.1174H286.158V65.5781ZM292.992 67.9269V70.986H290.055L292.992 67.9269ZM293.077 71.0618H296.88C298.319 71.0618 299.382 71.3852 300.071 72.0089C300.784 72.6338 301.144 73.5111 301.144 74.6513C301.144 75.7679 300.784 76.6308 300.071 77.2558C299.382 77.8794 298.319 78.1935 296.88 78.1935H293.077V71.0618ZM290.064 78.2787H292.992V80.6749L292.672 80.9876L290.064 78.2787ZM292.992 80.798V81.3284L292.728 81.0441L292.992 80.798ZM292.662 81.1103L292.992 81.4512V83.5727H290.064L292.662 81.1103ZM295.251 81.2335H302.528L303.281 82.3416C303.187 82.3853 303.151 82.4784 303.055 82.5216C301.453 83.2222 299.536 83.5729 297.303 83.5729H296.833L295.251 81.2335ZM303.328 82.3985L308.58 90.1174H301.276L296.889 83.6581H297.303C299.545 83.6581 301.469 83.3036 303.083 82.5974C303.188 82.5489 303.226 82.4479 303.328 82.3985Z" fill="#2C3135"/>
<path d="M266.088 90.1575V71.0592H258.572V65.5371H280.491V71.0592H273.01V90.1575H266.088Z" fill="#2C3135"/>
<path d="M258.53 65.4927V71.0995H266.051V90.2026H266.089H273.054V71.0995H280.529V65.4927H258.53ZM258.614 65.5781H280.453V71.0144H272.97V90.1175H266.126V71.0144H258.614V65.5781Z" fill="#2C3135"/>
<path d="M229.667 90.1575V65.5371H235.365L248.859 81.9273H246.167V65.5371H252.949V90.1575H247.251L233.757 73.7673H236.449V90.1575H229.667Z" fill="#2C3135"/>
<path d="M229.621 65.4927V90.2026H229.668H236.493V77.1515L247.234 90.2026H252.995V65.4927H246.123V78.5438L235.382 65.4927H229.621ZM229.706 65.5781H235.345L246.123 78.6669V81.9724H248.947L246.208 78.6481V65.5781H252.91V90.1175H247.271L236.493 77.0285V73.7232H233.669L236.408 77.0475V90.1175H229.706V65.5781ZM233.848 73.8084H236.408V76.9244L233.848 73.8084ZM246.208 78.7712L248.768 81.8872H246.208V78.7712Z" fill="#2C3135"/>
<path d="M209.501 75.0687H220.862V80.2742H209.501V75.0687ZM209.99 84.7762H222.785V90.1575H203.139V65.5371H222.33V70.9184H209.99V84.7762Z" fill="#2C3135"/>
<path d="M203.094 65.4927V90.2026H222.825V84.7378H210.032V80.3148H220.904V75.03H210.032V70.9575H222.373V65.4927H203.094ZM203.179 65.5781H222.288V70.8818H209.947V75.03H209.458V75.0689V80.3159H209.947V84.8145H209.995H222.74V90.1182H203.179L203.179 65.5781ZM209.543 75.1059H209.947V80.2297H209.543V75.1059ZM210.032 75.1059H220.82V80.2297H210.032V75.1059Z" fill="#2C3135"/>
<path d="M186.503 90.6495C184.569 90.6495 182.774 90.3448 181.12 89.7351C179.488 89.102 178.067 88.211 176.855 87.0621C175.666 85.9131 174.734 84.5648 174.058 83.0172C173.382 81.4462 173.044 79.7228 173.044 77.8469C173.044 75.9711 173.382 74.2594 174.058 72.7118C174.734 71.1408 175.666 69.7808 176.855 68.6319C178.067 67.4829 179.488 66.6037 181.12 65.9941C182.774 65.3609 184.569 65.0444 186.503 65.0444C188.764 65.0444 190.78 65.4431 192.551 66.2403C194.345 67.0375 195.837 68.1864 197.025 69.687L192.621 73.6967C191.828 72.7587 190.954 72.0436 189.999 71.5512C189.067 71.0588 188.018 70.8126 186.853 70.8126C185.851 70.8126 184.93 70.9766 184.091 71.3049C183.252 71.6332 182.53 72.1139 181.924 72.747C181.341 73.3567 180.875 74.0952 180.525 74.9628C180.199 75.8304 180.036 76.7918 180.036 77.8469C180.036 78.9021 180.199 79.8635 180.525 80.7311C180.875 81.5987 181.341 82.349 181.924 82.9821C182.53 83.5918 183.252 84.0607 184.091 84.389C184.93 84.7173 185.851 84.8814 186.853 84.8814C188.018 84.8814 189.067 84.6352 189.999 84.1428C190.954 83.6504 191.828 82.9352 192.621 81.9973L197.025 86.0069C195.837 87.4841 194.345 88.6331 192.551 89.4538C190.78 90.251 188.764 90.6495 186.503 90.6495Z" fill="#2C3135"/>
<path d="M186.499 65C184.56 65 182.765 65.3215 181.105 65.9566C179.469 66.568 178.038 67.4462 176.822 68.599C175.629 69.7518 174.695 71.1242 174.017 72.6999C173.338 74.2531 173 75.9619 173 77.8427C173 79.7236 173.338 81.4563 174.017 83.0328C174.695 84.5852 175.629 85.9432 176.822 87.0959C178.038 88.2486 179.469 89.1413 181.105 89.7762C182.764 90.3877 184.56 90.6949 186.499 90.6949C188.764 90.6949 190.793 90.2919 192.57 89.4921C194.37 88.6689 195.868 87.5174 197.061 86.0352L197.079 86.0062L192.617 81.9335L192.589 81.9722C191.8 82.9066 190.932 83.6136 189.981 84.1032C189.056 84.5923 188.016 84.842 186.856 84.842C185.859 84.842 184.941 84.6756 184.108 84.3495C183.273 84.0231 182.554 83.5627 181.952 82.9572C181.373 82.328 180.916 81.5759 180.568 80.7126C180.244 79.8502 180.079 78.8937 180.079 77.8429C180.079 76.7921 180.244 75.845 180.568 74.9826C180.916 74.1193 181.373 73.3814 181.952 72.7759C182.554 72.1471 183.274 71.6719 184.108 71.3457C184.941 71.0194 185.859 70.8532 186.856 70.8532C188.016 70.8532 189.056 71.103 189.981 71.592C190.932 72.0817 191.8 72.7886 192.589 73.723L192.617 73.7617L197.079 69.6892L197.061 69.6602C195.868 68.1544 194.371 67.003 192.57 66.2033C190.793 65.4033 188.764 65 186.499 65ZM186.499 65.0854C188.755 65.0854 190.767 65.4844 192.533 66.2787C194.307 67.0668 195.777 68.2112 196.957 69.6883L192.617 73.6377C191.831 72.7154 190.967 72.0045 190.019 71.5162C189.081 71.0205 188.027 70.768 186.856 70.768C185.85 70.768 184.924 70.9397 184.08 71.27C183.235 71.6002 182.506 72.0816 181.896 72.719C181.309 73.3328 180.835 74.0729 180.484 74.9447C180.155 75.8175 179.994 76.7834 179.994 77.8429C179.994 78.9024 180.155 79.8777 180.484 80.7505C180.835 81.6222 181.309 82.377 181.896 83.0141C182.506 83.6278 183.236 84.0951 184.08 84.4252C184.924 84.7555 185.85 84.9272 186.856 84.9272C188.027 84.9272 189.081 84.6746 190.019 84.179C190.967 83.6907 191.831 82.9798 192.617 82.0575L196.957 86.0069C195.777 87.4613 194.307 88.6051 192.533 89.4165C190.767 90.211 188.755 90.6098 186.499 90.6098C184.569 90.6098 182.783 90.3082 181.133 89.7006C179.506 89.0693 178.096 88.175 176.888 87.0298C175.703 85.8846 174.766 84.5474 174.092 83.0046C173.418 81.4391 173.085 79.7137 173.085 77.8429C173.085 75.9721 173.419 74.2704 174.092 72.7285C174.766 71.1622 175.703 69.8106 176.888 68.6654C178.096 67.5204 179.507 66.6403 181.133 66.0325C182.783 65.4013 184.569 65.0854 186.499 65.0854Z" fill="#2C3135"/>
<path fill-rule="evenodd" clip-rule="evenodd" d="M311.518 58.9919L322.699 33.5093H329.791L341 58.9919H333.477L331.513 54.0592H320.865L318.9 58.9919H311.584H311.518ZM329.361 48.6746L326.189 40.7107L323.017 48.6746H329.361Z" fill="#2C3135"/>
<path d="M299.259 58.9493V33.5527H306.398V58.9493H299.259Z" fill="#2C3135"/>
<path d="M281.666 59.4574C279.598 59.4574 277.603 59.2035 275.68 58.6955C273.781 58.1634 272.23 57.4862 271.028 56.6638L273.372 51.3669C274.502 52.0925 275.8 52.6972 277.267 53.1809C278.757 53.6405 280.235 53.8702 281.702 53.8702C282.688 53.8702 283.481 53.7856 284.082 53.6163C284.683 53.4229 285.116 53.1809 285.38 52.8906C285.668 52.576 285.813 52.2132 285.813 51.8021C285.813 51.2216 285.548 50.7621 285.019 50.4235C284.491 50.0848 283.805 49.8067 282.964 49.589C282.123 49.3715 281.185 49.1538 280.151 48.936C279.142 48.7184 278.12 48.4403 277.086 48.1015C276.077 47.7629 275.151 47.3275 274.31 46.7954C273.468 46.2391 272.783 45.5256 272.254 44.6548C271.725 43.7599 271.461 42.6351 271.461 41.2806C271.461 39.7569 271.87 38.3782 272.687 37.1447C273.528 35.9112 274.778 34.9195 276.437 34.1697C278.096 33.4199 280.163 33.0449 282.639 33.0449C284.298 33.0449 285.921 33.2385 287.508 33.6255C289.118 33.9883 290.549 34.5325 291.799 35.2581L289.599 40.5914C288.397 39.9384 287.207 39.4545 286.029 39.1401C284.851 38.8015 283.709 38.6322 282.603 38.6322C281.618 38.6322 280.824 38.741 280.223 38.9586C279.622 39.152 279.19 39.418 278.925 39.7567C278.661 40.0953 278.529 40.4824 278.529 40.9178C278.529 41.4741 278.781 41.9215 279.286 42.2601C279.815 42.5744 280.5 42.8405 281.341 43.0583C282.207 43.2518 283.144 43.4573 284.154 43.6751C285.188 43.8926 286.209 44.1708 287.219 44.5095C288.253 44.8241 289.19 45.2595 290.032 45.8157C290.873 46.3478 291.546 47.0613 292.051 47.9562C292.58 48.827 292.844 49.9275 292.844 51.2577C292.844 52.7332 292.424 54.0998 291.582 55.3575C290.765 56.5911 289.527 57.5827 287.868 58.3325C286.233 59.0823 284.166 59.4574 281.666 59.4574Z" fill="#2C3135"/>
<path d="M282.636 33.0011C280.155 33.0011 278.089 33.3775 276.423 34.1308C274.759 34.8831 273.499 35.8832 272.652 37.1243C271.831 38.3646 271.417 39.7536 271.417 41.2851C271.417 42.6452 271.688 43.7709 272.222 44.674C272.754 45.5499 273.443 46.27 274.29 46.8297C275.134 47.3637 276.056 47.7986 277.069 48.1382C278.104 48.4775 279.136 48.7582 280.147 48.976C281.18 49.1939 282.113 49.4175 282.954 49.635C283.792 49.8519 284.47 50.128 284.993 50.4634C285.513 50.7959 285.77 51.2327 285.77 51.8001C285.77 52.2011 285.631 52.5561 285.349 52.8638C285.092 53.1458 284.664 53.3872 284.067 53.5793C283.472 53.747 282.683 53.824 281.7 53.824C280.241 53.824 278.767 53.5932 277.284 53.1368H277.274C275.814 52.6545 274.516 52.0514 273.391 51.3294L273.354 51.3006L270.978 56.6758L271.006 56.695C272.213 57.5208 273.763 58.2047 275.665 58.7378C277.592 59.2466 279.592 59.5003 281.663 59.5003H281.71V59.4906C284.189 59.4857 286.255 59.118 287.885 58.3703C289.549 57.6181 290.795 56.6182 291.618 55.3768C292.464 54.1126 292.89 52.7373 292.89 51.2537C292.89 49.9177 292.62 48.8097 292.086 47.9307C291.578 47.03 290.903 46.3108 290.055 45.7749C289.21 45.2164 288.267 44.7821 287.23 44.4665C286.219 44.1271 285.196 43.8465 284.161 43.6286C283.151 43.4108 282.219 43.2103 281.354 43.0168C280.519 42.8004 279.838 42.5357 279.314 42.226C278.818 41.8935 278.575 41.4608 278.575 40.9175C278.575 40.491 278.7 40.1101 278.959 39.7785C279.216 39.4493 279.645 39.1889 280.241 38.9971C280.835 38.7822 281.625 38.6771 282.608 38.6771C283.709 38.6771 284.839 38.8477 286.013 39.1854H286.023C287.197 39.4987 288.379 39.9741 289.578 40.6257L289.625 40.6547L291.852 35.2419L291.824 35.2226C290.57 34.4945 289.134 33.9482 287.52 33.5846C285.93 33.1966 284.298 33.0011 282.636 33.0011ZM282.636 33.086C284.291 33.086 285.918 33.2835 287.501 33.6695C289.094 34.0286 290.501 34.5746 291.739 35.2888L289.578 40.5322C288.387 39.8884 287.21 39.4133 286.041 39.1013C284.86 38.7615 283.718 38.593 282.608 38.593C281.619 38.593 280.82 38.7023 280.212 38.9226C279.606 39.1178 279.165 39.3843 278.893 39.7321C278.623 40.0777 278.481 40.4742 278.481 40.9183C278.481 41.4876 278.744 41.948 279.258 42.2926H279.268V42.3024C279.801 42.6195 280.491 42.8839 281.335 43.1025C282.201 43.2958 283.132 43.4968 284.142 43.7144C285.174 43.9318 286.194 44.214 287.202 44.5522H287.211C288.241 44.8655 289.171 45.2975 290.009 45.8513C290.844 46.3797 291.509 47.0894 292.011 47.9786C292.535 48.8411 292.806 49.9301 292.806 51.2547C292.806 52.7219 292.38 54.0795 291.543 55.3308C290.731 56.5565 289.501 57.5488 287.847 58.2961C286.22 59.0425 284.159 59.4163 281.663 59.4163C281.65 59.4163 281.638 59.4163 281.626 59.4163C279.575 59.4132 277.601 59.1574 275.694 58.6538C273.813 58.1269 272.283 57.4585 271.09 56.6487L273.392 51.4241C274.516 52.1406 275.804 52.743 277.256 53.2221C278.75 53.6829 280.23 53.9092 281.7 53.9092C282.689 53.9092 283.489 53.8259 284.096 53.6553C284.701 53.4606 285.143 53.2196 285.415 52.921C285.71 52.5996 285.855 52.2218 285.855 51.8007C285.855 51.2071 285.579 50.7332 285.041 50.3886C284.507 50.0469 283.817 49.7695 282.973 49.551C282.131 49.3331 281.191 49.11 280.157 48.892C279.149 48.6747 278.13 48.4018 277.097 48.0635C276.091 47.7256 275.175 47.2947 274.337 46.7645C273.501 46.2116 272.814 45.5026 272.288 44.6371C271.764 43.7503 271.502 42.6346 271.502 41.2857C271.502 39.7696 271.906 38.3988 272.718 37.1721C273.555 35.946 274.798 34.954 276.452 34.2067C278.103 33.4601 280.164 33.086 282.636 33.086Z" fill="#2C3135"/>
<path d="M251.993 43.3853H263.713V48.7549H251.993V43.3853ZM252.498 53.3989H265.696V58.9498H245.43V33.5532H265.227V39.1042H252.498V53.3989Z" fill="#2C3135"/>
<path d="M245.388 33.5093V58.9919H265.738V53.3532H252.536V48.797H263.755V43.3465H252.536V39.148H265.27V33.5093H245.388ZM245.472 33.5941H265.186V39.0635H252.452V43.3466H251.947V43.3852V48.798H252.452V53.4389H252.499H265.654V58.9082H245.473L245.472 33.5941ZM252.031 43.4314H252.452V48.7124H252.031V43.4314ZM252.536 43.4314H263.67V48.7124H252.536V43.4314Z" fill="#2C3135"/>
<path d="M220.302 58.9498V33.5532H227.441V53.2537H239.485V58.9498H220.302Z" fill="#2C3135"/>
<path d="M220.257 33.5093V58.9919H220.304H239.532V53.212H227.481V33.5093H220.257ZM220.342 33.5941H227.396V53.2968H239.447V58.9073H220.342V33.5941Z" fill="#2C3135"/>
<path d="M202.024 59.4573C200.028 59.4573 198.177 59.1429 196.471 58.514C194.764 57.861 193.285 56.9419 192.035 55.7567C190.809 54.5715 189.848 53.1808 189.15 51.5844C188.453 49.9639 188.105 48.186 188.105 46.251C188.105 44.3161 188.453 42.5505 189.15 40.9541C189.848 39.3335 190.821 37.9306 192.071 36.7455C193.321 35.5603 194.8 34.6534 196.507 34.0245C198.237 33.3715 200.125 33.0449 202.168 33.0449C204.548 33.0449 206.675 33.444 208.551 34.2422C210.426 35.0404 211.976 36.1892 213.202 37.6888L208.659 41.8249C207.793 40.8815 206.856 40.18 205.846 39.7205C204.86 39.2367 203.755 38.9949 202.529 38.9949C201.447 38.9949 200.461 39.1643 199.572 39.5029C198.682 39.8416 197.925 40.3373 197.3 40.9903C196.675 41.6192 196.182 42.3811 195.821 43.276C195.485 44.1468 195.317 45.1384 195.317 46.251C195.317 47.3153 195.485 48.2949 195.821 49.1898C196.182 50.0848 196.675 50.8587 197.3 51.5118C197.925 52.1406 198.67 52.6366 199.536 52.9994C200.425 53.338 201.399 53.5073 202.456 53.5073C203.514 53.5073 204.548 53.338 205.558 52.9994C206.567 52.6366 207.589 52.0318 208.623 51.1852L212.625 56.2283C211.183 57.2683 209.512 58.0666 207.613 58.6229C205.714 59.1792 203.851 59.4573 202.024 59.4573ZM206.315 55.285V45.707H212.625V56.2283L206.315 55.285Z" fill="#2C3135"/>
<path d="M202.172 33.0009C200.124 33.0009 198.229 33.3247 196.493 33.9799C194.781 34.6106 193.293 35.5206 192.039 36.7098C190.785 37.899 189.81 39.3109 189.111 40.9366C188.411 42.5387 188.063 44.3151 188.063 46.2552C188.063 48.1954 188.411 49.9759 189.111 51.6022C189.81 53.2034 190.772 54.6022 192.002 55.7912C193.256 56.9804 194.744 57.8945 196.455 58.5494V58.559C198.167 59.1897 200.022 59.5003 202.022 59.5003C203.854 59.5003 205.724 59.2198 207.627 58.6625C209.52 58.108 211.181 57.3065 212.623 56.2715L212.67 56.2812V56.2426L212.688 56.2329L212.67 56.2041V45.6609H206.27V52.5232C206.029 52.637 205.78 52.8703 205.54 52.9565C204.535 53.2939 203.506 53.4649 202.453 53.4649C201.399 53.4649 200.437 53.2933 199.552 52.9565C198.694 52.5965 197.955 52.1008 197.335 51.4786C196.714 50.8296 196.215 50.0626 195.857 49.1723H195.866C195.532 48.2826 195.361 47.3138 195.361 46.2541C195.361 45.1459 195.522 44.1538 195.857 43.2888C196.215 42.3986 196.705 41.6447 197.326 41.0201H197.335C197.956 40.3717 198.706 39.8787 199.59 39.5422C200.474 39.2057 201.451 39.0338 202.528 39.0338C203.748 39.0338 204.851 39.2782 205.831 39.7587C206.835 40.2156 207.766 40.9087 208.628 41.8485L208.657 41.887L213.26 37.6886L213.232 37.6597C212.001 36.1548 210.453 35.0056 208.572 34.2049C206.691 33.4042 204.557 33.0009 202.172 33.0009ZM202.172 33.0858C204.547 33.0858 206.665 33.4858 208.534 34.2813C210.393 35.0723 211.919 36.2171 213.137 37.6984L208.656 41.7651C207.797 40.8371 206.87 40.1407 205.868 39.6847C204.876 39.1979 203.759 38.9504 202.527 38.9504C201.441 38.9504 200.447 39.1181 199.552 39.4588C198.657 39.7995 197.899 40.3072 197.269 40.9649C196.642 41.5971 196.143 42.3648 195.782 43.2619C195.443 44.1383 195.276 45.1385 195.276 46.2554C195.276 47.3242 195.443 48.3017 195.782 49.2018C196.144 50.1014 196.64 50.8887 197.269 51.5458C197.898 52.1788 198.645 52.6778 199.515 53.0426H199.524C200.419 53.3834 201.391 53.5508 202.453 53.5508C203.515 53.5508 204.555 53.3827 205.568 53.0426C205.8 52.9597 206.038 52.7365 206.27 52.6285V55.3208L206.308 55.3304L212.483 56.2529C211.069 57.2535 209.448 58.0364 207.599 58.5781C205.703 59.1334 203.845 59.4159 202.022 59.4159C200.031 59.4159 198.185 59.1016 196.483 58.4745C194.781 57.8233 193.313 56.9069 192.067 55.7258C190.845 54.5444 189.881 53.1564 189.186 51.565C188.491 49.9501 188.147 48.1855 188.147 46.2557C188.147 44.3259 188.491 42.5652 189.186 40.9746C189.881 39.3592 190.859 37.9574 192.105 36.7762C193.35 35.595 194.819 34.6921 196.521 34.0651C198.247 33.414 200.133 33.0858 202.172 33.0858ZM206.354 45.7471H212.585V56.102L208.628 51.1222L208.599 51.151C207.843 51.7707 207.096 52.1193 206.354 52.4784L206.354 45.7471ZM208.609 51.2352L212.529 56.1679L206.354 55.2548V52.5719C207.102 52.2138 207.85 51.8528 208.609 51.2352Z" fill="#2C3135"/>
<path d="M174.05 58.9459V33.5493H181.19V58.9459H174.05Z" fill="#2C3135"/>
<path fill-rule="evenodd" clip-rule="evenodd" d="M74.4141 151.911C115.512 151.911 148.828 118.595 148.828 77.4971C148.828 36.3994 115.512 3.08301 74.4141 3.08301C33.3163 3.08301 0 36.3994 0 77.4971C0 118.595 33.3163 151.911 74.4141 151.911ZM37.8301 59.3118V62.1295V110.086H71.697V115.701H77.3279V110.086H111.199V59.3118H82.9434V64.9527H105.558V104.445H77.3279V48.1303H88.5897V42.4994H77.3279V31.2375H71.697V42.4994H60.4351V48.1303H71.697V104.445H43.4698V64.9527H66.0924V59.3118H37.8301ZM66.0661 70.654H49.1733V76.2849H66.0661V70.654ZM82.9588 70.654H99.8515V76.2849H82.9588V70.654ZM66.0661 81.9158H49.1733V87.5467H66.0661V81.9158ZM82.9588 81.9158H99.8515V87.5467H82.9588V81.9158ZM66.0661 93.1776H49.1733V98.8085H66.0661V93.1776ZM82.9588 93.1776H99.8515V98.8085H82.9588V93.1776Z" fill="#2C3135"/>
</svg>
