<svg width="64" height="64" viewBox="0 0 64 64" fill="none" xmlns="http://www.w3.org/2000/svg">
<path fill-rule="evenodd" clip-rule="evenodd" d="M31.9631 63.9619C49.6159 63.9619 63.9262 49.6515 63.9262 31.9988C63.9262 14.346 49.6159 0.0356445 31.9631 0.0356445C14.3104 0.0356445 0 14.346 0 31.9988C0 49.6515 14.3104 63.9619 31.9631 63.9619ZM16.3221 24.1876V25.3979V45.9965H30.869V48.4086H33.2876V45.9965H47.8364V24.1876H35.6997V26.6105H45.4135V43.5736H33.2876V19.3848H38.1249V16.9662H33.2876V12.1289H30.869V16.9662H26.0317V19.3848H30.869V43.5736H18.7446V26.6105H28.4617V24.1876H16.3221ZM28.4504 29.0594H21.1944V31.4781H28.4504V29.0594ZM35.7063 29.0594H42.9622V31.4781H35.7063V29.0594ZM28.4504 33.8967H21.1944V36.3154H28.4504V33.8967ZM35.7063 33.8967H42.9622V36.3154H35.7063V33.8967ZM28.4504 38.734H21.1944V41.1527H28.4504V38.734ZM35.7063 38.734H42.9622V41.1527H35.7063V38.734Z" fill="#FFFFFF"/>
</svg>
