<svg width="133" height="54" viewBox="0 0 133 54" fill="none" xmlns="http://www.w3.org/2000/svg">
<path d="M130.024 48.2293C129.775 48.2293 129.558 48.1839 129.373 48.0932C129.187 48.0025 129.042 47.8664 128.939 47.685C128.838 47.5035 128.788 47.2767 128.788 47.0046V45.3445H129.183V46.9611C129.183 47.2658 129.259 47.4963 129.412 47.6523C129.567 47.8047 129.784 47.8809 130.063 47.8809C130.267 47.8809 130.443 47.841 130.591 47.7612C130.743 47.6777 130.858 47.5579 130.936 47.402C131.018 47.2459 131.059 47.0591 131.059 46.8414V45.3446H131.454V48.2021H131.075V47.4183L131.137 47.5598C131.044 47.7703 130.899 47.9354 130.703 48.0551C130.51 48.1712 130.283 48.2293 130.024 48.2293ZM129.762 44.8982L130.525 44.2233H131.053L130.152 44.8982H129.762Z" fill="white"/>
<path d="M126.206 48.2293C125.928 48.2293 125.677 48.1676 125.455 48.0442C125.236 47.9209 125.063 47.7503 124.937 47.5326C124.811 47.3113 124.748 47.0573 124.748 46.7706C124.748 46.4803 124.811 46.2264 124.937 46.0086C125.063 45.7909 125.236 45.6222 125.455 45.5025C125.677 45.3791 125.928 45.3174 126.206 45.3174C126.462 45.3174 126.69 45.3736 126.891 45.4861C127.095 45.5986 127.256 45.7637 127.375 45.9814C127.497 46.1955 127.558 46.4586 127.558 46.7706C127.558 47.079 127.499 47.3421 127.38 47.5598C127.262 47.7775 127.1 47.9444 126.896 48.0606C126.696 48.173 126.466 48.2293 126.206 48.2293ZM126.234 47.8864C126.442 47.8864 126.627 47.841 126.79 47.7503C126.957 47.656 127.087 47.5254 127.18 47.3585C127.276 47.1879 127.325 46.992 127.325 46.7706C127.325 46.5457 127.276 46.3497 127.18 46.1828C127.087 46.0159 126.957 45.8871 126.79 45.7964C126.627 45.702 126.442 45.6549 126.234 45.6549C126.03 45.6549 125.846 45.702 125.683 45.7964C125.52 45.8871 125.39 46.0159 125.293 46.1828C125.197 46.3497 125.149 46.5457 125.149 46.7706C125.149 46.992 125.197 47.1879 125.293 47.3585C125.39 47.5254 125.52 47.656 125.683 47.7503C125.846 47.841 126.03 47.8864 126.234 47.8864ZM127.336 48.2021V47.3421L127.375 46.7652L127.319 46.1883V44.1635H127.714V48.2021H127.336Z" fill="white"/>
<path d="M122.773 45.3174C123.01 45.3174 123.218 45.3628 123.396 45.4535C123.578 45.5406 123.719 45.6748 123.819 45.8563C123.923 46.0377 123.975 46.2663 123.975 46.542V48.2021H123.58V46.5801C123.58 46.279 123.502 46.0522 123.346 45.8998C123.194 45.7437 122.979 45.6658 122.7 45.6658C122.493 45.6658 122.311 45.7075 122.155 45.791C122.003 45.8708 121.884 45.9887 121.799 46.1448C121.717 46.2972 121.676 46.4822 121.676 46.6999V48.2021H121.281V45.3447H121.66V46.1284L121.598 45.9815C121.691 45.7746 121.84 45.6132 122.044 45.497C122.248 45.3773 122.491 45.3174 122.773 45.3174Z" fill="white"/>
<path d="M119.829 48.2021V47.5708L119.812 47.4674V46.4115C119.812 46.1684 119.742 45.9815 119.601 45.8509C119.463 45.7202 119.258 45.6549 118.983 45.6549C118.794 45.6549 118.614 45.6858 118.443 45.7475C118.273 45.8092 118.128 45.8909 118.009 45.9924L117.831 45.7039C117.979 45.5806 118.158 45.4862 118.365 45.4209C118.573 45.352 118.792 45.3176 119.022 45.3176C119.4 45.3176 119.692 45.4101 119.896 45.5951C120.103 45.7766 120.207 46.0541 120.207 46.4279V48.2022L119.829 48.2021ZM118.822 48.2294C118.603 48.2294 118.412 48.1949 118.248 48.126C118.089 48.0534 117.966 47.9554 117.881 47.8321C117.796 47.7051 117.753 47.5599 117.753 47.3967C117.753 47.2479 117.788 47.1136 117.859 46.9939C117.933 46.8705 118.052 46.7726 118.215 46.7C118.382 46.6238 118.605 46.5857 118.883 46.5857H119.89V46.8742H118.894C118.612 46.8742 118.415 46.9232 118.304 47.0211C118.196 47.1191 118.143 47.2407 118.143 47.3858C118.143 47.5491 118.208 47.6797 118.337 47.7777C118.467 47.8756 118.649 47.9246 118.883 47.9246C119.105 47.9246 119.296 47.8756 119.456 47.7777C119.619 47.6761 119.738 47.5309 119.812 47.3422L119.901 47.6089C119.827 47.7976 119.697 47.9482 119.512 48.0607C119.33 48.1732 119.1 48.2294 118.822 48.2294Z" fill="white"/>
<path d="M116.067 48.2293C115.826 48.2293 115.598 48.1966 115.383 48.1313C115.167 48.0624 114.999 47.9771 114.876 47.8755L115.054 47.5707C115.173 47.6578 115.325 47.734 115.511 47.7993C115.696 47.861 115.891 47.8919 116.095 47.8919C116.373 47.8919 116.573 47.8501 116.696 47.7666C116.818 47.6795 116.88 47.5653 116.88 47.4237C116.88 47.3185 116.844 47.2369 116.774 47.1788C116.707 47.1171 116.618 47.0718 116.507 47.0428C116.395 47.0101 116.271 46.9829 116.134 46.9611C115.997 46.9393 115.859 46.9139 115.722 46.8849C115.589 46.8558 115.466 46.8141 115.355 46.7597C115.244 46.7016 115.153 46.6236 115.082 46.5256C115.015 46.4277 114.982 46.297 114.982 46.1337C114.982 45.9777 115.026 45.838 115.116 45.7146C115.205 45.5913 115.334 45.4951 115.505 45.4262C115.679 45.3536 115.891 45.3173 116.139 45.3173C116.329 45.3173 116.518 45.3427 116.707 45.3935C116.896 45.4406 117.052 45.5042 117.175 45.584L117.002 45.8942C116.872 45.8071 116.733 45.7455 116.585 45.7092C116.436 45.6693 116.288 45.6493 116.139 45.6493C115.876 45.6493 115.681 45.6946 115.555 45.7854C115.433 45.8724 115.371 45.9849 115.371 46.1228C115.371 46.2316 115.405 46.3169 115.472 46.3786C115.542 46.4403 115.633 46.4893 115.744 46.5255C115.859 46.5582 115.984 46.5854 116.117 46.6072C116.254 46.629 116.39 46.6562 116.523 46.6888C116.661 46.7179 116.785 46.7596 116.896 46.8141C117.011 46.8649 117.102 46.9393 117.169 47.0372C117.239 47.1316 117.275 47.2567 117.275 47.4128C117.275 47.5797 117.226 47.7248 117.13 47.8482C117.037 47.9679 116.9 48.0623 116.718 48.1312C116.54 48.1965 116.323 48.2293 116.067 48.2293Z" fill="white"/>
<path d="M112.322 49.2852C112.185 49.2852 112.053 49.2635 111.927 49.2199C111.804 49.1764 111.699 49.111 111.61 49.024L111.793 48.7355C111.867 48.8044 111.947 48.857 112.033 48.8933C112.122 48.9333 112.22 48.9533 112.327 48.9533C112.457 48.9533 112.569 48.917 112.661 48.8444C112.758 48.7755 112.849 48.6521 112.934 48.4743L113.123 48.0552L113.168 47.9953L114.37 45.3446H114.759L113.296 48.545C113.214 48.73 113.123 48.877 113.023 48.9858C112.927 49.0947 112.821 49.1709 112.706 49.2145C112.591 49.2616 112.463 49.2852 112.322 49.2852ZM113.101 48.2838L111.754 45.3446H112.166L113.357 47.9681L113.101 48.2838Z" fill="white"/>
<path d="M110.903 48.2021V47.5708L110.886 47.4674V46.4115C110.886 46.1684 110.816 45.9815 110.675 45.8509C110.537 45.7202 110.332 45.6549 110.057 45.6549C109.868 45.6549 109.688 45.6858 109.517 45.7475C109.347 45.8092 109.202 45.8909 109.083 45.9924L108.905 45.7039C109.053 45.5806 109.232 45.4862 109.439 45.4209C109.647 45.352 109.866 45.3176 110.096 45.3176C110.474 45.3176 110.766 45.4101 110.97 45.5951C111.177 45.7766 111.281 46.0541 111.281 46.4279V48.2022L110.903 48.2021ZM109.896 48.2294C109.677 48.2294 109.486 48.1949 109.322 48.126C109.163 48.0534 109.04 47.9554 108.955 47.8321C108.87 47.7051 108.827 47.5599 108.827 47.3967C108.827 47.2479 108.862 47.1136 108.933 46.9939C109.007 46.8705 109.126 46.7726 109.289 46.7C109.456 46.6238 109.679 46.5857 109.957 46.5857H110.964V46.8742H109.968C109.686 46.8742 109.489 46.9232 109.378 47.0211C109.27 47.1191 109.217 47.2407 109.217 47.3858C109.217 47.5491 109.282 47.6797 109.411 47.7777C109.541 47.8756 109.723 47.9246 109.957 47.9246C110.179 47.9246 110.37 47.8756 110.53 47.7777C110.693 47.6761 110.812 47.5309 110.886 47.3422L110.975 47.6089C110.901 47.7976 110.771 47.9482 110.586 48.0607C110.404 48.1732 110.174 48.2294 109.896 48.2294Z" fill="white"/>
<path d="M105.243 48.2021V44.3922H106.701C107.032 44.3922 107.315 44.4448 107.553 44.55C107.79 44.6516 107.972 44.8003 108.098 44.9963C108.228 45.1886 108.293 45.4226 108.293 45.6984C108.293 45.9669 108.228 46.1992 108.098 46.3951C107.972 46.5874 107.79 46.7362 107.553 46.8414C107.315 46.9466 107.032 46.9992 106.701 46.9992H105.472L105.655 46.8087V48.2021H105.243ZM105.655 46.8414L105.472 46.6455H106.69C107.08 46.6455 107.375 46.5638 107.575 46.4005C107.779 46.2336 107.881 45.9996 107.881 45.6984C107.881 45.3936 107.779 45.1577 107.575 44.9908C107.375 44.8239 107.08 44.7405 106.69 44.7405H105.472L105.655 44.55V46.8414Z" fill="white"/>
<path d="M126.622 43.1474C125.874 43.1474 125.183 43.0325 124.55 42.8027C123.917 42.5729 123.365 42.2495 122.892 41.8324C122.429 41.4069 122.068 40.9132 121.809 40.3515C121.551 39.7897 121.422 39.1726 121.422 38.5002C121.422 37.8278 121.551 37.2108 121.809 36.649C122.068 36.0873 122.429 35.5979 122.892 35.1809C123.365 34.7553 123.917 34.4276 124.55 34.1978C125.183 33.968 125.874 33.8531 126.622 33.8531C127.38 33.8531 128.071 33.968 128.695 34.1978C129.327 34.4276 129.876 34.7553 130.339 35.1809C130.802 35.5979 131.163 36.0873 131.422 36.649C131.689 37.2108 131.823 37.8278 131.823 38.5002C131.823 39.1726 131.689 39.7939 131.422 40.3642C131.163 40.9259 130.802 41.4154 130.339 41.8324C129.876 42.2495 129.327 42.5729 128.695 42.8027C128.071 43.0325 127.38 43.1474 126.622 43.1474ZM126.622 41.0536C126.979 41.0536 127.309 40.994 127.612 40.8749C127.924 40.7557 128.191 40.5855 128.414 40.3642C128.646 40.1344 128.824 39.8621 128.949 39.5472C129.082 39.2322 129.149 38.8832 129.149 38.5002C129.149 38.1087 129.082 37.7598 128.949 37.4534C128.824 37.1384 128.646 36.8703 128.414 36.649C128.191 36.4192 127.924 36.2448 127.612 36.1256C127.309 36.0065 126.979 35.9469 126.622 35.9469C126.266 35.9469 125.932 36.0065 125.62 36.1256C125.317 36.2448 125.049 36.4192 124.817 36.649C124.595 36.8703 124.416 37.1384 124.283 37.4534C124.158 37.7598 124.096 38.1087 124.096 38.5002C124.096 38.8832 124.158 39.2322 124.283 39.5472C124.416 39.8621 124.595 40.1344 124.817 40.3642C125.049 40.5855 125.317 40.7557 125.62 40.8749C125.932 40.994 126.266 41.0536 126.622 41.0536Z" fill="white"/>
<path d="M126.623 33.8379C125.873 33.8379 125.181 33.9546 124.546 34.1851C123.912 34.4155 123.357 34.7413 122.883 35.1682C122.418 35.5866 122.055 36.0794 121.796 36.6429C121.537 37.2066 121.407 37.8249 121.407 38.4991C121.407 39.1733 121.537 39.795 121.796 40.3588C122.055 40.9223 122.418 41.4169 122.883 41.8438C123.357 42.2622 123.912 42.5861 124.546 42.8166C125.181 43.0471 125.873 43.1637 126.623 43.1637C127.382 43.1637 128.074 43.0471 128.7 42.8166C129.335 42.5861 129.884 42.2622 130.349 41.8438C130.814 41.4254 131.177 40.9326 131.436 40.3691C131.704 39.7968 131.839 39.1734 131.839 38.4991C131.839 37.8248 131.704 37.2067 131.436 36.6429C131.177 36.0794 130.814 35.5866 130.349 35.1682C129.884 34.7412 129.335 34.4155 128.7 34.1851C128.074 33.9545 127.382 33.8379 126.623 33.8379ZM126.623 33.8689C127.379 33.8689 128.067 33.9836 128.689 34.2126C129.32 34.4418 129.865 34.7682 130.327 35.1923C130.789 35.608 131.15 36.0967 131.407 36.6567C131.674 37.2164 131.807 37.8287 131.807 38.4992C131.807 39.1696 131.674 39.7906 131.407 40.3588C131.15 40.9188 130.789 41.4041 130.327 41.8198C129.865 42.2354 129.32 42.56 128.689 42.7891C128.067 43.0182 127.379 43.1329 126.623 43.1329C125.876 43.1329 125.188 43.0183 124.557 42.7891C123.926 42.5599 123.376 42.2355 122.905 41.8198C122.444 41.396 122.082 40.9042 121.825 40.3451C121.567 39.7854 121.436 39.1697 121.436 38.4992C121.436 37.8286 121.567 37.2164 121.825 36.6567C122.082 36.0967 122.443 35.608 122.905 35.1923C123.376 34.7681 123.926 34.4418 124.557 34.2126C125.188 33.9835 125.876 33.8689 126.623 33.8689ZM126.623 35.9314C126.265 35.9314 125.929 35.9901 125.615 36.1101C125.31 36.23 125.039 36.4082 124.805 36.6395C124.581 36.8623 124.403 37.1308 124.269 37.4473C124.143 37.7557 124.078 38.1061 124.078 38.4992C124.078 38.8837 124.143 39.2342 124.269 39.551V39.5545C124.403 39.8709 124.581 40.1449 124.805 40.3761C125.038 40.5987 125.31 40.7684 125.615 40.8883C125.929 41.0081 126.265 41.067 126.623 41.067C126.982 41.067 127.312 41.0082 127.617 40.8883C127.931 40.7684 128.202 40.5989 128.427 40.3761C128.659 40.1455 128.838 39.87 128.963 39.5545V39.551C129.097 39.2349 129.165 38.8826 129.165 38.4992C129.165 38.106 129.098 37.7558 128.963 37.4473C128.837 37.1306 128.66 36.8624 128.427 36.6395C128.202 36.408 127.931 36.23 127.617 36.1101C127.312 35.9901 126.982 35.9314 126.623 35.9314ZM126.623 35.9623C126.978 35.9623 127.305 36.0227 127.606 36.141C127.916 36.2595 128.18 36.4319 128.401 36.6601C128.632 36.8798 128.81 37.1445 128.934 37.4576C129.067 37.7619 129.132 38.1093 129.132 38.4992C129.132 38.8805 129.067 39.2278 128.934 39.5407C128.81 39.8539 128.632 40.1271 128.401 40.3554C128.18 40.5751 127.916 40.7423 127.606 40.8607C127.305 40.9791 126.978 41.0394 126.623 41.0394C126.269 41.0394 125.936 40.9791 125.626 40.8607C125.326 40.743 125.06 40.5737 124.831 40.3554L124.827 40.3519C124.607 40.1242 124.43 39.8525 124.298 39.5407C124.174 39.2276 124.111 38.8805 124.111 38.4991C124.111 38.1091 124.174 37.7619 124.298 37.4575C124.431 37.1442 124.609 36.8799 124.83 36.6601C125.061 36.4317 125.325 36.2594 125.626 36.141C125.936 36.0225 126.269 35.9623 126.623 35.9623Z" fill="white"/>
<path d="M115.741 43.1474C115.002 43.1474 114.315 43.0368 113.683 42.8155C113.059 42.5857 112.515 42.2623 112.052 41.8452C111.597 41.4281 111.24 40.9387 110.982 40.377C110.723 39.8067 110.594 39.1811 110.594 38.5002C110.594 37.8193 110.723 37.198 110.982 36.6363C111.24 36.066 111.597 35.5724 112.052 35.1554C112.515 34.7383 113.059 34.4191 113.683 34.1978C114.315 33.968 115.002 33.8531 115.741 33.8531C116.606 33.8531 117.377 33.9978 118.054 34.2872C118.741 34.5766 119.311 34.9936 119.766 35.5383L118.081 36.9938C117.778 36.6533 117.444 36.3937 117.078 36.215C116.722 36.0362 116.321 35.9469 115.875 35.9469C115.492 35.9469 115.14 36.0065 114.819 36.1256C114.498 36.2448 114.222 36.4192 113.99 36.649C113.767 36.8703 113.589 37.1384 113.455 37.4534C113.331 37.7683 113.268 38.1172 113.268 38.5002C113.268 38.8832 113.331 39.2322 113.455 39.5472C113.589 39.8621 113.767 40.1344 113.99 40.3642C114.222 40.5855 114.498 40.7557 114.819 40.8749C115.14 40.994 115.492 41.0536 115.875 41.0536C116.321 41.0536 116.722 40.9642 117.078 40.7855C117.444 40.6068 117.778 40.3472 118.081 40.0068L119.766 41.4622C119.311 41.9984 118.741 42.4154 118.054 42.7133C117.377 43.0027 116.606 43.1474 115.741 43.1474Z" fill="white"/>
<path d="M115.741 33.8379C115 33.8379 114.313 33.9546 113.679 34.1851C113.053 34.407 112.506 34.7257 112.041 35.1441C111.585 35.5626 111.227 36.0571 110.968 36.6291C110.709 37.1929 110.579 37.8164 110.579 38.4991C110.579 39.1818 110.709 39.8106 110.968 40.3828C111.227 40.9463 111.585 41.4391 112.041 41.8575C112.506 42.2759 113.049 42.5999 113.675 42.8303H113.679C114.313 43.0523 115 43.1637 115.741 43.1637C116.608 43.1637 117.38 43.0175 118.06 42.7272C118.748 42.4284 119.321 42.0105 119.777 41.4725L119.788 41.4584L118.081 39.9838L118.07 39.9978C117.768 40.337 117.433 40.5935 117.07 40.7713C116.716 40.9488 116.318 41.0394 115.875 41.0394C115.493 41.0394 115.142 40.979 114.823 40.8606C114.504 40.7422 114.233 40.5717 114.003 40.3519C113.782 40.124 113.603 39.8531 113.47 39.5407C113.346 39.2276 113.283 38.8805 113.283 38.4991C113.283 38.1177 113.346 37.7706 113.47 37.4575C113.603 37.1442 113.781 36.8799 114.003 36.6601C114.233 36.4318 114.505 36.2594 114.823 36.141C115.142 36.0225 115.493 35.9622 115.875 35.9622C116.318 35.9622 116.716 36.0494 117.07 36.2269C117.433 36.4047 117.768 36.6646 118.07 37.0038L118.081 37.0144L119.788 35.5397L119.777 35.5291C119.321 34.9825 118.748 34.5647 118.06 34.2744C117.38 33.9841 116.608 33.8379 115.741 33.8379ZM115.741 33.8689C116.604 33.8689 117.374 34.0136 118.049 34.302C118.727 34.5881 119.289 34.9999 119.741 35.5361L118.081 36.9729C117.78 36.637 117.447 36.3806 117.084 36.2029C116.725 36.023 116.322 35.9314 115.874 35.9314C115.49 35.9314 115.135 35.9901 114.813 36.1101C114.49 36.23 114.211 36.4081 113.977 36.6395C113.753 36.8623 113.575 37.1308 113.441 37.4473C113.316 37.7641 113.254 38.1146 113.254 38.4992C113.254 38.8837 113.316 39.2342 113.441 39.551V39.5545C113.575 39.8709 113.753 40.1449 113.977 40.3761C114.211 40.5989 114.49 40.7684 114.813 40.8883C115.135 41.0081 115.49 41.067 115.874 41.067C116.322 41.067 116.725 40.9788 117.084 40.7989C117.446 40.6216 117.777 40.3603 118.077 40.0254L119.741 41.4623C119.289 41.9903 118.727 42.4053 118.049 42.6998C117.374 42.9882 116.604 43.1329 115.741 43.1329C115.003 43.1329 114.32 43.0236 113.689 42.8029C113.067 42.5738 112.524 42.2492 112.062 41.8336C111.609 41.4178 111.255 40.9327 110.997 40.3726C110.739 39.8044 110.612 39.1783 110.612 38.4992C110.612 37.8201 110.739 37.2027 110.997 36.643C111.255 36.0744 111.609 35.5805 112.062 35.1649C112.524 34.7492 113.067 34.4333 113.689 34.2127C114.32 33.9836 115.003 33.8689 115.741 33.8689Z" fill="white"/>
<path d="M105.382 42.9686V34.0317H108.029V42.9686H105.382Z" fill="white"/>
<path d="M96.0652 42.9686V34.0318H98.7123V40.9642H103.178V42.9686H96.0652Z" fill="white"/>
<path d="M96.051 34.0167V42.9851H96.0654H103.193V40.9501H98.7292V34.0167H96.051ZM96.0798 34.0477H98.6968V40.9811H103.16V42.9542H96.0798L96.0798 34.0477Z" fill="white"/>
<path d="M84.6228 42.9686V34.0318H89.409C90.639 34.0318 91.5571 34.2488 92.1631 34.6829C92.7692 35.1085 93.0723 35.6702 93.0723 36.3682C93.0723 36.8278 92.943 37.232 92.6846 37.581C92.435 37.9214 92.0785 38.1938 91.615 38.3981C91.1604 38.5938 90.6168 38.6917 89.9839 38.6917L90.2513 38.0789C90.9109 38.0789 91.4858 38.1768 91.976 38.3725C92.4662 38.5598 92.845 38.8364 93.1124 39.2024C93.3887 39.5599 93.5268 39.9982 93.5268 40.5174C93.5268 41.2919 93.197 41.8962 92.5375 42.3303C91.8868 42.7558 90.9332 42.9686 89.6764 42.9686H84.6228ZM87.2432 41.143H89.4625C89.9171 41.143 90.2602 41.0706 90.492 40.9259C90.7326 40.7727 90.8529 40.5429 90.8529 40.2365C90.8529 39.9301 90.7326 39.7045 90.492 39.5598C90.2602 39.4066 89.9171 39.3301 89.4625 39.3301H87.056V37.581H89.0614C89.5071 37.581 89.8413 37.5086 90.0641 37.3639C90.287 37.2192 90.3984 37.0023 90.3984 36.7129C90.3984 36.4235 90.287 36.2107 90.0641 36.0745C89.8413 35.9298 89.5071 35.8575 89.0614 35.8575H87.2432V41.143Z" fill="white"/>
<path d="M84.6077 34.0167V42.9851H84.622H89.676C90.9346 42.9851 91.8904 42.7704 92.545 42.3423C93.2081 41.9058 93.5421 41.2956 93.5421 40.517C93.5421 39.9953 93.403 39.5538 93.1245 39.1936C92.8553 38.825 92.476 38.5464 91.9834 38.3582C91.9158 38.3313 91.8166 38.3403 91.7458 38.3171C92.1349 38.1216 92.4742 37.8911 92.6961 37.5883C92.9565 37.2368 93.0885 36.8303 93.0885 36.368C93.0885 35.6659 92.78 35.0978 92.1706 34.6699C91.5604 34.2339 90.64 34.0168 89.4096 34.0168L84.6077 34.0167ZM84.6401 34.0477H89.4096C90.6377 34.0477 91.5506 34.2628 92.1526 34.694C92.7554 35.1172 93.0561 35.6743 93.0561 36.368C93.0561 36.8249 92.9276 37.2247 92.671 37.5711C92.446 37.878 92.1073 38.1143 91.7063 38.3102C91.2699 38.1715 90.8073 38.0627 90.252 38.0627H90.2411L89.9603 38.7054H89.9855C90.6201 38.7054 91.1627 38.6101 91.6198 38.4133C91.6604 38.3954 91.6744 38.3599 91.7134 38.3411C91.7898 38.3658 91.8963 38.3569 91.969 38.3858C92.4568 38.5721 92.8337 38.8474 93.0993 39.2108C93.3734 39.5655 93.5096 40.0005 93.5096 40.5171C93.5096 41.2875 93.1829 41.8866 92.5269 42.3183C91.8802 42.7413 90.9308 42.9543 89.676 42.9543H84.64L84.6401 34.0477ZM87.2282 35.8421V37.5677H87.0411V39.3449H87.2282V41.1564H87.2426H89.4636C89.9199 41.1564 90.2646 41.087 90.5003 40.9398C90.745 40.7841 90.8675 40.5453 90.8675 40.2352C90.8675 39.925 90.7452 39.6949 90.5003 39.5477C90.2646 39.3919 89.92 39.3139 89.4636 39.3139H87.2606V37.5952H89.0605C89.5079 37.5952 89.8451 37.5225 90.072 37.3752C90.2988 37.2279 90.4139 37.0048 90.4139 36.7118C90.4139 36.4187 90.2991 36.2009 90.072 36.0621C89.8451 35.9148 89.5079 35.8421 89.0605 35.8421H87.2282ZM87.2606 35.873H89.0605C89.5043 35.873 89.8352 35.9441 90.054 36.0861C90.2725 36.2197 90.3816 36.4261 90.3816 36.7118C90.3816 36.9975 90.2728 37.2091 90.054 37.3511C89.8352 37.4932 89.5043 37.5677 89.0605 37.5677H87.2606V35.873ZM87.0735 37.5952H87.2282V39.3139H87.0735V37.5952ZM90.2628 38.0936C90.8026 38.0946 91.2489 38.2017 91.6739 38.3342C91.6461 38.3466 91.6376 38.3731 91.6091 38.3858C91.164 38.5775 90.6295 38.6716 90.0108 38.6746L90.2628 38.0936ZM87.2606 39.3449H89.4637C89.9164 39.3449 90.2546 39.4211 90.4824 39.5717C90.7188 39.7139 90.8387 39.9325 90.8387 40.2352C90.8387 40.5378 90.719 40.7617 90.4824 40.9123C90.2546 41.0546 89.9165 41.1289 89.4637 41.1289H87.2606V39.3449Z" fill="white"/>
<path d="M78.9287 42.9703V34.0335H81.5759V42.9703H78.9287Z" fill="white"/>
<path d="M67.4866 42.9686V34.0318H72.2728C73.5028 34.0318 74.4208 34.2488 75.0269 34.6829C75.633 35.1085 75.936 35.6702 75.936 36.3682C75.936 36.8278 75.8068 37.232 75.5483 37.581C75.2988 37.9214 74.9422 38.1938 74.4788 38.3981C74.0242 38.5938 73.4805 38.6917 72.8477 38.6917L73.1151 38.0789C73.7746 38.0789 74.3495 38.1768 74.8397 38.3725C75.33 38.5598 75.7088 38.8364 75.9761 39.2024C76.2524 39.5599 76.3906 39.9982 76.3906 40.5174C76.3906 41.2919 76.0608 41.8962 75.4013 42.3303C74.7506 42.7558 73.7969 42.9686 72.5402 42.9686H67.4866ZM70.107 41.143H72.3263C72.7809 41.143 73.124 41.0706 73.3557 40.9259C73.5964 40.7727 73.7167 40.5429 73.7167 40.2365C73.7167 39.9301 73.5964 39.7045 73.3557 39.5598C73.124 39.4066 72.7809 39.3301 72.3263 39.3301H69.9198V37.581H71.9252C72.3709 37.581 72.7051 37.5086 72.9279 37.3639C73.1507 37.2192 73.2621 37.0023 73.2621 36.7129C73.2621 36.4235 73.1507 36.2107 72.9279 36.0745C72.7051 35.9298 72.3709 35.8575 71.9252 35.8575H70.107V41.143Z" fill="white"/>
<path d="M67.4695 34.0167V42.9851H67.4875H72.5415C73.8001 42.9851 74.7559 42.7704 75.4105 42.3423C76.0736 41.9058 76.4076 41.2956 76.4076 40.517C76.4076 39.9953 76.2685 39.5538 75.99 39.1936C75.7208 38.825 75.3379 38.5464 74.8453 38.3582C74.7787 38.3317 74.681 38.3399 74.6113 38.3171C75.0004 38.1216 75.3397 37.8911 75.5616 37.5883C75.822 37.2368 75.9504 36.8303 75.9504 36.368C75.9504 35.6659 75.6455 35.0978 75.0361 34.6699C74.4259 34.2329 73.5035 34.0168 72.2715 34.0168L67.4695 34.0167ZM67.5019 34.0477H72.2715C73.4995 34.0477 74.4161 34.2628 75.018 34.694C75.6208 35.1172 75.9216 35.6743 75.9216 36.368C75.9216 36.8249 75.793 37.2247 75.5364 37.5711C75.3114 37.8781 74.9692 38.1143 74.5681 38.3102C74.1317 38.1715 73.6691 38.0627 73.1138 38.0627H73.1029L72.8221 38.7054H72.8473C73.4819 38.7054 74.0281 38.6101 74.4852 38.4133C74.5258 38.3954 74.5398 38.3599 74.5788 38.3411C74.6551 38.3658 74.7618 38.3569 74.8344 38.3858C75.3222 38.5721 75.6992 38.8474 75.9647 39.2108C76.2388 39.5655 76.375 40.0005 76.375 40.5171C76.375 41.2875 76.0483 41.8866 75.3923 42.3183C74.7456 42.7413 73.7962 42.9543 72.5414 42.9543H67.5018L67.5019 34.0477ZM70.0901 35.8421V37.5677H69.9029V39.3449H70.0901V41.1564H70.1081H72.3255C72.7818 41.1564 73.1301 41.087 73.3658 40.9398C73.6105 40.7841 73.733 40.5453 73.733 40.2352C73.733 39.925 73.6107 39.6949 73.3658 39.5477C73.1301 39.3919 72.7819 39.3139 72.3255 39.3139H70.1225V37.5952H71.926C72.3734 37.5952 72.7106 37.5225 72.9375 37.3752C73.1643 37.2279 73.2794 37.0048 73.2794 36.7118C73.2794 36.4187 73.1646 36.2009 72.9375 36.0621C72.7106 35.9148 72.3734 35.8421 71.926 35.8421H70.0901ZM70.1225 35.873H71.9259C72.3698 35.873 72.7006 35.9441 72.9194 36.0861C73.138 36.2197 73.247 36.4261 73.247 36.7118C73.247 36.9975 73.1382 37.2091 72.9194 37.3511C72.7006 37.4932 72.3698 37.5677 71.9259 37.5677H70.1225V35.873ZM69.9353 37.5952H70.0901V39.3139H69.9353V37.5952ZM73.1246 38.0936C73.6634 38.0946 74.1113 38.2022 74.5357 38.3342C74.508 38.3466 74.4994 38.3733 74.4709 38.3858C74.0258 38.5775 73.4913 38.6716 72.8726 38.6746L73.1246 38.0936ZM70.1225 39.3449H72.3255C72.7782 39.3449 73.12 39.4211 73.3478 39.5717C73.5842 39.7139 73.7006 39.9325 73.7006 40.2352C73.7006 40.5378 73.5844 40.7617 73.3478 40.9123C73.12 41.0546 72.7783 41.1289 72.3255 41.1289H70.1225V39.3449Z" fill="white"/>
<path d="M126.582 31.9627C125.827 31.9627 125.131 31.8469 124.493 31.6153C123.856 31.3837 123.299 31.0577 122.823 30.6374C122.355 30.2085 121.992 29.711 121.731 29.1448C121.471 28.5787 121.34 27.9567 121.34 27.2791C121.34 26.6014 121.471 25.9795 121.731 25.4133C121.992 24.8472 122.355 24.3539 122.823 23.9336C123.299 23.5047 123.856 23.1745 124.493 22.9429C125.131 22.7113 125.827 22.5955 126.582 22.5955C127.345 22.5955 128.042 22.7113 128.67 22.9429C129.308 23.1745 129.861 23.5047 130.328 23.9336C130.795 24.3539 131.159 24.8472 131.419 25.4133C131.689 25.9795 131.823 26.6014 131.823 27.2791C131.823 27.9567 131.689 28.583 131.419 29.1577C131.159 29.7238 130.795 30.2171 130.328 30.6374C129.861 31.0577 129.308 31.3837 128.67 31.6153C128.042 31.8469 127.345 31.9627 126.582 31.9627ZM126.582 29.8525C126.941 29.8525 127.274 29.7925 127.579 29.6724C127.893 29.5523 128.163 29.3807 128.387 29.1577C128.621 28.9261 128.801 28.6516 128.926 28.3342C129.061 28.0168 129.129 27.6651 129.129 27.2791C129.129 26.8845 129.061 26.5328 128.926 26.224C128.801 25.9066 128.621 25.6364 128.387 25.4133C128.163 25.1817 127.893 25.0059 127.579 24.8858C127.274 24.7657 126.941 24.7057 126.582 24.7057C126.223 24.7057 125.886 24.7657 125.571 24.8858C125.266 25.0059 124.996 25.1817 124.763 25.4133C124.538 25.6364 124.359 25.9066 124.224 26.224C124.098 26.5328 124.035 26.8845 124.035 27.2791C124.035 27.6651 124.098 28.0168 124.224 28.3342C124.359 28.6516 124.538 28.9261 124.763 29.1577C124.996 29.3807 125.266 29.5523 125.571 29.6724C125.886 29.7925 126.223 29.8525 126.582 29.8525Z" fill="white"/>
<path d="M126.582 22.5792C125.825 22.5792 125.128 22.6968 124.488 22.9292C123.849 23.1614 123.289 23.4933 122.812 23.9236C122.343 24.3453 121.977 24.8386 121.716 25.4065C121.455 25.9747 121.324 26.598 121.324 27.2775C121.324 27.9571 121.455 28.5838 121.716 29.152C121.977 29.7199 122.343 30.2186 122.812 30.6488C123.289 31.0705 123.849 31.3971 124.488 31.6294C125.128 31.8617 125.825 31.9793 126.582 31.9793C127.347 31.9793 128.044 31.8617 128.675 31.6294C129.315 31.3971 129.868 31.0706 130.337 30.6488C130.806 30.2271 131.171 29.7304 131.433 29.1624C131.703 28.5857 131.839 27.9571 131.839 27.2775C131.839 26.598 131.703 25.9748 131.433 25.4065C131.171 24.8386 130.806 24.3453 130.337 23.9236C129.868 23.4932 129.315 23.1614 128.675 22.9292C128.044 22.6968 127.347 22.5792 126.582 22.5792ZM126.582 22.6105C127.344 22.6105 128.038 22.7261 128.664 22.9569C129.3 23.1879 129.85 23.517 130.315 23.9444C130.781 24.3634 131.144 24.8561 131.404 25.4204C131.672 25.9845 131.807 26.6019 131.807 27.2776C131.807 27.9534 131.672 28.5794 131.404 29.1521C131.144 29.7164 130.781 30.2091 130.315 30.6281C129.85 31.047 129.3 31.3708 128.664 31.6017C128.038 31.8326 127.344 31.9482 126.582 31.9482C125.829 31.9482 125.135 31.8325 124.499 31.6017C123.863 31.3708 123.308 31.0471 122.834 30.6281C122.368 30.2005 122.005 29.7026 121.745 29.1382C121.486 28.5741 121.357 27.9534 121.357 27.2776C121.357 26.6018 121.486 25.9846 121.745 25.4204C122.005 24.8561 122.368 24.3634 122.834 23.9444C123.308 23.5169 123.863 23.1879 124.499 22.9569C125.135 22.726 125.829 22.6105 126.582 22.6105ZM126.582 24.6894C126.221 24.6894 125.882 24.7522 125.566 24.873C125.258 24.9938 124.988 25.1701 124.753 25.4031C124.527 25.6277 124.344 25.8984 124.209 26.2174C124.082 26.5282 124.02 26.8815 124.02 27.2776C124.02 27.6652 124.082 28.022 124.209 28.3413C124.344 28.6602 124.523 28.9363 124.749 29.1694H124.753C124.988 29.3938 125.259 29.5648 125.566 29.6857C125.882 29.8065 126.221 29.8693 126.582 29.8693C126.942 29.8693 127.277 29.8056 127.583 29.6857C127.9 29.5648 128.173 29.394 128.4 29.1694C128.635 28.9363 128.814 28.6605 128.94 28.3413C129.076 28.0219 129.143 27.6653 129.143 27.2776C129.143 26.8814 129.076 26.5283 128.94 26.2174C128.814 25.8981 128.635 25.6277 128.4 25.4031C128.174 25.1706 127.902 24.9939 127.587 24.873H127.583C127.277 24.7529 126.942 24.6894 126.582 24.6894ZM126.582 24.7206C126.939 24.7206 127.269 24.7815 127.572 24.9008C127.885 25.0202 128.151 25.194 128.374 25.424H128.378C128.61 25.6454 128.786 25.9157 128.911 26.2313C129.045 26.538 129.114 26.8847 129.114 27.2776C129.114 27.662 129.045 28.0121 128.911 28.3275C128.786 28.6431 128.61 28.9186 128.378 29.1487C128.155 29.3701 127.885 29.5386 127.572 29.658C127.269 29.7772 126.939 29.8382 126.582 29.8382C126.224 29.8382 125.889 29.7773 125.577 29.658C125.273 29.5386 125.007 29.3703 124.775 29.1487C124.552 28.9185 124.372 28.6433 124.238 28.3275C124.113 28.012 124.053 27.6621 124.053 27.2776C124.053 26.8846 124.113 26.538 124.238 26.2313C124.372 25.9154 124.552 25.6455 124.775 25.424C125.007 25.1938 125.273 25.0201 125.577 24.9008C125.889 24.7814 126.224 24.7206 126.582 24.7206Z" fill="white"/>
<path d="M110.684 31.7826V22.7756H114.996C115.858 22.7756 116.599 22.9086 117.219 23.1745C117.848 23.4404 118.333 23.8264 118.674 24.3325C119.015 24.8301 119.186 25.422 119.186 26.1082C119.186 26.7859 119.015 27.3735 118.674 27.871C118.333 28.36 117.848 28.7374 117.219 29.0034C116.599 29.2607 115.858 29.3894 114.996 29.3894H112.166L113.352 28.3214V31.7826H110.684ZM116.518 31.7826L114.174 28.5015H117.017L119.375 31.7826H116.518ZM113.352 28.5916L112.166 27.4207H114.834C115.391 27.4207 115.804 27.3049 116.074 27.0733C116.352 26.8417 116.491 26.52 116.491 26.1082C116.491 25.6879 116.352 25.3619 116.074 25.1303C115.804 24.8987 115.391 24.7829 114.834 24.7829H112.166L113.352 23.612V28.5916Z" fill="white"/>
<path d="M110.668 22.7594V31.7992H110.682H113.367V29.405H114.8L116.509 31.7992H116.517H119.405L117.34 28.9268C117.9 28.6646 118.37 28.3329 118.686 27.8804C119.03 27.3802 119.202 26.79 119.202 26.1099C119.202 25.4212 119.03 24.8257 118.686 24.3255C118.343 23.8168 117.855 23.4283 117.224 23.1613C116.602 22.8943 115.86 22.7594 114.996 22.7594H110.668ZM110.7 22.7906H114.996C115.857 22.7906 116.596 22.9242 117.213 23.1891C117.84 23.454 118.321 23.8359 118.661 24.3394C119 24.8343 119.169 25.4261 119.169 26.11C119.169 26.7852 119 27.3683 118.661 27.8632C118.347 28.3127 117.881 28.6423 117.322 28.9026L117.025 28.4868H114.144L114.779 29.3738H113.367V28.6289V28.5907V28.2858V27.4369H114.833C115.392 27.4369 115.811 27.3186 116.085 27.0835C116.367 26.849 116.506 26.5249 116.506 26.1099C116.506 25.6864 116.367 25.3535 116.085 25.119C115.811 24.8838 115.392 24.769 114.833 24.769H113.367V23.5736L112.13 24.7967H113.335V27.4057H112.13L113.186 28.4487L112.126 29.405H113.335V31.768H110.7V22.7906ZM113.335 23.6499V24.7691H112.203L113.335 23.6499ZM113.367 24.7968H114.833C115.388 24.7968 115.798 24.9151 116.063 25.1433C116.338 25.3719 116.477 25.6928 116.477 26.11C116.477 26.5184 116.338 26.8341 116.063 27.0628C115.798 27.2909 115.388 27.4058 114.833 27.4058H113.367V24.7968ZM112.206 27.437H113.335V28.3136L113.211 28.428L112.206 27.437ZM113.335 28.3586V28.5527L113.233 28.4487L113.335 28.3586ZM113.208 28.4729L113.335 28.5976V29.3737H112.206L113.208 28.4729ZM114.205 28.518H117.01L117.3 28.9233C117.264 28.9393 117.251 28.9734 117.213 28.9892C116.596 29.2455 115.857 29.3738 114.996 29.3738H114.815L114.205 28.518ZM117.318 28.9441L119.343 31.768H116.528L114.837 29.405H114.996C115.86 29.405 116.602 29.2753 117.224 29.0169C117.265 28.9992 117.279 28.9622 117.318 28.9441Z" fill="white"/>
<path d="M102.964 31.7826V24.7958H100.067V22.7756H108.516V24.7958H105.632V31.7826H102.964Z" fill="white"/>
<path d="M100.051 22.7594V24.8106H102.95V31.7992H102.965H105.65V24.8106H108.53V22.7594H100.051ZM100.084 22.7906H108.501V24.7795H105.617V31.768H102.979V24.7795H100.084V22.7906Z" fill="white"/>
<path d="M88.926 31.7828V22.7758H91.1224L96.3234 28.7719H95.2859V22.7758H97.9V31.7828H95.7036L90.5025 25.7866H91.5401V31.7828H88.926Z" fill="white"/>
<path d="M88.9084 22.7594V31.7992H88.9267H91.5572V27.0246L95.6971 31.7992H97.9177V22.7594H95.269V27.5339L91.1291 22.7594H88.9084ZM88.9411 22.7906H91.1145L95.2689 27.579V28.7883H96.3574L95.3016 27.5721V22.7906H97.885V31.768H95.7116L91.5571 26.9796V25.7704H90.4686L91.5245 26.9866V31.768H88.9411V22.7906ZM90.5376 25.8016H91.5245V26.9415L90.5376 25.8016ZM95.3016 27.6172L96.2885 28.7571H95.3016V27.6172Z" fill="white"/>
<path d="M81.1533 26.2627H85.5324V28.1671H81.1533V26.2627ZM81.3419 29.8141H86.2735V31.7828H78.7009V22.7758H86.0984V24.7444H81.3419V29.8141Z" fill="white"/>
<path d="M78.6838 22.7594V31.7992H86.2888V29.7999H81.3579V28.1819H85.5487V26.2485H81.3579V24.7586H86.1147V22.7594H78.6838ZM78.7165 22.7906H86.082V24.7309H81.3253V26.2485H81.1366V26.2627V28.1822H81.3253V29.828H81.3435H86.2563V31.7683H78.7166L78.7165 22.7906ZM81.1693 26.2763H81.3253V28.1507H81.1693V26.2763ZM81.3579 26.2763H85.516V28.1507H81.3579V26.2763Z" fill="white"/>
<path d="M72.2887 31.9628C71.5431 31.9628 70.8514 31.8513 70.2137 31.6283C69.5848 31.3967 69.0369 31.0707 68.5698 30.6504C68.1117 30.2301 67.7523 29.7368 67.4918 29.1706C67.2313 28.5959 67.1011 27.9654 67.1011 27.2792C67.1011 26.5929 67.2313 25.9667 67.4918 25.4006C67.7523 24.8258 68.1117 24.3283 68.5698 23.908C69.0369 23.4877 69.5848 23.166 70.2137 22.943C70.8514 22.7114 71.5431 22.5956 72.2887 22.5956C73.16 22.5956 73.9371 22.7414 74.6198 23.0331C75.3115 23.3247 75.8864 23.745 76.3445 24.294L74.6467 25.7609C74.3413 25.4177 74.0044 25.1561 73.6361 24.976C73.2768 24.7958 72.8726 24.7058 72.4234 24.7058C72.0372 24.7058 71.6824 24.7658 71.359 24.8859C71.0356 25.006 70.7571 25.1819 70.5236 25.4135C70.299 25.6365 70.1193 25.9067 69.9846 26.2241C69.8588 26.5415 69.7959 26.8932 69.7959 27.2792C69.7959 27.6652 69.8588 28.0169 69.9846 28.3343C70.1193 28.6517 70.299 28.9262 70.5236 29.1578C70.7571 29.3808 71.0356 29.5524 71.359 29.6725C71.6824 29.7926 72.0372 29.8526 72.4234 29.8526C72.8726 29.8526 73.2768 29.7626 73.6361 29.5824C74.0044 29.4023 74.3413 29.1407 74.6467 28.7975L76.3445 30.2644C75.8864 30.8048 75.3115 31.2252 74.6198 31.5254C73.9371 31.817 73.16 31.9628 72.2887 31.9628Z" fill="white"/>
<path d="M72.287 22.5792C71.5397 22.5792 70.8477 22.6968 70.208 22.9292C69.5773 23.1529 69.0258 23.4741 68.5571 23.8959C68.0974 24.3176 67.7371 24.8197 67.4758 25.3961C67.2144 25.9643 67.084 26.5895 67.084 27.2775C67.084 27.9656 67.2144 28.5995 67.4758 29.1763C67.7371 29.7442 68.0975 30.241 68.5571 30.6627C69.0257 31.0844 69.5774 31.411 70.208 31.6432C70.8477 31.8669 71.5398 31.9793 72.287 31.9793C73.1602 31.9793 73.9423 31.8319 74.6273 31.5393C75.3211 31.2382 75.8983 30.8169 76.358 30.2746L76.3653 30.264L74.6454 28.7741L74.6345 28.7883C74.3302 29.1301 73.9957 29.3887 73.6294 29.5679C73.2725 29.7468 72.8717 29.8381 72.4248 29.8381C72.0403 29.8381 71.6867 29.7773 71.3653 29.6579C71.0439 29.5385 70.7664 29.3701 70.5345 29.1486C70.3113 28.9184 70.1352 28.6433 70.0011 28.3274C69.8761 28.012 69.8124 27.662 69.8124 27.2776C69.8124 26.8932 69.8761 26.5467 70.0011 26.2312C70.1352 25.9154 70.3114 25.6454 70.5345 25.4239C70.7664 25.1939 71.044 25.0201 71.3653 24.9007C71.6867 24.7813 72.0403 24.7205 72.4248 24.7205C72.8717 24.7205 73.2725 24.8119 73.6294 24.9908C73.9957 25.1699 74.3302 25.4286 74.6345 25.7704L74.6454 25.7846L76.3653 24.2947L76.358 24.2841C75.8983 23.7332 75.3212 23.312 74.6273 23.0194C73.9423 22.7268 73.1602 22.5792 72.287 22.5792ZM72.287 22.6105C73.1565 22.6105 73.9324 22.7565 74.6128 23.047C75.2965 23.3353 75.8635 23.754 76.3181 24.2944L74.6455 25.7392C74.3423 25.4018 74.0093 25.1417 73.644 24.9631C73.2823 24.7817 72.8763 24.6894 72.4249 24.6894C72.0369 24.6894 71.6799 24.7522 71.3545 24.873C71.0291 24.9938 70.7479 25.1699 70.5128 25.4031C70.2867 25.6277 70.1039 25.8984 69.9685 26.2174C69.842 26.5367 69.7798 26.89 69.7798 27.2776C69.7798 27.6652 69.842 28.022 69.9685 28.3413C70.1039 28.6602 70.2868 28.9363 70.5128 29.1694C70.7479 29.3939 71.0293 29.5649 71.3545 29.6857C71.6799 29.8065 72.0369 29.8693 72.4249 29.8693C72.8763 29.8693 73.2823 29.7769 73.644 29.5956C74.0093 29.4169 74.3423 29.1569 74.6455 28.8194L76.3181 30.2643C75.8634 30.7964 75.2966 31.2148 74.6128 31.5116C73.9324 31.8023 73.1565 31.9482 72.287 31.9482C71.5431 31.9482 70.8548 31.8379 70.2189 31.6156C69.5919 31.3846 69.0481 31.0575 68.5825 30.6385C68.1259 30.2195 67.7646 29.7303 67.5049 29.1659C67.2453 28.5932 67.1166 27.962 67.1166 27.2776C67.1166 26.5932 67.2453 25.9707 67.5049 25.4066C67.7646 24.8336 68.1259 24.3391 68.5825 23.9202C69.048 23.5013 69.5919 23.1793 70.2189 22.9569C70.8547 22.726 71.5432 22.6105 72.287 22.6105Z" fill="white"/>
<path fill-rule="evenodd" clip-rule="evenodd" d="M120.476 20.3812L124.785 11.0588H127.519L131.839 20.3812H128.94L128.182 18.5767H124.078L123.321 20.3812H120.501H120.476ZM127.353 16.6068L126.13 13.6933L124.908 16.6068H127.353Z" fill="white"/>
<path d="M115.75 20.3657V11.0748H118.502V20.3657H115.75Z" fill="white"/>
<path d="M108.969 20.5514C108.172 20.5514 107.403 20.4585 106.662 20.2727C105.93 20.078 105.332 19.8303 104.869 19.5294L105.772 17.5916C106.208 17.8571 106.708 18.0783 107.273 18.2552C107.848 18.4234 108.418 18.5074 108.983 18.5074C109.363 18.5074 109.669 18.4765 109.9 18.4145C110.132 18.3438 110.299 18.2552 110.401 18.149C110.512 18.0339 110.568 17.9012 110.568 17.7508C110.568 17.5385 110.466 17.3703 110.262 17.2465C110.058 17.1226 109.794 17.0209 109.47 16.9412C109.145 16.8616 108.784 16.782 108.385 16.7023C107.996 16.6227 107.602 16.521 107.204 16.397C106.815 16.2731 106.458 16.1139 106.134 15.9192C105.809 15.7157 105.545 15.4547 105.341 15.1361C105.138 14.8087 105.036 14.3972 105.036 13.9017C105.036 13.3443 105.193 12.8399 105.508 12.3886C105.833 11.9374 106.314 11.5746 106.954 11.3003C107.593 11.026 108.39 10.8888 109.344 10.8888C109.984 10.8888 110.609 10.9596 111.221 11.1012C111.842 11.2339 112.393 11.433 112.875 11.6985L112.027 13.6496C111.564 13.4107 111.105 13.2337 110.651 13.1186C110.197 12.9947 109.757 12.9328 109.331 12.9328C108.951 12.9328 108.645 12.9726 108.413 13.0522C108.182 13.123 108.015 13.2203 107.913 13.3442C107.811 13.4681 107.76 13.6097 107.76 13.769C107.76 13.9725 107.857 14.1361 108.052 14.26C108.256 14.375 108.52 14.4724 108.844 14.5521C109.178 14.6228 109.539 14.698 109.928 14.7777C110.327 14.8573 110.72 14.959 111.11 15.0829C111.508 15.198 111.869 15.3573 112.194 15.5608C112.518 15.7555 112.778 16.0165 112.972 16.3439C113.176 16.6624 113.278 17.065 113.278 17.5517C113.278 18.0914 113.116 18.5914 112.791 19.0515C112.476 19.5028 111.999 19.8656 111.36 20.1399C110.73 20.4142 109.933 20.5514 108.969 20.5514Z" fill="white"/>
<path d="M109.343 10.8728C108.387 10.8728 107.59 11.0105 106.948 11.2861C106.307 11.5613 105.821 11.9272 105.495 12.3812C105.178 12.8349 105.019 13.3431 105.019 13.9034C105.019 14.4009 105.123 14.8127 105.329 15.1431C105.534 15.4636 105.8 15.727 106.126 15.9318C106.452 16.1271 106.807 16.2862 107.197 16.4105C107.596 16.5346 107.994 16.6373 108.384 16.717C108.782 16.7967 109.142 16.8785 109.466 16.958C109.789 17.0374 110.05 17.1384 110.252 17.2611C110.452 17.3828 110.551 17.5426 110.551 17.7501C110.551 17.8968 110.498 18.0267 110.389 18.1393C110.29 18.2424 110.125 18.3307 109.895 18.401C109.665 18.4624 109.361 18.4905 108.982 18.4905C108.42 18.4905 107.852 18.4061 107.28 18.2391H107.276C106.714 18.0627 106.213 17.8421 105.78 17.5779L105.765 17.5674L104.849 19.5338L104.86 19.5409C105.326 19.843 105.923 20.0932 106.656 20.2882C107.399 20.4743 108.17 20.5671 108.968 20.5671H108.986V20.5636C109.942 20.5618 110.738 20.4273 111.366 20.1537C112.008 19.8785 112.488 19.5127 112.805 19.0586C113.131 18.5961 113.296 18.093 113.296 17.5502C113.296 17.0615 113.191 16.6561 112.985 16.3345C112.79 16.005 112.529 15.7419 112.203 15.5459C111.877 15.3416 111.514 15.1827 111.114 15.0672C110.724 14.9431 110.33 14.8404 109.931 14.7607C109.542 14.681 109.182 14.6077 108.849 14.5369C108.527 14.4577 108.264 14.3609 108.063 14.2476C107.872 14.1259 107.778 13.9676 107.778 13.7689C107.778 13.6128 107.826 13.4735 107.926 13.3522C108.025 13.2318 108.19 13.1365 108.42 13.0664C108.649 12.9877 108.953 12.9493 109.332 12.9493C109.757 12.9493 110.192 13.0117 110.645 13.1352H110.649C111.101 13.2498 111.557 13.4237 112.019 13.6621L112.037 13.6727L112.895 11.6925L112.885 11.6855C112.401 11.4191 111.848 11.2193 111.226 11.0863C110.613 10.9443 109.984 10.8728 109.343 10.8728ZM109.343 10.9038C109.981 10.9038 110.608 10.9761 111.218 11.1173C111.832 11.2487 112.375 11.4484 112.852 11.7097L112.019 13.6279C111.56 13.3924 111.106 13.2186 110.656 13.1044C110.2 12.9801 109.76 12.9185 109.332 12.9185C108.951 12.9185 108.643 12.9585 108.409 13.0391C108.175 13.1105 108.005 13.208 107.9 13.3352C107.796 13.4617 107.742 13.6067 107.742 13.7692C107.742 13.9775 107.843 14.1459 108.041 14.272H108.045V14.2755C108.25 14.3915 108.516 14.4883 108.842 14.5682C109.175 14.6389 109.534 14.7125 109.924 14.7921C110.321 14.8716 110.714 14.9748 111.103 15.0986H111.107C111.504 15.2132 111.862 15.3712 112.185 15.5738C112.507 15.7672 112.763 16.0268 112.957 16.3521C113.159 16.6676 113.263 17.066 113.263 17.5506C113.263 18.0874 113.099 18.584 112.776 19.0418C112.463 19.4902 111.989 19.8532 111.352 20.1266C110.725 20.3996 109.93 20.5364 108.968 20.5364C108.963 20.5364 108.958 20.5364 108.954 20.5364C108.163 20.5353 107.403 20.4417 106.667 20.2574C105.942 20.0647 105.353 19.8201 104.893 19.5239L105.78 17.6126C106.213 17.8747 106.71 18.0951 107.269 18.2704C107.845 18.4389 108.416 18.5217 108.982 18.5217C109.363 18.5217 109.672 18.4912 109.906 18.4288C110.139 18.3576 110.309 18.2694 110.414 18.1602C110.528 18.0426 110.584 17.9044 110.584 17.7503C110.584 17.5332 110.477 17.3598 110.27 17.2338C110.064 17.1087 109.798 17.0072 109.473 16.9273C109.148 16.8476 108.786 16.766 108.387 16.6862C107.999 16.6067 107.606 16.5069 107.208 16.3831C106.82 16.2595 106.467 16.1019 106.144 15.9079C105.822 15.7056 105.557 15.4463 105.355 15.1296C105.153 14.8052 105.052 14.3971 105.052 13.9036C105.052 13.349 105.207 12.8475 105.52 12.3987C105.843 11.9501 106.322 11.5872 106.959 11.3138C107.596 11.0407 108.39 10.9038 109.343 10.9038Z" fill="white"/>
<path d="M97.5318 14.6717H102.049V16.6361H97.5318V14.6717ZM97.7264 18.3351H102.814V20.3658H95.0022V11.0748H102.633V13.1056H97.7264V18.3351Z" fill="white"/>
<path d="M94.9858 11.0588V20.3812H102.83V18.3184H97.7411V16.6516H102.065V14.6576H97.7411V13.1216H102.649V11.0588H94.9858ZM95.0183 11.0898H102.617V13.0907H97.7086V14.6576H97.5139V14.6717V16.6519H97.7086V18.3497H97.7267H102.797V20.3506H95.0184L95.0183 11.0898ZM97.5463 14.6886H97.7086V16.6206H97.5463V14.6886ZM97.7411 14.6886H102.033V16.6206H97.7411V14.6886Z" fill="white"/>
<path d="M85.3164 20.3658V11.0748H88.0684V18.282H92.7108V20.3658H85.3164Z" fill="white"/>
<path d="M85.2993 11.0588V20.3812H85.3174H92.7285V18.2667H88.0835V11.0588H85.2993ZM85.3318 11.0898H88.051V18.2978H92.6959V20.3503H85.3318V11.0898Z" fill="white"/>
<path d="M78.2711 20.5515C77.502 20.5515 76.7885 20.4365 76.1306 20.2064C75.4727 19.9675 74.9029 19.6313 74.421 19.1977C73.9484 18.7641 73.5778 18.2553 73.3091 17.6713C73.0404 17.0785 72.906 16.4281 72.906 15.7202C72.906 15.0123 73.0404 14.3664 73.3091 13.7824C73.5778 13.1895 73.9531 12.6763 74.4349 12.2427C74.9168 11.8091 75.4866 11.4774 76.1445 11.2473C76.8117 11.0084 77.5391 10.8889 78.3267 10.8889C79.244 10.8889 80.0641 11.0349 80.7868 11.3269C81.5096 11.6189 82.1072 12.0392 82.5798 12.5878L80.8285 14.1009C80.495 13.7558 80.1336 13.4992 79.7444 13.3311C79.3645 13.1541 78.9382 13.0656 78.4657 13.0656C78.0487 13.0656 77.6688 13.1276 77.3259 13.2515C76.9831 13.3754 76.6912 13.5567 76.4503 13.7956C76.2094 14.0257 76.0194 14.3044 75.8804 14.6318C75.7507 14.9504 75.6858 15.3131 75.6858 15.7202C75.6858 16.1095 75.7507 16.4679 75.8804 16.7953C76.0194 17.1227 76.2094 17.4058 76.4503 17.6447C76.6912 17.8748 76.9785 18.0562 77.312 18.189C77.6549 18.3129 78.0302 18.3748 78.4379 18.3748C78.8456 18.3748 79.244 18.3129 79.6332 18.189C80.0224 18.0562 80.4162 17.835 80.8146 17.5253L82.3574 19.3702C81.8015 19.7507 81.1575 20.0427 80.4255 20.2462C79.6934 20.4497 78.9753 20.5515 78.2711 20.5515ZM79.9251 19.0251V15.5211H82.3574V19.3702L79.9251 19.0251Z" fill="white"/>
<path d="M78.3283 10.8728C77.5389 10.8728 76.8084 10.9913 76.1392 11.231C75.4794 11.4617 74.9061 11.7946 74.4226 12.2297C73.9391 12.6647 73.5634 13.1812 73.2938 13.776C73.0241 14.3621 72.8899 15.012 72.8899 15.7217C72.8899 16.4315 73.0241 17.0829 73.2938 17.6778C73.5633 18.2636 73.9341 18.7753 74.4082 19.2103C74.8916 19.6454 75.465 19.9798 76.1248 20.2194V20.2229C76.7846 20.4536 77.4998 20.5672 78.2706 20.5672C78.9764 20.5672 79.6974 20.4646 80.4308 20.2607C81.1605 20.0579 81.801 19.7647 82.3565 19.386L82.3746 19.3896V19.3755L82.3818 19.3719L82.3746 19.3614V15.5043H79.9079V18.0148C79.8149 18.0564 79.719 18.1417 79.6266 18.1733C79.2391 18.2967 78.8425 18.3593 78.4365 18.3593C78.0305 18.3593 77.6594 18.2965 77.3185 18.1733C76.9878 18.0416 76.7028 17.8602 76.4638 17.6326C76.2244 17.3952 76.0323 17.1146 75.894 16.7889H75.8977C75.7688 16.4634 75.703 16.109 75.703 15.7213C75.703 15.3159 75.7653 14.9529 75.8941 14.6365C76.0324 14.3108 76.221 14.035 76.4603 13.8065H76.464C76.7032 13.5693 76.9924 13.389 77.3331 13.2658C77.6739 13.1428 78.0503 13.0799 78.4655 13.0799C78.936 13.0799 79.3611 13.1693 79.7386 13.3451C80.1255 13.5122 80.4846 13.7658 80.8169 14.1096L80.8278 14.1237L82.6021 12.5877L82.5912 12.5772C82.1169 12.0266 81.5202 11.6062 80.7952 11.3133C80.0702 11.0204 79.2474 10.8728 78.3283 10.8728ZM78.3283 10.9039C79.2438 10.9039 80.0601 11.0502 80.7806 11.3412C81.4969 11.6306 82.0853 12.0494 82.5549 12.5913L80.8275 14.0791C80.4963 13.7396 80.139 13.4848 79.7528 13.318C79.3704 13.1399 78.94 13.0494 78.4653 13.0494C78.0466 13.0494 77.6634 13.1107 77.3185 13.2353C76.9736 13.36 76.6812 13.5457 76.4385 13.7864C76.197 14.0176 76.0045 14.2985 75.8651 14.6266C75.7345 14.9473 75.6704 15.3132 75.6704 15.7218C75.6704 16.1128 75.7346 16.4704 75.8651 16.7997C76.0048 17.1288 76.1961 17.4168 76.4385 17.6572C76.681 17.8888 76.9687 18.0713 77.3041 18.2048H77.3077C77.6526 18.3294 78.0271 18.3907 78.4365 18.3907C78.846 18.3907 79.2466 18.3292 79.6374 18.2048C79.7265 18.1745 79.8184 18.0928 79.9079 18.0533V19.0382L79.9223 19.0417L82.3025 19.3792C81.7575 19.7453 81.1328 20.0317 80.42 20.2299C79.6893 20.433 78.9732 20.5364 78.2706 20.5364C77.5033 20.5364 76.7916 20.4214 76.1357 20.192C75.4796 19.9537 74.9137 19.6185 74.4335 19.1864C73.9624 18.7542 73.5906 18.2464 73.3227 17.6642C73.0549 17.0734 72.9224 16.4279 72.9224 15.7219C72.9224 15.0159 73.055 14.3718 73.3227 13.7899C73.5906 13.1989 73.9677 12.6861 74.4479 12.254C74.9281 11.8219 75.4941 11.4915 76.1501 11.2621C76.8153 11.0239 77.5424 10.9039 78.3283 10.9039ZM79.9403 15.5358H82.3421V19.324L80.8166 17.5022L80.8057 17.5128C80.5141 17.7395 80.2264 17.867 79.9402 17.9984L79.9403 15.5358ZM80.8094 17.5436L82.3205 19.3481L79.9403 19.0141V18.0326C80.2284 17.9016 80.5169 17.7695 80.8094 17.5436Z" fill="white"/>
<path d="M67.4888 20.3644V11.0734H70.2408V20.3644H67.4888Z" fill="white"/>
<path fill-rule="evenodd" clip-rule="evenodd" d="M28.8545 53.9678C44.7903 53.9678 57.7089 41.8935 57.7089 26.999C57.7089 12.1045 44.7903 0.0300903 28.8545 0.0300903C12.9186 0.0300903 0 12.1045 0 26.999C0 41.8935 12.9186 53.9678 28.8545 53.9678ZM14.7347 20.4083V21.4295V38.8096H27.8667V40.8448H30.0502V38.8096H43.1839V20.4083H32.2276V22.4527H40.9967V36.7653H30.0502V16.356H34.417V14.3152H30.0502V10.2337H27.8667V14.3152H23.4999V16.356H27.8667V36.7653H16.9215V22.4527H25.6936V20.4083H14.7347ZM25.6833 24.5189H19.1331V26.5596H25.6833V24.5189ZM32.2336 24.5189H38.7838V26.5596H32.2336V24.5189ZM25.6833 28.6004H19.1331V30.6411H25.6833V28.6004ZM32.2336 28.6004H38.7838V30.6411H32.2336V28.6004ZM25.6833 32.6818H19.1331V34.7226H25.6833V32.6818ZM32.2336 32.6818H38.7838V34.7226H32.2336V32.6818Z" fill="#458BD0"/>
</svg>
