<svg width="135" height="135" viewBox="0 0 135 135" fill="none" xmlns="http://www.w3.org/2000/svg">
<path d="M37.3182 3.59091V0.5H40.4091V3.59091H37.3182Z" fill="white" stroke="white"/>
<path d="M45.5 3.59091V0.5H48.5909V3.59091H45.5Z" fill="white" stroke="white"/>
<path d="M49.5909 3.59091V0.5H52.6819V3.59091H49.5909Z" fill="white" stroke="white"/>
<path d="M53.6818 3.59091V0.5H56.7727V3.59091H53.6818Z" fill="white" stroke="white"/>
<path d="M65.9545 3.59091V0.5H69.0454V3.59091H65.9545Z" fill="white" stroke="white"/>
<path d="M70.0455 3.59091V0.5H73.1364V3.59091H70.0455Z" fill="white" stroke="white"/>
<path d="M74.1364 3.59091V0.5H77.2273V3.59091H74.1364Z" fill="white" stroke="white"/>
<path d="M82.3182 3.59091V0.5H85.4091V3.59091H82.3182Z" fill="white" stroke="white"/>
<path d="M86.4091 3.59091V0.5H89.5V3.59091H86.4091Z" fill="white" stroke="white"/>
<path d="M90.5 3.59091V0.5H93.5909V3.59091H90.5Z" fill="white" stroke="white"/>
<path d="M98.6818 3.59091V0.5H101.773V3.59091H98.6818Z" fill="white" stroke="white"/>
<path d="M41.4091 7.68173V4.59082H44.5V7.68173H41.4091Z" fill="white" stroke="white"/>
<path d="M45.5 7.68173V4.59082H48.5909V7.68173H45.5Z" fill="white" stroke="white"/>
<path d="M53.6818 7.68173V4.59082H56.7727V7.68173H53.6818Z" fill="white" stroke="white"/>
<path d="M57.7727 7.68173V4.59082H60.8636V7.68173H57.7727Z" fill="white" stroke="white"/>
<path d="M65.9545 7.68173V4.59082H69.0454V7.68173H65.9545Z" fill="white" stroke="white"/>
<path d="M70.0455 7.68173V4.59082H73.1364V7.68173H70.0455Z" fill="white" stroke="white"/>
<path d="M82.3182 7.68173V4.59082H85.4091V7.68173H82.3182Z" fill="white" stroke="white"/>
<path d="M98.6818 7.68173V4.59082H101.773V7.68173H98.6818Z" fill="white" stroke="white"/>
<path d="M33.2273 11.7725V8.68164H36.3182V11.7725H33.2273Z" fill="white" stroke="white"/>
<path d="M37.3182 11.7725V8.68164H40.4091V11.7725H37.3182Z" fill="white" stroke="white"/>
<path d="M49.5909 11.7725V8.68164H52.6819V11.7725H49.5909Z" fill="white" stroke="white"/>
<path d="M57.7727 11.7725V8.68164H60.8636V11.7725H57.7727Z" fill="white" stroke="white"/>
<path d="M65.9545 11.7725V8.68164H69.0454V11.7725H65.9545Z" fill="white" stroke="white"/>
<path d="M78.2273 11.7725V8.68164H81.3182V11.7725H78.2273Z" fill="white" stroke="white"/>
<path d="M82.3182 11.7725V8.68164H85.4091V11.7725H82.3182Z" fill="white" stroke="white"/>
<path d="M86.4091 11.7725V8.68164H89.5V11.7725H86.4091Z" fill="white" stroke="white"/>
<path d="M94.5909 11.7725V8.68164H97.6819V11.7725H94.5909Z" fill="white" stroke="white"/>
<path d="M98.6818 11.7725V8.68164H101.773V11.7725H98.6818Z" fill="white" stroke="white"/>
<path d="M33.2272 15.8643V12.7734H36.3181V15.8643H33.2272Z" fill="white" stroke="white"/>
<path d="M37.3181 15.8643V12.7734H40.409V15.8643H37.3181Z" fill="white" stroke="white"/>
<path d="M49.5908 15.8643V12.7734H52.6817V15.8643H49.5908Z" fill="white" stroke="white"/>
<path d="M53.6819 15.8643V12.7734H56.7728V15.8643H53.6819Z" fill="white" stroke="white"/>
<path d="M57.7728 15.8643V12.7734H60.8637V15.8643H57.7728Z" fill="white" stroke="white"/>
<path d="M61.8636 15.8643V12.7734H64.9545V15.8643H61.8636Z" fill="white" stroke="white"/>
<path d="M74.1364 15.8643V12.7734H77.2273V15.8643H74.1364Z" fill="white" stroke="white"/>
<path d="M78.2272 15.8643V12.7734H81.3181V15.8643H78.2272Z" fill="white" stroke="white"/>
<path d="M82.3181 15.8643V12.7734H85.409V15.8643H82.3181Z" fill="white" stroke="white"/>
<path d="M86.4092 15.8643V12.7734H89.5001V15.8643H86.4092Z" fill="white" stroke="white"/>
<path d="M94.5908 15.8643V12.7734H97.6817V15.8643H94.5908Z" fill="white" stroke="white"/>
<path d="M98.6819 15.8643V12.7734H101.773V15.8643H98.6819Z" fill="white" stroke="white"/>
<path d="M37.3181 19.9552V16.8643H40.409V19.9552H37.3181Z" fill="white" stroke="white"/>
<path d="M41.4092 19.9552V16.8643H44.5001V19.9552H41.4092Z" fill="white" stroke="white"/>
<path d="M45.5 19.9552V16.8643H48.5909V19.9552H45.5Z" fill="white" stroke="white"/>
<path d="M53.6819 19.9552V16.8643H56.7728V19.9552H53.6819Z" fill="white" stroke="white"/>
<path d="M57.7728 19.9552V16.8643H60.8637V19.9552H57.7728Z" fill="white" stroke="white"/>
<path d="M74.1364 19.9552V16.8643H77.2273V19.9552H74.1364Z" fill="white" stroke="white"/>
<path d="M78.2272 19.9552V16.8643H81.3181V19.9552H78.2272Z" fill="white" stroke="white"/>
<path d="M86.4092 19.9552V16.8643H89.5001V19.9552H86.4092Z" fill="white" stroke="white"/>
<path d="M98.6819 19.9552V16.8643H101.773V19.9552H98.6819Z" fill="white" stroke="white"/>
<path d="M37.3181 24.046V20.9551H40.409V24.046H37.3181Z" fill="white" stroke="white"/>
<path d="M41.4092 24.046V20.9551H44.5001V24.046H41.4092Z" fill="white" stroke="white"/>
<path d="M49.5908 24.046V20.9551H52.6817V24.046H49.5908Z" fill="white" stroke="white"/>
<path d="M53.6819 24.046V20.9551H56.7728V24.046H53.6819Z" fill="white" stroke="white"/>
<path d="M57.7728 24.046V20.9551H60.8637V24.046H57.7728Z" fill="white" stroke="white"/>
<path d="M61.8636 24.046V20.9551H64.9546V24.046H61.8636Z" fill="white" stroke="white"/>
<path d="M65.9545 24.046V20.9551H69.0454V24.046H65.9545Z" fill="white" stroke="white"/>
<path d="M78.2272 24.046V20.9551H81.3181V24.046H78.2272Z" fill="white" stroke="white"/>
<path d="M86.4092 24.046V20.9551H89.5001V24.046H86.4092Z" fill="white" stroke="white"/>
<path d="M90.5 24.046V20.9551H93.5909V24.046H90.5Z" fill="white" stroke="white"/>
<path d="M94.5908 24.046V20.9551H97.6817V24.046H94.5908Z" fill="white" stroke="white"/>
<path d="M33.2272 28.1358V25.0449H36.3181V28.1358H33.2272Z" fill="white" stroke="white"/>
<path d="M41.4092 28.1358V25.0449H44.5001V28.1358H41.4092Z" fill="white" stroke="white"/>
<path d="M49.5908 28.1358V25.0449H52.6817V28.1358H49.5908Z" fill="white" stroke="white"/>
<path d="M57.7728 28.1358V25.0449H60.8637V28.1358H57.7728Z" fill="white" stroke="white"/>
<path d="M65.9545 28.1358V25.0449H69.0454V28.1358H65.9545Z" fill="white" stroke="white"/>
<path d="M74.1364 28.1358V25.0449H77.2273V28.1358H74.1364Z" fill="white" stroke="white"/>
<path d="M82.3181 28.1358V25.0449H85.409V28.1358H82.3181Z" fill="white" stroke="white"/>
<path d="M90.5 28.1358V25.0449H93.5909V28.1358H90.5Z" fill="white" stroke="white"/>
<path d="M98.6819 28.1358V25.0449H101.773V28.1358H98.6819Z" fill="white" stroke="white"/>
<path d="M37.3181 32.2267V29.1357H40.409V32.2267H37.3181Z" fill="white" stroke="white"/>
<path d="M45.5 32.2267V29.1357H48.5909V32.2267H45.5Z" fill="white" stroke="white"/>
<path d="M49.5908 32.2267V29.1357H52.6817V32.2267H49.5908Z" fill="white" stroke="white"/>
<path d="M53.6819 32.2267V29.1357H56.7728V32.2267H53.6819Z" fill="white" stroke="white"/>
<path d="M61.8636 32.2267V29.1357H64.9545V32.2267H61.8636Z" fill="white" stroke="white"/>
<path d="M70.0455 32.2267V29.1357H73.1364V32.2267H70.0455Z" fill="white" stroke="white"/>
<path d="M74.1364 32.2267V29.1357H77.2273V32.2267H74.1364Z" fill="white" stroke="white"/>
<path d="M12.7728 36.3175V33.2266H15.8637V36.3175H12.7728Z" fill="white" stroke="white"/>
<path d="M16.8636 36.3175V33.2266H19.9546V36.3175H16.8636Z" fill="white" stroke="white"/>
<path d="M25.0455 36.3175V33.2266H28.1364V36.3175H25.0455Z" fill="white" stroke="white"/>
<path d="M29.1364 36.3175V33.2266H32.2273V36.3175H29.1364Z" fill="white" stroke="white"/>
<path d="M37.3181 36.3175V33.2266H40.409V36.3175H37.3181Z" fill="white" stroke="white"/>
<path d="M41.4092 36.3175V33.2266H44.5001V36.3175H41.4092Z" fill="white" stroke="white"/>
<path d="M57.7728 36.3175V33.2266H60.8637V36.3175H57.7728Z" fill="white" stroke="white"/>
<path d="M78.2272 36.3175V33.2266H81.3181V36.3175H78.2272Z" fill="white" stroke="white"/>
<path d="M82.3181 36.3175V33.2266H85.409V36.3175H82.3181Z" fill="white" stroke="white"/>
<path d="M94.5908 36.3175V33.2266H97.6817V36.3175H94.5908Z" fill="white" stroke="white"/>
<path d="M98.6819 36.3175V33.2266H101.773V36.3175H98.6819Z" fill="white" stroke="white"/>
<path d="M119.136 36.3175V33.2266H122.227V36.3175H119.136Z" fill="white" stroke="white"/>
<path d="M123.227 36.3175V33.2266H126.318V36.3175H123.227Z" fill="white" stroke="white"/>
<path d="M0.5 40.4093V37.3184H3.59091V40.4093H0.5Z" fill="white" stroke="white"/>
<path d="M4.59094 40.4093V37.3184H7.68185V40.4093H4.59094Z" fill="white" stroke="white"/>
<path d="M8.68176 40.4093V37.3184H11.7727V40.4093H8.68176Z" fill="white" stroke="white"/>
<path d="M16.8636 40.4093V37.3184H19.9546V40.4093H16.8636Z" fill="white" stroke="white"/>
<path d="M29.1364 40.4093V37.3184H32.2273V40.4093H29.1364Z" fill="white" stroke="white"/>
<path d="M41.4091 40.4093V37.3184H44.5V40.4093H41.4091Z" fill="white" stroke="white"/>
<path d="M53.6818 40.4093V37.3184H56.7727V40.4093H53.6818Z" fill="white" stroke="white"/>
<path d="M61.8636 40.4093V37.3184H64.9546V40.4093H61.8636Z" fill="white" stroke="white"/>
<path d="M70.0455 40.4093V37.3184H73.1364V40.4093H70.0455Z" fill="white" stroke="white"/>
<path d="M74.1364 40.4093V37.3184H77.2273V40.4093H74.1364Z" fill="white" stroke="white"/>
<path d="M78.2273 40.4093V37.3184H81.3182V40.4093H78.2273Z" fill="white" stroke="white"/>
<path d="M82.3182 40.4093V37.3184H85.4091V40.4093H82.3182Z" fill="white" stroke="white"/>
<path d="M86.4091 40.4093V37.3184H89.5V40.4093H86.4091Z" fill="white" stroke="white"/>
<path d="M90.5 40.4093V37.3184H93.5909V40.4093H90.5Z" fill="white" stroke="white"/>
<path d="M94.5909 40.4093V37.3184H97.6819V40.4093H94.5909Z" fill="white" stroke="white"/>
<path d="M102.773 40.4093V37.3184H105.864V40.4093H102.773Z" fill="white" stroke="white"/>
<path d="M110.955 40.4093V37.3184H114.045V40.4093H110.955Z" fill="white" stroke="white"/>
<path d="M115.045 40.4093V37.3184H118.136V40.4093H115.045Z" fill="white" stroke="white"/>
<path d="M119.136 40.4093V37.3184H122.227V40.4093H119.136Z" fill="white" stroke="white"/>
<path d="M4.59094 44.5001V41.4092H7.68185V44.5001H4.59094Z" fill="white" stroke="white"/>
<path d="M12.7727 44.5001V41.4092H15.8636V44.5001H12.7727Z" fill="white" stroke="white"/>
<path d="M20.9546 44.5001V41.4092H24.0455V44.5001H20.9546Z" fill="white" stroke="white"/>
<path d="M25.0454 44.5001V41.4092H28.1363V44.5001H25.0454Z" fill="white" stroke="white"/>
<path d="M33.2273 44.5001V41.4092H36.3182V44.5001H33.2273Z" fill="white" stroke="white"/>
<path d="M45.5 44.5001V41.4092H48.5909V44.5001H45.5Z" fill="white" stroke="white"/>
<path d="M49.5909 44.5001V41.4092H52.6819V44.5001H49.5909Z" fill="white" stroke="white"/>
<path d="M61.8636 44.5001V41.4092H64.9546V44.5001H61.8636Z" fill="white" stroke="white"/>
<path d="M65.9545 44.5001V41.4092H69.0454V44.5001H65.9545Z" fill="white" stroke="white"/>
<path d="M70.0455 44.5001V41.4092H73.1364V44.5001H70.0455Z" fill="white" stroke="white"/>
<path d="M74.1364 44.5001V41.4092H77.2273V44.5001H74.1364Z" fill="white" stroke="white"/>
<path d="M78.2273 44.5001V41.4092H81.3182V44.5001H78.2273Z" fill="white" stroke="white"/>
<path d="M82.3182 44.5001V41.4092H85.4091V44.5001H82.3182Z" fill="white" stroke="white"/>
<path d="M90.5 44.5001V41.4092H93.5909V44.5001H90.5Z" fill="white" stroke="white"/>
<path d="M94.5909 44.5001V41.4092H97.6819V44.5001H94.5909Z" fill="white" stroke="white"/>
<path d="M102.773 44.5001V41.4092H105.864V44.5001H102.773Z" fill="white" stroke="white"/>
<path d="M106.864 44.5001V41.4092H109.955V44.5001H106.864Z" fill="white" stroke="white"/>
<path d="M110.955 44.5001V41.4092H114.045V44.5001H110.955Z" fill="white" stroke="white"/>
<path d="M119.136 44.5001V41.4092H122.227V44.5001H119.136Z" fill="white" stroke="white"/>
<path d="M127.318 44.5001V41.4092H130.409V44.5001H127.318Z" fill="white" stroke="white"/>
<path d="M131.409 44.5001V41.4092H134.5V44.5001H131.409Z" fill="white" stroke="white"/>
<path d="M12.7727 48.5909V45.5H15.8636V48.5909H12.7727Z" fill="white" stroke="white"/>
<path d="M20.9546 48.5909V45.5H24.0455V48.5909H20.9546Z" fill="white" stroke="white"/>
<path d="M29.1364 48.5909V45.5H32.2273V48.5909H29.1364Z" fill="white" stroke="white"/>
<path d="M45.5 48.5909V45.5H48.5909V48.5909H45.5Z" fill="white" stroke="white"/>
<path d="M49.5909 48.5909V45.5H52.6819V48.5909H49.5909Z" fill="white" stroke="white"/>
<path d="M53.6818 48.5909V45.5H56.7727V48.5909H53.6818Z" fill="white" stroke="white"/>
<path d="M57.7727 48.5909V45.5H60.8636V48.5909H57.7727Z" fill="white" stroke="white"/>
<path d="M70.0455 48.5909V45.5H73.1364V48.5909H70.0455Z" fill="white" stroke="white"/>
<path d="M74.1364 48.5909V45.5H77.2273V48.5909H74.1364Z" fill="white" stroke="white"/>
<path d="M78.2273 48.5909V45.5H81.3182V48.5909H78.2273Z" fill="white" stroke="white"/>
<path d="M94.5909 48.5909V45.5H97.6819V48.5909H94.5909Z" fill="white" stroke="white"/>
<path d="M98.6818 48.5909V45.5H101.773V48.5909H98.6818Z" fill="white" stroke="white"/>
<path d="M102.773 48.5909V45.5H105.864V48.5909H102.773Z" fill="white" stroke="white"/>
<path d="M110.955 48.5909V45.5H114.045V48.5909H110.955Z" fill="white" stroke="white"/>
<path d="M115.045 48.5909V45.5H118.136V48.5909H115.045Z" fill="white" stroke="white"/>
<path d="M123.227 48.5909V45.5H126.318V48.5909H123.227Z" fill="white" stroke="white"/>
<path d="M127.318 48.5909V45.5H130.409V48.5909H127.318Z" fill="white" stroke="white"/>
<path d="M0.5 52.6817V49.5908H3.59091V52.6817H0.5Z" fill="white" stroke="white"/>
<path d="M4.59094 52.6817V49.5908H7.68185V52.6817H4.59094Z" fill="white" stroke="white"/>
<path d="M25.0454 52.6817V49.5908H28.1363V52.6817H25.0454Z" fill="white" stroke="white"/>
<path d="M29.1364 52.6817V49.5908H32.2273V52.6817H29.1364Z" fill="white" stroke="white"/>
<path d="M37.3182 52.6817V49.5908H40.4091V52.6817H37.3182Z" fill="white" stroke="white"/>
<path d="M45.5 52.6817V49.5908H48.5909V52.6817H45.5Z" fill="white" stroke="white"/>
<path d="M53.6818 52.6817V49.5908H56.7727V52.6817H53.6818Z" fill="white" stroke="white"/>
<path d="M61.8636 52.6817V49.5908H64.9546V52.6817H61.8636Z" fill="white" stroke="white"/>
<path d="M74.1364 52.6817V49.5908H77.2273V52.6817H74.1364Z" fill="white" stroke="white"/>
<path d="M86.4091 52.6817V49.5908H89.5V52.6817H86.4091Z" fill="white" stroke="white"/>
<path d="M90.5 52.6817V49.5908H93.5909V52.6817H90.5Z" fill="white" stroke="white"/>
<path d="M98.6818 52.6817V49.5908H101.773V52.6817H98.6818Z" fill="white" stroke="white"/>
<path d="M106.864 52.6817V49.5908H109.955V52.6817H106.864Z" fill="white" stroke="white"/>
<path d="M110.955 52.6817V49.5908H114.045V52.6817H110.955Z" fill="white" stroke="white"/>
<path d="M127.318 52.6817V49.5908H130.409V52.6817H127.318Z" fill="white" stroke="white"/>
<path d="M4.59094 56.7725V53.6816H7.68185V56.7725H4.59094Z" fill="white" stroke="white"/>
<path d="M8.68176 56.7725V53.6816H11.7727V56.7725H8.68176Z" fill="white" stroke="white"/>
<path d="M12.7727 56.7725V53.6816H15.8636V56.7725H12.7727Z" fill="white" stroke="white"/>
<path d="M16.8636 56.7725V53.6816H19.9546V56.7725H16.8636Z" fill="white" stroke="white"/>
<path d="M29.1364 56.7725V53.6816H32.2273V56.7725H29.1364Z" fill="white" stroke="white"/>
<path d="M33.2273 56.7725V53.6816H36.3182V56.7725H33.2273Z" fill="white" stroke="white"/>
<path d="M41.4091 56.7725V53.6816H44.5V56.7725H41.4091Z" fill="white" stroke="white"/>
<path d="M45.5 56.7725V53.6816H48.5909V56.7725H45.5Z" fill="white" stroke="white"/>
<path d="M49.5909 56.7725V53.6816H52.6819V56.7725H49.5909Z" fill="white" stroke="white"/>
<path d="M53.6818 56.7725V53.6816H56.7727V56.7725H53.6818Z" fill="white" stroke="white"/>
<path d="M57.7727 56.7725V53.6816H60.8636V56.7725H57.7727Z" fill="white" stroke="white"/>
<path d="M78.2273 56.7725V53.6816H81.3182V56.7725H78.2273Z" fill="white" stroke="white"/>
<path d="M86.4091 56.7725V53.6816H89.5V56.7725H86.4091Z" fill="white" stroke="white"/>
<path d="M94.5909 56.7725V53.6816H97.6819V56.7725H94.5909Z" fill="white" stroke="white"/>
<path d="M110.955 56.7725V53.6816H114.045V56.7725H110.955Z" fill="white" stroke="white"/>
<path d="M123.227 56.7725V53.6816H126.318V56.7725H123.227Z" fill="white" stroke="white"/>
<path d="M127.318 56.7725V53.6816H130.409V56.7725H127.318Z" fill="white" stroke="white"/>
<path d="M4.59082 60.8643V57.7734H7.68173V60.8643H4.59082Z" fill="white" stroke="white"/>
<path d="M12.7728 60.8643V57.7734H15.8637V60.8643H12.7728Z" fill="white" stroke="white"/>
<path d="M20.9545 60.8643V57.7734H24.0454V60.8643H20.9545Z" fill="white" stroke="white"/>
<path d="M25.0455 60.8643V57.7734H28.1364V60.8643H25.0455Z" fill="white" stroke="white"/>
<path d="M29.1364 60.8643V57.7734H32.2273V60.8643H29.1364Z" fill="white" stroke="white"/>
<path d="M37.3181 60.8643V57.7734H40.409V60.8643H37.3181Z" fill="white" stroke="white"/>
<path d="M41.4092 60.8643V57.7734H44.5001V60.8643H41.4092Z" fill="white" stroke="white"/>
<path d="M45.5 60.8643V57.7734H48.5909V60.8643H45.5Z" fill="white" stroke="white"/>
<path d="M57.7728 60.8643V57.7734H60.8637V60.8643H57.7728Z" fill="white" stroke="white"/>
<path d="M61.8636 60.8643V57.7734H64.9545V60.8643H61.8636Z" fill="white" stroke="white"/>
<path d="M74.1364 60.8643V57.7734H77.2273V60.8643H74.1364Z" fill="white" stroke="white"/>
<path d="M82.3181 60.8643V57.7734H85.409V60.8643H82.3181Z" fill="white" stroke="white"/>
<path d="M106.864 60.8643V57.7734H109.955V60.8643H106.864Z" fill="white" stroke="white"/>
<path d="M110.954 60.8643V57.7734H114.045V60.8643H110.954Z" fill="white" stroke="white"/>
<path d="M119.136 60.8643V57.7734H122.227V60.8643H119.136Z" fill="white" stroke="white"/>
<path d="M0.5 64.9552V61.8643H3.59091V64.9552H0.5Z" fill="white" stroke="white"/>
<path d="M4.59082 64.9552V61.8643H7.68173V64.9552H4.59082Z" fill="white" stroke="white"/>
<path d="M16.8636 64.9552V61.8643H19.9546V64.9552H16.8636Z" fill="white" stroke="white"/>
<path d="M45.5 64.9552V61.8643H48.5909V64.9552H45.5Z" fill="white" stroke="white"/>
<path d="M49.5908 64.9552V61.8643H52.6817V64.9552H49.5908Z" fill="white" stroke="white"/>
<path d="M61.8636 64.9552V61.8643H64.9545V64.9552H61.8636Z" fill="white" stroke="white"/>
<path d="M70.0455 64.9552V61.8643H73.1364V64.9552H70.0455Z" fill="white" stroke="white"/>
<path d="M74.1364 64.9552V61.8643H77.2273V64.9552H74.1364Z" fill="white" stroke="white"/>
<path d="M98.6819 64.9552V61.8643H101.773V64.9552H98.6819Z" fill="white" stroke="white"/>
<path d="M102.773 64.9552V61.8643H105.864V64.9552H102.773Z" fill="white" stroke="white"/>
<path d="M110.954 64.9552V61.8643H114.045V64.9552H110.954Z" fill="white" stroke="white"/>
<path d="M119.136 64.9552V61.8643H122.227V64.9552H119.136Z" fill="white" stroke="white"/>
<path d="M123.227 64.9552V61.8643H126.318V64.9552H123.227Z" fill="white" stroke="white"/>
<path d="M127.318 64.9552V61.8643H130.409V64.9552H127.318Z" fill="white" stroke="white"/>
<path d="M131.409 64.9552V61.8643H134.5V64.9552H131.409Z" fill="white" stroke="white"/>
<path d="M0.5 69.046V65.9551H3.59091V69.046H0.5Z" fill="white" stroke="white"/>
<path d="M4.59082 69.046V65.9551H7.68173V69.046H4.59082Z" fill="white" stroke="white"/>
<path d="M12.7728 69.046V65.9551H15.8637V69.046H12.7728Z" fill="white" stroke="white"/>
<path d="M16.8636 69.046V65.9551H19.9546V69.046H16.8636Z" fill="white" stroke="white"/>
<path d="M25.0455 69.046V65.9551H28.1364V69.046H25.0455Z" fill="white" stroke="white"/>
<path d="M29.1364 69.046V65.9551H32.2273V69.046H29.1364Z" fill="white" stroke="white"/>
<path d="M41.4092 69.046V65.9551H44.5001V69.046H41.4092Z" fill="white" stroke="white"/>
<path d="M53.6819 69.046V65.9551H56.7728V69.046H53.6819Z" fill="white" stroke="white"/>
<path d="M61.8636 69.046V65.9551H64.9546V69.046H61.8636Z" fill="white" stroke="white"/>
<path d="M65.9545 69.046V65.9551H69.0454V69.046H65.9545Z" fill="white" stroke="white"/>
<path d="M70.0455 69.046V65.9551H73.1364V69.046H70.0455Z" fill="white" stroke="white"/>
<path d="M74.1364 69.046V65.9551H77.2273V69.046H74.1364Z" fill="white" stroke="white"/>
<path d="M82.3181 69.046V65.9551H85.409V69.046H82.3181Z" fill="white" stroke="white"/>
<path d="M102.773 69.046V65.9551H105.864V69.046H102.773Z" fill="white" stroke="white"/>
<path d="M106.864 69.046V65.9551H109.955V69.046H106.864Z" fill="white" stroke="white"/>
<path d="M110.954 69.046V65.9551H114.045V69.046H110.954Z" fill="white" stroke="white"/>
<path d="M115.046 69.046V65.9551H118.136V69.046H115.046Z" fill="white" stroke="white"/>
<path d="M119.136 69.046V65.9551H122.227V69.046H119.136Z" fill="white" stroke="white"/>
<path d="M131.409 69.046V65.9551H134.5V69.046H131.409Z" fill="white" stroke="white"/>
<path d="M4.59082 73.1358V70.0449H7.68173V73.1358H4.59082Z" fill="white" stroke="white"/>
<path d="M12.7728 73.1358V70.0449H15.8637V73.1358H12.7728Z" fill="white" stroke="white"/>
<path d="M37.3181 73.1358V70.0449H40.409V73.1358H37.3181Z" fill="white" stroke="white"/>
<path d="M41.4092 73.1358V70.0449H44.5001V73.1358H41.4092Z" fill="white" stroke="white"/>
<path d="M45.5 73.1358V70.0449H48.5909V73.1358H45.5Z" fill="white" stroke="white"/>
<path d="M53.6819 73.1358V70.0449H56.7728V73.1358H53.6819Z" fill="white" stroke="white"/>
<path d="M57.7728 73.1358V70.0449H60.8637V73.1358H57.7728Z" fill="white" stroke="white"/>
<path d="M61.8636 73.1358V70.0449H64.9546V73.1358H61.8636Z" fill="white" stroke="white"/>
<path d="M74.1364 73.1358V70.0449H77.2273V73.1358H74.1364Z" fill="white" stroke="white"/>
<path d="M78.2272 73.1358V70.0449H81.3181V73.1358H78.2272Z" fill="white" stroke="white"/>
<path d="M90.5 73.1358V70.0449H93.5909V73.1358H90.5Z" fill="white" stroke="white"/>
<path d="M98.6819 73.1358V70.0449H101.773V73.1358H98.6819Z" fill="white" stroke="white"/>
<path d="M106.864 73.1358V70.0449H109.955V73.1358H106.864Z" fill="white" stroke="white"/>
<path d="M110.954 73.1358V70.0449H114.045V73.1358H110.954Z" fill="white" stroke="white"/>
<path d="M115.046 73.1358V70.0449H118.136V73.1358H115.046Z" fill="white" stroke="white"/>
<path d="M119.136 73.1358V70.0449H122.227V73.1358H119.136Z" fill="white" stroke="white"/>
<path d="M131.409 73.1358V70.0449H134.5V73.1358H131.409Z" fill="white" stroke="white"/>
<path d="M4.59082 77.2267V74.1357H7.68173V77.2267H4.59082Z" fill="white" stroke="white"/>
<path d="M12.7728 77.2267V74.1357H15.8637V77.2267H12.7728Z" fill="white" stroke="white"/>
<path d="M16.8636 77.2267V74.1357H19.9546V77.2267H16.8636Z" fill="white" stroke="white"/>
<path d="M25.0455 77.2267V74.1357H28.1364V77.2267H25.0455Z" fill="white" stroke="white"/>
<path d="M29.1364 77.2267V74.1357H32.2273V77.2267H29.1364Z" fill="white" stroke="white"/>
<path d="M45.5 77.2267V74.1357H48.5909V77.2267H45.5Z" fill="white" stroke="white"/>
<path d="M49.5908 77.2267V74.1357H52.6817V77.2267H49.5908Z" fill="white" stroke="white"/>
<path d="M61.8636 77.2267V74.1357H64.9545V77.2267H61.8636Z" fill="white" stroke="white"/>
<path d="M65.9545 77.2267V74.1357H69.0454V77.2267H65.9545Z" fill="white" stroke="white"/>
<path d="M70.0455 77.2267V74.1357H73.1364V77.2267H70.0455Z" fill="white" stroke="white"/>
<path d="M74.1364 77.2267V74.1357H77.2273V77.2267H74.1364Z" fill="white" stroke="white"/>
<path d="M78.2272 77.2267V74.1357H81.3181V77.2267H78.2272Z" fill="white" stroke="white"/>
<path d="M90.5 77.2267V74.1357H93.5909V77.2267H90.5Z" fill="white" stroke="white"/>
<path d="M94.5908 77.2267V74.1357H97.6817V77.2267H94.5908Z" fill="white" stroke="white"/>
<path d="M102.773 77.2267V74.1357H105.864V77.2267H102.773Z" fill="white" stroke="white"/>
<path d="M106.864 77.2267V74.1357H109.955V77.2267H106.864Z" fill="white" stroke="white"/>
<path d="M110.954 77.2267V74.1357H114.045V77.2267H110.954Z" fill="white" stroke="white"/>
<path d="M119.136 77.2267V74.1357H122.227V77.2267H119.136Z" fill="white" stroke="white"/>
<path d="M123.227 77.2267V74.1357H126.318V77.2267H123.227Z" fill="white" stroke="white"/>
<path d="M131.409 77.2267V74.1357H134.5V77.2267H131.409Z" fill="white" stroke="white"/>
<path d="M0.5 81.3175V78.2266H3.59091V81.3175H0.5Z" fill="white" stroke="white"/>
<path d="M8.68188 81.3175V78.2266H11.7728V81.3175H8.68188Z" fill="white" stroke="white"/>
<path d="M12.7728 81.3175V78.2266H15.8637V81.3175H12.7728Z" fill="white" stroke="white"/>
<path d="M20.9545 81.3175V78.2266H24.0454V81.3175H20.9545Z" fill="white" stroke="white"/>
<path d="M33.2272 81.3175V78.2266H36.3181V81.3175H33.2272Z" fill="white" stroke="white"/>
<path d="M37.3181 81.3175V78.2266H40.409V81.3175H37.3181Z" fill="white" stroke="white"/>
<path d="M41.4092 81.3175V78.2266H44.5001V81.3175H41.4092Z" fill="white" stroke="white"/>
<path d="M49.5908 81.3175V78.2266H52.6817V81.3175H49.5908Z" fill="white" stroke="white"/>
<path d="M61.8636 81.3175V78.2266H64.9545V81.3175H61.8636Z" fill="white" stroke="white"/>
<path d="M90.5 81.3175V78.2266H93.5909V81.3175H90.5Z" fill="white" stroke="white"/>
<path d="M94.5908 81.3175V78.2266H97.6817V81.3175H94.5908Z" fill="white" stroke="white"/>
<path d="M98.6819 81.3175V78.2266H101.773V81.3175H98.6819Z" fill="white" stroke="white"/>
<path d="M119.136 81.3175V78.2266H122.227V81.3175H119.136Z" fill="white" stroke="white"/>
<path d="M123.227 81.3175V78.2266H126.318V81.3175H123.227Z" fill="white" stroke="white"/>
<path d="M131.409 81.3175V78.2266H134.5V81.3175H131.409Z" fill="white" stroke="white"/>
<path d="M0.5 85.4093V82.3184H3.59091V85.4093H0.5Z" fill="white" stroke="white"/>
<path d="M4.59094 85.4093V82.3184H7.68185V85.4093H4.59094Z" fill="white" stroke="white"/>
<path d="M12.7727 85.4093V82.3184H15.8636V85.4093H12.7727Z" fill="white" stroke="white"/>
<path d="M25.0454 85.4093V82.3184H28.1363V85.4093H25.0454Z" fill="white" stroke="white"/>
<path d="M37.3182 85.4093V82.3184H40.4091V85.4093H37.3182Z" fill="white" stroke="white"/>
<path d="M41.4091 85.4093V82.3184H44.5V85.4093H41.4091Z" fill="white" stroke="white"/>
<path d="M45.5 85.4093V82.3184H48.5909V85.4093H45.5Z" fill="white" stroke="white"/>
<path d="M49.5909 85.4093V82.3184H52.6819V85.4093H49.5909Z" fill="white" stroke="white"/>
<path d="M61.8636 85.4093V82.3184H64.9546V85.4093H61.8636Z" fill="white" stroke="white"/>
<path d="M65.9545 85.4093V82.3184H69.0454V85.4093H65.9545Z" fill="white" stroke="white"/>
<path d="M74.1364 85.4093V82.3184H77.2273V85.4093H74.1364Z" fill="white" stroke="white"/>
<path d="M82.3182 85.4093V82.3184H85.4091V85.4093H82.3182Z" fill="white" stroke="white"/>
<path d="M98.6818 85.4093V82.3184H101.773V85.4093H98.6818Z" fill="white" stroke="white"/>
<path d="M110.955 85.4093V82.3184H114.045V85.4093H110.955Z" fill="white" stroke="white"/>
<path d="M119.136 85.4093V82.3184H122.227V85.4093H119.136Z" fill="white" stroke="white"/>
<path d="M127.318 85.4093V82.3184H130.409V85.4093H127.318Z" fill="white" stroke="white"/>
<path d="M131.409 85.4093V82.3184H134.5V85.4093H131.409Z" fill="white" stroke="white"/>
<path d="M0.5 89.5001V86.4092H3.59091V89.5001H0.5Z" fill="white" stroke="white"/>
<path d="M8.68176 89.5001V86.4092H11.7727V89.5001H8.68176Z" fill="white" stroke="white"/>
<path d="M12.7727 89.5001V86.4092H15.8636V89.5001H12.7727Z" fill="white" stroke="white"/>
<path d="M16.8636 89.5001V86.4092H19.9546V89.5001H16.8636Z" fill="white" stroke="white"/>
<path d="M20.9546 89.5001V86.4092H24.0455V89.5001H20.9546Z" fill="white" stroke="white"/>
<path d="M33.2273 89.5001V86.4092H36.3182V89.5001H33.2273Z" fill="white" stroke="white"/>
<path d="M45.5 89.5001V86.4092H48.5909V89.5001H45.5Z" fill="white" stroke="white"/>
<path d="M49.5909 89.5001V86.4092H52.6819V89.5001H49.5909Z" fill="white" stroke="white"/>
<path d="M78.2273 89.5001V86.4092H81.3182V89.5001H78.2273Z" fill="white" stroke="white"/>
<path d="M82.3182 89.5001V86.4092H85.4091V89.5001H82.3182Z" fill="white" stroke="white"/>
<path d="M86.4091 89.5001V86.4092H89.5V89.5001H86.4091Z" fill="white" stroke="white"/>
<path d="M90.5 89.5001V86.4092H93.5909V89.5001H90.5Z" fill="white" stroke="white"/>
<path d="M94.5909 89.5001V86.4092H97.6819V89.5001H94.5909Z" fill="white" stroke="white"/>
<path d="M110.955 89.5001V86.4092H114.045V89.5001H110.955Z" fill="white" stroke="white"/>
<path d="M115.045 89.5001V86.4092H118.136V89.5001H115.045Z" fill="white" stroke="white"/>
<path d="M119.136 89.5001V86.4092H122.227V89.5001H119.136Z" fill="white" stroke="white"/>
<path d="M123.227 89.5001V86.4092H126.318V89.5001H123.227Z" fill="white" stroke="white"/>
<path d="M0.5 93.5909V90.5H3.59091V93.5909H0.5Z" fill="white" stroke="white"/>
<path d="M8.68176 93.5909V90.5H11.7727V93.5909H8.68176Z" fill="white" stroke="white"/>
<path d="M25.0454 93.5909V90.5H28.1363V93.5909H25.0454Z" fill="white" stroke="white"/>
<path d="M29.1364 93.5909V90.5H32.2273V93.5909H29.1364Z" fill="white" stroke="white"/>
<path d="M33.2273 93.5909V90.5H36.3182V93.5909H33.2273Z" fill="white" stroke="white"/>
<path d="M45.5 93.5909V90.5H48.5909V93.5909H45.5Z" fill="white" stroke="white"/>
<path d="M53.6818 93.5909V90.5H56.7727V93.5909H53.6818Z" fill="white" stroke="white"/>
<path d="M61.8636 93.5909V90.5H64.9546V93.5909H61.8636Z" fill="white" stroke="white"/>
<path d="M70.0455 93.5909V90.5H73.1364V93.5909H70.0455Z" fill="white" stroke="white"/>
<path d="M74.1364 93.5909V90.5H77.2273V93.5909H74.1364Z" fill="white" stroke="white"/>
<path d="M86.4091 93.5909V90.5H89.5V93.5909H86.4091Z" fill="white" stroke="white"/>
<path d="M90.5 93.5909V90.5H93.5909V93.5909H90.5Z" fill="white" stroke="white"/>
<path d="M94.5909 93.5909V90.5H97.6819V93.5909H94.5909Z" fill="white" stroke="white"/>
<path d="M106.864 93.5909V90.5H109.955V93.5909H106.864Z" fill="white" stroke="white"/>
<path d="M110.955 93.5909V90.5H114.045V93.5909H110.955Z" fill="white" stroke="white"/>
<path d="M127.318 93.5909V90.5H130.409V93.5909H127.318Z" fill="white" stroke="white"/>
<path d="M131.409 93.5909V90.5H134.5V93.5909H131.409Z" fill="white" stroke="white"/>
<path d="M0.5 97.6817V94.5908H3.59091V97.6817H0.5Z" fill="white" stroke="white"/>
<path d="M12.7727 97.6817V94.5908H15.8636V97.6817H12.7727Z" fill="white" stroke="white"/>
<path d="M20.9546 97.6817V94.5908H24.0455V97.6817H20.9546Z" fill="white" stroke="white"/>
<path d="M41.4091 97.6817V94.5908H44.5V97.6817H41.4091Z" fill="white" stroke="white"/>
<path d="M45.5 97.6817V94.5908H48.5909V97.6817H45.5Z" fill="white" stroke="white"/>
<path d="M53.6818 97.6817V94.5908H56.7727V97.6817H53.6818Z" fill="white" stroke="white"/>
<path d="M74.1364 97.6817V94.5908H77.2273V97.6817H74.1364Z" fill="white" stroke="white"/>
<path d="M82.3182 97.6817V94.5908H85.4091V97.6817H82.3182Z" fill="white" stroke="white"/>
<path d="M90.5 97.6817V94.5908H93.5909V97.6817H90.5Z" fill="white" stroke="white"/>
<path d="M110.955 97.6817V94.5908H114.045V97.6817H110.955Z" fill="white" stroke="white"/>
<path d="M123.227 97.6817V94.5908H126.318V97.6817H123.227Z" fill="white" stroke="white"/>
<path d="M127.318 97.6817V94.5908H130.409V97.6817H127.318Z" fill="white" stroke="white"/>
<path d="M0.5 101.773V98.6816H3.59091V101.773H0.5Z" fill="white" stroke="white"/>
<path d="M4.59094 101.773V98.6816H7.68185V101.773H4.59094Z" fill="white" stroke="white"/>
<path d="M8.68176 101.773V98.6816H11.7727V101.773H8.68176Z" fill="white" stroke="white"/>
<path d="M12.7727 101.773V98.6816H15.8636V101.773H12.7727Z" fill="white" stroke="white"/>
<path d="M16.8636 101.773V98.6816H19.9546V101.773H16.8636Z" fill="white" stroke="white"/>
<path d="M20.9546 101.773V98.6816H24.0455V101.773H20.9546Z" fill="white" stroke="white"/>
<path d="M25.0454 101.773V98.6816H28.1363V101.773H25.0454Z" fill="white" stroke="white"/>
<path d="M29.1364 101.773V98.6816H32.2273V101.773H29.1364Z" fill="white" stroke="white"/>
<path d="M45.5 101.773V98.6816H48.5909V101.773H45.5Z" fill="white" stroke="white"/>
<path d="M53.6818 101.773V98.6816H56.7727V101.773H53.6818Z" fill="white" stroke="white"/>
<path d="M57.7727 101.773V98.6816H60.8636V101.773H57.7727Z" fill="white" stroke="white"/>
<path d="M82.3182 101.773V98.6816H85.4091V101.773H82.3182Z" fill="white" stroke="white"/>
<path d="M98.6818 101.773V98.6816H101.773V101.773H98.6818Z" fill="white" stroke="white"/>
<path d="M102.773 101.773V98.6816H105.864V101.773H102.773Z" fill="white" stroke="white"/>
<path d="M106.864 101.773V98.6816H109.955V101.773H106.864Z" fill="white" stroke="white"/>
<path d="M110.955 101.773V98.6816H114.045V101.773H110.955Z" fill="white" stroke="white"/>
<path d="M115.045 101.773V98.6816H118.136V101.773H115.045Z" fill="white" stroke="white"/>
<path d="M119.136 101.773V98.6816H122.227V101.773H119.136Z" fill="white" stroke="white"/>
<path d="M131.409 101.773V98.6816H134.5V101.773H131.409Z" fill="white" stroke="white"/>
<path d="M33.2272 105.864V102.773H36.3181V105.864H33.2272Z" fill="white" stroke="white"/>
<path d="M41.4092 105.864V102.773H44.5001V105.864H41.4092Z" fill="white" stroke="white"/>
<path d="M45.5 105.864V102.773H48.5909V105.864H45.5Z" fill="white" stroke="white"/>
<path d="M49.5908 105.864V102.773H52.6817V105.864H49.5908Z" fill="white" stroke="white"/>
<path d="M53.6819 105.864V102.773H56.7728V105.864H53.6819Z" fill="white" stroke="white"/>
<path d="M78.2272 105.864V102.773H81.3181V105.864H78.2272Z" fill="white" stroke="white"/>
<path d="M82.3181 105.864V102.773H85.409V105.864H82.3181Z" fill="white" stroke="white"/>
<path d="M86.4092 105.864V102.773H89.5001V105.864H86.4092Z" fill="white" stroke="white"/>
<path d="M98.6819 105.864V102.773H101.773V105.864H98.6819Z" fill="white" stroke="white"/>
<path d="M115.046 105.864V102.773H118.136V105.864H115.046Z" fill="white" stroke="white"/>
<path d="M119.136 105.864V102.773H122.227V105.864H119.136Z" fill="white" stroke="white"/>
<path d="M123.227 105.864V102.773H126.318V105.864H123.227Z" fill="white" stroke="white"/>
<path d="M127.318 105.864V102.773H130.409V105.864H127.318Z" fill="white" stroke="white"/>
<path d="M33.2272 109.955V106.864H36.3181V109.955H33.2272Z" fill="white" stroke="white"/>
<path d="M41.4092 109.955V106.864H44.5001V109.955H41.4092Z" fill="white" stroke="white"/>
<path d="M49.5908 109.955V106.864H52.6817V109.955H49.5908Z" fill="white" stroke="white"/>
<path d="M57.7728 109.955V106.864H60.8637V109.955H57.7728Z" fill="white" stroke="white"/>
<path d="M65.9545 109.955V106.864H69.0454V109.955H65.9545Z" fill="white" stroke="white"/>
<path d="M70.0455 109.955V106.864H73.1364V109.955H70.0455Z" fill="white" stroke="white"/>
<path d="M74.1364 109.955V106.864H77.2273V109.955H74.1364Z" fill="white" stroke="white"/>
<path d="M82.3181 109.955V106.864H85.409V109.955H82.3181Z" fill="white" stroke="white"/>
<path d="M94.5908 109.955V106.864H97.6817V109.955H94.5908Z" fill="white" stroke="white"/>
<path d="M98.6819 109.955V106.864H101.773V109.955H98.6819Z" fill="white" stroke="white"/>
<path d="M106.864 109.955V106.864H109.955V109.955H106.864Z" fill="white" stroke="white"/>
<path d="M115.046 109.955V106.864H118.136V109.955H115.046Z" fill="white" stroke="white"/>
<path d="M123.227 109.955V106.864H126.318V109.955H123.227Z" fill="white" stroke="white"/>
<path d="M41.4092 114.046V110.955H44.5001V114.046H41.4092Z" fill="white" stroke="white"/>
<path d="M45.5 114.046V110.955H48.5909V114.046H45.5Z" fill="white" stroke="white"/>
<path d="M57.7728 114.046V110.955H60.8637V114.046H57.7728Z" fill="white" stroke="white"/>
<path d="M61.8636 114.046V110.955H64.9546V114.046H61.8636Z" fill="white" stroke="white"/>
<path d="M65.9545 114.046V110.955H69.0454V114.046H65.9545Z" fill="white" stroke="white"/>
<path d="M70.0455 114.046V110.955H73.1364V114.046H70.0455Z" fill="white" stroke="white"/>
<path d="M82.3181 114.046V110.955H85.409V114.046H82.3181Z" fill="white" stroke="white"/>
<path d="M86.4092 114.046V110.955H89.5001V114.046H86.4092Z" fill="white" stroke="white"/>
<path d="M90.5 114.046V110.955H93.5909V114.046H90.5Z" fill="white" stroke="white"/>
<path d="M94.5908 114.046V110.955H97.6817V114.046H94.5908Z" fill="white" stroke="white"/>
<path d="M98.6819 114.046V110.955H101.773V114.046H98.6819Z" fill="white" stroke="white"/>
<path d="M115.046 114.046V110.955H118.136V114.046H115.046Z" fill="white" stroke="white"/>
<path d="M119.136 114.046V110.955H122.227V114.046H119.136Z" fill="white" stroke="white"/>
<path d="M123.227 114.046V110.955H126.318V114.046H123.227Z" fill="white" stroke="white"/>
<path d="M127.318 114.046V110.955H130.409V114.046H127.318Z" fill="white" stroke="white"/>
<path d="M33.2272 118.136V115.045H36.3181V118.136H33.2272Z" fill="white" stroke="white"/>
<path d="M37.3181 118.136V115.045H40.409V118.136H37.3181Z" fill="white" stroke="white"/>
<path d="M41.4092 118.136V115.045H44.5001V118.136H41.4092Z" fill="white" stroke="white"/>
<path d="M45.5 118.136V115.045H48.5909V118.136H45.5Z" fill="white" stroke="white"/>
<path d="M49.5908 118.136V115.045H52.6817V118.136H49.5908Z" fill="white" stroke="white"/>
<path d="M53.6819 118.136V115.045H56.7728V118.136H53.6819Z" fill="white" stroke="white"/>
<path d="M65.9545 118.136V115.045H69.0454V118.136H65.9545Z" fill="white" stroke="white"/>
<path d="M70.0455 118.136V115.045H73.1364V118.136H70.0455Z" fill="white" stroke="white"/>
<path d="M74.1364 118.136V115.045H77.2273V118.136H74.1364Z" fill="white" stroke="white"/>
<path d="M78.2272 118.136V115.045H81.3181V118.136H78.2272Z" fill="white" stroke="white"/>
<path d="M86.4092 118.136V115.045H89.5001V118.136H86.4092Z" fill="white" stroke="white"/>
<path d="M90.5 118.136V115.045H93.5909V118.136H90.5Z" fill="white" stroke="white"/>
<path d="M94.5908 118.136V115.045H97.6817V118.136H94.5908Z" fill="white" stroke="white"/>
<path d="M98.6819 118.136V115.045H101.773V118.136H98.6819Z" fill="white" stroke="white"/>
<path d="M102.773 118.136V115.045H105.864V118.136H102.773Z" fill="white" stroke="white"/>
<path d="M106.864 118.136V115.045H109.955V118.136H106.864Z" fill="white" stroke="white"/>
<path d="M110.954 118.136V115.045H114.045V118.136H110.954Z" fill="white" stroke="white"/>
<path d="M115.046 118.136V115.045H118.136V118.136H115.046Z" fill="white" stroke="white"/>
<path d="M127.318 118.136V115.045H130.409V118.136H127.318Z" fill="white" stroke="white"/>
<path d="M33.2272 122.227V119.136H36.3181V122.227H33.2272Z" fill="white" stroke="white"/>
<path d="M41.4092 122.227V119.136H44.5001V122.227H41.4092Z" fill="white" stroke="white"/>
<path d="M70.0455 122.227V119.136H73.1364V122.227H70.0455Z" fill="white" stroke="white"/>
<path d="M78.2272 122.227V119.136H81.3181V122.227H78.2272Z" fill="white" stroke="white"/>
<path d="M82.3181 122.227V119.136H85.409V122.227H82.3181Z" fill="white" stroke="white"/>
<path d="M90.5 122.227V119.136H93.5909V122.227H90.5Z" fill="white" stroke="white"/>
<path d="M94.5908 122.227V119.136H97.6817V122.227H94.5908Z" fill="white" stroke="white"/>
<path d="M102.773 122.227V119.136H105.864V122.227H102.773Z" fill="white" stroke="white"/>
<path d="M110.954 122.227V119.136H114.045V122.227H110.954Z" fill="white" stroke="white"/>
<path d="M131.409 122.227V119.136H134.5V122.227H131.409Z" fill="white" stroke="white"/>
<path d="M37.3181 126.317V123.227H40.409V126.317H37.3181Z" fill="white" stroke="white"/>
<path d="M49.5908 126.317V123.227H52.6817V126.317H49.5908Z" fill="white" stroke="white"/>
<path d="M53.6819 126.317V123.227H56.7728V126.317H53.6819Z" fill="white" stroke="white"/>
<path d="M70.0455 126.317V123.227H73.1364V126.317H70.0455Z" fill="white" stroke="white"/>
<path d="M74.1364 126.317V123.227H77.2273V126.317H74.1364Z" fill="white" stroke="white"/>
<path d="M78.2272 126.317V123.227H81.3181V126.317H78.2272Z" fill="white" stroke="white"/>
<path d="M86.4092 126.317V123.227H89.5001V126.317H86.4092Z" fill="white" stroke="white"/>
<path d="M94.5908 126.317V123.227H97.6817V126.317H94.5908Z" fill="white" stroke="white"/>
<path d="M98.6819 126.317V123.227H101.773V126.317H98.6819Z" fill="white" stroke="white"/>
<path d="M115.046 126.317V123.227H118.136V126.317H115.046Z" fill="white" stroke="white"/>
<path d="M127.318 126.317V123.227H130.409V126.317H127.318Z" fill="white" stroke="white"/>
<path d="M131.409 126.317V123.227H134.5V126.317H131.409Z" fill="white" stroke="white"/>
<path d="M41.4091 130.409V127.318H44.5V130.409H41.4091Z" fill="white" stroke="white"/>
<path d="M45.5 130.409V127.318H48.5909V130.409H45.5Z" fill="white" stroke="white"/>
<path d="M49.5909 130.409V127.318H52.6819V130.409H49.5909Z" fill="white" stroke="white"/>
<path d="M61.8636 130.409V127.318H64.9546V130.409H61.8636Z" fill="white" stroke="white"/>
<path d="M65.9545 130.409V127.318H69.0454V130.409H65.9545Z" fill="white" stroke="white"/>
<path d="M70.0455 130.409V127.318H73.1364V130.409H70.0455Z" fill="white" stroke="white"/>
<path d="M74.1364 130.409V127.318H77.2273V130.409H74.1364Z" fill="white" stroke="white"/>
<path d="M78.2273 130.409V127.318H81.3182V130.409H78.2273Z" fill="white" stroke="white"/>
<path d="M86.4091 130.409V127.318H89.5V130.409H86.4091Z" fill="white" stroke="white"/>
<path d="M102.773 130.409V127.318H105.864V130.409H102.773Z" fill="white" stroke="white"/>
<path d="M106.864 130.409V127.318H109.955V130.409H106.864Z" fill="white" stroke="white"/>
<path d="M123.227 130.409V127.318H126.318V130.409H123.227Z" fill="white" stroke="white"/>
<path d="M127.318 130.409V127.318H130.409V130.409H127.318Z" fill="white" stroke="white"/>
<path d="M131.409 130.409V127.318H134.5V130.409H131.409Z" fill="white" stroke="white"/>
<path d="M37.3182 134.5V131.409H40.4091V134.5H37.3182Z" fill="white" stroke="white"/>
<path d="M41.4091 134.5V131.409H44.5V134.5H41.4091Z" fill="white" stroke="white"/>
<path d="M45.5 134.5V131.409H48.5909V134.5H45.5Z" fill="white" stroke="white"/>
<path d="M53.6818 134.5V131.409H56.7727V134.5H53.6818Z" fill="white" stroke="white"/>
<path d="M57.7727 134.5V131.409H60.8636V134.5H57.7727Z" fill="white" stroke="white"/>
<path d="M65.9545 134.5V131.409H69.0454V134.5H65.9545Z" fill="white" stroke="white"/>
<path d="M70.0455 134.5V131.409H73.1364V134.5H70.0455Z" fill="white" stroke="white"/>
<path d="M78.2273 134.5V131.409H81.3182V134.5H78.2273Z" fill="white" stroke="white"/>
<path d="M82.3182 134.5V131.409H85.4091V134.5H82.3182Z" fill="white" stroke="white"/>
<path d="M90.5 134.5V131.409H93.5909V134.5H90.5Z" fill="white" stroke="white"/>
<path d="M94.5909 134.5V131.409H97.6819V134.5H94.5909Z" fill="white" stroke="white"/>
<path d="M98.6818 134.5V131.409H101.773V134.5H98.6818Z" fill="white" stroke="white"/>
<path d="M106.864 134.5V131.409H109.955V134.5H106.864Z" fill="white" stroke="white"/>
<path d="M115.045 134.5V131.409H118.136V134.5H115.045Z" fill="white" stroke="white"/>
<path d="M24.3409 24.8409H24.8409V24.3409V4.29545V3.79545H24.3409H4.29545H3.79545V4.29545V24.3409V24.8409H4.29545H24.3409ZM4.29545 0.5H24.3409H28.1364V4.29545V24.3409V28.1364H24.3409H4.29545H0.5V24.3409V4.29545V0.5H4.29545Z" fill="white" stroke="white"/>
<path d="M130.705 24.8409H131.205V24.3409V4.29545V3.79545H130.705H110.659H110.159V4.29545V24.3409V24.8409H110.659H130.705ZM110.659 0.5H130.705H134.5V4.29545V24.3409V28.1364H130.705H110.659H106.864V24.3409V4.29545V0.5H110.659Z" fill="white" stroke="white"/>
<path d="M24.3409 131.205H24.8409V130.705V110.66V110.16H24.3409H4.29545H3.79545V110.66V130.705V131.205H4.29545H24.3409ZM4.29545 106.864H24.3409H28.1364V110.66V130.705V134.501H24.3409H4.29545H0.5V130.705V110.66V106.864H4.29545Z" fill="white" stroke="white"/>
<path d="M8.68176 19.9544V8.68164H19.9545V19.9544H8.68176Z" fill="white" stroke="white"/>
<path d="M115.045 19.9544V8.68164H126.318V19.9544H115.045Z" fill="white" stroke="white"/>
<path d="M8.68188 126.318V115.045H19.9546V126.318H8.68188Z" fill="white" stroke="white"/>
<circle cx="67.5" cy="67.5" r="22.5" fill="white"/>
<path fill-rule="evenodd" clip-rule="evenodd" d="M67.4756 88.6107C79.1355 88.6107 88.5877 79.1586 88.5877 67.4987C88.5877 55.8389 79.1355 46.3867 67.4756 46.3867C55.8158 46.3867 46.3636 55.8389 46.3636 67.4987C46.3636 79.1586 55.8158 88.6107 67.4756 88.6107ZM57.1446 62.3394V63.1388V76.7444H66.753V78.3376L68.3505 78.3376L68.3505 78.3376H68.3505V76.7444H77.9601V62.3394H69.9437V63.9397H76.3598V75.1441H68.3505V59.1671H71.5456V57.5695H68.3505V54.3744H66.753V57.5695H63.5579V59.1671H66.753V75.1441H58.7447V63.9397H65.1629V62.3394H57.1446ZM65.1554 65.5573H60.3628V67.1548H65.1554V65.5573ZM69.9481 65.5573H74.7407V67.1548H69.9481V65.5573ZM65.1554 68.7523H60.3628V70.3499H65.1554V68.7523ZM69.9481 68.7523H74.7407V70.3499H69.9481V68.7523ZM65.1554 71.9474H60.3628V73.545H65.1554V71.9474ZM69.9481 71.9474H74.7407V73.545H69.9481V71.9474Z" fill="#458BD0"/>
</svg>
