<svg width="135" height="135" viewBox="0 0 135 135" fill="none" xmlns="http://www.w3.org/2000/svg">
<path d="M40.9091 0H36.8182V4.09091H40.9091V0Z" fill="#2C3135"/>
<path d="M49.0909 0H45V4.09091H49.0909V0Z" fill="#2C3135"/>
<path d="M53.1819 0H49.0909V4.09091H53.1819V0Z" fill="#2C3135"/>
<path d="M57.2727 0H53.1818V4.09091H57.2727V0Z" fill="#2C3135"/>
<path d="M69.5455 0H65.4546V4.09091H69.5455V0Z" fill="#2C3135"/>
<path d="M73.6363 0H69.5454V4.09091H73.6363V0Z" fill="#2C3135"/>
<path d="M77.7273 0H73.6364V4.09091H77.7273V0Z" fill="#2C3135"/>
<path d="M85.9091 0H81.8182V4.09091H85.9091V0Z" fill="#2C3135"/>
<path d="M90 0H85.9091V4.09091H90V0Z" fill="#2C3135"/>
<path d="M94.0909 0H90V4.09091H94.0909V0Z" fill="#2C3135"/>
<path d="M102.273 0H98.1818V4.09091H102.273V0Z" fill="#2C3135"/>
<path d="M45 4.09082H40.9091V8.18173H45V4.09082Z" fill="#2C3135"/>
<path d="M49.0909 4.09082H45V8.18173H49.0909V4.09082Z" fill="#2C3135"/>
<path d="M57.2727 4.09082H53.1818V8.18173H57.2727V4.09082Z" fill="#2C3135"/>
<path d="M61.3636 4.09082H57.2727V8.18173H61.3636V4.09082Z" fill="#2C3135"/>
<path d="M69.5455 4.09082H65.4546V8.18173H69.5455V4.09082Z" fill="#2C3135"/>
<path d="M73.6363 4.09082H69.5454V8.18173H73.6363V4.09082Z" fill="#2C3135"/>
<path d="M85.9091 4.09082H81.8182V8.18173H85.9091V4.09082Z" fill="#2C3135"/>
<path d="M102.273 4.09082H98.1818V8.18173H102.273V4.09082Z" fill="#2C3135"/>
<path d="M36.8182 8.18164H32.7273V12.2725H36.8182V8.18164Z" fill="#2C3135"/>
<path d="M40.9091 8.18164H36.8182V12.2725H40.9091V8.18164Z" fill="#2C3135"/>
<path d="M53.1819 8.18164H49.0909V12.2725H53.1819V8.18164Z" fill="#2C3135"/>
<path d="M61.3636 8.18164H57.2727V12.2725H61.3636V8.18164Z" fill="#2C3135"/>
<path d="M69.5455 8.18164H65.4546V12.2725H69.5455V8.18164Z" fill="#2C3135"/>
<path d="M81.8182 8.18164H77.7273V12.2725H81.8182V8.18164Z" fill="#2C3135"/>
<path d="M85.9091 8.18164H81.8182V12.2725H85.9091V8.18164Z" fill="#2C3135"/>
<path d="M90 8.18164H85.9091V12.2725H90V8.18164Z" fill="#2C3135"/>
<path d="M98.1819 8.18164H94.0909V12.2725H98.1819V8.18164Z" fill="#2C3135"/>
<path d="M102.273 8.18164H98.1818V12.2725H102.273V8.18164Z" fill="#2C3135"/>
<path d="M36.8181 12.2734H32.7272V16.3643H36.8181V12.2734Z" fill="#2C3135"/>
<path d="M40.909 12.2734H36.8181V16.3643H40.909V12.2734Z" fill="#2C3135"/>
<path d="M53.1817 12.2734H49.0908V16.3643H53.1817V12.2734Z" fill="#2C3135"/>
<path d="M57.2728 12.2734H53.1819V16.3643H57.2728V12.2734Z" fill="#2C3135"/>
<path d="M61.3637 12.2734H57.2728V16.3643H61.3637V12.2734Z" fill="#2C3135"/>
<path d="M65.4546 12.2734H61.3636V16.3643H65.4546V12.2734Z" fill="#2C3135"/>
<path d="M77.7273 12.2734H73.6364V16.3643H77.7273V12.2734Z" fill="#2C3135"/>
<path d="M81.8181 12.2734H77.7272V16.3643H81.8181V12.2734Z" fill="#2C3135"/>
<path d="M85.909 12.2734H81.8181V16.3643H85.909V12.2734Z" fill="#2C3135"/>
<path d="M90.0001 12.2734H85.9092V16.3643H90.0001V12.2734Z" fill="#2C3135"/>
<path d="M98.1817 12.2734H94.0908V16.3643H98.1817V12.2734Z" fill="#2C3135"/>
<path d="M102.273 12.2734H98.1819V16.3643H102.273V12.2734Z" fill="#2C3135"/>
<path d="M40.909 16.3643H36.8181V20.4552H40.909V16.3643Z" fill="#2C3135"/>
<path d="M45.0001 16.3643H40.9092V20.4552H45.0001V16.3643Z" fill="#2C3135"/>
<path d="M49.0909 16.3643H45V20.4552H49.0909V16.3643Z" fill="#2C3135"/>
<path d="M57.2728 16.3643H53.1819V20.4552H57.2728V16.3643Z" fill="#2C3135"/>
<path d="M61.3637 16.3643H57.2728V20.4552H61.3637V16.3643Z" fill="#2C3135"/>
<path d="M77.7273 16.3643H73.6364V20.4552H77.7273V16.3643Z" fill="#2C3135"/>
<path d="M81.8181 16.3643H77.7272V20.4552H81.8181V16.3643Z" fill="#2C3135"/>
<path d="M90.0001 16.3643H85.9092V20.4552H90.0001V16.3643Z" fill="#2C3135"/>
<path d="M102.273 16.3643H98.1819V20.4552H102.273V16.3643Z" fill="#2C3135"/>
<path d="M40.909 20.4551H36.8181V24.546H40.909V20.4551Z" fill="#2C3135"/>
<path d="M45.0001 20.4551H40.9092V24.546H45.0001V20.4551Z" fill="#2C3135"/>
<path d="M53.1817 20.4551H49.0908V24.546H53.1817V20.4551Z" fill="#2C3135"/>
<path d="M57.2728 20.4551H53.1819V24.546H57.2728V20.4551Z" fill="#2C3135"/>
<path d="M61.3637 20.4551H57.2728V24.546H61.3637V20.4551Z" fill="#2C3135"/>
<path d="M65.4546 20.4551H61.3636V24.546H65.4546V20.4551Z" fill="#2C3135"/>
<path d="M69.5454 20.4551H65.4545V24.546H69.5454V20.4551Z" fill="#2C3135"/>
<path d="M81.8181 20.4551H77.7272V24.546H81.8181V20.4551Z" fill="#2C3135"/>
<path d="M90.0001 20.4551H85.9092V24.546H90.0001V20.4551Z" fill="#2C3135"/>
<path d="M94.0909 20.4551H90V24.546H94.0909V20.4551Z" fill="#2C3135"/>
<path d="M98.1817 20.4551H94.0908V24.546H98.1817V20.4551Z" fill="#2C3135"/>
<path d="M36.8181 24.5449H32.7272V28.6358H36.8181V24.5449Z" fill="#2C3135"/>
<path d="M45.0001 24.5449H40.9092V28.6358H45.0001V24.5449Z" fill="#2C3135"/>
<path d="M53.1817 24.5449H49.0908V28.6358H53.1817V24.5449Z" fill="#2C3135"/>
<path d="M61.3637 24.5449H57.2728V28.6358H61.3637V24.5449Z" fill="#2C3135"/>
<path d="M69.5454 24.5449H65.4545V28.6358H69.5454V24.5449Z" fill="#2C3135"/>
<path d="M77.7273 24.5449H73.6364V28.6358H77.7273V24.5449Z" fill="#2C3135"/>
<path d="M85.909 24.5449H81.8181V28.6358H85.909V24.5449Z" fill="#2C3135"/>
<path d="M94.0909 24.5449H90V28.6358H94.0909V24.5449Z" fill="#2C3135"/>
<path d="M102.273 24.5449H98.1819V28.6358H102.273V24.5449Z" fill="#2C3135"/>
<path d="M40.909 28.6357H36.8181V32.7267H40.909V28.6357Z" fill="#2C3135"/>
<path d="M49.0909 28.6357H45V32.7267H49.0909V28.6357Z" fill="#2C3135"/>
<path d="M53.1817 28.6357H49.0908V32.7267H53.1817V28.6357Z" fill="#2C3135"/>
<path d="M57.2728 28.6357H53.1819V32.7267H57.2728V28.6357Z" fill="#2C3135"/>
<path d="M65.4546 28.6357H61.3636V32.7267H65.4546V28.6357Z" fill="#2C3135"/>
<path d="M73.6364 28.6357H69.5455V32.7267H73.6364V28.6357Z" fill="#2C3135"/>
<path d="M77.7273 28.6357H73.6364V32.7267H77.7273V28.6357Z" fill="#2C3135"/>
<path d="M16.3637 32.7266H12.2728V36.8175H16.3637V32.7266Z" fill="#2C3135"/>
<path d="M20.4546 32.7266H16.3636V36.8175H20.4546V32.7266Z" fill="#2C3135"/>
<path d="M28.6364 32.7266H24.5455V36.8175H28.6364V32.7266Z" fill="#2C3135"/>
<path d="M32.7273 32.7266H28.6364V36.8175H32.7273V32.7266Z" fill="#2C3135"/>
<path d="M40.909 32.7266H36.8181V36.8175H40.909V32.7266Z" fill="#2C3135"/>
<path d="M45.0001 32.7266H40.9092V36.8175H45.0001V32.7266Z" fill="#2C3135"/>
<path d="M61.3637 32.7266H57.2728V36.8175H61.3637V32.7266Z" fill="#2C3135"/>
<path d="M81.8181 32.7266H77.7272V36.8175H81.8181V32.7266Z" fill="#2C3135"/>
<path d="M85.909 32.7266H81.8181V36.8175H85.909V32.7266Z" fill="#2C3135"/>
<path d="M98.1817 32.7266H94.0908V36.8175H98.1817V32.7266Z" fill="#2C3135"/>
<path d="M102.273 32.7266H98.1819V36.8175H102.273V32.7266Z" fill="#2C3135"/>
<path d="M122.727 32.7266H118.636V36.8175H122.727V32.7266Z" fill="#2C3135"/>
<path d="M126.818 32.7266H122.727V36.8175H126.818V32.7266Z" fill="#2C3135"/>
<path d="M4.09091 36.8184H0V40.9093H4.09091V36.8184Z" fill="#2C3135"/>
<path d="M8.18185 36.8184H4.09094V40.9093H8.18185V36.8184Z" fill="#2C3135"/>
<path d="M12.2727 36.8184H8.18176V40.9093H12.2727V36.8184Z" fill="#2C3135"/>
<path d="M20.4546 36.8184H16.3636V40.9093H20.4546V36.8184Z" fill="#2C3135"/>
<path d="M32.7273 36.8184H28.6364V40.9093H32.7273V36.8184Z" fill="#2C3135"/>
<path d="M45 36.8184H40.9091V40.9093H45V36.8184Z" fill="#2C3135"/>
<path d="M57.2727 36.8184H53.1818V40.9093H57.2727V36.8184Z" fill="#2C3135"/>
<path d="M65.4546 36.8184H61.3636V40.9093H65.4546V36.8184Z" fill="#2C3135"/>
<path d="M73.6363 36.8184H69.5454V40.9093H73.6363V36.8184Z" fill="#2C3135"/>
<path d="M77.7273 36.8184H73.6364V40.9093H77.7273V36.8184Z" fill="#2C3135"/>
<path d="M81.8182 36.8184H77.7273V40.9093H81.8182V36.8184Z" fill="#2C3135"/>
<path d="M85.9091 36.8184H81.8182V40.9093H85.9091V36.8184Z" fill="#2C3135"/>
<path d="M90 36.8184H85.9091V40.9093H90V36.8184Z" fill="#2C3135"/>
<path d="M94.0909 36.8184H90V40.9093H94.0909V36.8184Z" fill="#2C3135"/>
<path d="M98.1819 36.8184H94.0909V40.9093H98.1819V36.8184Z" fill="#2C3135"/>
<path d="M106.364 36.8184H102.273V40.9093H106.364V36.8184Z" fill="#2C3135"/>
<path d="M114.545 36.8184H110.455V40.9093H114.545V36.8184Z" fill="#2C3135"/>
<path d="M118.636 36.8184H114.545V40.9093H118.636V36.8184Z" fill="#2C3135"/>
<path d="M122.727 36.8184H118.636V40.9093H122.727V36.8184Z" fill="#2C3135"/>
<path d="M8.18185 40.9092H4.09094V45.0001H8.18185V40.9092Z" fill="#2C3135"/>
<path d="M16.3636 40.9092H12.2727V45.0001H16.3636V40.9092Z" fill="#2C3135"/>
<path d="M24.5455 40.9092H20.4546V45.0001H24.5455V40.9092Z" fill="#2C3135"/>
<path d="M28.6363 40.9092H24.5454V45.0001H28.6363V40.9092Z" fill="#2C3135"/>
<path d="M36.8182 40.9092H32.7273V45.0001H36.8182V40.9092Z" fill="#2C3135"/>
<path d="M49.0909 40.9092H45V45.0001H49.0909V40.9092Z" fill="#2C3135"/>
<path d="M53.1819 40.9092H49.0909V45.0001H53.1819V40.9092Z" fill="#2C3135"/>
<path d="M65.4546 40.9092H61.3636V45.0001H65.4546V40.9092Z" fill="#2C3135"/>
<path d="M69.5455 40.9092H65.4546V45.0001H69.5455V40.9092Z" fill="#2C3135"/>
<path d="M73.6363 40.9092H69.5454V45.0001H73.6363V40.9092Z" fill="#2C3135"/>
<path d="M77.7273 40.9092H73.6364V45.0001H77.7273V40.9092Z" fill="#2C3135"/>
<path d="M81.8182 40.9092H77.7273V45.0001H81.8182V40.9092Z" fill="#2C3135"/>
<path d="M85.9091 40.9092H81.8182V45.0001H85.9091V40.9092Z" fill="#2C3135"/>
<path d="M94.0909 40.9092H90V45.0001H94.0909V40.9092Z" fill="#2C3135"/>
<path d="M98.1819 40.9092H94.0909V45.0001H98.1819V40.9092Z" fill="#2C3135"/>
<path d="M106.364 40.9092H102.273V45.0001H106.364V40.9092Z" fill="#2C3135"/>
<path d="M110.455 40.9092H106.364V45.0001H110.455V40.9092Z" fill="#2C3135"/>
<path d="M114.545 40.9092H110.455V45.0001H114.545V40.9092Z" fill="#2C3135"/>
<path d="M122.727 40.9092H118.636V45.0001H122.727V40.9092Z" fill="#2C3135"/>
<path d="M130.909 40.9092H126.818V45.0001H130.909V40.9092Z" fill="#2C3135"/>
<path d="M135 40.9092H130.909V45.0001H135V40.9092Z" fill="#2C3135"/>
<path d="M16.3636 45H12.2727V49.0909H16.3636V45Z" fill="#2C3135"/>
<path d="M24.5455 45H20.4546V49.0909H24.5455V45Z" fill="#2C3135"/>
<path d="M32.7273 45H28.6364V49.0909H32.7273V45Z" fill="#2C3135"/>
<path d="M49.0909 45H45V49.0909H49.0909V45Z" fill="#2C3135"/>
<path d="M53.1819 45H49.0909V49.0909H53.1819V45Z" fill="#2C3135"/>
<path d="M57.2727 45H53.1818V49.0909H57.2727V45Z" fill="#2C3135"/>
<path d="M61.3636 45H57.2727V49.0909H61.3636V45Z" fill="#2C3135"/>
<path d="M73.6363 45H69.5454V49.0909H73.6363V45Z" fill="#2C3135"/>
<path d="M77.7273 45H73.6364V49.0909H77.7273V45Z" fill="#2C3135"/>
<path d="M81.8182 45H77.7273V49.0909H81.8182V45Z" fill="#2C3135"/>
<path d="M98.1819 45H94.0909V49.0909H98.1819V45Z" fill="#2C3135"/>
<path d="M102.273 45H98.1818V49.0909H102.273V45Z" fill="#2C3135"/>
<path d="M106.364 45H102.273V49.0909H106.364V45Z" fill="#2C3135"/>
<path d="M114.545 45H110.455V49.0909H114.545V45Z" fill="#2C3135"/>
<path d="M118.636 45H114.545V49.0909H118.636V45Z" fill="#2C3135"/>
<path d="M126.818 45H122.727V49.0909H126.818V45Z" fill="#2C3135"/>
<path d="M130.909 45H126.818V49.0909H130.909V45Z" fill="#2C3135"/>
<path d="M4.09091 49.0908H0V53.1817H4.09091V49.0908Z" fill="#2C3135"/>
<path d="M8.18185 49.0908H4.09094V53.1817H8.18185V49.0908Z" fill="#2C3135"/>
<path d="M28.6363 49.0908H24.5454V53.1817H28.6363V49.0908Z" fill="#2C3135"/>
<path d="M32.7273 49.0908H28.6364V53.1817H32.7273V49.0908Z" fill="#2C3135"/>
<path d="M40.9091 49.0908H36.8182V53.1817H40.9091V49.0908Z" fill="#2C3135"/>
<path d="M49.0909 49.0908H45V53.1817H49.0909V49.0908Z" fill="#2C3135"/>
<path d="M57.2727 49.0908H53.1818V53.1817H57.2727V49.0908Z" fill="#2C3135"/>
<path d="M65.4546 49.0908H61.3636V53.1817H65.4546V49.0908Z" fill="#2C3135"/>
<path d="M77.7273 49.0908H73.6364V53.1817H77.7273V49.0908Z" fill="#2C3135"/>
<path d="M90 49.0908H85.9091V53.1817H90V49.0908Z" fill="#2C3135"/>
<path d="M94.0909 49.0908H90V53.1817H94.0909V49.0908Z" fill="#2C3135"/>
<path d="M102.273 49.0908H98.1818V53.1817H102.273V49.0908Z" fill="#2C3135"/>
<path d="M110.455 49.0908H106.364V53.1817H110.455V49.0908Z" fill="#2C3135"/>
<path d="M114.545 49.0908H110.455V53.1817H114.545V49.0908Z" fill="#2C3135"/>
<path d="M130.909 49.0908H126.818V53.1817H130.909V49.0908Z" fill="#2C3135"/>
<path d="M8.18185 53.1816H4.09094V57.2725H8.18185V53.1816Z" fill="#2C3135"/>
<path d="M12.2727 53.1816H8.18176V57.2725H12.2727V53.1816Z" fill="#2C3135"/>
<path d="M16.3636 53.1816H12.2727V57.2725H16.3636V53.1816Z" fill="#2C3135"/>
<path d="M20.4546 53.1816H16.3636V57.2725H20.4546V53.1816Z" fill="#2C3135"/>
<path d="M32.7273 53.1816H28.6364V57.2725H32.7273V53.1816Z" fill="#2C3135"/>
<path d="M36.8182 53.1816H32.7273V57.2725H36.8182V53.1816Z" fill="#2C3135"/>
<path d="M45 53.1816H40.9091V57.2725H45V53.1816Z" fill="#2C3135"/>
<path d="M49.0909 53.1816H45V57.2725H49.0909V53.1816Z" fill="#2C3135"/>
<path d="M53.1819 53.1816H49.0909V57.2725H53.1819V53.1816Z" fill="#2C3135"/>
<path d="M57.2727 53.1816H53.1818V57.2725H57.2727V53.1816Z" fill="#2C3135"/>
<path d="M61.3636 53.1816H57.2727V57.2725H61.3636V53.1816Z" fill="#2C3135"/>
<path d="M81.8182 53.1816H77.7273V57.2725H81.8182V53.1816Z" fill="#2C3135"/>
<path d="M90 53.1816H85.9091V57.2725H90V53.1816Z" fill="#2C3135"/>
<path d="M98.1819 53.1816H94.0909V57.2725H98.1819V53.1816Z" fill="#2C3135"/>
<path d="M114.545 53.1816H110.455V57.2725H114.545V53.1816Z" fill="#2C3135"/>
<path d="M126.818 53.1816H122.727V57.2725H126.818V53.1816Z" fill="#2C3135"/>
<path d="M130.909 53.1816H126.818V57.2725H130.909V53.1816Z" fill="#2C3135"/>
<path d="M8.18173 57.2734H4.09082V61.3643H8.18173V57.2734Z" fill="#2C3135"/>
<path d="M16.3637 57.2734H12.2728V61.3643H16.3637V57.2734Z" fill="#2C3135"/>
<path d="M24.5454 57.2734H20.4545V61.3643H24.5454V57.2734Z" fill="#2C3135"/>
<path d="M28.6364 57.2734H24.5455V61.3643H28.6364V57.2734Z" fill="#2C3135"/>
<path d="M32.7273 57.2734H28.6364V61.3643H32.7273V57.2734Z" fill="#2C3135"/>
<path d="M40.909 57.2734H36.8181V61.3643H40.909V57.2734Z" fill="#2C3135"/>
<path d="M45.0001 57.2734H40.9092V61.3643H45.0001V57.2734Z" fill="#2C3135"/>
<path d="M49.0909 57.2734H45V61.3643H49.0909V57.2734Z" fill="#2C3135"/>
<path d="M61.3637 57.2734H57.2728V61.3643H61.3637V57.2734Z" fill="#2C3135"/>
<path d="M65.4546 57.2734H61.3636V61.3643H65.4546V57.2734Z" fill="#2C3135"/>
<path d="M77.7273 57.2734H73.6364V61.3643H77.7273V57.2734Z" fill="#2C3135"/>
<path d="M85.909 57.2734H81.8181V61.3643H85.909V57.2734Z" fill="#2C3135"/>
<path d="M110.455 57.2734H106.364V61.3643H110.455V57.2734Z" fill="#2C3135"/>
<path d="M114.545 57.2734H110.454V61.3643H114.545V57.2734Z" fill="#2C3135"/>
<path d="M122.727 57.2734H118.636V61.3643H122.727V57.2734Z" fill="#2C3135"/>
<path d="M4.09091 61.3643H0V65.4552H4.09091V61.3643Z" fill="#2C3135"/>
<path d="M8.18173 61.3643H4.09082V65.4552H8.18173V61.3643Z" fill="#2C3135"/>
<path d="M20.4546 61.3643H16.3636V65.4552H20.4546V61.3643Z" fill="#2C3135"/>
<path d="M49.0909 61.3643H45V65.4552H49.0909V61.3643Z" fill="#2C3135"/>
<path d="M53.1817 61.3643H49.0908V65.4552H53.1817V61.3643Z" fill="#2C3135"/>
<path d="M65.4546 61.3643H61.3636V65.4552H65.4546V61.3643Z" fill="#2C3135"/>
<path d="M73.6364 61.3643H69.5455V65.4552H73.6364V61.3643Z" fill="#2C3135"/>
<path d="M77.7273 61.3643H73.6364V65.4552H77.7273V61.3643Z" fill="#2C3135"/>
<path d="M102.273 61.3643H98.1819V65.4552H102.273V61.3643Z" fill="#2C3135"/>
<path d="M106.364 61.3643H102.273V65.4552H106.364V61.3643Z" fill="#2C3135"/>
<path d="M114.545 61.3643H110.454V65.4552H114.545V61.3643Z" fill="#2C3135"/>
<path d="M122.727 61.3643H118.636V65.4552H122.727V61.3643Z" fill="#2C3135"/>
<path d="M126.818 61.3643H122.727V65.4552H126.818V61.3643Z" fill="#2C3135"/>
<path d="M130.909 61.3643H126.818V65.4552H130.909V61.3643Z" fill="#2C3135"/>
<path d="M135 61.3643H130.909V65.4552H135V61.3643Z" fill="#2C3135"/>
<path d="M4.09091 65.4551H0V69.546H4.09091V65.4551Z" fill="#2C3135"/>
<path d="M8.18173 65.4551H4.09082V69.546H8.18173V65.4551Z" fill="#2C3135"/>
<path d="M16.3637 65.4551H12.2728V69.546H16.3637V65.4551Z" fill="#2C3135"/>
<path d="M20.4546 65.4551H16.3636V69.546H20.4546V65.4551Z" fill="#2C3135"/>
<path d="M28.6364 65.4551H24.5455V69.546H28.6364V65.4551Z" fill="#2C3135"/>
<path d="M32.7273 65.4551H28.6364V69.546H32.7273V65.4551Z" fill="#2C3135"/>
<path d="M45.0001 65.4551H40.9092V69.546H45.0001V65.4551Z" fill="#2C3135"/>
<path d="M57.2728 65.4551H53.1819V69.546H57.2728V65.4551Z" fill="#2C3135"/>
<path d="M65.4546 65.4551H61.3636V69.546H65.4546V65.4551Z" fill="#2C3135"/>
<path d="M69.5454 65.4551H65.4545V69.546H69.5454V65.4551Z" fill="#2C3135"/>
<path d="M73.6364 65.4551H69.5455V69.546H73.6364V65.4551Z" fill="#2C3135"/>
<path d="M77.7273 65.4551H73.6364V69.546H77.7273V65.4551Z" fill="#2C3135"/>
<path d="M85.909 65.4551H81.8181V69.546H85.909V65.4551Z" fill="#2C3135"/>
<path d="M106.364 65.4551H102.273V69.546H106.364V65.4551Z" fill="#2C3135"/>
<path d="M110.455 65.4551H106.364V69.546H110.455V65.4551Z" fill="#2C3135"/>
<path d="M114.545 65.4551H110.454V69.546H114.545V65.4551Z" fill="#2C3135"/>
<path d="M118.636 65.4551H114.546V69.546H118.636V65.4551Z" fill="#2C3135"/>
<path d="M122.727 65.4551H118.636V69.546H122.727V65.4551Z" fill="#2C3135"/>
<path d="M135 65.4551H130.909V69.546H135V65.4551Z" fill="#2C3135"/>
<path d="M8.18173 69.5449H4.09082V73.6358H8.18173V69.5449Z" fill="#2C3135"/>
<path d="M16.3637 69.5449H12.2728V73.6358H16.3637V69.5449Z" fill="#2C3135"/>
<path d="M40.909 69.5449H36.8181V73.6358H40.909V69.5449Z" fill="#2C3135"/>
<path d="M45.0001 69.5449H40.9092V73.6358H45.0001V69.5449Z" fill="#2C3135"/>
<path d="M49.0909 69.5449H45V73.6358H49.0909V69.5449Z" fill="#2C3135"/>
<path d="M57.2728 69.5449H53.1819V73.6358H57.2728V69.5449Z" fill="#2C3135"/>
<path d="M61.3637 69.5449H57.2728V73.6358H61.3637V69.5449Z" fill="#2C3135"/>
<path d="M65.4546 69.5449H61.3636V73.6358H65.4546V69.5449Z" fill="#2C3135"/>
<path d="M77.7273 69.5449H73.6364V73.6358H77.7273V69.5449Z" fill="#2C3135"/>
<path d="M81.8181 69.5449H77.7272V73.6358H81.8181V69.5449Z" fill="#2C3135"/>
<path d="M94.0909 69.5449H90V73.6358H94.0909V69.5449Z" fill="#2C3135"/>
<path d="M102.273 69.5449H98.1819V73.6358H102.273V69.5449Z" fill="#2C3135"/>
<path d="M110.455 69.5449H106.364V73.6358H110.455V69.5449Z" fill="#2C3135"/>
<path d="M114.545 69.5449H110.454V73.6358H114.545V69.5449Z" fill="#2C3135"/>
<path d="M118.636 69.5449H114.546V73.6358H118.636V69.5449Z" fill="#2C3135"/>
<path d="M122.727 69.5449H118.636V73.6358H122.727V69.5449Z" fill="#2C3135"/>
<path d="M135 69.5449H130.909V73.6358H135V69.5449Z" fill="#2C3135"/>
<path d="M8.18173 73.6357H4.09082V77.7267H8.18173V73.6357Z" fill="#2C3135"/>
<path d="M16.3637 73.6357H12.2728V77.7267H16.3637V73.6357Z" fill="#2C3135"/>
<path d="M20.4546 73.6357H16.3636V77.7267H20.4546V73.6357Z" fill="#2C3135"/>
<path d="M28.6364 73.6357H24.5455V77.7267H28.6364V73.6357Z" fill="#2C3135"/>
<path d="M32.7273 73.6357H28.6364V77.7267H32.7273V73.6357Z" fill="#2C3135"/>
<path d="M49.0909 73.6357H45V77.7267H49.0909V73.6357Z" fill="#2C3135"/>
<path d="M53.1817 73.6357H49.0908V77.7267H53.1817V73.6357Z" fill="#2C3135"/>
<path d="M65.4546 73.6357H61.3636V77.7267H65.4546V73.6357Z" fill="#2C3135"/>
<path d="M69.5454 73.6357H65.4545V77.7267H69.5454V73.6357Z" fill="#2C3135"/>
<path d="M73.6364 73.6357H69.5455V77.7267H73.6364V73.6357Z" fill="#2C3135"/>
<path d="M77.7273 73.6357H73.6364V77.7267H77.7273V73.6357Z" fill="#2C3135"/>
<path d="M81.8181 73.6357H77.7272V77.7267H81.8181V73.6357Z" fill="#2C3135"/>
<path d="M94.0909 73.6357H90V77.7267H94.0909V73.6357Z" fill="#2C3135"/>
<path d="M98.1817 73.6357H94.0908V77.7267H98.1817V73.6357Z" fill="#2C3135"/>
<path d="M106.364 73.6357H102.273V77.7267H106.364V73.6357Z" fill="#2C3135"/>
<path d="M110.455 73.6357H106.364V77.7267H110.455V73.6357Z" fill="#2C3135"/>
<path d="M114.545 73.6357H110.454V77.7267H114.545V73.6357Z" fill="#2C3135"/>
<path d="M122.727 73.6357H118.636V77.7267H122.727V73.6357Z" fill="#2C3135"/>
<path d="M126.818 73.6357H122.727V77.7267H126.818V73.6357Z" fill="#2C3135"/>
<path d="M135 73.6357H130.909V77.7267H135V73.6357Z" fill="#2C3135"/>
<path d="M4.09091 77.7266H0V81.8175H4.09091V77.7266Z" fill="#2C3135"/>
<path d="M12.2728 77.7266H8.18188V81.8175H12.2728V77.7266Z" fill="#2C3135"/>
<path d="M16.3637 77.7266H12.2728V81.8175H16.3637V77.7266Z" fill="#2C3135"/>
<path d="M24.5454 77.7266H20.4545V81.8175H24.5454V77.7266Z" fill="#2C3135"/>
<path d="M36.8181 77.7266H32.7272V81.8175H36.8181V77.7266Z" fill="#2C3135"/>
<path d="M40.909 77.7266H36.8181V81.8175H40.909V77.7266Z" fill="#2C3135"/>
<path d="M45.0001 77.7266H40.9092V81.8175H45.0001V77.7266Z" fill="#2C3135"/>
<path d="M53.1817 77.7266H49.0908V81.8175H53.1817V77.7266Z" fill="#2C3135"/>
<path d="M65.4546 77.7266H61.3636V81.8175H65.4546V77.7266Z" fill="#2C3135"/>
<path d="M94.0909 77.7266H90V81.8175H94.0909V77.7266Z" fill="#2C3135"/>
<path d="M98.1817 77.7266H94.0908V81.8175H98.1817V77.7266Z" fill="#2C3135"/>
<path d="M102.273 77.7266H98.1819V81.8175H102.273V77.7266Z" fill="#2C3135"/>
<path d="M122.727 77.7266H118.636V81.8175H122.727V77.7266Z" fill="#2C3135"/>
<path d="M126.818 77.7266H122.727V81.8175H126.818V77.7266Z" fill="#2C3135"/>
<path d="M135 77.7266H130.909V81.8175H135V77.7266Z" fill="#2C3135"/>
<path d="M4.09091 81.8184H0V85.9093H4.09091V81.8184Z" fill="#2C3135"/>
<path d="M8.18185 81.8184H4.09094V85.9093H8.18185V81.8184Z" fill="#2C3135"/>
<path d="M16.3636 81.8184H12.2727V85.9093H16.3636V81.8184Z" fill="#2C3135"/>
<path d="M28.6363 81.8184H24.5454V85.9093H28.6363V81.8184Z" fill="#2C3135"/>
<path d="M40.9091 81.8184H36.8182V85.9093H40.9091V81.8184Z" fill="#2C3135"/>
<path d="M45 81.8184H40.9091V85.9093H45V81.8184Z" fill="#2C3135"/>
<path d="M49.0909 81.8184H45V85.9093H49.0909V81.8184Z" fill="#2C3135"/>
<path d="M53.1819 81.8184H49.0909V85.9093H53.1819V81.8184Z" fill="#2C3135"/>
<path d="M65.4546 81.8184H61.3636V85.9093H65.4546V81.8184Z" fill="#2C3135"/>
<path d="M69.5455 81.8184H65.4546V85.9093H69.5455V81.8184Z" fill="#2C3135"/>
<path d="M77.7273 81.8184H73.6364V85.9093H77.7273V81.8184Z" fill="#2C3135"/>
<path d="M85.9091 81.8184H81.8182V85.9093H85.9091V81.8184Z" fill="#2C3135"/>
<path d="M102.273 81.8184H98.1818V85.9093H102.273V81.8184Z" fill="#2C3135"/>
<path d="M114.545 81.8184H110.455V85.9093H114.545V81.8184Z" fill="#2C3135"/>
<path d="M122.727 81.8184H118.636V85.9093H122.727V81.8184Z" fill="#2C3135"/>
<path d="M130.909 81.8184H126.818V85.9093H130.909V81.8184Z" fill="#2C3135"/>
<path d="M135 81.8184H130.909V85.9093H135V81.8184Z" fill="#2C3135"/>
<path d="M4.09091 85.9092H0V90.0001H4.09091V85.9092Z" fill="#2C3135"/>
<path d="M12.2727 85.9092H8.18176V90.0001H12.2727V85.9092Z" fill="#2C3135"/>
<path d="M16.3636 85.9092H12.2727V90.0001H16.3636V85.9092Z" fill="#2C3135"/>
<path d="M20.4546 85.9092H16.3636V90.0001H20.4546V85.9092Z" fill="#2C3135"/>
<path d="M24.5455 85.9092H20.4546V90.0001H24.5455V85.9092Z" fill="#2C3135"/>
<path d="M36.8182 85.9092H32.7273V90.0001H36.8182V85.9092Z" fill="#2C3135"/>
<path d="M49.0909 85.9092H45V90.0001H49.0909V85.9092Z" fill="#2C3135"/>
<path d="M53.1819 85.9092H49.0909V90.0001H53.1819V85.9092Z" fill="#2C3135"/>
<path d="M81.8182 85.9092H77.7273V90.0001H81.8182V85.9092Z" fill="#2C3135"/>
<path d="M85.9091 85.9092H81.8182V90.0001H85.9091V85.9092Z" fill="#2C3135"/>
<path d="M90 85.9092H85.9091V90.0001H90V85.9092Z" fill="#2C3135"/>
<path d="M94.0909 85.9092H90V90.0001H94.0909V85.9092Z" fill="#2C3135"/>
<path d="M98.1819 85.9092H94.0909V90.0001H98.1819V85.9092Z" fill="#2C3135"/>
<path d="M114.545 85.9092H110.455V90.0001H114.545V85.9092Z" fill="#2C3135"/>
<path d="M118.636 85.9092H114.545V90.0001H118.636V85.9092Z" fill="#2C3135"/>
<path d="M122.727 85.9092H118.636V90.0001H122.727V85.9092Z" fill="#2C3135"/>
<path d="M126.818 85.9092H122.727V90.0001H126.818V85.9092Z" fill="#2C3135"/>
<path d="M4.09091 90H0V94.0909H4.09091V90Z" fill="#2C3135"/>
<path d="M12.2727 90H8.18176V94.0909H12.2727V90Z" fill="#2C3135"/>
<path d="M28.6363 90H24.5454V94.0909H28.6363V90Z" fill="#2C3135"/>
<path d="M32.7273 90H28.6364V94.0909H32.7273V90Z" fill="#2C3135"/>
<path d="M36.8182 90H32.7273V94.0909H36.8182V90Z" fill="#2C3135"/>
<path d="M49.0909 90H45V94.0909H49.0909V90Z" fill="#2C3135"/>
<path d="M57.2727 90H53.1818V94.0909H57.2727V90Z" fill="#2C3135"/>
<path d="M65.4546 90H61.3636V94.0909H65.4546V90Z" fill="#2C3135"/>
<path d="M73.6363 90H69.5454V94.0909H73.6363V90Z" fill="#2C3135"/>
<path d="M77.7273 90H73.6364V94.0909H77.7273V90Z" fill="#2C3135"/>
<path d="M90 90H85.9091V94.0909H90V90Z" fill="#2C3135"/>
<path d="M94.0909 90H90V94.0909H94.0909V90Z" fill="#2C3135"/>
<path d="M98.1819 90H94.0909V94.0909H98.1819V90Z" fill="#2C3135"/>
<path d="M110.455 90H106.364V94.0909H110.455V90Z" fill="#2C3135"/>
<path d="M114.545 90H110.455V94.0909H114.545V90Z" fill="#2C3135"/>
<path d="M130.909 90H126.818V94.0909H130.909V90Z" fill="#2C3135"/>
<path d="M135 90H130.909V94.0909H135V90Z" fill="#2C3135"/>
<path d="M4.09091 94.0908H0V98.1817H4.09091V94.0908Z" fill="#2C3135"/>
<path d="M16.3636 94.0908H12.2727V98.1817H16.3636V94.0908Z" fill="#2C3135"/>
<path d="M24.5455 94.0908H20.4546V98.1817H24.5455V94.0908Z" fill="#2C3135"/>
<path d="M45 94.0908H40.9091V98.1817H45V94.0908Z" fill="#2C3135"/>
<path d="M49.0909 94.0908H45V98.1817H49.0909V94.0908Z" fill="#2C3135"/>
<path d="M57.2727 94.0908H53.1818V98.1817H57.2727V94.0908Z" fill="#2C3135"/>
<path d="M77.7273 94.0908H73.6364V98.1817H77.7273V94.0908Z" fill="#2C3135"/>
<path d="M85.9091 94.0908H81.8182V98.1817H85.9091V94.0908Z" fill="#2C3135"/>
<path d="M94.0909 94.0908H90V98.1817H94.0909V94.0908Z" fill="#2C3135"/>
<path d="M114.545 94.0908H110.455V98.1817H114.545V94.0908Z" fill="#2C3135"/>
<path d="M126.818 94.0908H122.727V98.1817H126.818V94.0908Z" fill="#2C3135"/>
<path d="M130.909 94.0908H126.818V98.1817H130.909V94.0908Z" fill="#2C3135"/>
<path d="M4.09091 98.1816H0V102.273H4.09091V98.1816Z" fill="#2C3135"/>
<path d="M8.18185 98.1816H4.09094V102.273H8.18185V98.1816Z" fill="#2C3135"/>
<path d="M12.2727 98.1816H8.18176V102.273H12.2727V98.1816Z" fill="#2C3135"/>
<path d="M16.3636 98.1816H12.2727V102.273H16.3636V98.1816Z" fill="#2C3135"/>
<path d="M20.4546 98.1816H16.3636V102.273H20.4546V98.1816Z" fill="#2C3135"/>
<path d="M24.5455 98.1816H20.4546V102.273H24.5455V98.1816Z" fill="#2C3135"/>
<path d="M28.6363 98.1816H24.5454V102.273H28.6363V98.1816Z" fill="#2C3135"/>
<path d="M32.7273 98.1816H28.6364V102.273H32.7273V98.1816Z" fill="#2C3135"/>
<path d="M49.0909 98.1816H45V102.273H49.0909V98.1816Z" fill="#2C3135"/>
<path d="M57.2727 98.1816H53.1818V102.273H57.2727V98.1816Z" fill="#2C3135"/>
<path d="M61.3636 98.1816H57.2727V102.273H61.3636V98.1816Z" fill="#2C3135"/>
<path d="M85.9091 98.1816H81.8182V102.273H85.9091V98.1816Z" fill="#2C3135"/>
<path d="M102.273 98.1816H98.1818V102.273H102.273V98.1816Z" fill="#2C3135"/>
<path d="M106.364 98.1816H102.273V102.273H106.364V98.1816Z" fill="#2C3135"/>
<path d="M110.455 98.1816H106.364V102.273H110.455V98.1816Z" fill="#2C3135"/>
<path d="M114.545 98.1816H110.455V102.273H114.545V98.1816Z" fill="#2C3135"/>
<path d="M118.636 98.1816H114.545V102.273H118.636V98.1816Z" fill="#2C3135"/>
<path d="M122.727 98.1816H118.636V102.273H122.727V98.1816Z" fill="#2C3135"/>
<path d="M135 98.1816H130.909V102.273H135V98.1816Z" fill="#2C3135"/>
<path d="M36.8181 102.273H32.7272V106.364H36.8181V102.273Z" fill="#2C3135"/>
<path d="M45.0001 102.273H40.9092V106.364H45.0001V102.273Z" fill="#2C3135"/>
<path d="M49.0909 102.273H45V106.364H49.0909V102.273Z" fill="#2C3135"/>
<path d="M53.1817 102.273H49.0908V106.364H53.1817V102.273Z" fill="#2C3135"/>
<path d="M57.2728 102.273H53.1819V106.364H57.2728V102.273Z" fill="#2C3135"/>
<path d="M81.8181 102.273H77.7272V106.364H81.8181V102.273Z" fill="#2C3135"/>
<path d="M85.909 102.273H81.8181V106.364H85.909V102.273Z" fill="#2C3135"/>
<path d="M90.0001 102.273H85.9092V106.364H90.0001V102.273Z" fill="#2C3135"/>
<path d="M102.273 102.273H98.1819V106.364H102.273V102.273Z" fill="#2C3135"/>
<path d="M118.636 102.273H114.546V106.364H118.636V102.273Z" fill="#2C3135"/>
<path d="M122.727 102.273H118.636V106.364H122.727V102.273Z" fill="#2C3135"/>
<path d="M126.818 102.273H122.727V106.364H126.818V102.273Z" fill="#2C3135"/>
<path d="M130.909 102.273H126.818V106.364H130.909V102.273Z" fill="#2C3135"/>
<path d="M36.8181 106.364H32.7272V110.455H36.8181V106.364Z" fill="#2C3135"/>
<path d="M45.0001 106.364H40.9092V110.455H45.0001V106.364Z" fill="#2C3135"/>
<path d="M53.1817 106.364H49.0908V110.455H53.1817V106.364Z" fill="#2C3135"/>
<path d="M61.3637 106.364H57.2728V110.455H61.3637V106.364Z" fill="#2C3135"/>
<path d="M69.5454 106.364H65.4545V110.455H69.5454V106.364Z" fill="#2C3135"/>
<path d="M73.6364 106.364H69.5455V110.455H73.6364V106.364Z" fill="#2C3135"/>
<path d="M77.7273 106.364H73.6364V110.455H77.7273V106.364Z" fill="#2C3135"/>
<path d="M85.909 106.364H81.8181V110.455H85.909V106.364Z" fill="#2C3135"/>
<path d="M98.1817 106.364H94.0908V110.455H98.1817V106.364Z" fill="#2C3135"/>
<path d="M102.273 106.364H98.1819V110.455H102.273V106.364Z" fill="#2C3135"/>
<path d="M110.455 106.364H106.364V110.455H110.455V106.364Z" fill="#2C3135"/>
<path d="M118.636 106.364H114.546V110.455H118.636V106.364Z" fill="#2C3135"/>
<path d="M126.818 106.364H122.727V110.455H126.818V106.364Z" fill="#2C3135"/>
<path d="M45.0001 110.455H40.9092V114.546H45.0001V110.455Z" fill="#2C3135"/>
<path d="M49.0909 110.455H45V114.546H49.0909V110.455Z" fill="#2C3135"/>
<path d="M61.3637 110.455H57.2728V114.546H61.3637V110.455Z" fill="#2C3135"/>
<path d="M65.4546 110.455H61.3636V114.546H65.4546V110.455Z" fill="#2C3135"/>
<path d="M69.5454 110.455H65.4545V114.546H69.5454V110.455Z" fill="#2C3135"/>
<path d="M73.6364 110.455H69.5455V114.546H73.6364V110.455Z" fill="#2C3135"/>
<path d="M85.909 110.455H81.8181V114.546H85.909V110.455Z" fill="#2C3135"/>
<path d="M90.0001 110.455H85.9092V114.546H90.0001V110.455Z" fill="#2C3135"/>
<path d="M94.0909 110.455H90V114.546H94.0909V110.455Z" fill="#2C3135"/>
<path d="M98.1817 110.455H94.0908V114.546H98.1817V110.455Z" fill="#2C3135"/>
<path d="M102.273 110.455H98.1819V114.546H102.273V110.455Z" fill="#2C3135"/>
<path d="M118.636 110.455H114.546V114.546H118.636V110.455Z" fill="#2C3135"/>
<path d="M122.727 110.455H118.636V114.546H122.727V110.455Z" fill="#2C3135"/>
<path d="M126.818 110.455H122.727V114.546H126.818V110.455Z" fill="#2C3135"/>
<path d="M130.909 110.455H126.818V114.546H130.909V110.455Z" fill="#2C3135"/>
<path d="M36.8181 114.545H32.7272V118.636H36.8181V114.545Z" fill="#2C3135"/>
<path d="M40.909 114.545H36.8181V118.636H40.909V114.545Z" fill="#2C3135"/>
<path d="M45.0001 114.545H40.9092V118.636H45.0001V114.545Z" fill="#2C3135"/>
<path d="M49.0909 114.545H45V118.636H49.0909V114.545Z" fill="#2C3135"/>
<path d="M53.1817 114.545H49.0908V118.636H53.1817V114.545Z" fill="#2C3135"/>
<path d="M57.2728 114.545H53.1819V118.636H57.2728V114.545Z" fill="#2C3135"/>
<path d="M69.5454 114.545H65.4545V118.636H69.5454V114.545Z" fill="#2C3135"/>
<path d="M73.6364 114.545H69.5455V118.636H73.6364V114.545Z" fill="#2C3135"/>
<path d="M77.7273 114.545H73.6364V118.636H77.7273V114.545Z" fill="#2C3135"/>
<path d="M81.8181 114.545H77.7272V118.636H81.8181V114.545Z" fill="#2C3135"/>
<path d="M90.0001 114.545H85.9092V118.636H90.0001V114.545Z" fill="#2C3135"/>
<path d="M94.0909 114.545H90V118.636H94.0909V114.545Z" fill="#2C3135"/>
<path d="M98.1817 114.545H94.0908V118.636H98.1817V114.545Z" fill="#2C3135"/>
<path d="M102.273 114.545H98.1819V118.636H102.273V114.545Z" fill="#2C3135"/>
<path d="M106.364 114.545H102.273V118.636H106.364V114.545Z" fill="#2C3135"/>
<path d="M110.455 114.545H106.364V118.636H110.455V114.545Z" fill="#2C3135"/>
<path d="M114.545 114.545H110.454V118.636H114.545V114.545Z" fill="#2C3135"/>
<path d="M118.636 114.545H114.546V118.636H118.636V114.545Z" fill="#2C3135"/>
<path d="M130.909 114.545H126.818V118.636H130.909V114.545Z" fill="#2C3135"/>
<path d="M36.8181 118.636H32.7272V122.727H36.8181V118.636Z" fill="#2C3135"/>
<path d="M45.0001 118.636H40.9092V122.727H45.0001V118.636Z" fill="#2C3135"/>
<path d="M73.6364 118.636H69.5455V122.727H73.6364V118.636Z" fill="#2C3135"/>
<path d="M81.8181 118.636H77.7272V122.727H81.8181V118.636Z" fill="#2C3135"/>
<path d="M85.909 118.636H81.8181V122.727H85.909V118.636Z" fill="#2C3135"/>
<path d="M94.0909 118.636H90V122.727H94.0909V118.636Z" fill="#2C3135"/>
<path d="M98.1817 118.636H94.0908V122.727H98.1817V118.636Z" fill="#2C3135"/>
<path d="M106.364 118.636H102.273V122.727H106.364V118.636Z" fill="#2C3135"/>
<path d="M114.545 118.636H110.454V122.727H114.545V118.636Z" fill="#2C3135"/>
<path d="M135 118.636H130.909V122.727H135V118.636Z" fill="#2C3135"/>
<path d="M40.909 122.727H36.8181V126.817H40.909V122.727Z" fill="#2C3135"/>
<path d="M53.1817 122.727H49.0908V126.817H53.1817V122.727Z" fill="#2C3135"/>
<path d="M57.2728 122.727H53.1819V126.817H57.2728V122.727Z" fill="#2C3135"/>
<path d="M73.6364 122.727H69.5455V126.817H73.6364V122.727Z" fill="#2C3135"/>
<path d="M77.7273 122.727H73.6364V126.817H77.7273V122.727Z" fill="#2C3135"/>
<path d="M81.8181 122.727H77.7272V126.817H81.8181V122.727Z" fill="#2C3135"/>
<path d="M90.0001 122.727H85.9092V126.817H90.0001V122.727Z" fill="#2C3135"/>
<path d="M98.1817 122.727H94.0908V126.817H98.1817V122.727Z" fill="#2C3135"/>
<path d="M102.273 122.727H98.1819V126.817H102.273V122.727Z" fill="#2C3135"/>
<path d="M118.636 122.727H114.546V126.817H118.636V122.727Z" fill="#2C3135"/>
<path d="M130.909 122.727H126.818V126.817H130.909V122.727Z" fill="#2C3135"/>
<path d="M135 122.727H130.909V126.817H135V122.727Z" fill="#2C3135"/>
<path d="M45 126.818H40.9091V130.909H45V126.818Z" fill="#2C3135"/>
<path d="M49.0909 126.818H45V130.909H49.0909V126.818Z" fill="#2C3135"/>
<path d="M53.1819 126.818H49.0909V130.909H53.1819V126.818Z" fill="#2C3135"/>
<path d="M65.4546 126.818H61.3636V130.909H65.4546V126.818Z" fill="#2C3135"/>
<path d="M69.5455 126.818H65.4546V130.909H69.5455V126.818Z" fill="#2C3135"/>
<path d="M73.6363 126.818H69.5454V130.909H73.6363V126.818Z" fill="#2C3135"/>
<path d="M77.7273 126.818H73.6364V130.909H77.7273V126.818Z" fill="#2C3135"/>
<path d="M81.8182 126.818H77.7273V130.909H81.8182V126.818Z" fill="#2C3135"/>
<path d="M90 126.818H85.9091V130.909H90V126.818Z" fill="#2C3135"/>
<path d="M106.364 126.818H102.273V130.909H106.364V126.818Z" fill="#2C3135"/>
<path d="M110.455 126.818H106.364V130.909H110.455V126.818Z" fill="#2C3135"/>
<path d="M126.818 126.818H122.727V130.909H126.818V126.818Z" fill="#2C3135"/>
<path d="M130.909 126.818H126.818V130.909H130.909V126.818Z" fill="#2C3135"/>
<path d="M135 126.818H130.909V130.909H135V126.818Z" fill="#2C3135"/>
<path d="M40.9091 130.909H36.8182V135H40.9091V130.909Z" fill="#2C3135"/>
<path d="M45 130.909H40.9091V135H45V130.909Z" fill="#2C3135"/>
<path d="M49.0909 130.909H45V135H49.0909V130.909Z" fill="#2C3135"/>
<path d="M57.2727 130.909H53.1818V135H57.2727V130.909Z" fill="#2C3135"/>
<path d="M61.3636 130.909H57.2727V135H61.3636V130.909Z" fill="#2C3135"/>
<path d="M69.5455 130.909H65.4546V135H69.5455V130.909Z" fill="#2C3135"/>
<path d="M73.6363 130.909H69.5454V135H73.6363V130.909Z" fill="#2C3135"/>
<path d="M81.8182 130.909H77.7273V135H81.8182V130.909Z" fill="#2C3135"/>
<path d="M85.9091 130.909H81.8182V135H85.9091V130.909Z" fill="#2C3135"/>
<path d="M94.0909 130.909H90V135H94.0909V130.909Z" fill="#2C3135"/>
<path d="M98.1819 130.909H94.0909V135H98.1819V130.909Z" fill="#2C3135"/>
<path d="M102.273 130.909H98.1818V135H102.273V130.909Z" fill="#2C3135"/>
<path d="M110.455 130.909H106.364V135H110.455V130.909Z" fill="#2C3135"/>
<path d="M118.636 130.909H114.545V135H118.636V130.909Z" fill="#2C3135"/>
<path d="M24.3409 0H4.29545H0V4.29545V24.3409V28.6364H4.29545H24.3409H28.6364V24.3409V4.29545V0H24.3409ZM24.3409 24.3409H4.29545V4.29545H24.3409V24.3409Z" fill="#2C3135"/>
<path d="M130.705 0H110.659H106.364V4.29545V24.3409V28.6364H110.659H130.705H135V24.3409V4.29545V0H130.705ZM130.705 24.3409H110.659V4.29545H130.705V24.3409Z" fill="#2C3135"/>
<path d="M24.3409 106.364H4.29545H0V110.66V130.705V135.001H4.29545H24.3409H28.6364V130.705V110.66V106.364H24.3409ZM24.3409 130.705H4.29545V110.66H24.3409V130.705Z" fill="#2C3135"/>
<path d="M20.4545 8.18164H8.18176V20.4544H20.4545V8.18164Z" fill="#2C3135"/>
<path d="M126.818 8.18164H114.545V20.4544H126.818V8.18164Z" fill="#2C3135"/>
<path d="M20.4546 114.545H8.18188V126.818H20.4546V114.545Z" fill="#2C3135"/>
<circle cx="67.5" cy="67.5" r="22.5" fill="white"/>
<path fill-rule="evenodd" clip-rule="evenodd" d="M67.4757 88.6107C79.1355 88.6107 88.5877 79.1586 88.5877 67.4987C88.5877 55.8389 79.1355 46.3867 67.4757 46.3867C55.8158 46.3867 46.3636 55.8389 46.3636 67.4987C46.3636 79.1586 55.8158 88.6107 67.4757 88.6107ZM57.0964 62.3394V63.1388V76.7444H66.7048V78.3376L68.3023 78.3376L68.3023 78.3376H68.3023V76.7444H77.9119V62.3394H69.8955V63.9397H76.3116V75.1441H68.3023V59.1671H71.4974V57.5695H68.3023V54.3744H66.7048V57.5695H63.5097V59.1671H66.7048V75.1441H58.6964V63.9397H65.1147V62.3394H57.0964ZM65.1072 65.5573H60.3146V67.1548H65.1072V65.5573ZM69.8999 65.5573H74.6925V67.1548H69.8999V65.5573ZM65.1072 68.7523H60.3146V70.3499H65.1072V68.7523ZM69.8999 68.7523H74.6925V70.3499H69.8999V68.7523ZM65.1072 71.9474H60.3146V73.545H65.1072V71.9474ZM69.8999 71.9474H74.6925V73.545H69.8999V71.9474Z" fill="#2C3135"/>
</svg>
