<svg width="125" height="55" viewBox="0 0 125 55" fill="none" xmlns="http://www.w3.org/2000/svg">
<path d="M122.555 48.7668C122.32 48.7668 122.114 48.7211 121.939 48.6295C121.764 48.538 121.627 48.4007 121.529 48.2176C121.434 48.0346 121.386 47.8058 121.386 47.5312V45.8562H121.76V47.4872C121.76 47.7948 121.832 48.0272 121.976 48.1847C122.123 48.3384 122.328 48.4154 122.591 48.4154C122.784 48.4154 122.951 48.3751 123.091 48.2946C123.235 48.2103 123.344 48.0895 123.417 47.9321C123.495 47.7747 123.533 47.5861 123.533 47.3665V45.8562H123.907V48.7394H123.549V47.9486L123.607 48.0914C123.519 48.3037 123.382 48.4703 123.196 48.5911C123.014 48.7083 122.8 48.7668 122.555 48.7668ZM122.307 45.4058L123.028 44.7249H123.528L122.676 45.4058H122.307Z" fill="#458BD0"/>
<path d="M118.945 48.7668C118.682 48.7668 118.445 48.7046 118.235 48.5801C118.028 48.4556 117.865 48.2835 117.746 48.0639C117.626 47.8405 117.567 47.5842 117.567 47.295C117.567 47.0021 117.626 46.7458 117.746 46.5262C117.865 46.3065 118.028 46.1362 118.235 46.0154C118.445 45.8909 118.682 45.8287 118.945 45.8287C119.187 45.8287 119.403 45.8855 119.592 45.999C119.785 46.1124 119.938 46.279 120.05 46.4987C120.166 46.7147 120.224 46.9801 120.224 47.295C120.224 47.6062 120.168 47.8716 120.055 48.0913C119.943 48.311 119.79 48.4794 119.598 48.5965C119.408 48.71 119.191 48.7668 118.945 48.7668ZM118.971 48.4208C119.168 48.4208 119.343 48.375 119.498 48.2835C119.655 48.1883 119.778 48.0565 119.866 47.8881C119.957 47.7161 120.003 47.5183 120.003 47.295C120.003 47.068 119.957 46.8703 119.866 46.7019C119.778 46.5335 119.655 46.4035 119.498 46.312C119.343 46.2168 119.168 46.1692 118.971 46.1692C118.779 46.1692 118.605 46.2168 118.451 46.312C118.296 46.4035 118.173 46.5335 118.082 46.7019C117.991 46.8703 117.945 47.068 117.945 47.295C117.945 47.5183 117.991 47.7161 118.082 47.8881C118.173 48.0565 118.296 48.1883 118.451 48.2835C118.605 48.375 118.779 48.4208 118.971 48.4208ZM120.013 48.7393V47.8716L120.05 47.2895L119.997 46.7074V44.6644H120.371V48.7393H120.013Z" fill="#458BD0"/>
<path d="M115.699 45.8287C115.923 45.8287 116.12 45.8745 116.288 45.9661C116.46 46.0539 116.593 46.1894 116.688 46.3725C116.786 46.5555 116.835 46.7862 116.835 47.0644V48.7394H116.462V47.1028C116.462 46.799 116.388 46.5701 116.241 46.4164C116.097 46.2589 115.894 46.1803 115.63 46.1803C115.434 46.1803 115.262 46.2223 115.115 46.3066C114.971 46.3871 114.859 46.5061 114.778 46.6636C114.701 46.8173 114.662 47.004 114.662 47.2237V48.7394H114.289V45.8563H114.647V46.6471L114.589 46.4988C114.676 46.2901 114.817 46.1272 115.01 46.01C115.203 45.8892 115.432 45.8287 115.699 45.8287Z" fill="#458BD0"/>
<path d="M112.916 48.7394V48.1023L112.9 47.998V46.9326C112.9 46.6873 112.833 46.4988 112.7 46.367C112.57 46.2352 112.375 46.1692 112.116 46.1692C111.937 46.1692 111.767 46.2004 111.606 46.2626C111.444 46.3249 111.307 46.4073 111.195 46.5098L111.027 46.2187C111.167 46.0942 111.335 45.999 111.532 45.9331C111.728 45.8636 111.935 45.8289 112.153 45.8289C112.511 45.8289 112.786 45.9222 112.979 46.1089C113.175 46.292 113.273 46.5721 113.273 46.9492V48.7395L112.916 48.7394ZM111.963 48.7669C111.756 48.7669 111.576 48.7321 111.421 48.6626C111.271 48.5893 111.155 48.4904 111.074 48.366C110.993 48.2379 110.953 48.0914 110.953 47.9267C110.953 47.7766 110.986 47.6411 111.053 47.5203C111.123 47.3958 111.235 47.2969 111.39 47.2237C111.548 47.1468 111.758 47.1084 112.021 47.1084H112.974V47.3995H112.032C111.765 47.3995 111.579 47.4489 111.474 47.5478C111.372 47.6466 111.321 47.7693 111.321 47.9157C111.321 48.0805 111.383 48.2122 111.506 48.3111C111.628 48.4099 111.8 48.4594 112.021 48.4594C112.232 48.4594 112.412 48.4099 112.563 48.3111C112.717 48.2086 112.83 48.0621 112.9 47.8718L112.984 48.1408C112.914 48.3312 112.791 48.4832 112.616 48.5967C112.444 48.7102 112.226 48.7669 111.963 48.7669Z" fill="#458BD0"/>
<path d="M109.359 48.7669C109.131 48.7669 108.915 48.7339 108.712 48.668C108.508 48.5985 108.349 48.5124 108.233 48.4099L108.401 48.1024C108.514 48.1902 108.657 48.2671 108.833 48.333C109.008 48.3953 109.192 48.4264 109.385 48.4264C109.648 48.4264 109.838 48.3843 109.953 48.3C110.069 48.2122 110.127 48.0968 110.127 47.9541C110.127 47.8479 110.094 47.7655 110.027 47.7069C109.964 47.6447 109.88 47.5989 109.775 47.5696C109.669 47.5367 109.552 47.5092 109.422 47.4873C109.292 47.4653 109.162 47.4397 109.033 47.4103C108.906 47.381 108.791 47.3389 108.685 47.284C108.58 47.2255 108.494 47.1467 108.428 47.0479C108.364 46.949 108.333 46.8172 108.333 46.6524C108.333 46.495 108.375 46.3541 108.459 46.2296C108.543 46.1051 108.666 46.0081 108.827 45.9385C108.992 45.8653 109.192 45.8286 109.427 45.8286C109.606 45.8286 109.785 45.8543 109.964 45.9055C110.143 45.9531 110.29 46.0172 110.406 46.0978L110.243 46.4108C110.12 46.3229 109.988 46.2607 109.848 46.2241C109.708 46.1838 109.568 46.1636 109.427 46.1636C109.178 46.1636 108.994 46.2094 108.875 46.3009C108.759 46.3888 108.701 46.5023 108.701 46.6414C108.701 46.7512 108.733 46.8373 108.796 46.8995C108.863 46.9618 108.948 47.0112 109.054 47.0478C109.162 47.0807 109.28 47.1082 109.406 47.1302C109.536 47.1521 109.664 47.1796 109.79 47.2125C109.92 47.2419 110.038 47.284 110.143 47.3389C110.252 47.3902 110.337 47.4652 110.401 47.5641C110.467 47.6592 110.501 47.7855 110.501 47.943C110.501 48.1114 110.455 48.2579 110.364 48.3823C110.276 48.5032 110.146 48.5983 109.974 48.6679C109.806 48.7338 109.601 48.7669 109.359 48.7669Z" fill="#458BD0"/>
<path d="M105.818 49.8323C105.688 49.8323 105.564 49.8103 105.444 49.7664C105.329 49.7225 105.229 49.6565 105.144 49.5687L105.318 49.2776C105.388 49.3471 105.464 49.4002 105.544 49.4369C105.628 49.4772 105.721 49.4973 105.823 49.4973C105.946 49.4973 106.051 49.4607 106.139 49.3875C106.23 49.3179 106.316 49.1934 106.397 49.014L106.576 48.5912L106.618 48.5307L107.754 45.8562H108.122L106.739 49.0854C106.661 49.2721 106.576 49.4204 106.481 49.5302C106.39 49.64 106.29 49.7169 106.181 49.7609C106.072 49.8084 105.951 49.8323 105.818 49.8323ZM106.554 48.8218L105.281 45.8562H105.671L106.796 48.5033L106.554 48.8218Z" fill="#458BD0"/>
<path d="M104.476 48.7394V48.1023L104.46 47.998V46.9326C104.46 46.6873 104.394 46.4988 104.26 46.367C104.131 46.2352 103.936 46.1692 103.676 46.1692C103.498 46.1692 103.327 46.2004 103.166 46.2626C103.005 46.3249 102.868 46.4073 102.756 46.5098L102.587 46.2187C102.728 46.0942 102.896 45.999 103.092 45.9331C103.289 45.8636 103.496 45.8289 103.713 45.8289C104.071 45.8289 104.346 45.9222 104.539 46.1089C104.736 46.292 104.834 46.5721 104.834 46.9492V48.7395L104.476 48.7394ZM103.524 48.7669C103.317 48.7669 103.136 48.7321 102.982 48.6626C102.831 48.5893 102.715 48.4904 102.635 48.366C102.554 48.2379 102.514 48.0914 102.514 47.9267C102.514 47.7766 102.547 47.6411 102.614 47.5203C102.684 47.3958 102.796 47.2969 102.95 47.2237C103.108 47.1468 103.319 47.1084 103.582 47.1084H104.534V47.3995H103.592C103.326 47.3995 103.14 47.4489 103.035 47.5478C102.933 47.6466 102.882 47.7693 102.882 47.9157C102.882 48.0805 102.943 48.2122 103.066 48.3111C103.189 48.4099 103.361 48.4594 103.582 48.4594C103.792 48.4594 103.973 48.4099 104.124 48.3111C104.278 48.2086 104.39 48.0621 104.46 47.8718L104.545 48.1408C104.474 48.3312 104.352 48.4832 104.176 48.5967C104.004 48.7102 103.787 48.7669 103.524 48.7669Z" fill="#458BD0"/>
<path d="M99.1254 48.7394V44.8951H100.504C100.816 44.8951 101.084 44.9482 101.309 45.0544C101.533 45.1569 101.705 45.307 101.824 45.5047C101.947 45.6987 102.009 45.9349 102.009 46.2132C102.009 46.4841 101.947 46.7184 101.824 46.9161C101.705 47.1102 101.533 47.2603 101.309 47.3664C101.084 47.4726 100.816 47.5257 100.504 47.5257H99.3411L99.5147 47.3335V48.7394H99.1254ZM99.5147 47.3664L99.3411 47.1687H100.493C100.862 47.1687 101.14 47.0864 101.33 46.9216C101.523 46.7532 101.619 46.517 101.619 46.2132C101.619 45.9056 101.523 45.6676 101.33 45.4992C101.14 45.3308 100.862 45.2466 100.493 45.2466H99.3411L99.5147 45.0544V47.3664Z" fill="#458BD0"/>
<path d="M119.339 43.6392C118.631 43.6392 117.978 43.5233 117.38 43.2914C116.781 43.0595 116.259 42.7332 115.812 42.3124C115.374 41.883 115.033 41.3849 114.788 40.8181C114.544 40.2513 114.422 39.6286 114.422 38.9502C114.422 38.2718 114.544 37.6492 114.788 37.0823C115.033 36.5156 115.374 36.0218 115.812 35.601C116.259 35.1716 116.781 34.8409 117.38 34.609C117.978 34.3772 118.631 34.2612 119.339 34.2612C120.055 34.2612 120.708 34.3772 121.298 34.609C121.896 34.8409 122.415 35.1716 122.853 35.601C123.291 36.0218 123.632 36.5156 123.877 37.0823C124.13 37.6492 124.256 38.2718 124.256 38.9502C124.256 39.6286 124.13 40.2556 123.877 40.8309C123.632 41.3977 123.291 41.8916 122.853 42.3124C122.415 42.7332 121.896 43.0595 121.298 43.2914C120.708 43.5233 120.055 43.6392 119.339 43.6392ZM119.339 41.5266C119.676 41.5266 119.988 41.4664 120.274 41.3462C120.569 41.226 120.822 41.0542 121.033 40.8309C121.252 40.5991 121.42 40.3243 121.538 40.0065C121.665 39.6888 121.728 39.3366 121.728 38.9502C121.728 38.5552 121.665 38.2031 121.538 37.8939C121.42 37.5762 121.252 37.3056 121.033 37.0823C120.822 36.8505 120.569 36.6745 120.274 36.5542C119.988 36.434 119.676 36.3739 119.339 36.3739C119.002 36.3739 118.686 36.434 118.391 36.5542C118.104 36.6745 117.852 36.8505 117.632 37.0823C117.422 37.3056 117.253 37.5762 117.127 37.8939C117.009 38.2031 116.95 38.5552 116.95 38.9502C116.95 39.3366 117.009 39.6888 117.127 40.0065C117.253 40.3243 117.422 40.5991 117.632 40.8309C117.852 41.0542 118.104 41.226 118.391 41.3462C118.686 41.4664 119.002 41.5266 119.339 41.5266Z" fill="#2C3135"/>
<path d="M119.34 34.246C118.63 34.246 117.976 34.3637 117.376 34.5963C116.776 34.8288 116.252 35.1575 115.803 35.5882C115.364 36.0104 115.021 36.5076 114.776 37.0762C114.53 37.645 114.408 38.2688 114.408 38.9491C114.408 39.6294 114.53 40.2567 114.776 40.8255C115.021 41.3941 115.364 41.8931 115.803 42.3239C116.252 42.7461 116.776 43.0729 117.376 43.3055C117.976 43.538 118.63 43.6558 119.34 43.6558C120.058 43.6558 120.712 43.538 121.303 43.3055C121.903 43.0729 122.423 42.7461 122.862 42.3239C123.302 41.9017 123.645 41.4045 123.89 40.8359C124.144 40.2585 124.271 39.6295 124.271 38.9491C124.271 38.2688 124.144 37.6451 123.89 37.0762C123.645 36.5076 123.302 36.0104 122.862 35.5882C122.423 35.1574 121.903 34.8288 121.303 34.5963C120.712 34.3636 120.058 34.246 119.34 34.246ZM119.34 34.2772C120.054 34.2772 120.705 34.393 121.293 34.6241C121.89 34.8553 122.405 35.1846 122.842 35.6126C123.279 36.032 123.619 36.5251 123.863 37.0901C124.115 37.6548 124.241 38.2727 124.241 38.9492C124.241 39.6257 124.115 40.2523 123.863 40.8256C123.619 41.3906 123.279 41.8802 122.842 42.2997C122.405 42.7191 121.89 43.0465 121.293 43.2778C120.705 43.5089 120.054 43.6246 119.34 43.6246C118.633 43.6246 117.983 43.509 117.386 43.2778C116.789 43.0465 116.269 42.7191 115.824 42.2997C115.388 41.8721 115.046 41.3758 114.803 40.8117C114.559 40.247 114.435 39.6258 114.435 38.9492C114.435 38.2726 114.559 37.6549 114.803 37.0901C115.046 36.5251 115.387 36.032 115.824 35.6126C116.269 35.1846 116.789 34.8553 117.386 34.6241C117.983 34.3929 118.633 34.2772 119.34 34.2772ZM119.34 36.3583C119.001 36.3583 118.683 36.4176 118.387 36.5386C118.098 36.6596 117.841 36.8395 117.621 37.0728C117.409 37.2976 117.241 37.5685 117.114 37.8879C116.995 38.1991 116.933 38.5526 116.933 38.9492C116.933 39.3372 116.995 39.6909 117.114 40.0105V40.014C117.241 40.3333 117.409 40.6097 117.621 40.843C117.841 41.0677 118.098 41.2388 118.387 41.3598C118.683 41.4807 119.001 41.5401 119.34 41.5401C119.678 41.5401 119.991 41.4808 120.279 41.3598C120.576 41.2388 120.833 41.0679 121.045 40.843C121.265 40.6103 121.433 40.3323 121.552 40.014V40.0105C121.678 39.6916 121.742 39.3361 121.742 38.9492C121.742 38.5525 121.679 38.1992 121.552 37.8879C121.433 37.5683 121.265 37.2977 121.045 37.0728C120.833 36.8393 120.576 36.6596 120.279 36.5386C119.991 36.4175 119.678 36.3583 119.34 36.3583ZM119.34 36.3895C119.675 36.3895 119.984 36.4504 120.269 36.5699C120.562 36.6894 120.812 36.8633 121.021 37.0936C121.238 37.3153 121.407 37.5823 121.525 37.8983C121.65 38.2053 121.712 38.5558 121.712 38.9492C121.712 39.334 121.65 39.6844 121.525 40.0001C121.407 40.3161 121.239 40.5918 121.021 40.8221C120.812 41.0439 120.562 41.2125 120.269 41.332C119.984 41.4515 119.675 41.5123 119.34 41.5123C119.004 41.5123 118.69 41.4514 118.397 41.332C118.114 41.2132 117.862 41.0424 117.645 40.8221L117.641 40.8186C117.433 40.5889 117.266 40.3147 117.141 40.0001C117.024 39.6842 116.964 39.334 116.964 38.9491C116.964 38.5556 117.024 38.2053 117.141 37.8982C117.267 37.582 117.435 37.3153 117.645 37.0935C117.862 36.8631 118.112 36.6892 118.397 36.5698C118.69 36.4503 119.004 36.3895 119.34 36.3895Z" fill="#2C3135"/>
<path d="M109.051 43.6392C108.352 43.6392 107.703 43.5276 107.105 43.3043C106.515 43.0724 106.001 42.7461 105.562 42.3253C105.133 41.9045 104.796 41.4106 104.551 40.8438C104.307 40.2684 104.185 39.6372 104.185 38.9502C104.185 38.2632 104.307 37.6362 104.551 37.0694C104.796 36.4941 105.133 35.996 105.562 35.5752C106.001 35.1544 106.515 34.8323 107.105 34.609C107.703 34.3772 108.352 34.2612 109.051 34.2612C109.869 34.2612 110.597 34.4072 111.238 34.6992C111.887 34.9912 112.426 35.412 112.856 35.9616L111.263 37.4302C110.977 37.0866 110.661 36.8247 110.315 36.6444C109.978 36.464 109.599 36.3739 109.178 36.3739C108.815 36.3739 108.482 36.434 108.179 36.5542C107.876 36.6745 107.614 36.8505 107.395 37.0823C107.185 37.3056 107.016 37.5762 106.89 37.8939C106.772 38.2117 106.713 38.5637 106.713 38.9502C106.713 39.3366 106.772 39.6888 106.89 40.0065C107.016 40.3243 107.185 40.5991 107.395 40.8309C107.614 41.0542 107.876 41.226 108.179 41.3462C108.482 41.4664 108.815 41.5266 109.178 41.5266C109.599 41.5266 109.978 41.4364 110.315 41.256C110.661 41.0757 110.977 40.8138 111.263 40.4703L112.856 41.9388C112.426 42.4799 111.887 42.9006 111.238 43.2012C110.597 43.4932 109.869 43.6392 109.051 43.6392Z" fill="#2C3135"/>
<path d="M109.051 34.246C108.35 34.246 107.701 34.3637 107.101 34.5963C106.509 34.8202 105.992 35.1417 105.552 35.564C105.121 35.9862 104.783 36.4852 104.538 37.0623C104.293 37.6312 104.171 38.2603 104.171 38.9491C104.171 39.638 104.293 40.2724 104.538 40.8498C104.783 41.4183 105.121 41.9156 105.552 42.3378C105.992 42.7599 106.506 43.0868 107.097 43.3193H107.101C107.701 43.5433 108.35 43.6558 109.051 43.6558C109.87 43.6558 110.6 43.5082 111.243 43.2153C111.894 42.9138 112.435 42.4922 112.866 41.9493L112.877 41.9351L111.263 40.4472L111.253 40.4614C110.968 40.8036 110.651 41.0624 110.307 41.2417C109.972 41.4209 109.596 41.5123 109.177 41.5123C108.816 41.5123 108.485 41.4514 108.183 41.3319C107.882 41.2124 107.625 41.0404 107.407 40.8186C107.199 40.5886 107.029 40.3153 106.904 40.0001C106.786 39.6842 106.727 39.334 106.727 38.9491C106.727 38.5643 106.786 38.2141 106.904 37.8982C107.029 37.582 107.198 37.3153 107.407 37.0935C107.625 36.8632 107.882 36.6893 108.183 36.5698C108.485 36.4503 108.816 36.3894 109.177 36.3894C109.596 36.3894 109.972 36.4774 110.307 36.6565C110.651 36.8359 110.968 37.0982 111.253 37.4404L111.263 37.4511L112.877 35.9631L112.866 35.9524C112.435 35.4009 111.894 34.9794 111.243 34.6865C110.6 34.3935 109.87 34.246 109.051 34.246ZM109.051 34.2772C109.867 34.2772 110.594 34.4232 111.233 34.7143C111.874 35.0029 112.406 35.4184 112.832 35.9594L111.263 37.4092C110.978 37.0703 110.664 36.8115 110.321 36.6323C109.981 36.4507 109.6 36.3583 109.177 36.3583C108.813 36.3583 108.478 36.4176 108.173 36.5386C107.868 36.6596 107.604 36.8393 107.383 37.0728C107.171 37.2976 107.003 37.5685 106.876 37.8879C106.758 38.2075 106.699 38.5612 106.699 38.9492C106.699 39.3372 106.758 39.6909 106.876 40.0105V40.014C107.003 40.3333 107.171 40.6097 107.383 40.843C107.604 41.0678 107.868 41.2388 108.173 41.3598C108.478 41.4807 108.813 41.5401 109.177 41.5401C109.6 41.5401 109.981 41.4512 110.321 41.2696C110.663 41.0908 110.975 40.827 111.26 40.4892L112.832 41.939C112.406 42.4717 111.874 42.8905 111.233 43.1876C110.594 43.4786 109.867 43.6247 109.051 43.6247C108.353 43.6247 107.708 43.5144 107.111 43.2917C106.523 43.0605 106.01 42.733 105.573 42.3136C105.144 41.8941 104.809 41.4046 104.565 40.8395C104.322 40.2662 104.201 39.6344 104.201 38.9492C104.201 38.264 104.322 37.641 104.565 37.0763C104.809 36.5027 105.144 36.0043 105.573 35.5849C106.009 35.1655 106.523 34.8468 107.111 34.6241C107.708 34.393 108.353 34.2772 109.051 34.2772Z" fill="#2C3135"/>
<path d="M99.2565 43.4588V34.4415H101.759V43.4588H99.2565Z" fill="#2C3135"/>
<path d="M90.4478 43.4589V34.4417H92.9506V41.4365H97.1725V43.4589H90.4478Z" fill="#2C3135"/>
<path d="M90.4343 34.4264V43.4755H90.4479H97.1867V41.4222H92.9665V34.4264H90.4343ZM90.4616 34.4577H92.9358V41.4534H97.1561V43.4443H90.4616L90.4616 34.4577Z" fill="#2C3135"/>
<path d="M79.6292 43.4589V34.4417H84.1544C85.3174 34.4417 86.1853 34.6607 86.7584 35.0986C87.3314 35.528 87.6179 36.0948 87.6179 36.799C87.6179 37.2628 87.4957 37.6707 87.2514 38.0228C87.0154 38.3663 86.6783 38.6411 86.2401 38.8472C85.8103 39.0448 85.2963 39.1435 84.698 39.1435L84.9508 38.5252C85.5744 38.5252 86.1179 38.6239 86.5814 38.8214C87.0449 39.0104 87.403 39.2895 87.6558 39.6588C87.9171 40.0195 88.0477 40.4618 88.0477 40.9856C88.0477 41.7671 87.7359 42.3768 87.1123 42.8148C86.4971 43.2442 85.5954 43.4589 84.4072 43.4589H79.6292ZM82.1067 41.6168H84.205C84.6348 41.6168 84.9592 41.5438 85.1783 41.3978C85.4058 41.2432 85.5196 41.0114 85.5196 40.7022C85.5196 40.393 85.4058 40.1654 85.1783 40.0194C84.9592 39.8649 84.6348 39.7876 84.205 39.7876H81.9297V38.0228H83.8258C84.2471 38.0228 84.5631 37.9498 84.7738 37.8038C84.9845 37.6578 85.0898 37.4388 85.0898 37.1468C85.0898 36.8549 84.9845 36.6402 84.7738 36.5028C84.5631 36.3568 84.2471 36.2838 83.8258 36.2838H82.1067V41.6168Z" fill="#2C3135"/>
<path d="M79.6149 34.4264V43.4755H79.6285H84.4069C85.5968 43.4755 86.5005 43.2588 87.1194 42.8269C87.7464 42.3865 88.0621 41.7708 88.0621 40.9851C88.0621 40.4587 87.9306 40.0133 87.6674 39.6498C87.4128 39.278 87.0542 38.9968 86.5885 38.807C86.5245 38.7798 86.4308 38.7889 86.3638 38.7654C86.7317 38.5683 87.0525 38.3357 87.2623 38.0301C87.5085 37.6755 87.6333 37.2653 87.6333 36.7988C87.6333 36.0904 87.3416 35.5172 86.7654 35.0854C86.1885 34.6456 85.3183 34.4264 84.155 34.4264L79.6149 34.4264ZM79.6455 34.4577H84.155C85.3161 34.4577 86.1793 34.6747 86.7485 35.1097C87.3183 35.5368 87.6027 36.0988 87.6027 36.7988C87.6027 37.2599 87.4812 37.6633 87.2385 38.0128C87.0258 38.3225 86.7056 38.5608 86.3264 38.7585C85.9138 38.6186 85.4765 38.5088 84.9514 38.5088H84.9412L84.6757 39.1573H84.6995C85.2994 39.1573 85.8125 39.0611 86.2447 38.8625C86.283 38.8444 86.2963 38.8087 86.3332 38.7897C86.4054 38.8146 86.5061 38.8057 86.5748 38.8348C87.036 39.0228 87.3924 39.3005 87.6435 39.6672C87.9027 40.0251 88.0315 40.464 88.0315 40.9853C88.0315 41.7626 87.7225 42.3671 87.1023 42.8027C86.4909 43.2295 85.5933 43.4444 84.4068 43.4444H79.6454L79.6455 34.4577ZM82.0926 36.2682V38.0093H81.9156V39.8025H82.0926V41.6303H82.1062H84.2061C84.6375 41.6303 84.9634 41.5603 85.1863 41.4118C85.4176 41.2547 85.5334 41.0138 85.5334 40.7008C85.5334 40.3878 85.4178 40.1557 85.1863 40.0071C84.9634 39.85 84.6376 39.7713 84.2061 39.7713H82.1232V38.0371H83.8249C84.2479 38.0371 84.5667 37.9637 84.7812 37.8151C84.9957 37.6664 85.1046 37.4414 85.1046 37.1457C85.1046 36.85 84.996 36.6302 84.7812 36.4901C84.5667 36.3415 84.2479 36.2682 83.8249 36.2682H82.0926ZM82.1232 36.2994H83.8249C84.2446 36.2994 84.5574 36.3711 84.7643 36.5144C84.9709 36.6492 85.074 36.8574 85.074 37.1457C85.074 37.4339 84.9711 37.6475 84.7643 37.7908C84.5574 37.9341 84.2446 38.0093 83.8249 38.0093H82.1232V36.2994ZM81.9462 38.0371H82.0926V39.7713H81.9462V38.0371ZM84.9617 38.54C85.4721 38.541 85.894 38.649 86.2958 38.7828C86.2696 38.7952 86.2615 38.822 86.2345 38.8348C85.8137 39.0282 85.3084 39.1232 84.7234 39.1262L84.9617 38.54ZM82.1232 39.8025H84.2061C84.6341 39.8025 84.9539 39.8794 85.1693 40.0314C85.3928 40.1749 85.5062 40.3954 85.5062 40.7008C85.5062 41.0061 85.393 41.2321 85.1693 41.3841C84.9539 41.5276 84.6342 41.6026 84.2061 41.6026H82.1232V39.8025Z" fill="#2C3135"/>
<path d="M74.2457 43.4606V34.4434H76.7485V43.4606H74.2457Z" fill="#2C3135"/>
<path d="M63.4272 43.4589V34.4417H67.9525C69.1155 34.4417 69.9834 34.6607 70.5565 35.0986C71.1295 35.528 71.416 36.0948 71.416 36.799C71.416 37.2628 71.2938 37.6707 71.0494 38.0228C70.8135 38.3663 70.4764 38.6411 70.0382 38.8472C69.6084 39.0448 69.0944 39.1435 68.4961 39.1435L68.7489 38.5252C69.3725 38.5252 69.916 38.6239 70.3795 38.8214C70.843 39.0104 71.2011 39.2895 71.4539 39.6588C71.7152 40.0195 71.8458 40.4618 71.8458 40.9856C71.8458 41.7671 71.534 42.3768 70.9104 42.8148C70.2952 43.2442 69.3935 43.4589 68.2053 43.4589H63.4272ZM65.9048 41.6168H68.0031C68.4329 41.6168 68.7573 41.5438 68.9764 41.3978C69.2039 41.2432 69.3177 41.0114 69.3177 40.7022C69.3177 40.393 69.2039 40.1654 68.9764 40.0194C68.7573 39.8649 68.4329 39.7876 68.0031 39.7876H65.7278V38.0228H67.6239C68.0452 38.0228 68.3612 37.9498 68.5719 37.8038C68.7826 37.6578 68.8879 37.4388 68.8879 37.1468C68.8879 36.8549 68.7826 36.6402 68.5719 36.5028C68.3612 36.3568 68.0452 36.2838 67.6239 36.2838H65.9048V41.6168Z" fill="#2C3135"/>
<path d="M63.4111 34.4264V43.4755H63.4282H68.2066C69.3966 43.4755 70.3003 43.2588 70.9191 42.8269C71.5462 42.3865 71.8619 41.7708 71.8619 40.9851C71.8619 40.4587 71.7304 40.0133 71.4671 39.6498C71.2125 39.278 70.8505 38.9968 70.3848 38.807C70.3218 38.7802 70.2295 38.7885 70.1636 38.7654C70.5315 38.5683 70.8522 38.3357 71.0621 38.0301C71.3083 37.6755 71.4297 37.2653 71.4297 36.7988C71.4297 36.0904 71.1414 35.5172 70.5652 35.0854C69.9883 34.6445 69.1161 34.4264 67.9514 34.4264L63.4111 34.4264ZM63.4418 34.4577H67.9513C69.1124 34.4577 69.979 34.6747 70.5481 35.1097C71.118 35.5368 71.4024 36.0988 71.4024 36.7988C71.4024 37.2599 71.2808 37.6633 71.0382 38.0128C70.8255 38.3225 70.502 38.5608 70.1227 38.7585C69.7101 38.6186 69.2727 38.5088 68.7477 38.5088H68.7374L68.472 39.1573H68.4958C69.0957 39.1573 69.6122 39.0611 70.0443 38.8625C70.0827 38.8444 70.096 38.8087 70.1328 38.7897C70.2049 38.8146 70.3059 38.8057 70.3745 38.8348C70.8357 39.0228 71.1921 39.3005 71.4431 39.6672C71.7023 40.0251 71.8311 40.464 71.8311 40.9853C71.8311 41.7626 71.5222 42.3671 70.902 42.8027C70.2905 43.2295 69.3929 43.4444 68.2065 43.4444H63.4417L63.4418 34.4577ZM65.8888 36.2682V38.0093H65.7119V39.8025H65.8888V41.6303H65.9059H68.0024C68.4339 41.6303 68.7632 41.5603 68.986 41.4118C69.2174 41.2547 69.3332 41.0138 69.3332 40.7008C69.3332 40.3878 69.2176 40.1557 68.986 40.0071C68.7631 39.85 68.4339 39.7713 68.0024 39.7713H65.9195V38.0371H67.6246C68.0477 38.0371 68.3665 37.9637 68.581 37.8151C68.7955 37.6664 68.9043 37.4414 68.9043 37.1457C68.9043 36.85 68.7957 36.6302 68.581 36.4901C68.3665 36.3415 68.0477 36.2682 67.6246 36.2682H65.8888ZM65.9195 36.2994H67.6246C68.0442 36.2994 68.3571 36.3711 68.5639 36.5144C68.7706 36.6492 68.8736 36.8574 68.8736 37.1457C68.8736 37.4339 68.7708 37.6475 68.5639 37.7908C68.3571 37.9341 68.0442 38.0093 67.6246 38.0093H65.9195V36.2994ZM65.7425 38.0371H65.8888V39.7713H65.7425V38.0371ZM68.7579 38.54C69.2673 38.541 69.6908 38.6495 70.0921 38.7828C70.0659 38.7952 70.0578 38.8222 70.0308 38.8348C69.61 39.0282 69.1046 39.1232 68.5197 39.1262L68.7579 38.54ZM65.9195 39.8025H68.0024C68.4304 39.8025 68.7536 39.8794 68.9689 40.0314C69.1924 40.1749 69.3025 40.3954 69.3025 40.7008C69.3025 41.0061 69.1926 41.2321 68.9689 41.3841C68.7536 41.5276 68.4305 41.6026 68.0024 41.6026H65.9195V39.8025Z" fill="#2C3135"/>
<path d="M119.3 32.3539C118.587 32.3539 117.929 32.2371 117.326 32.0034C116.723 31.7697 116.196 31.4408 115.746 31.0167C115.304 30.5839 114.96 30.0819 114.714 29.5106C114.468 28.9394 114.345 28.3119 114.345 27.6281C114.345 26.9443 114.468 26.3168 114.714 25.7456C114.96 25.1743 115.304 24.6766 115.746 24.2525C116.196 23.8198 116.723 23.4866 117.326 23.2529C117.929 23.0192 118.587 22.9023 119.3 22.9023C120.022 22.9023 120.681 23.0192 121.275 23.2529C121.878 23.4866 122.4 23.8198 122.842 24.2525C123.284 24.6766 123.628 25.1743 123.874 25.7456C124.129 26.3168 124.256 26.9443 124.256 27.6281C124.256 28.3119 124.129 28.9437 123.874 29.5236C123.628 30.0949 123.284 30.5925 122.842 31.0167C122.4 31.4408 121.878 31.7697 121.275 32.0034C120.681 32.2371 120.022 32.3539 119.3 32.3539ZM119.3 30.2247C119.64 30.2247 119.954 30.1641 120.243 30.043C120.54 29.9218 120.795 29.7487 121.008 29.5236C121.228 29.2899 121.398 29.013 121.517 28.6927C121.645 28.3725 121.708 28.0176 121.708 27.6281C121.708 27.23 121.645 26.8751 121.517 26.5635C121.398 26.2432 121.228 25.9706 121.008 25.7456C120.795 25.5119 120.54 25.3344 120.243 25.2133C119.954 25.0921 119.64 25.0315 119.3 25.0315C118.961 25.0315 118.642 25.0921 118.345 25.2133C118.056 25.3344 117.801 25.5119 117.581 25.7456C117.368 25.9706 117.198 26.2432 117.071 26.5635C116.952 26.8751 116.893 27.23 116.893 27.6281C116.893 28.0176 116.952 28.3725 117.071 28.6927C117.198 29.013 117.368 29.2899 117.581 29.5236C117.801 29.7487 118.056 29.9218 118.345 30.043C118.642 30.1641 118.961 30.2247 119.3 30.2247Z" fill="#2C3135"/>
<path d="M119.3 22.886C118.585 22.886 117.926 23.0047 117.321 23.2391C116.716 23.4734 116.188 23.8083 115.736 24.2424C115.293 24.6679 114.947 25.1657 114.7 25.7387C114.453 26.312 114.33 26.941 114.33 27.6266C114.33 28.3122 114.453 28.9446 114.7 29.5179C114.947 30.091 115.293 30.5941 115.736 31.0282C116.188 31.4537 116.716 31.7832 117.321 32.0176C117.926 32.252 118.585 32.3707 119.3 32.3707C120.024 32.3707 120.683 32.252 121.28 32.0176C121.885 31.7832 122.408 31.4538 122.851 31.0282C123.294 30.6027 123.64 30.1015 123.887 29.5284C124.143 28.9465 124.271 28.3123 124.271 27.6266C124.271 26.9409 124.143 26.3121 123.887 25.7387C123.64 25.1657 123.294 24.6679 122.851 24.2424C122.408 23.8082 121.885 23.4734 121.28 23.2391C120.683 23.0046 120.024 22.886 119.3 22.886ZM119.3 22.9175C120.021 22.9175 120.677 23.0342 121.27 23.2671C121.871 23.5001 122.39 23.8322 122.83 24.2635C123.271 24.6862 123.614 25.1833 123.86 25.7528C124.113 26.3219 124.24 26.9448 124.24 27.6266C124.24 28.3085 124.113 28.9402 123.86 29.518C123.614 30.0874 123.271 30.5846 122.83 31.0073C122.39 31.43 121.871 31.7566 121.27 31.9897C120.677 32.2226 120.021 32.3393 119.3 32.3393C118.589 32.3393 117.932 32.2226 117.331 31.9897C116.73 31.7566 116.205 31.43 115.757 31.0073C115.316 30.5759 114.973 30.0735 114.728 29.504C114.482 28.9348 114.36 28.3085 114.36 27.6266C114.36 26.9448 114.482 26.322 114.728 25.7528C114.973 25.1833 115.316 24.6862 115.757 24.2635C116.205 23.8321 116.73 23.5001 117.331 23.2671C117.932 23.0341 118.589 22.9175 119.3 22.9175ZM119.3 25.0151C118.959 25.0151 118.639 25.0785 118.34 25.2004C118.049 25.3223 117.794 25.5001 117.571 25.7353C117.358 25.9619 117.185 26.235 117.057 26.5569C116.937 26.8705 116.878 27.227 116.878 27.6266C116.878 28.0177 116.937 28.3777 117.057 28.6999C117.185 29.0217 117.354 29.3003 117.568 29.5355H117.572C117.794 29.7619 118.049 29.9345 118.34 30.0564C118.639 30.1783 118.959 30.2417 119.3 30.2417C119.641 30.2417 119.957 30.1774 120.247 30.0564C120.546 29.9345 120.805 29.7621 121.019 29.5355C121.241 29.3002 121.411 29.022 121.53 28.6999C121.659 28.3777 121.722 28.0178 121.722 27.6266C121.722 27.2269 121.659 26.8706 121.53 26.5569C121.411 26.2348 121.242 25.9619 121.019 25.7353C120.806 25.5007 120.549 25.3224 120.251 25.2004H120.247C119.957 25.0792 119.641 25.0151 119.3 25.0151ZM119.3 25.0466C119.638 25.0466 119.95 25.108 120.237 25.2284C120.532 25.3489 120.784 25.5243 120.995 25.7563H120.999C121.218 25.9798 121.385 26.2525 121.503 26.5709C121.629 26.8803 121.695 27.2302 121.695 27.6267C121.695 28.0145 121.629 28.3678 121.503 28.686C121.385 29.0044 121.218 29.2824 120.999 29.5145C120.788 29.738 120.532 29.908 120.237 30.0285C119.95 30.1487 119.638 30.2103 119.3 30.2103C118.963 30.2103 118.646 30.1489 118.35 30.0285C118.063 29.908 117.812 29.7382 117.592 29.5145C117.381 29.2823 117.211 29.0047 117.084 28.686C116.966 28.3677 116.909 28.0146 116.909 27.6267C116.909 27.2301 116.966 26.8804 117.084 26.5709C117.211 26.2522 117.381 25.9798 117.592 25.7563C117.812 25.5241 118.063 25.3488 118.35 25.2284C118.646 25.108 118.962 25.0466 119.3 25.0466Z" fill="#2C3135"/>
<path d="M104.269 32.1722V23.0841H108.346C109.161 23.0841 109.862 23.2183 110.448 23.4866C111.043 23.7549 111.501 24.1444 111.824 24.655C112.147 25.157 112.308 25.7543 112.308 26.4467C112.308 27.1305 112.147 27.7233 111.824 28.2253C111.501 28.7187 111.043 29.0996 110.448 29.3679C109.862 29.6275 109.161 29.7574 108.346 29.7574H105.671L106.792 28.6798V32.1722H104.269ZM109.786 32.1722L107.569 28.8615H110.257L112.486 32.1722H109.786ZM106.792 28.9524L105.671 27.771H108.193C108.72 27.771 109.11 27.6541 109.365 27.4204C109.628 27.1867 109.76 26.8621 109.76 26.4467C109.76 26.0226 109.628 25.6937 109.365 25.46C109.11 25.2263 108.72 25.1094 108.193 25.1094H105.671L106.792 23.928V28.9524Z" fill="#2C3135"/>
<path d="M104.254 23.0677V32.1889H104.268H106.806V29.7731H108.161L109.777 32.1889H109.784H112.515L110.563 29.2907C111.092 29.0261 111.537 28.6914 111.836 28.2349C112.16 27.7302 112.323 27.1346 112.323 26.4484C112.323 25.7536 112.16 25.1527 111.836 24.6479C111.511 24.1347 111.05 23.7426 110.453 23.4733C109.865 23.2039 109.164 23.0677 108.347 23.0677H104.254ZM104.285 23.0993H108.347C109.16 23.0993 109.859 23.2341 110.443 23.5013C111.035 23.7686 111.49 24.1539 111.812 24.662C112.133 25.1613 112.292 25.7585 112.292 26.4485C112.292 27.1298 112.133 27.7181 111.812 28.2174C111.515 28.671 111.074 29.0036 110.546 29.2662L110.264 28.8467H107.541L108.141 29.7417H106.806V28.9901V28.9515V28.6439V27.7874H108.192C108.721 27.7874 109.117 27.668 109.376 27.4308C109.643 27.1941 109.774 26.8672 109.774 26.4484C109.774 26.0211 109.643 25.6852 109.376 25.4485C109.117 25.2113 108.721 25.0954 108.192 25.0954H106.806V23.8893L105.637 25.1234H106.776V27.7559H105.637L106.635 28.8082L105.633 29.7731H106.776V32.1574H104.285V23.0993ZM106.776 23.9663V25.0955H105.705L106.776 23.9663ZM106.806 25.1235H108.192C108.717 25.1235 109.104 25.2429 109.355 25.4731C109.615 25.7037 109.746 26.0276 109.746 26.4485C109.746 26.8606 109.615 27.1791 109.355 27.4099C109.104 27.64 108.717 27.756 108.192 27.756H106.806V25.1235ZM105.709 27.7874H106.776V28.6719L106.659 28.7873L105.709 27.7874ZM106.776 28.7174V28.9131L106.68 28.8082L106.776 28.7174ZM106.656 28.8326L106.776 28.9585V29.7416H105.709L106.656 28.8326ZM107.599 28.8781H110.251L110.525 29.2872C110.491 29.3033 110.478 29.3377 110.443 29.3536C109.859 29.6122 109.161 29.7416 108.347 29.7416H108.175L107.599 28.8781ZM110.542 29.3081L112.457 32.1574H109.794L108.196 29.7731H108.347C109.164 29.7731 109.865 29.6423 110.453 29.3816C110.491 29.3637 110.505 29.3264 110.542 29.3081Z" fill="#2C3135"/>
<path d="M96.9711 32.1722V25.1224H94.2321V23.0841H102.22V25.1224H99.4936V32.1722H96.9711Z" fill="#2C3135"/>
<path d="M94.2164 23.0677V25.1374H96.9574V32.1889H96.9711H99.5097V25.1374H102.234V23.0677H94.2164ZM94.2473 23.0993H102.206V25.106H99.4788V32.1575H96.9849V25.106H94.2473V23.0993Z" fill="#2C3135"/>
<path d="M83.698 32.1723V23.0842H85.7746L90.6921 29.1343H89.7111V23.0842H92.1826V32.1723H90.1061L85.1885 26.1222H86.1695V32.1723H83.698Z" fill="#2C3135"/>
<path d="M83.6813 23.0677V32.1889H83.6985H86.1856V27.3713L90.0998 32.1889H92.1993V23.0677H89.695V27.8853L85.7808 23.0677H83.6813ZM83.7121 23.0993H85.767L89.695 27.9307V29.1509H90.7241L89.7258 27.9238V23.0993H92.1684V32.1575H90.1135L86.1856 27.326V26.1058H85.1564L86.1547 27.3329V32.1575H83.7121V23.0993ZM85.2216 26.1373H86.1547V27.2875L85.2216 26.1373ZM89.7258 27.9692L90.659 29.1194H89.7258V27.9692Z" fill="#2C3135"/>
<path d="M76.3489 26.6026H80.4893V28.5241H76.3489V26.6026ZM76.5273 30.1859H81.19V32.1723H74.0303V23.0842H81.0244V25.0706H76.5273V30.1859Z" fill="#2C3135"/>
<path d="M74.0142 23.0677V32.1889H81.2045V30.1717H76.5425V28.539H80.5047V26.5882H76.5425V25.085H81.0399V23.0677H74.0142ZM74.045 23.0993H81.009V25.057H76.5116V26.5882H76.3332V26.6026V28.5394H76.5116V30.2H76.5288H81.1737V32.1577H74.0451L74.045 23.0993ZM76.3641 26.6163H76.5116V28.5076H76.3641V26.6163ZM76.5425 26.6163H80.4738V28.5076H76.5425V26.6163Z" fill="#2C3135"/>
<path d="M67.9678 32.354C67.2628 32.354 66.6089 32.2415 66.0059 32.0165C65.4113 31.7828 64.8933 31.4539 64.4516 31.0298C64.0185 30.6057 63.6787 30.108 63.4324 29.5367C63.1861 28.9568 63.063 28.3206 63.063 27.6282C63.063 26.9358 63.1861 26.304 63.4324 25.7327C63.6787 25.1528 64.0185 24.6508 64.4516 24.2267C64.8933 23.8026 65.4113 23.478 66.0059 23.253C66.6089 23.0193 67.2628 22.9025 67.9678 22.9025C68.7916 22.9025 69.5263 23.0496 70.1717 23.3439C70.8257 23.6382 71.3693 24.0622 71.8024 24.6162L70.1972 26.0962C69.9085 25.75 69.59 25.486 69.2417 25.3043C68.902 25.1225 68.5198 25.0317 68.0952 25.0317C67.73 25.0317 67.3945 25.0922 67.0887 25.2134C66.783 25.3346 66.5197 25.512 66.2989 25.7457C66.0865 25.9707 65.9167 26.2434 65.7893 26.5636C65.6704 26.8839 65.6109 27.2387 65.6109 27.6282C65.6109 28.0177 65.6704 28.3726 65.7893 28.6929C65.9167 29.0131 66.0865 29.2901 66.2989 29.5238C66.5197 29.7488 66.783 29.9219 67.0887 30.0431C67.3945 30.1643 67.73 30.2248 68.0952 30.2248C68.5198 30.2248 68.902 30.1339 69.2417 29.9522C69.59 29.7704 69.9085 29.5064 70.1972 29.1602L71.8024 30.6403C71.3693 31.1856 70.8257 31.6097 70.1717 31.9126C69.5263 32.2069 68.7916 32.354 67.9678 32.354Z" fill="#2C3135"/>
<path d="M67.9661 22.886C67.2596 22.886 66.6053 23.0047 66.0004 23.2391C65.4042 23.4648 64.8827 23.7889 64.4395 24.2145C64.005 24.64 63.6643 25.1466 63.4172 25.7282C63.17 26.3016 63.0468 26.9323 63.0468 27.6266C63.0468 28.3209 63.1701 28.9605 63.4172 29.5424C63.6643 30.1154 64.005 30.6167 64.4395 31.0422C64.8826 31.4677 65.4042 31.7972 66.0004 32.0316C66.6052 32.2573 67.2596 32.3707 67.9661 32.3707C68.7917 32.3707 69.5311 32.2219 70.1788 31.9267C70.8347 31.6228 71.3805 31.1978 71.8152 30.6506L71.822 30.6399L70.1959 29.1366L70.1856 29.1509C69.8979 29.4958 69.5816 29.7568 69.2353 29.9375C68.8979 30.118 68.5189 30.2102 68.0964 30.2102C67.7328 30.2102 67.3985 30.1488 67.0947 30.0284C66.7907 29.9079 66.5284 29.738 66.3091 29.5145C66.0981 29.2822 65.9316 29.0046 65.8048 28.6859C65.6866 28.3676 65.6264 28.0145 65.6264 27.6266C65.6264 27.2388 65.6866 26.8892 65.8048 26.5708C65.9316 26.2522 66.0982 25.9798 66.3091 25.7563C66.5284 25.5242 66.7908 25.3488 67.0947 25.2284C67.3985 25.1079 67.7328 25.0466 68.0964 25.0466C68.5189 25.0466 68.8979 25.1388 69.2353 25.3193C69.5816 25.5 69.8979 25.761 70.1856 26.1059L70.1959 26.1202L71.822 24.6169L71.8152 24.6062C71.3805 24.0504 70.8348 23.6254 70.1788 23.3301C69.5311 23.0349 68.7917 22.886 67.9661 22.886ZM67.9661 22.9175C68.7882 22.9175 69.5218 23.0648 70.1651 23.358C70.8115 23.6489 71.3476 24.0713 71.7774 24.6166L70.196 26.0744C69.9093 25.7339 69.5944 25.4715 69.2491 25.2913C68.9071 25.1083 68.5232 25.0151 68.0965 25.0151C67.7296 25.0151 67.3921 25.0785 67.0845 25.2004C66.7768 25.3223 66.5109 25.5 66.2886 25.7353C66.0748 25.9619 65.902 26.235 65.774 26.5569C65.6544 26.879 65.5956 27.2356 65.5956 27.6266C65.5956 28.0177 65.6544 28.3777 65.774 28.6999C65.902 29.0217 66.075 29.3003 66.2886 29.5355C66.5109 29.762 66.7769 29.9345 67.0845 30.0564C67.3921 30.1783 67.7296 30.2417 68.0965 30.2417C68.5232 30.2417 68.9071 30.1484 69.2491 29.9655C69.5944 29.7852 69.9093 29.5228 70.196 29.1824L71.7774 30.6402C71.3475 31.1771 70.8116 31.5993 70.1651 31.8988C69.5218 32.1921 68.7882 32.3393 67.9661 32.3393C67.2628 32.3393 66.612 32.2279 66.0107 32.0037C65.4179 31.7706 64.9038 31.4405 64.4636 31.0178C64.0318 30.5951 63.6902 30.1015 63.4447 29.532C63.1993 28.9541 63.0776 28.3172 63.0776 27.6266C63.0776 26.9361 63.1993 26.3079 63.4447 25.7388C63.6902 25.1606 64.0319 24.6617 64.4636 24.239C64.9037 23.8163 65.418 23.4915 66.0107 23.2671C66.6119 23.0341 67.2628 22.9175 67.9661 22.9175Z" fill="#2C3135"/>
<path fill-rule="evenodd" clip-rule="evenodd" d="M113.527 20.6682L117.602 11.2618H120.186L124.271 20.6682H121.53L120.814 18.8474H116.934L116.217 20.6682H113.551H113.527ZM120.03 16.8598L118.874 13.9201L117.718 16.8598H120.03Z" fill="#2C3135"/>
<path d="M109.059 20.6525V11.278H111.661V20.6525H109.059Z" fill="#2C3135"/>
<path d="M102.648 20.8399C101.894 20.8399 101.167 20.7462 100.466 20.5587C99.7744 20.3622 99.2093 20.1123 98.7712 19.8087L99.6254 17.8535C100.037 18.1213 100.51 18.3445 101.045 18.5231C101.588 18.6927 102.127 18.7775 102.661 18.7775C103.02 18.7775 103.309 18.7463 103.528 18.6838C103.747 18.6124 103.905 18.5231 104.001 18.4159C104.107 18.2998 104.159 18.1659 104.159 18.0141C104.159 17.7999 104.063 17.6302 103.87 17.5052C103.677 17.3802 103.428 17.2776 103.121 17.1972C102.814 17.1169 102.473 17.0366 102.096 16.9562C101.728 16.8759 101.356 16.7732 100.979 16.6481C100.611 16.5231 100.274 16.3624 99.9671 16.166C99.6605 15.9607 99.4108 15.6973 99.218 15.3759C99.0253 15.0455 98.9289 14.6303 98.9289 14.1304C98.9289 13.5679 99.0779 13.059 99.3757 12.6037C99.6824 12.1483 100.138 11.7823 100.742 11.5055C101.347 11.2287 102.1 11.0903 103.003 11.0903C103.607 11.0903 104.199 11.1618 104.777 11.3046C105.364 11.4386 105.885 11.6394 106.341 11.9073L105.539 13.8759C105.101 13.6349 104.667 13.4563 104.238 13.3402C103.809 13.2152 103.393 13.1527 102.99 13.1527C102.63 13.1527 102.341 13.1929 102.122 13.2732C101.903 13.3446 101.746 13.4428 101.649 13.5678C101.553 13.6928 101.505 13.8357 101.505 13.9964C101.505 14.2018 101.597 14.3669 101.781 14.4919C101.973 14.6079 102.223 14.7061 102.53 14.7866C102.845 14.858 103.187 14.9338 103.555 15.0142C103.931 15.0945 104.304 15.1972 104.672 15.3222C105.048 15.4383 105.39 15.5991 105.697 15.8044C106.003 16.0008 106.249 16.2642 106.433 16.5945C106.625 16.9159 106.722 17.3221 106.722 17.8132C106.722 18.3578 106.568 18.8623 106.262 19.3265C105.964 19.7819 105.513 20.1479 104.908 20.4247C104.313 20.7015 103.559 20.8399 102.648 20.8399Z" fill="#2C3135"/>
<path d="M103.001 11.0742C102.097 11.0742 101.344 11.2131 100.737 11.4911C100.131 11.7688 99.6717 12.138 99.3632 12.5961C99.0637 13.054 98.9131 13.5667 98.9131 14.132C98.9131 14.634 99.0119 15.0496 99.2064 15.3829C99.4002 15.7062 99.6514 15.9721 99.9599 16.1787C100.268 16.3758 100.604 16.5363 100.973 16.6617C101.35 16.7869 101.726 16.8905 102.094 16.9709C102.471 17.0513 102.811 17.1339 103.117 17.2142C103.423 17.2942 103.67 17.3962 103.861 17.5199C104.05 17.6427 104.144 17.8039 104.144 18.0134C104.144 18.1614 104.093 18.2924 103.99 18.406C103.897 18.5101 103.741 18.5992 103.523 18.6701C103.306 18.732 103.019 18.7605 102.66 18.7605C102.129 18.7605 101.592 18.6752 101.051 18.5068H101.048C100.515 18.3288 100.042 18.1061 99.6325 17.8396L99.6189 17.829L98.7528 19.8131L98.7631 19.8202C99.203 20.1251 99.7679 20.3775 100.461 20.5743C101.163 20.7621 101.892 20.8557 102.647 20.8557H102.664V20.8521C103.567 20.8504 104.32 20.7146 104.914 20.4386C105.521 20.1609 105.975 19.7918 106.275 19.3336C106.583 18.867 106.738 18.3593 106.738 17.8117C106.738 17.3185 106.64 16.9095 106.445 16.5851C106.26 16.2526 106.014 15.9871 105.705 15.7893C105.397 15.5832 105.054 15.4228 104.676 15.3063C104.307 15.1811 103.935 15.0775 103.557 14.9971C103.189 14.9166 102.85 14.8426 102.534 14.7712C102.23 14.6913 101.982 14.5936 101.791 14.4793C101.61 14.3566 101.522 14.1969 101.522 13.9963C101.522 13.8389 101.567 13.6983 101.661 13.5759C101.755 13.4543 101.911 13.3582 102.129 13.2874C102.345 13.2081 102.633 13.1693 102.991 13.1693C103.393 13.1693 103.804 13.2323 104.232 13.3569H104.236C104.664 13.4726 105.094 13.6481 105.532 13.8886L105.549 13.8993L106.36 11.9013L106.35 11.8942C105.893 11.6254 105.37 11.4238 104.781 11.2895C104.202 11.1463 103.607 11.0742 103.001 11.0742ZM103.001 11.1055C103.605 11.1055 104.197 11.1784 104.774 11.3209C105.355 11.4534 105.868 11.655 106.319 11.9186L105.531 13.8541C105.097 13.6164 104.668 13.4411 104.243 13.3259C103.812 13.2005 103.396 13.1382 102.991 13.1382C102.631 13.1382 102.34 13.1786 102.118 13.2599C101.897 13.332 101.736 13.4304 101.637 13.5588C101.539 13.6863 101.487 13.8327 101.487 13.9966C101.487 14.2067 101.583 14.3767 101.77 14.5039H101.774V14.5075C101.968 14.6246 102.22 14.7222 102.528 14.8029C102.843 14.8742 103.182 14.9484 103.55 15.0287C103.927 15.109 104.298 15.2131 104.665 15.338H104.669C105.044 15.4536 105.383 15.6131 105.688 15.8175C105.993 16.0126 106.235 16.2745 106.418 16.6028C106.609 16.9211 106.708 17.3231 106.708 17.812C106.708 18.3536 106.553 18.8547 106.248 19.3166C105.952 19.7691 105.503 20.1354 104.901 20.4112C104.308 20.6867 103.557 20.8247 102.647 20.8247C102.642 20.8247 102.638 20.8247 102.633 20.8247C101.886 20.8236 101.167 20.7292 100.472 20.5433C99.7863 20.3488 99.2286 20.102 98.794 19.8031L99.6328 17.8746C100.042 18.1391 100.512 18.3614 101.041 18.5383C101.586 18.7084 102.125 18.7919 102.661 18.7919C103.021 18.7919 103.312 18.7612 103.533 18.6982C103.754 18.6263 103.915 18.5373 104.014 18.4271C104.122 18.3085 104.175 18.169 104.175 18.0136C104.175 17.7945 104.074 17.6195 103.878 17.4924C103.683 17.3662 103.432 17.2638 103.124 17.1832C102.817 17.1027 102.475 17.0204 102.098 16.9399C101.731 16.8597 101.359 16.759 100.983 16.6341C100.616 16.5094 100.283 16.3503 99.9771 16.1546C99.6724 15.9505 99.422 15.6888 99.2304 15.3693C99.0394 15.042 98.944 14.6301 98.944 14.1322C98.944 13.5726 99.091 13.0666 99.3873 12.6138C99.692 12.1612 100.145 11.795 100.748 11.5191C101.35 11.2436 102.101 11.1055 103.001 11.1055Z" fill="#2C3135"/>
<path d="M91.8344 14.9072H96.1053V16.8893H91.8344V14.9072ZM92.0183 18.6035H96.8281V20.6525H89.4426V11.278H96.6572V13.327H92.0183V18.6035Z" fill="#2C3135"/>
<path d="M89.4272 11.2618V20.6682H96.8434V18.5868H92.0323V16.9049H96.1205V14.893H92.0323V13.3433H96.6729V11.2618H89.4272ZM89.4579 11.2932H96.6422V13.312H92.0016V14.8931H91.8175V14.9073V16.9053H92.0016V18.6184H92.0187H96.8128V20.6373H89.458L89.4579 11.2932ZM91.8481 14.9244H92.0016V16.8737H91.8481V14.9244ZM92.0323 14.9244H96.0898V16.8737H92.0323V14.9244Z" fill="#2C3135"/>
<path d="M80.2849 20.6525V11.278H82.8869V18.5499H87.2761V20.6525H80.2849Z" fill="#2C3135"/>
<path d="M80.2688 11.2618V20.6682H80.2859H87.2929V18.5346H82.9012V11.2618H80.2688ZM80.2995 11.2932H82.8704V18.566H87.2621V20.637H80.2995V11.2932Z" fill="#2C3135"/>
<path d="M73.6238 20.84C72.8967 20.84 72.2221 20.7239 71.6001 20.4918C70.978 20.2507 70.4392 19.9115 69.9837 19.474C69.5369 19.0365 69.1864 18.5231 68.9324 17.9339C68.6783 17.3357 68.5513 16.6794 68.5513 15.9652C68.5513 15.2509 68.6783 14.5992 68.9324 14.01C69.1864 13.4118 69.5413 12.8939 69.9968 12.4564C70.4524 12.019 70.9912 11.6842 71.6132 11.4521C72.244 11.211 72.9317 11.0905 73.6764 11.0905C74.5437 11.0905 75.3191 11.2378 76.0024 11.5324C76.6858 11.827 77.2508 12.2511 77.6976 12.8046L76.0418 14.3314C75.7264 13.9832 75.3848 13.7242 75.0168 13.5546C74.6576 13.376 74.2546 13.2868 73.8078 13.2868C73.4136 13.2868 73.0544 13.3493 72.7302 13.4743C72.4061 13.5993 72.1301 13.7823 71.9023 14.0233C71.6745 14.2554 71.4949 14.5367 71.3635 14.867C71.2409 15.1885 71.1795 15.5545 71.1795 15.9652C71.1795 16.358 71.2409 16.7196 71.3635 17.05C71.4949 17.3803 71.6745 17.666 71.9023 17.9071C72.1301 18.1392 72.4017 18.3223 72.7171 18.4562C73.0412 18.5812 73.396 18.6437 73.7815 18.6437C74.167 18.6437 74.5437 18.5812 74.9117 18.4562C75.2796 18.3223 75.652 18.099 76.0287 17.7865L77.4874 19.6481C76.9617 20.032 76.3528 20.3266 75.6607 20.532C74.9686 20.7373 74.2897 20.84 73.6238 20.84ZM75.1876 19.2999V15.7644H77.4874V19.6481L75.1876 19.2999Z" fill="#2C3135"/>
<path d="M73.6779 11.0742C72.9315 11.0742 72.2408 11.1937 71.6082 11.4356C70.9843 11.6684 70.4423 12.0043 69.9851 12.4433C69.5281 12.8822 69.1728 13.4034 68.9179 14.0035C68.6629 14.5949 68.536 15.2506 68.536 15.9667C68.536 16.6829 68.6629 17.3401 68.9179 17.9404C69.1727 18.5315 69.5232 19.0478 69.9715 19.4867C70.4286 19.9257 70.9708 20.2631 71.5945 20.5048V20.5084C72.2184 20.7412 72.8945 20.8559 73.6233 20.8559C74.2907 20.8559 74.9723 20.7523 75.6657 20.5466C76.3557 20.3419 76.9612 20.0461 77.4865 19.664L77.5036 19.6676V19.6533L77.5104 19.6498L77.5036 19.6391V15.7473H75.1714V18.2804C75.0834 18.3224 74.9928 18.4085 74.9054 18.4404C74.539 18.5649 74.164 18.628 73.7802 18.628C73.3964 18.628 73.0455 18.5647 72.7232 18.4404C72.4104 18.3075 72.141 18.1245 71.9151 17.8948C71.6887 17.6553 71.5071 17.3721 71.3764 17.0435H71.3799C71.2579 16.7151 71.1957 16.3575 71.1957 15.9663C71.1957 15.5572 71.2546 15.191 71.3764 14.8717C71.5072 14.5431 71.6855 14.2648 71.9118 14.0343H71.9153C72.1414 13.7949 72.4148 13.613 72.737 13.4887C73.0592 13.3646 73.415 13.3011 73.8077 13.3011C74.2524 13.3011 74.6544 13.3913 75.0113 13.5687C75.3771 13.7373 75.7166 13.9932 76.0308 14.3401L76.0411 14.3543L77.7187 12.8045L77.7084 12.7939C77.26 12.2384 76.6958 11.8142 76.0103 11.5186C75.3248 11.2231 74.5469 11.0742 73.6779 11.0742ZM73.6779 11.1055C74.5435 11.1055 75.3153 11.2532 75.9965 11.5468C76.6737 11.8388 77.2301 12.2614 77.6741 12.8082L76.0408 14.3093C75.7277 13.9668 75.3899 13.7097 75.0247 13.5414C74.6632 13.3617 74.2563 13.2703 73.8074 13.2703C73.4116 13.2703 73.0492 13.3322 72.7231 13.458C72.397 13.5837 72.1206 13.7712 71.8912 14.0139C71.6628 14.2473 71.4808 14.5306 71.349 14.8618C71.2256 15.1853 71.1649 15.5545 71.1649 15.9668C71.1649 16.3613 71.2257 16.7221 71.349 17.0544C71.4811 17.3865 71.662 17.6771 71.8912 17.9196C72.1204 18.1533 72.3924 18.3375 72.7095 18.4721H72.713C73.0391 18.5979 73.3931 18.6597 73.7802 18.6597C74.1674 18.6597 74.5462 18.5977 74.9157 18.4721C74.9999 18.4415 75.0868 18.3591 75.1714 18.3193V19.3131L75.185 19.3166L77.4354 19.6571C76.9201 20.0265 76.3295 20.3155 75.6556 20.5154C74.9647 20.7204 74.2876 20.8247 73.6234 20.8247C72.8978 20.8247 72.225 20.7087 71.6048 20.4772C70.9845 20.2368 70.4495 19.8986 69.9954 19.4626C69.5501 19.0265 69.1985 18.5141 68.9452 17.9267C68.6921 17.3306 68.5668 16.6792 68.5668 15.9669C68.5668 15.2546 68.6921 14.6046 68.9452 14.0175C69.1985 13.4212 69.555 12.9038 70.0091 12.4677C70.4631 12.0318 70.9982 11.6985 71.6185 11.467C72.2474 11.2267 72.9348 11.1055 73.6779 11.1055ZM75.202 15.7791H77.4729V19.6014L76.0306 17.7633L76.0203 17.7739C75.7445 18.0026 75.4725 18.1313 75.2019 18.2639L75.202 15.7791ZM76.0238 17.805L77.4524 19.6258L75.202 19.2887V18.2984C75.4744 18.1662 75.7471 18.033 76.0238 17.805Z" fill="#2C3135"/>
<path d="M63.4293 20.6512V11.2766H66.0313V20.6512H63.4293Z" fill="#2C3135"/>
<path fill-rule="evenodd" clip-rule="evenodd" d="M27.1189 54.9672C42.0962 54.9672 54.2377 42.6693 54.2377 27.4989C54.2377 12.3286 42.0962 0.0306396 27.1189 0.0306396C12.1415 0.0306396 0 12.3286 0 27.4989C0 42.6693 12.1415 54.9672 27.1189 54.9672ZM13.8484 20.7862V21.8263V39.5283H26.1906V41.6011H28.2426V39.5283H40.5864V20.7862H30.2891V22.8684H38.5307V37.4461H28.2426V16.6588H32.3468V14.5803H28.2426V10.4233H26.1906V14.5803H22.0864V16.6588H26.1906V37.4461H15.9037V22.8684H24.1481V20.7862H13.8484ZM24.1385 24.9729H17.9822V27.0515H24.1385V24.9729ZM30.2947 24.9729H36.451V27.0515H30.2947V24.9729ZM24.1385 29.13H17.9822V31.2085H24.1385V29.13ZM30.2947 29.13H36.451V31.2085H30.2947V29.13ZM24.1385 33.287H17.9822V35.3656H24.1385V33.287ZM30.2947 33.287H36.451V35.3656H30.2947V33.287Z" fill="#458BD0"/>
</svg>
